<svg width="229" height="229" viewBox="0 0 229 229" fill="none" xmlns="http://www.w3.org/2000/svg">
<g filter="url(#filter0_d)">
<rect x="225.001" y="221" width="221" height="221" transform="rotate(-180 225.001 221)" fill="#8C4357"/>
<rect x="222.501" y="218.5" width="216" height="216" transform="rotate(-180 222.501 218.5)" stroke="white" stroke-width="5"/>
</g>
<path d="M101.112 65.5557C95.9211 65.5557 91.6156 69.1147 90.3829 73.9237C90.244 73.9237 90.1399 73.889 90.001 73.889C83.8725 73.889 78.8899 78.8716 78.8899 85.0001C78.8899 85.8334 78.994 86.6494 79.185 87.4307C74.1156 89.514 70.5565 94.4793 70.5565 100.278C70.5565 102.465 71.1121 104.497 71.9975 106.337C67.8308 108.733 65.001 113.177 65.001 118.333C65.001 124.115 68.5426 129.08 73.5774 131.163C73.4211 131.962 73.3343 132.778 73.3343 133.611C73.3343 140.521 78.9246 146.111 85.8343 146.111C86.5461 146.111 87.2406 146.024 87.9176 145.903C89.5843 150.851 94.2024 154.445 99.7232 154.445C106.633 154.445 112.223 148.854 112.223 141.945V76.6668C112.223 70.5383 107.241 65.5557 101.112 65.5557ZM165.001 118.333C165.001 113.177 162.171 108.733 158.004 106.337C158.907 104.497 159.445 102.465 159.445 100.278C159.445 94.4793 155.886 89.514 150.817 87.4307C150.991 86.6494 151.112 85.8334 151.112 85.0001C151.112 78.8716 146.129 73.889 140.001 73.889C139.862 73.889 139.741 73.9237 139.619 73.9237C138.386 69.1147 134.081 65.5557 128.89 65.5557C122.761 65.5557 117.779 70.5209 117.779 76.6668V141.945C117.779 148.854 123.369 154.445 130.279 154.445C135.8 154.445 140.418 150.851 142.084 145.903C142.761 146.024 143.456 146.111 144.168 146.111C151.077 146.111 156.668 140.521 156.668 133.611C156.668 132.778 156.581 131.962 156.425 131.163C161.459 129.08 165.001 124.115 165.001 118.333Z" fill="#C196A0"/>
<defs>
<filter id="filter0_d" x="0.000976562" y="0" width="229" height="229" filterUnits="userSpaceOnUse" color-interpolation-filters="sRGB">
<feFlood flood-opacity="0" result="BackgroundImageFix"/>
<feColorMatrix in="SourceAlpha" type="matrix" values="0 0 0 0 0 0 0 0 0 0 0 0 0 0 0 0 0 0 127 0" result="hardAlpha"/>
<feOffset dy="4"/>
<feGaussianBlur stdDeviation="2"/>
<feComposite in2="hardAlpha" operator="out"/>
<feColorMatrix type="matrix" values="0 0 0 0 0 0 0 0 0 0 0 0 0 0 0 0 0 0 0.15 0"/>
<feBlend mode="normal" in2="BackgroundImageFix" result="effect1_dropShadow"/>
<feBlend mode="normal" in="SourceGraphic" in2="effect1_dropShadow" result="shape"/>
</filter>
</defs>
</svg>
