<svg width="229" height="229" viewBox="0 0 229 229" fill="none" xmlns="http://www.w3.org/2000/svg">
<g filter="url(#filter0_d)">
<rect x="225" y="221" width="221" height="221" transform="rotate(-180 225 221)" fill="#C196A0"/>
<rect x="222.5" y="218.5" width="216" height="216" transform="rotate(-180 222.5 218.5)" stroke="white" stroke-width="5"/>
</g>
<path d="M164.426 102.266L151.852 123.821C150.874 125.498 149.473 126.89 147.789 127.857C146.105 128.824 144.197 129.333 142.255 129.333H72.8168C69.601 129.333 67.5974 125.845 69.2177 123.067L81.7913 101.512C82.7698 99.8349 84.1709 98.4432 85.8549 97.476C87.5389 96.5088 89.4469 95.9998 91.3889 95.9998H160.827C164.043 95.9998 166.047 99.4882 164.426 102.266ZM91.3889 90.4443H148.333V82.111C148.333 77.5085 144.602 73.7776 140 73.7776H112.222L101.111 62.6665H73.3333C68.7309 62.6665 65 66.3974 65 70.9998V119.272L76.9925 98.713C79.9677 93.6127 85.4842 90.4443 91.3889 90.4443Z" fill="#8C4357"/>
<path d="M38.4453 158.65V167H35.7646V145.672H42.5615C44.5439 145.672 46.1016 146.268 47.2344 147.459C48.3672 148.641 48.9336 150.218 48.9336 152.19C48.9336 154.241 48.3916 155.823 47.3076 156.937C46.2334 158.04 44.7148 158.611 42.752 158.65H38.4453ZM38.4453 156.351H42.5615C43.7529 156.351 44.666 155.994 45.3008 155.281C45.9355 154.568 46.2529 153.548 46.2529 152.22C46.2529 150.94 45.9258 149.915 45.2715 149.144C44.6172 148.372 43.7188 147.986 42.5762 147.986H38.4453V156.351ZM54.8369 167H52.2441V144.5H54.8369V167ZM67.083 167C66.9268 166.658 66.8145 166.082 66.7461 165.271C65.8281 166.619 64.6562 167.293 63.2305 167.293C61.7949 167.293 60.6719 166.893 59.8613 166.092C59.0605 165.281 58.6602 164.144 58.6602 162.679C58.6602 161.067 59.207 159.788 60.3008 158.841C61.3945 157.894 62.8936 157.41 64.7979 157.391H66.7021V155.706C66.7021 154.759 66.4922 154.085 66.0723 153.685C65.6523 153.284 65.0127 153.084 64.1533 153.084C63.3721 153.084 62.7373 153.318 62.249 153.787C61.7607 154.246 61.5166 154.832 61.5166 155.545H58.9238C58.9238 154.734 59.1631 153.963 59.6416 153.23C60.1201 152.488 60.7646 151.907 61.5752 151.487C62.3857 151.067 63.2891 150.857 64.2852 150.857C65.9062 150.857 67.1367 151.263 67.9766 152.073C68.8262 152.874 69.2607 154.046 69.2803 155.589V163.587C69.29 164.808 69.4561 165.867 69.7783 166.766V167H67.083ZM63.626 164.935C64.2607 164.935 64.8662 164.759 65.4424 164.407C66.0186 164.056 66.4385 163.616 66.7021 163.089V159.31H65.2373C64.0068 159.329 63.0352 159.607 62.3223 160.145C61.6094 160.672 61.2529 161.414 61.2529 162.371C61.2529 163.27 61.4336 163.924 61.7949 164.334C62.1562 164.734 62.7666 164.935 63.626 164.935ZM78.8164 165.081C79.6758 165.081 80.3643 164.817 80.8818 164.29C81.3994 163.753 81.6826 162.991 81.7314 162.005H84.1777C84.1191 163.528 83.5771 164.793 82.5518 165.799C81.5361 166.795 80.291 167.293 78.8164 167.293C76.8535 167.293 75.3545 166.678 74.3193 165.447C73.2939 164.207 72.7812 162.366 72.7812 159.925V158.182C72.7812 155.789 73.2939 153.973 74.3193 152.732C75.3447 151.482 76.8389 150.857 78.8018 150.857C80.4229 150.857 81.707 151.37 82.6543 152.396C83.6113 153.421 84.1191 154.822 84.1777 156.6H81.7314C81.6729 155.428 81.3896 154.549 80.8818 153.963C80.3838 153.377 79.6904 153.084 78.8018 153.084C77.6494 153.084 76.7949 153.465 76.2383 154.227C75.6816 154.979 75.3936 156.219 75.374 157.947V159.969C75.374 161.834 75.6475 163.152 76.1943 163.924C76.751 164.695 77.625 165.081 78.8164 165.081ZM92.835 167.293C90.8623 167.293 89.3486 166.707 88.2939 165.535C87.2393 164.354 86.7021 162.625 86.6826 160.35V158.431C86.6826 156.067 87.1953 154.217 88.2207 152.879C89.2559 151.531 90.6963 150.857 92.542 150.857C94.3975 150.857 95.7842 151.448 96.7021 152.63C97.6201 153.812 98.0889 155.652 98.1084 158.152V159.852H89.2607V160.218C89.2607 161.917 89.5781 163.152 90.2129 163.924C90.8574 164.695 91.7803 165.081 92.9814 165.081C93.7432 165.081 94.4121 164.939 94.9883 164.656C95.5742 164.363 96.1211 163.904 96.6289 163.279L97.9766 164.92C96.8535 166.502 95.1396 167.293 92.835 167.293ZM92.542 153.084C91.4678 153.084 90.6719 153.455 90.1543 154.197C89.6367 154.93 89.3438 156.072 89.2754 157.625H95.5156V157.273C95.4473 155.77 95.1738 154.695 94.6953 154.051C94.2266 153.406 93.5088 153.084 92.542 153.084ZM103.821 152.776C104.808 151.497 106.067 150.857 107.601 150.857C110.403 150.857 111.824 152.728 111.863 156.468V167H109.285V156.585C109.285 155.345 109.075 154.466 108.655 153.948C108.245 153.421 107.625 153.157 106.795 153.157C106.15 153.157 105.569 153.372 105.052 153.802C104.544 154.231 104.134 154.793 103.821 155.486V167H101.229V144.5H103.821V152.776ZM115.188 158.343C115.188 156.038 115.745 154.217 116.858 152.879C117.981 151.531 119.461 150.857 121.297 150.857C123.133 150.857 124.607 151.512 125.721 152.82C126.844 154.129 127.42 155.911 127.449 158.167V159.837C127.449 162.132 126.893 163.948 125.779 165.286C124.666 166.624 123.182 167.293 121.326 167.293C119.49 167.293 118.016 166.644 116.902 165.345C115.799 164.046 115.228 162.288 115.188 160.071V158.343ZM117.781 159.837C117.781 161.468 118.099 162.752 118.733 163.689C119.378 164.617 120.242 165.081 121.326 165.081C123.611 165.081 124.788 163.431 124.856 160.13V158.343C124.856 156.722 124.534 155.442 123.89 154.505C123.245 153.558 122.381 153.084 121.297 153.084C120.232 153.084 119.378 153.558 118.733 154.505C118.099 155.442 117.781 156.717 117.781 158.328V159.837ZM133.587 167H130.994V144.5H133.587V167ZM137.132 158.357C137.132 155.916 137.586 154.056 138.494 152.776C139.412 151.497 140.726 150.857 142.435 150.857C143.948 150.857 145.13 151.473 145.979 152.703V144.5H148.572V167H146.199L146.067 165.301C145.218 166.629 144.002 167.293 142.42 167.293C140.779 167.293 139.49 166.658 138.553 165.389C137.625 164.109 137.151 162.308 137.132 159.983V158.357ZM139.725 159.837C139.725 161.614 139.988 162.923 140.516 163.763C141.043 164.593 141.902 165.008 143.094 165.008C144.383 165.008 145.345 164.358 145.979 163.06V155.062C145.315 153.792 144.358 153.157 143.108 153.157C141.917 153.157 141.058 153.577 140.53 154.417C140.003 155.247 139.734 156.526 139.725 158.255V159.837ZM158.226 167.293C156.253 167.293 154.739 166.707 153.685 165.535C152.63 164.354 152.093 162.625 152.073 160.35V158.431C152.073 156.067 152.586 154.217 153.611 152.879C154.646 151.531 156.087 150.857 157.933 150.857C159.788 150.857 161.175 151.448 162.093 152.63C163.011 153.812 163.479 155.652 163.499 158.152V159.852H154.651V160.218C154.651 161.917 154.969 163.152 155.604 163.924C156.248 164.695 157.171 165.081 158.372 165.081C159.134 165.081 159.803 164.939 160.379 164.656C160.965 164.363 161.512 163.904 162.02 163.279L163.367 164.92C162.244 166.502 160.53 167.293 158.226 167.293ZM157.933 153.084C156.858 153.084 156.062 153.455 155.545 154.197C155.027 154.93 154.734 156.072 154.666 157.625H160.906V157.273C160.838 155.77 160.564 154.695 160.086 154.051C159.617 153.406 158.899 153.084 157.933 153.084ZM173.167 153.582C172.806 153.514 172.415 153.479 171.995 153.479C170.667 153.479 169.739 154.207 169.212 155.662V167H166.619V151.15H169.139L169.183 152.762C169.876 151.492 170.857 150.857 172.127 150.857C172.537 150.857 172.879 150.926 173.152 151.062L173.167 153.582ZM194.349 167H182.425V165.052L188.504 156.995C189.422 155.755 190.057 154.739 190.408 153.948C190.77 153.147 190.95 152.303 190.95 151.414C190.95 150.281 190.687 149.363 190.159 148.66C189.632 147.957 188.938 147.605 188.079 147.605C186.995 147.605 186.155 147.981 185.56 148.733C184.974 149.476 184.681 150.55 184.681 151.956H182.088C182.088 149.993 182.625 148.406 183.699 147.195C184.773 145.984 186.233 145.379 188.079 145.379C189.778 145.379 191.116 145.901 192.093 146.946C193.069 147.981 193.558 149.363 193.558 151.092C193.558 153.201 192.459 155.696 190.262 158.577L185.516 164.788H194.349V167Z" fill="#8C4357"/>
<defs>
<filter id="filter0_d" x="0" y="0" width="229" height="229" filterUnits="userSpaceOnUse" color-interpolation-filters="sRGB">
<feFlood flood-opacity="0" result="BackgroundImageFix"/>
<feColorMatrix in="SourceAlpha" type="matrix" values="0 0 0 0 0 0 0 0 0 0 0 0 0 0 0 0 0 0 127 0" result="hardAlpha"/>
<feOffset dy="4"/>
<feGaussianBlur stdDeviation="2"/>
<feComposite in2="hardAlpha" operator="out"/>
<feColorMatrix type="matrix" values="0 0 0 0 0 0 0 0 0 0 0 0 0 0 0 0 0 0 0.15 0"/>
<feBlend mode="normal" in2="BackgroundImageFix" result="effect1_dropShadow"/>
<feBlend mode="normal" in="SourceGraphic" in2="effect1_dropShadow" result="shape"/>
</filter>
</defs>
</svg>
