<svg width="229" height="229" viewBox="0 0 229 229" fill="none" xmlns="http://www.w3.org/2000/svg">
<g filter="url(#filter0_d)">
<rect x="225" y="221" width="221" height="221" transform="rotate(-180 225 221)" fill="#C196A0"/>
<rect x="222.5" y="218.5" width="216" height="216" transform="rotate(-180 222.5 218.5)" stroke="white" stroke-width="5"/>
</g>
<path d="M164.426 116.266L151.852 137.821C150.874 139.498 149.473 140.89 147.789 141.857C146.105 142.825 144.197 143.333 142.255 143.333H72.8168C69.601 143.333 67.5974 139.845 69.2177 137.067L81.7913 115.513C82.7698 113.835 84.1709 112.443 85.8549 111.476C87.5389 110.509 89.4469 110 91.3889 110H160.827C164.043 110 166.047 113.488 164.426 116.266ZM91.3889 104.445H148.333V96.1112C148.333 91.5088 144.602 87.7779 140 87.7779H112.222L101.111 76.6667H73.3333C68.7309 76.6667 65 80.3977 65 85.0001V133.272L76.9925 112.713C79.9677 107.613 85.4842 104.445 91.3889 104.445Z" fill="#8C4357"/>
<defs>
<filter id="filter0_d" x="0" y="0" width="229" height="229" filterUnits="userSpaceOnUse" color-interpolation-filters="sRGB">
<feFlood flood-opacity="0" result="BackgroundImageFix"/>
<feColorMatrix in="SourceAlpha" type="matrix" values="0 0 0 0 0 0 0 0 0 0 0 0 0 0 0 0 0 0 127 0" result="hardAlpha"/>
<feOffset dy="4"/>
<feGaussianBlur stdDeviation="2"/>
<feComposite in2="hardAlpha" operator="out"/>
<feColorMatrix type="matrix" values="0 0 0 0 0 0 0 0 0 0 0 0 0 0 0 0 0 0 0.15 0"/>
<feBlend mode="normal" in2="BackgroundImageFix" result="effect1_dropShadow"/>
<feBlend mode="normal" in="SourceGraphic" in2="effect1_dropShadow" result="shape"/>
</filter>
</defs>
</svg>
