<svg width="229" height="229" viewBox="0 0 229 229" fill="none" xmlns="http://www.w3.org/2000/svg">
<g filter="url(#filter0_d)">
<rect x="225" y="221" width="221" height="221" transform="rotate(-180 225 221)" fill="#8C4357"/>
<rect x="222.5" y="218.5" width="216" height="216" transform="rotate(-180 222.5 218.5)" stroke="white" stroke-width="5"/>
</g>
<path d="M89.5367 28.5186C80.0199 28.5186 72.1264 35.0434 69.8666 43.86C69.6119 43.86 69.421 43.7963 69.1663 43.7963C57.9308 43.7963 48.796 52.9312 48.796 64.1667C48.796 65.6945 48.9869 67.1904 49.3371 68.6227C40.0431 72.4422 33.5182 81.5452 33.5182 92.176C33.5182 96.1864 34.5367 99.9103 36.16 103.284C28.5211 107.677 23.333 115.825 23.333 125.278C23.333 135.877 29.8261 144.98 39.0564 148.799C38.7699 150.263 38.6108 151.759 38.6108 153.287C38.6108 165.955 48.8596 176.204 61.5275 176.204C62.8324 176.204 64.1056 176.045 65.3469 175.822C68.4025 184.893 76.8689 191.482 86.9904 191.482C99.6582 191.482 109.907 181.233 109.907 168.565V48.8889C109.907 37.6534 100.772 28.5186 89.5367 28.5186ZM206.666 125.278C206.666 115.825 201.478 107.677 193.839 103.284C195.494 99.9103 196.481 96.1864 196.481 92.176C196.481 81.5452 189.956 72.4422 180.662 68.6227C180.981 67.1904 181.203 65.6945 181.203 64.1667C181.203 52.9312 172.069 43.7963 160.833 43.7963C160.578 43.7963 160.356 43.86 160.133 43.86C157.873 35.0434 149.979 28.5186 140.463 28.5186C129.227 28.5186 120.092 37.6216 120.092 48.8889V168.565C120.092 181.233 130.341 191.482 143.009 191.482C153.13 191.482 161.597 184.893 164.652 175.822C165.894 176.045 167.167 176.204 168.472 176.204C181.14 176.204 191.389 165.955 191.389 153.287C191.389 151.759 191.229 150.263 190.943 148.799C200.173 144.98 206.666 135.877 206.666 125.278Z" fill="#C196A0"/>
<path d="M69.6237 61.53C74.3837 60 79.1437 58.47 84.2437 57.96C89.3437 57.45 94.4437 57.45 99.5437 58.81C100.054 58.98 100.564 59.15 101.074 59.49C99.2037 59.15 97.3337 58.81 95.4637 58.47C92.4037 57.96 89.1737 58.13 86.1137 58.3C80.8437 58.81 75.7437 59.83 70.9837 61.36C70.6437 61.53 70.1337 61.53 69.7937 61.7L69.6237 61.53ZM28.8237 99.78C29.1637 99.27 29.3337 98.76 29.5037 98.25C30.6937 96.72 31.7137 95.02 32.9037 93.32C33.4137 92.64 33.9237 92.13 34.4337 91.45C34.6037 91.11 34.9437 90.94 34.7737 90.43C34.7737 90.26 34.7737 90.09 34.9437 89.92C36.3037 88.73 37.3237 87.37 38.6837 86.18C40.0437 84.99 41.2337 83.63 42.5937 82.61C48.8837 77.34 55.8537 72.41 63.5037 69.18C71.6637 64.76 82.3737 60.85 91.8937 60.85C97.5037 60.85 103.284 62.38 107.874 65.78C109.404 67.14 110.764 68.67 111.954 70.71C109.914 71.56 107.704 72.24 105.664 73.09C103.624 73.94 101.584 74.62 99.5437 75.47C97.5037 76.15 95.4637 77 93.4237 77.85C91.3837 78.7 89.3437 79.55 87.3037 80.4C83.2237 81.76 78.9737 83.46 75.0637 85.33C73.0237 86.18 70.9837 87.03 68.9437 87.88V88.05C69.7937 87.71 70.4737 87.54 71.3237 87.2C77.4437 85.16 83.7337 82.95 90.0237 80.74C97.3337 78.19 104.814 75.47 112.124 73.09C112.464 73.09 112.804 72.75 113.144 73.26C112.974 73.43 112.804 73.6 112.634 73.77C111.104 74.28 109.744 74.79 108.384 75.13C106.854 75.64 105.664 76.32 104.304 77C103.964 77.17 103.624 77.68 102.944 77.17C102.774 77 102.434 77.17 102.264 77.17C98.8637 78.36 95.6337 79.55 92.2337 80.74C91.5537 81.08 90.7037 81.08 89.8537 81.25C89.0037 81.42 88.1537 81.76 87.3037 81.93C81.3537 84.14 75.4037 86.35 69.4537 88.39C63.3337 90.6 57.0437 92.98 50.9237 95.02C45.8237 96.72 40.8937 98.42 35.7937 99.44C33.9237 99.78 32.0537 99.95 30.1837 99.95L28.8237 99.78ZM72.5137 62.89C73.7037 62.38 74.8937 61.7 76.4237 61.7C75.9137 62.21 74.0437 62.72 72.5137 62.89ZM114.164 72.41C115.354 72.07 116.374 71.73 117.394 71.39C121.304 70.03 125.384 68.84 129.294 67.82C130.654 67.65 131.844 66.97 133.204 66.8C135.244 66.63 137.114 66.12 138.984 65.95C148.504 64.08 157.854 63.06 167.544 63.06C169.924 63.06 172.474 63.4 175.024 63.57C177.064 63.91 179.104 64.25 181.314 64.59C181.484 64.59 181.484 64.59 181.654 64.76C180.974 64.76 180.464 64.59 179.784 64.59C176.894 64.25 174.004 63.91 171.114 63.74C167.714 63.57 164.144 63.57 160.574 63.74C150.034 63.74 139.664 66.29 129.464 68.84C127.424 69.35 125.384 70.03 123.344 70.54C123.174 70.71 122.834 70.71 122.494 70.88C119.944 71.22 117.564 72.07 115.184 72.92C114.844 72.92 114.504 73.26 114.164 72.41ZM143.064 63.57V63.4C143.234 63.4 143.574 63.4 143.914 63.57H143.064ZM69.1137 65.1L68.9437 64.93L69.4537 64.42L69.6237 64.59L69.1137 65.1ZM164.994 66.97C165.164 66.97 165.334 67.14 165.504 67.14C165.674 67.31 165.674 67.14 165.844 67.14C165.674 66.8 165.334 66.63 164.994 66.97ZM182.164 67.31C182.844 67.14 183.524 67.31 184.374 67.65C183.524 67.65 182.844 67.48 182.164 67.31ZM53.6437 71.56L52.6237 72.24L53.1337 72.75C52.9637 73.6 52.4537 74.11 51.7737 74.62C50.4137 75.47 49.0537 76.49 47.8637 77.34C47.6937 77.34 47.6937 77.51 47.5237 77.51C44.6337 78.7 42.4237 80.74 40.0437 82.95C37.8337 84.82 35.6237 87.03 33.4137 89.07C33.2437 89.24 33.0737 89.41 32.7337 89.41C33.2437 88.9 33.5837 88.39 33.9237 87.88C34.4337 87.37 35.1137 86.86 35.2837 86.18C35.2837 86.01 35.6237 85.84 35.6237 85.67C36.4737 85.16 36.9837 84.31 37.4937 83.63C36.6437 84.31 35.7937 84.99 34.9437 85.67C34.4337 86.01 34.0937 86.18 33.7537 86.52C33.4137 86.69 33.2437 86.69 32.9037 86.86C31.8837 87.88 30.8637 88.9 29.8437 90.09C28.8237 91.11 27.9737 92.3 26.9537 93.49C27.4637 92.13 28.3137 91.11 28.9937 90.09C31.2037 87.03 33.9237 84.31 36.6437 81.59C37.3237 81.08 38.0037 80.57 38.5137 79.89C38.8537 79.55 39.1937 79.04 39.5337 78.53C40.2137 77.51 41.4037 77 42.2537 76.49L42.4237 76.66L41.4037 77.85L41.5737 78.02C43.1037 76.83 44.6337 75.81 46.1637 74.79C48.8837 72.58 52.6237 70.03 55.8537 68.84C55.3437 69.52 54.4937 69.86 53.8137 70.37C53.4737 70.54 53.1337 70.71 53.1337 71.05L53.6437 71.56ZM53.1337 71.05C52.9637 71.22 52.6237 71.22 52.4537 71.39C52.6237 71.22 52.9637 71.22 53.1337 71.05ZM28.3137 85.67C30.6937 83.29 33.0737 80.91 35.4537 78.53C36.3037 77.85 37.1537 77 38.0037 76.32C38.3437 75.98 38.6837 75.81 39.0237 75.64C39.5337 75.3 39.8737 74.79 40.2137 74.45C40.5537 74.11 40.8937 73.94 41.2337 73.77C41.4037 73.77 41.7437 73.94 42.0837 74.11C41.9137 74.28 41.9137 74.45 41.7437 74.62C41.0637 75.47 40.3837 76.15 39.5337 76.83C38.0037 78.19 36.1337 79.55 34.4337 80.91C33.5837 81.59 32.5637 82.1 31.7137 82.95C30.8637 83.63 30.0137 84.48 29.1637 85.33C28.9937 85.5 28.6537 85.5 28.3137 85.67ZM99.5437 78.87C99.8837 78.7 100.054 78.36 100.564 78.53C100.394 78.87 99.8837 78.87 99.5437 78.87ZM99.5437 78.87C99.8837 79.04 100.054 79.21 100.224 79.21C99.2037 79.72 98.0137 80.23 96.8237 80.57C96.8237 80.74 96.6537 80.91 96.4837 81.08C96.6537 81.08 96.6537 81.42 96.6537 81.42C96.3137 81.76 96.1437 82.61 95.4637 82.78C93.7637 83.46 92.0637 84.14 90.3637 84.82C89.6837 84.99 89.0037 85.16 88.4937 85.33C88.3237 85.5 88.1537 85.5 87.9837 85.5C86.4537 86.69 84.5837 87.2 83.0537 88.39C82.2037 89.24 81.0137 89.58 79.8237 90.09L79.6537 89.92C80.1637 89.41 80.6737 88.9 81.1837 88.73C82.5437 87.88 83.9037 87.03 85.4337 86.35C85.9437 86.01 86.6237 85.67 87.1337 84.99H85.7737C85.7737 84.82 85.7737 84.65 85.9437 84.48C87.3037 83.8 88.8337 83.12 90.1937 82.44C91.2137 82.1 91.3837 82.1 92.2337 82.27L94.7837 80.74L95.1237 81.59C95.2937 81.25 95.2937 81.08 95.2937 80.91C95.2937 80.57 95.4637 80.4 95.8037 80.23C96.1437 80.06 96.4837 79.89 96.8237 79.72C97.3337 79.55 97.8437 79.55 98.1837 79.38L99.5437 78.87ZM95.8037 81.25C96.3137 81.42 96.4837 81.25 96.4837 81.08C96.3137 81.08 96.1437 81.08 95.8037 81.25ZM95.1237 81.59H95.2937C95.1237 81.76 95.1237 81.76 95.1237 81.76C95.2937 81.76 95.2937 81.59 95.2937 81.59H95.1237ZM37.6637 83.46C37.8337 83.29 38.1737 83.12 38.1737 82.78C38.0037 82.95 37.8337 83.29 37.4937 83.46H37.6637ZM37.4937 83.46C37.4937 83.63 37.4937 83.63 37.4937 83.63V83.46ZM33.5837 87.2H33.4137L33.7537 86.69L33.5837 87.2ZM128.104 86.86C128.274 86.86 128.274 86.86 128.274 86.86C128.274 87.03 128.104 87.03 128.104 87.2V86.86ZM65.2037 95.7C65.0337 96.21 64.6937 96.21 64.3537 96.38C61.4637 97.4 58.5737 98.59 55.6837 99.61C54.1537 100.12 52.6237 100.8 51.0937 101.31C50.4137 101.65 49.5637 101.82 48.8837 101.99C48.5437 102.16 48.2037 102.33 47.6937 102.5C47.1837 102.67 46.6737 102.67 46.1637 102.84C45.9937 103.01 45.4837 102.84 45.6537 103.35C45.8237 103.52 45.4837 103.69 45.3137 103.69C43.9537 104.03 42.4237 104.37 40.8937 104.88C40.2137 104.88 39.5337 105.05 39.0237 105.22C38.6837 105.22 38.1737 105.22 37.8337 105.22C37.8337 104.71 38.1737 104.71 38.5137 104.54C39.0237 104.54 39.5337 104.37 40.0437 104.2C39.7037 103.01 39.5337 102.84 38.5137 103.01C36.4737 103.18 34.6037 103.35 32.5637 103.52C31.7137 103.52 30.6937 103.35 29.8437 103.18C29.5037 103.01 29.1637 102.84 28.8237 102.67V102.5C29.1637 102.5 29.5037 102.33 29.8437 102.33C32.9037 102.5 35.7937 101.82 38.6837 101.31C42.5937 100.29 46.5037 99.27 50.0737 97.57C50.4137 97.57 50.7537 97.4 50.9237 97.23C51.4337 96.38 52.2837 96.04 53.1337 95.7C55.0037 94.85 56.7037 94.17 58.5737 93.49C58.9137 93.32 59.4237 93.15 59.9337 93.15C59.5937 93.83 58.9137 93.83 58.5737 94.51C59.0837 94.34 59.7637 94.17 60.2737 93.83C64.5237 92.13 68.7737 90.43 73.0237 88.73C73.3637 88.56 73.7037 88.39 73.8737 88.05C74.0437 87.71 75.0637 87.2 75.9137 87.03L74.8937 87.88H76.2537L68.9437 91.11C69.1137 91.28 69.1137 91.45 69.2837 91.79C67.2437 92.98 65.3737 94.34 63.6737 96.04L65.2037 95.7ZM76.0837 91.62C76.7637 90.94 77.7837 90.77 78.4637 90.43L78.6337 90.6L76.0837 91.62ZM75.2337 91.96V91.79L76.0837 91.62L75.2337 91.96ZM69.6237 94C69.7937 93.49 70.4737 93.49 70.9837 93.32C70.9837 93.49 70.9837 93.49 71.1537 93.66L69.6237 94ZM69.4537 94C69.2837 94.17 69.1137 94.34 68.9437 94.51C67.9237 94.85 67.0737 95.19 66.0537 95.53C65.7137 95.7 65.5437 95.87 65.2037 95.7L66.7337 94.85C67.2437 94.68 67.7537 94.34 68.2637 94.17C68.6037 94 69.1137 94 69.4537 94ZM25.7637 96.38H25.5937V95.7H25.9337L25.7637 96.38ZM47.5237 103.18L47.3537 103.01L47.6937 102.5L47.5237 103.18ZM40.5537 103.35V103.18C40.5537 103.18 40.3837 103.35 40.3837 103.52C40.3837 103.35 40.5537 103.35 40.5537 103.35ZM38.6837 103.86L39.0237 103.69C39.0237 103.86 39.0237 103.86 38.6837 103.86ZM36.9837 104.88V105.22V104.88ZM32.2237 105.22C32.2237 105.05 32.3937 105.05 32.5637 105.05C32.5637 105.05 32.5637 105.05 32.5637 105.22H32.2237ZM97.3337 147.55C97.1637 148.06 96.9937 148.57 96.8237 149.25C95.8037 153.5 94.1037 157.41 92.7437 161.49C92.4037 162.85 91.8937 164.21 91.3837 165.4C91.3837 165.74 91.2137 165.91 91.0437 166.25C91.0437 165.06 91.5537 164.21 91.7237 163.19C91.5537 163.02 91.5537 163.02 91.3837 163.02C91.0437 164.21 90.7037 165.57 90.3637 166.76C89.8537 167.95 89.8537 169.31 89.0037 170.33H88.8337C88.8337 169.82 89.0037 169.31 89.0037 168.97C89.5137 167.1 90.0237 165.23 90.5337 163.53C90.5337 163.02 90.7037 162.68 90.3637 162.34C90.3637 162.17 90.3637 161.83 90.3637 161.49C90.7037 160.47 90.8737 159.28 91.2137 158.26C91.5537 157.24 91.8937 156.22 92.2337 155.2C92.2337 155.03 92.4037 154.86 92.5737 154.52L92.9137 155.37C93.4237 154.18 93.9337 153.33 94.2737 152.31C94.4437 151.63 94.7837 150.78 95.1237 150.1C95.2937 149.93 95.2937 149.59 95.4637 149.42C96.1437 149.08 96.3137 148.57 96.4837 147.89C96.4837 147.72 96.8237 147.55 97.1637 147.38L97.3337 147.55ZM28.3137 85.84C28.1437 86.01 27.9737 86.35 27.8037 86.69C26.9537 88.05 25.4237 88.9 24.7437 90.43C24.2337 91.45 23.7237 92.47 23.2137 93.49C22.5337 95.19 22.8737 96.89 23.8937 98.59C24.9137 100.12 25.7637 101.48 26.1037 103.18C26.2737 103.69 26.6137 104.2 26.7837 104.71C27.4637 105.9 28.3137 106.92 29.6737 107.43C31.0337 107.77 32.2237 108.11 33.5837 108.28C35.7937 108.79 38.0037 108.45 40.2137 108.28C47.3537 107.43 57.8937 104.03 64.5237 100.97C75.2337 96.72 85.7737 92.47 96.3137 88.05C100.734 86.18 105.154 84.48 109.574 82.78C110.934 82.1 112.294 81.59 113.654 81.08C114.504 80.91 114.844 81.08 114.844 81.93C114.844 89.07 114.504 104.71 110.934 111.17C109.574 113.89 108.044 116.61 106.684 119.33C102.774 127.15 99.2037 135.14 95.9737 143.13C95.6337 144.15 95.2937 145.17 94.9537 146.02C94.9537 146.19 94.9537 146.53 94.7837 146.87C96.6537 145.34 99.5437 139.73 100.734 137.35C101.584 135.82 102.434 134.12 103.284 132.59H103.454C103.284 133.27 102.944 133.95 102.604 134.63C101.924 136.16 101.074 137.69 100.394 139.22C99.5437 140.92 98.8637 142.79 98.0137 144.66C98.0137 144.83 98.0137 145 98.0137 145.34C98.0137 145.85 98.0137 146.36 97.5037 146.7C96.6537 146.53 97.5037 145.68 97.1637 145.34C95.2937 147.55 94.2737 150.1 93.0837 152.65C92.9137 152.48 92.7437 152.48 92.5737 152.31C90.5337 157.24 88.6637 163.19 87.9837 168.46C87.8137 169.99 87.6437 171.52 89.1737 172.71C89.8537 173.9 90.3637 174.92 90.7037 175.94C91.2137 177.13 91.8937 178.15 92.4037 179C93.0837 179 93.5937 179 94.1037 179C94.2737 179 94.4437 178.83 94.6137 178.66C96.1437 175.6 97.3337 172.37 98.5237 169.31C101.074 163.36 102.944 157.24 104.984 151.12C104.984 150.78 104.984 150.44 104.984 150.1C105.324 150.1 105.324 149.93 105.324 149.42C105.154 149.76 104.984 149.76 104.984 149.76C105.664 147.21 106.344 144.66 107.024 142.11C107.704 139.22 109.064 136.5 109.914 133.44C110.764 130.04 112.124 126.81 113.654 123.75C115.694 119.67 117.734 115.76 119.944 111.85C122.494 107.43 125.044 103.18 127.594 98.76C127.594 98.59 127.764 98.42 127.764 98.25L128.614 99.1C128.784 98.76 128.954 98.42 129.124 98.08C129.634 97.06 129.974 96.04 130.484 95.02C131.504 93.15 132.524 91.28 133.544 89.58C133.714 89.24 133.714 88.73 133.714 88.22C133.714 88.05 132.864 85.16 132.864 85.16C132.354 84.82 132.184 84.31 132.014 83.63C132.014 83.63 132.014 83.46 131.844 83.29C131.334 82.78 131.334 82.27 131.164 81.59C130.994 81.42 130.994 81.08 130.824 80.91C130.314 80.06 129.634 80.06 129.124 80.57C128.784 80.91 128.444 81.42 128.104 81.93C124.704 87.37 121.474 92.81 118.244 98.42L117.224 99.95C117.054 99.61 116.884 99.44 116.884 99.1C116.884 98.59 117.054 97.91 117.054 97.23C117.564 91.96 117.394 86.69 116.544 81.25C116.374 80.57 116.374 80.4 117.224 80.23C120.964 78.87 124.704 77.68 128.274 75.81C129.804 74.96 135.584 73.26 137.284 72.75C139.154 72.24 141.024 71.73 142.894 71.22C144.764 70.71 146.634 70.37 148.504 69.86C149.014 69.69 149.524 69.52 150.204 69.52C153.774 68.67 157.684 67.82 161.424 67.48C161.764 67.48 162.444 67.65 162.614 67.48C162.954 66.8 163.464 67.31 164.144 67.31L164.314 66.63C163.974 66.63 163.634 66.46 163.294 66.46C158.534 66.97 153.944 67.65 149.184 68.5C148.674 68.67 148.334 68.84 147.654 68.5C148.504 68.16 149.014 67.99 149.694 67.82C153.944 66.46 158.364 65.78 162.784 65.44C164.994 65.27 167.374 65.44 169.584 64.93C170.944 64.42 172.304 64.59 173.834 64.76C175.364 64.93 176.894 65.1 178.424 65.27C179.274 65.44 180.124 65.61 180.974 65.78V66.8C181.314 66.97 181.484 66.97 181.654 66.97C181.824 67.14 181.994 67.31 182.164 67.31H180.294C179.614 67.31 178.934 67.31 178.424 67.31C181.824 67.82 185.224 68.33 188.454 69.35C190.664 70.03 192.874 70.88 194.744 72.41C195.764 73.09 196.444 73.77 196.784 74.96C196.954 76.15 197.464 77.17 197.124 78.53C197.124 78.53 197.294 78.53 197.294 78.7C197.804 78.36 198.314 77.85 198.144 77C198.144 76.49 198.144 75.81 197.804 75.13C196.614 71.22 194.234 67.99 190.154 66.29C188.454 65.44 186.584 64.59 184.544 64.08C178.594 62.21 172.474 61.36 166.524 61.19C164.314 61.19 162.274 61.36 160.064 61.53C159.724 61.53 159.214 61.36 159.214 62.04C159.044 62.04 158.874 62.04 158.704 62.04C158.194 62.21 157.514 62.21 156.834 62.21C153.774 62.55 150.714 62.72 147.654 62.89C146.464 63.06 145.104 63.23 143.914 63.57L144.934 62.55L144.764 62.38C143.404 62.55 141.874 62.38 140.514 62.72C136.094 63.57 131.674 64.42 127.424 65.78C122.834 67.31 118.414 68.67 113.824 70.03C113.654 70.03 113.484 70.2 113.144 70.2C110.084 64.25 105.494 58.81 99.0337 56.77C97.6737 56.43 95.9737 56.09 94.4437 55.75C90.3637 54.73 86.2837 54.73 82.2037 55.07C67.4137 56.6 52.1137 64.25 40.3837 72.92C36.1337 76.15 32.5637 79.89 28.9937 83.8C28.4837 84.31 28.1437 84.99 27.4637 85.67L28.3137 85.84ZM92.9137 159.45C92.7437 159.28 92.4037 159.28 92.4037 159.11C92.2337 158.94 92.0637 158.77 91.8937 158.43L91.5537 159.96C92.5737 160.13 92.0637 160.81 92.2337 161.32L92.9137 159.45Z" fill="white"/>
<defs>
<filter id="filter0_d" x="0" y="0" width="229" height="229" filterUnits="userSpaceOnUse" color-interpolation-filters="sRGB">
<feFlood flood-opacity="0" result="BackgroundImageFix"/>
<feColorMatrix in="SourceAlpha" type="matrix" values="0 0 0 0 0 0 0 0 0 0 0 0 0 0 0 0 0 0 127 0" result="hardAlpha"/>
<feOffset dy="4"/>
<feGaussianBlur stdDeviation="2"/>
<feComposite in2="hardAlpha" operator="out"/>
<feColorMatrix type="matrix" values="0 0 0 0 0 0 0 0 0 0 0 0 0 0 0 0 0 0 0.15 0"/>
<feBlend mode="normal" in2="BackgroundImageFix" result="effect1_dropShadow"/>
<feBlend mode="normal" in="SourceGraphic" in2="effect1_dropShadow" result="shape"/>
</filter>
</defs>
</svg>
