<svg width="60" height="60" viewBox="0 0 60 60" fill="none" xmlns="http://www.w3.org/2000/svg">
<path d="M51.4286 5H8.56027C6.59598 5 5 6.6183 5 8.60491V51.3951C5 53.3817 6.59598 55 8.56027 55H51.4286C53.3929 55 55 53.3817 55 51.3951V8.60491C55 6.6183 53.3929 5 51.4286 5ZM20.1116 47.8571H12.7009V23.9955H20.1228V47.8571H20.1116ZM16.4062 20.7366C14.029 20.7366 12.1094 18.8058 12.1094 16.4397C12.1094 14.0737 14.029 12.1429 16.4062 12.1429C18.7723 12.1429 20.7031 14.0737 20.7031 16.4397C20.7031 18.817 18.7835 20.7366 16.4062 20.7366V20.7366ZM47.8906 47.8571H40.4799V36.25C40.4799 33.4821 40.4241 29.9219 36.6295 29.9219C32.7679 29.9219 32.1763 32.9353 32.1763 36.0491V47.8571H24.7656V23.9955H31.875V27.2545H31.9754C32.9687 25.3795 35.3906 23.404 38.9955 23.404C46.4955 23.404 47.8906 28.3482 47.8906 34.7768V47.8571V47.8571Z" fill="#C196A0"/>
</svg>
