<svg width="100" height="100" viewBox="0 0 100 100" fill="none" xmlns="http://www.w3.org/2000/svg">
<path d="M85.7145 8.33325H14.2673C10.9935 8.33325 8.3335 11.0304 8.3335 14.3414V85.6584C8.3335 88.9694 10.9935 91.6666 14.2673 91.6666H85.7145C88.9883 91.6666 91.6668 88.9694 91.6668 85.6584V14.3414C91.6668 11.0304 88.9883 8.33325 85.7145 8.33325ZM33.5195 79.7618H21.1683V39.9925H33.5381V79.7618H33.5195ZM27.3439 34.5609C23.3819 34.5609 20.1825 31.3429 20.1825 27.3995C20.1825 23.456 23.3819 20.238 27.3439 20.238C31.2874 20.238 34.5054 23.456 34.5054 27.3995C34.5054 31.3615 31.306 34.5609 27.3439 34.5609V34.5609ZM79.8179 79.7618H67.4667V60.4166C67.4667 55.8035 67.3737 49.8697 61.0493 49.8697C54.6133 49.8697 53.6274 54.892 53.6274 60.0818V79.7618H41.2762V39.9925H53.1252V45.424H53.2926C54.9481 42.299 58.9845 39.0066 64.9927 39.0066C77.4927 39.0066 79.8179 47.2469 79.8179 57.9612V79.7618V79.7618Z" fill="#C196A0"/>
</svg>
