<svg width="229" height="229" viewBox="0 0 229 229" fill="none" xmlns="http://www.w3.org/2000/svg">
<g filter="url(#filter0_d)">
<rect x="225" y="221" width="221" height="221" transform="rotate(-180 225 221)" fill="#C196A0"/>
<rect x="222.5" y="218.5" width="216" height="216" transform="rotate(-180 222.5 218.5)" stroke="white" stroke-width="5"/>
</g>
<path d="M155.625 71H118.125L105.625 58.5H74.375C69.1973 58.5 65 62.6973 65 67.875V124.125C65 129.303 69.1973 133.5 74.375 133.5H155.625C160.803 133.5 165 129.303 165 124.125V80.375C165 75.1973 160.803 71 155.625 71Z" fill="#8C4357"/>
<path d="M74.0996 167H71.4043L62.8643 150.564V167H60.1689V145.672H62.8643L71.4336 162.181V145.672H74.0996V167ZM84.0459 167.293C82.0732 167.293 80.5596 166.707 79.5049 165.535C78.4502 164.354 77.9131 162.625 77.8936 160.35V158.431C77.8936 156.067 78.4062 154.217 79.4316 152.879C80.4668 151.531 81.9072 150.857 83.7529 150.857C85.6084 150.857 86.9951 151.448 87.9131 152.63C88.8311 153.812 89.2998 155.652 89.3193 158.152V159.852H80.4717V160.218C80.4717 161.917 80.7891 163.152 81.4238 163.924C82.0684 164.695 82.9912 165.081 84.1924 165.081C84.9541 165.081 85.623 164.939 86.1992 164.656C86.7852 164.363 87.332 163.904 87.8398 163.279L89.1875 164.92C88.0645 166.502 86.3506 167.293 84.0459 167.293ZM83.7529 153.084C82.6787 153.084 81.8828 153.455 81.3652 154.197C80.8477 154.93 80.5547 156.072 80.4863 157.625H86.7266V157.273C86.6582 155.77 86.3848 154.695 85.9062 154.051C85.4375 153.406 84.7197 153.084 83.7529 153.084ZM95.8379 147.312V151.15H98.2256V153.245H95.8379V163.074C95.8379 163.699 95.9404 164.173 96.1455 164.495C96.3506 164.817 96.7021 164.979 97.2002 164.979C97.542 164.979 97.8887 164.92 98.2402 164.803L98.2109 167C97.625 167.195 97.0244 167.293 96.4092 167.293C95.3838 167.293 94.6025 166.927 94.0654 166.194C93.5283 165.462 93.2598 164.427 93.2598 163.089V153.245H90.8428V151.15H93.2598V147.312H95.8379ZM109.021 162.942C109.021 162.386 108.812 161.907 108.392 161.507C107.972 161.106 107.161 160.638 105.96 160.101C104.563 159.524 103.577 159.031 103.001 158.621C102.435 158.211 102.01 157.747 101.727 157.229C101.443 156.702 101.302 156.077 101.302 155.354C101.302 154.065 101.771 152.996 102.708 152.146C103.655 151.287 104.861 150.857 106.326 150.857C107.869 150.857 109.109 151.307 110.047 152.205C110.984 153.104 111.453 154.256 111.453 155.662H108.875C108.875 154.949 108.636 154.344 108.157 153.846C107.679 153.338 107.068 153.084 106.326 153.084C105.564 153.084 104.964 153.284 104.524 153.685C104.095 154.075 103.88 154.603 103.88 155.267C103.88 155.794 104.036 156.219 104.349 156.541C104.671 156.863 105.438 157.288 106.648 157.815C108.572 158.567 109.881 159.305 110.574 160.027C111.268 160.74 111.614 161.648 111.614 162.752C111.614 164.129 111.141 165.232 110.193 166.062C109.246 166.883 107.977 167.293 106.385 167.293C104.734 167.293 103.396 166.819 102.371 165.872C101.346 164.925 100.833 163.724 100.833 162.269H103.44C103.47 163.147 103.738 163.836 104.246 164.334C104.754 164.832 105.467 165.081 106.385 165.081C107.244 165.081 107.898 164.891 108.348 164.51C108.797 164.119 109.021 163.597 109.021 162.942ZM126.453 159.837C126.453 162.347 125.999 164.217 125.091 165.447C124.192 166.678 122.918 167.293 121.268 167.293C119.676 167.293 118.45 166.692 117.591 165.491V173.094H115.013V151.15H117.356L117.488 152.908C118.357 151.541 119.603 150.857 121.224 150.857C122.962 150.857 124.261 151.463 125.12 152.674C125.979 153.885 126.424 155.696 126.453 158.108V159.837ZM123.875 158.357C123.875 156.58 123.602 155.271 123.055 154.432C122.508 153.582 121.629 153.157 120.418 153.157C119.178 153.157 118.235 153.777 117.591 155.018V163.265C118.226 164.476 119.178 165.081 120.447 165.081C121.619 165.081 122.479 164.661 123.025 163.821C123.582 162.972 123.865 161.678 123.875 159.939V158.357ZM129.251 158.343C129.251 156.038 129.808 154.217 130.921 152.879C132.044 151.531 133.523 150.857 135.359 150.857C137.195 150.857 138.67 151.512 139.783 152.82C140.906 154.129 141.482 155.911 141.512 158.167V159.837C141.512 162.132 140.955 163.948 139.842 165.286C138.729 166.624 137.244 167.293 135.389 167.293C133.553 167.293 132.078 166.644 130.965 165.345C129.861 164.046 129.29 162.288 129.251 160.071V158.343ZM131.844 159.837C131.844 161.468 132.161 162.752 132.796 163.689C133.44 164.617 134.305 165.081 135.389 165.081C137.674 165.081 138.851 163.431 138.919 160.13V158.343C138.919 156.722 138.597 155.442 137.952 154.505C137.308 153.558 136.443 153.084 135.359 153.084C134.295 153.084 133.44 153.558 132.796 154.505C132.161 155.442 131.844 156.717 131.844 158.328V159.837ZM147.298 151.15L147.371 152.864C148.377 151.526 149.661 150.857 151.224 150.857C154.026 150.857 155.447 152.728 155.486 156.468V167H152.908V156.585C152.908 155.345 152.698 154.466 152.278 153.948C151.868 153.421 151.248 153.157 150.418 153.157C149.773 153.157 149.192 153.372 148.675 153.802C148.167 154.231 147.757 154.793 147.444 155.486V167H144.852V151.15H147.298ZM167.088 162.942C167.088 162.386 166.878 161.907 166.458 161.507C166.038 161.106 165.228 160.638 164.026 160.101C162.63 159.524 161.644 159.031 161.067 158.621C160.501 158.211 160.076 157.747 159.793 157.229C159.51 156.702 159.368 156.077 159.368 155.354C159.368 154.065 159.837 152.996 160.774 152.146C161.722 151.287 162.928 150.857 164.393 150.857C165.936 150.857 167.176 151.307 168.113 152.205C169.051 153.104 169.52 154.256 169.52 155.662H166.941C166.941 154.949 166.702 154.344 166.224 153.846C165.745 153.338 165.135 153.084 164.393 153.084C163.631 153.084 163.03 153.284 162.591 153.685C162.161 154.075 161.946 154.603 161.946 155.267C161.946 155.794 162.103 156.219 162.415 156.541C162.737 156.863 163.504 157.288 164.715 157.815C166.639 158.567 167.947 159.305 168.641 160.027C169.334 160.74 169.681 161.648 169.681 162.752C169.681 164.129 169.207 165.232 168.26 166.062C167.312 166.883 166.043 167.293 164.451 167.293C162.801 167.293 161.463 166.819 160.438 165.872C159.412 164.925 158.899 163.724 158.899 162.269H161.507C161.536 163.147 161.805 163.836 162.312 164.334C162.82 164.832 163.533 165.081 164.451 165.081C165.311 165.081 165.965 164.891 166.414 164.51C166.863 164.119 167.088 163.597 167.088 162.942Z" fill="#8C4357"/>
<defs>
<filter id="filter0_d" x="0" y="0" width="229" height="229" filterUnits="userSpaceOnUse" color-interpolation-filters="sRGB">
<feFlood flood-opacity="0" result="BackgroundImageFix"/>
<feColorMatrix in="SourceAlpha" type="matrix" values="0 0 0 0 0 0 0 0 0 0 0 0 0 0 0 0 0 0 127 0" result="hardAlpha"/>
<feOffset dy="4"/>
<feGaussianBlur stdDeviation="2"/>
<feComposite in2="hardAlpha" operator="out"/>
<feColorMatrix type="matrix" values="0 0 0 0 0 0 0 0 0 0 0 0 0 0 0 0 0 0 0.15 0"/>
<feBlend mode="normal" in2="BackgroundImageFix" result="effect1_dropShadow"/>
<feBlend mode="normal" in="SourceGraphic" in2="effect1_dropShadow" result="shape"/>
</filter>
</defs>
</svg>
