<svg width="229" height="229" viewBox="0 0 229 229" fill="none" xmlns="http://www.w3.org/2000/svg">
<g filter="url(#filter0_d)">
<rect x="225" y="221" width="221" height="221" transform="rotate(-180 225 221)" fill="#C196A0"/>
<rect x="222.5" y="218.5" width="216" height="216" transform="rotate(-180 222.5 218.5)" stroke="white" stroke-width="5"/>
</g>
<path d="M164.426 102.266L151.852 123.821C150.874 125.498 149.473 126.89 147.789 127.857C146.105 128.824 144.197 129.333 142.255 129.333H72.8168C69.601 129.333 67.5974 125.845 69.2177 123.067L81.7913 101.512C82.7698 99.8349 84.1709 98.4432 85.8549 97.476C87.5389 96.5088 89.4469 95.9998 91.3889 95.9998H160.827C164.043 95.9998 166.047 99.4882 164.426 102.266ZM91.3889 90.4443H148.333V82.111C148.333 77.5085 144.602 73.7776 140 73.7776H112.222L101.111 62.6665H73.3333C68.7309 62.6665 65 66.3974 65 70.9998V119.272L76.9925 98.713C79.9677 93.6127 85.4842 90.4443 91.3889 90.4443Z" fill="#8C4357"/>
<path d="M89.6562 157.581H82.4492V167H79.7686V145.672H90.8721V147.986H82.4492V155.281H89.6562V157.581ZM96.6143 167H94.0215V144.5H96.6143V167ZM105.037 162.693L107.923 151.15H110.677L105.491 169.241C105.101 170.599 104.549 171.629 103.836 172.332C103.123 173.045 102.312 173.401 101.404 173.401C101.053 173.401 100.604 173.323 100.057 173.167V170.97L100.628 171.028C101.38 171.028 101.966 170.848 102.386 170.486C102.815 170.135 103.162 169.52 103.426 168.641L103.938 166.868L99.2803 151.15H102.107L105.037 162.693ZM133.177 145.672V160.833C133.157 162.854 132.571 164.437 131.419 165.579C130.267 166.722 128.66 167.293 126.6 167.293C124.49 167.293 122.879 166.736 121.766 165.623C120.652 164.5 120.086 162.903 120.066 160.833V145.672H122.732V160.73C122.732 162.166 123.035 163.24 123.641 163.953C124.256 164.656 125.242 165.008 126.6 165.008C127.967 165.008 128.953 164.656 129.559 163.953C130.174 163.24 130.481 162.166 130.481 160.73V145.672H133.177ZM143.299 153.846L147.312 145.672H150.462L144.91 156.248L150.579 167H147.4L143.299 158.68L139.183 167H136.004L141.702 156.248L136.121 145.672H139.256L143.299 153.846Z" fill="#8C4357"/>
<defs>
<filter id="filter0_d" x="0" y="0" width="229" height="229" filterUnits="userSpaceOnUse" color-interpolation-filters="sRGB">
<feFlood flood-opacity="0" result="BackgroundImageFix"/>
<feColorMatrix in="SourceAlpha" type="matrix" values="0 0 0 0 0 0 0 0 0 0 0 0 0 0 0 0 0 0 127 0" result="hardAlpha"/>
<feOffset dy="4"/>
<feGaussianBlur stdDeviation="2"/>
<feComposite in2="hardAlpha" operator="out"/>
<feColorMatrix type="matrix" values="0 0 0 0 0 0 0 0 0 0 0 0 0 0 0 0 0 0 0.15 0"/>
<feBlend mode="normal" in2="BackgroundImageFix" result="effect1_dropShadow"/>
<feBlend mode="normal" in="SourceGraphic" in2="effect1_dropShadow" result="shape"/>
</filter>
</defs>
</svg>
