<svg width="229" height="229" viewBox="0 0 229 229" fill="none" xmlns="http://www.w3.org/2000/svg">
<g filter="url(#filter0_d)">
<rect x="225" y="221" width="221" height="221" transform="rotate(-180 225 221)" fill="#C196A0"/>
<rect x="222.5" y="218.5" width="216" height="216" transform="rotate(-180 222.5 218.5)" stroke="white" stroke-width="5"/>
</g>
<path d="M61.5527 105V97.8906H64.043C64.9056 97.8906 65.5599 98.0566 66.0059 98.3887C66.4518 98.7174 66.6748 99.2008 66.6748 99.8389C66.6748 100.187 66.5853 100.495 66.4062 100.762C66.2272 101.025 65.9782 101.219 65.6592 101.343C66.0238 101.434 66.3102 101.618 66.5186 101.895C66.7301 102.171 66.8359 102.51 66.8359 102.91C66.8359 103.594 66.6178 104.111 66.1816 104.463C65.7454 104.814 65.1237 104.993 64.3164 105H61.5527ZM63.0176 101.904V103.823H64.2725C64.6175 103.823 64.8861 103.742 65.0781 103.579C65.2734 103.413 65.3711 103.185 65.3711 102.896C65.3711 102.244 65.0342 101.914 64.3604 101.904H63.0176ZM63.0176 100.869H64.1016C64.8405 100.856 65.21 100.562 65.21 99.9854C65.21 99.6631 65.1156 99.432 64.9268 99.292C64.7412 99.1488 64.4466 99.0771 64.043 99.0771H63.0176V100.869ZM67.9199 104.307C67.9199 104.082 67.9948 103.9 68.1445 103.76C68.2975 103.62 68.488 103.55 68.7158 103.55C68.9469 103.55 69.1374 103.62 69.2871 103.76C69.4401 103.9 69.5166 104.082 69.5166 104.307C69.5166 104.528 69.4417 104.709 69.292 104.849C69.1423 104.985 68.9502 105.054 68.7158 105.054C68.4847 105.054 68.2943 104.985 68.1445 104.849C67.9948 104.709 67.9199 104.528 67.9199 104.307ZM74.5361 103.135C74.5361 102.858 74.4385 102.646 74.2432 102.5C74.0479 102.35 73.6963 102.194 73.1885 102.031C72.6807 101.865 72.2786 101.702 71.9824 101.543C71.1751 101.107 70.7715 100.519 70.7715 99.7803C70.7715 99.3962 70.8789 99.0544 71.0938 98.7549C71.3118 98.4521 71.6227 98.2161 72.0264 98.0469C72.4333 97.8776 72.889 97.793 73.3936 97.793C73.9014 97.793 74.3538 97.8857 74.751 98.0713C75.1481 98.2536 75.4557 98.5124 75.6738 98.8477C75.8952 99.1829 76.0059 99.5638 76.0059 99.9902H74.541C74.541 99.6647 74.4385 99.4124 74.2334 99.2334C74.0283 99.0511 73.7402 98.96 73.3691 98.96C73.0111 98.96 72.7327 99.0365 72.5342 99.1895C72.3356 99.3392 72.2363 99.5378 72.2363 99.7852C72.2363 100.016 72.3519 100.21 72.583 100.366C72.8174 100.522 73.1608 100.669 73.6133 100.806C74.4466 101.056 75.0537 101.367 75.4346 101.738C75.8154 102.109 76.0059 102.572 76.0059 103.125C76.0059 103.74 75.7731 104.224 75.3076 104.575C74.8421 104.924 74.2155 105.098 73.4277 105.098C72.8809 105.098 72.3828 104.998 71.9336 104.8C71.4844 104.598 71.141 104.323 70.9033 103.975C70.6689 103.626 70.5518 103.223 70.5518 102.764H72.0215C72.0215 103.548 72.4902 103.94 73.4277 103.94C73.776 103.94 74.0479 103.87 74.2432 103.73C74.4385 103.587 74.5361 103.389 74.5361 103.135ZM79.1064 103.96C79.3669 103.96 79.5785 103.888 79.7412 103.745C79.904 103.602 79.9886 103.411 79.9951 103.174H81.3184C81.3151 103.532 81.2174 103.861 81.0254 104.16C80.8333 104.456 80.5697 104.688 80.2344 104.854C79.9023 105.016 79.5345 105.098 79.1309 105.098C78.3757 105.098 77.7799 104.858 77.3438 104.38C76.9076 103.898 76.6895 103.234 76.6895 102.388V102.295C76.6895 101.481 76.9059 100.832 77.3389 100.347C77.7718 99.8617 78.3659 99.6191 79.1211 99.6191C79.7819 99.6191 80.3109 99.8079 80.708 100.186C81.1084 100.56 81.3118 101.06 81.3184 101.685H79.9951C79.9886 101.411 79.904 101.19 79.7412 101.021C79.5785 100.848 79.3636 100.762 79.0967 100.762C78.7679 100.762 78.5189 100.882 78.3496 101.123C78.1836 101.361 78.1006 101.748 78.1006 102.285V102.432C78.1006 102.975 78.1836 103.366 78.3496 103.604C78.5156 103.841 78.7679 103.96 79.1064 103.96ZM86.1035 105H84.6875V99.7168H86.1035V105ZM84.6045 98.3496C84.6045 98.138 84.6745 97.9639 84.8145 97.8271C84.9577 97.6904 85.1514 97.6221 85.3955 97.6221C85.6364 97.6221 85.8285 97.6904 85.9717 97.8271C86.1149 97.9639 86.1865 98.138 86.1865 98.3496C86.1865 98.5645 86.1133 98.7402 85.9668 98.877C85.8236 99.0137 85.6331 99.082 85.3955 99.082C85.1579 99.082 84.9658 99.0137 84.8193 98.877C84.6761 98.7402 84.6045 98.5645 84.6045 98.3496ZM88.5693 99.7168L88.6133 100.327C88.9909 99.8551 89.4971 99.6191 90.1318 99.6191C90.6917 99.6191 91.1084 99.7835 91.3818 100.112C91.6553 100.441 91.7952 100.933 91.8018 101.587V105H90.3906V101.621C90.3906 101.322 90.3255 101.105 90.1953 100.972C90.0651 100.835 89.8486 100.767 89.5459 100.767C89.1488 100.767 88.8509 100.936 88.6523 101.274V105H87.2412V99.7168H88.5693ZM101.245 105H99.7803V101.953H96.9238V105H95.459V97.8906H96.9238V100.771H99.7803V97.8906H101.245V105ZM104.868 105.098C104.093 105.098 103.462 104.86 102.974 104.385C102.489 103.91 102.246 103.276 102.246 102.485V102.349C102.246 101.818 102.349 101.344 102.554 100.928C102.759 100.508 103.049 100.186 103.423 99.9609C103.8 99.7331 104.23 99.6191 104.712 99.6191C105.435 99.6191 106.003 99.847 106.416 100.303C106.833 100.758 107.041 101.405 107.041 102.241V102.817H103.677C103.722 103.162 103.859 103.439 104.087 103.647C104.318 103.856 104.609 103.96 104.961 103.96C105.505 103.96 105.929 103.763 106.235 103.369L106.929 104.146C106.717 104.445 106.431 104.679 106.069 104.849C105.708 105.015 105.308 105.098 104.868 105.098ZM104.707 100.762C104.427 100.762 104.199 100.856 104.023 101.045C103.851 101.234 103.74 101.504 103.691 101.855H105.654V101.743C105.648 101.431 105.563 101.19 105.4 101.021C105.238 100.848 105.007 100.762 104.707 100.762ZM110.908 105C110.843 104.873 110.796 104.715 110.767 104.526C110.425 104.907 109.98 105.098 109.434 105.098C108.916 105.098 108.486 104.948 108.145 104.648C107.806 104.349 107.637 103.971 107.637 103.516C107.637 102.956 107.843 102.526 108.257 102.227C108.674 101.927 109.274 101.776 110.059 101.772H110.708V101.47C110.708 101.226 110.645 101.03 110.518 100.884C110.394 100.737 110.197 100.664 109.927 100.664C109.689 100.664 109.502 100.721 109.365 100.835C109.232 100.949 109.165 101.105 109.165 101.304H107.754C107.754 100.998 107.848 100.715 108.037 100.454C108.226 100.194 108.493 99.9902 108.838 99.8438C109.183 99.694 109.57 99.6191 110 99.6191C110.651 99.6191 111.167 99.7835 111.548 100.112C111.932 100.438 112.124 100.897 112.124 101.489V103.779C112.127 104.281 112.197 104.66 112.334 104.917V105H110.908ZM109.741 104.019C109.95 104.019 110.142 103.973 110.317 103.882C110.493 103.787 110.623 103.662 110.708 103.506V102.598H110.181C109.474 102.598 109.098 102.842 109.053 103.33L109.048 103.413C109.048 103.589 109.11 103.734 109.233 103.848C109.357 103.962 109.526 104.019 109.741 104.019ZM114.697 105H113.281V97.5H114.697V105ZM117.554 98.418V99.7168H118.457V100.752H117.554V103.389C117.554 103.584 117.591 103.724 117.666 103.809C117.741 103.893 117.884 103.936 118.096 103.936C118.252 103.936 118.39 103.924 118.511 103.901V104.971C118.234 105.055 117.949 105.098 117.656 105.098C116.667 105.098 116.162 104.598 116.143 103.599V100.752H115.371V99.7168H116.143V98.418H117.554ZM120.62 100.293C120.994 99.8438 121.465 99.6191 122.031 99.6191C123.177 99.6191 123.758 100.285 123.774 101.616V105H122.363V101.655C122.363 101.353 122.298 101.13 122.168 100.986C122.038 100.84 121.821 100.767 121.519 100.767C121.105 100.767 120.806 100.926 120.62 101.245V105H119.209V97.5H120.62V100.293ZM133.047 104.102C132.783 104.417 132.41 104.663 131.929 104.839C131.447 105.011 130.913 105.098 130.327 105.098C129.712 105.098 129.172 104.964 128.706 104.697C128.244 104.427 127.886 104.036 127.632 103.525C127.381 103.014 127.253 102.414 127.246 101.724V101.24C127.246 100.531 127.365 99.917 127.603 99.3994C127.843 98.8786 128.188 98.4814 128.638 98.208C129.09 97.9313 129.619 97.793 130.225 97.793C131.068 97.793 131.727 97.9948 132.202 98.3984C132.677 98.7988 132.959 99.3831 133.047 100.151H131.621C131.556 99.7445 131.411 99.4466 131.187 99.2578C130.965 99.069 130.659 98.9746 130.269 98.9746C129.771 98.9746 129.391 99.1618 129.131 99.5361C128.87 99.9105 128.739 100.467 128.735 101.206V101.66C128.735 102.406 128.877 102.969 129.16 103.35C129.443 103.73 129.858 103.921 130.405 103.921C130.955 103.921 131.348 103.804 131.582 103.569V102.344H130.249V101.265H133.047V104.102ZM137.31 104.463C136.961 104.886 136.479 105.098 135.864 105.098C135.298 105.098 134.865 104.935 134.565 104.609C134.269 104.284 134.118 103.807 134.111 103.179V99.7168H135.522V103.13C135.522 103.68 135.773 103.955 136.274 103.955C136.753 103.955 137.082 103.789 137.261 103.457V99.7168H138.677V105H137.349L137.31 104.463ZM141.23 105H139.814V99.7168H141.23V105ZM139.731 98.3496C139.731 98.138 139.801 97.9639 139.941 97.8271C140.085 97.6904 140.278 97.6221 140.522 97.6221C140.763 97.6221 140.955 97.6904 141.099 97.8271C141.242 97.9639 141.313 98.138 141.313 98.3496C141.313 98.5645 141.24 98.7402 141.094 98.877C140.951 99.0137 140.76 99.082 140.522 99.082C140.285 99.082 140.093 99.0137 139.946 98.877C139.803 98.7402 139.731 98.5645 139.731 98.3496ZM142.178 102.319C142.178 101.496 142.362 100.84 142.729 100.352C143.101 99.8633 143.607 99.6191 144.248 99.6191C144.762 99.6191 145.187 99.8112 145.522 100.195V97.5H146.938V105H145.664L145.596 104.438C145.244 104.878 144.792 105.098 144.238 105.098C143.617 105.098 143.117 104.854 142.739 104.365C142.365 103.874 142.178 103.192 142.178 102.319ZM143.589 102.422C143.589 102.917 143.675 103.296 143.848 103.56C144.02 103.823 144.271 103.955 144.6 103.955C145.036 103.955 145.343 103.771 145.522 103.403V101.318C145.347 100.951 145.042 100.767 144.609 100.767C143.929 100.767 143.589 101.318 143.589 102.422ZM151.094 105C151.029 104.873 150.981 104.715 150.952 104.526C150.61 104.907 150.166 105.098 149.619 105.098C149.102 105.098 148.672 104.948 148.33 104.648C147.992 104.349 147.822 103.971 147.822 103.516C147.822 102.956 148.029 102.526 148.442 102.227C148.859 101.927 149.46 101.776 150.244 101.772H150.894V101.47C150.894 101.226 150.83 101.03 150.703 100.884C150.579 100.737 150.382 100.664 150.112 100.664C149.875 100.664 149.688 100.721 149.551 100.835C149.417 100.949 149.351 101.105 149.351 101.304H147.939C147.939 100.998 148.034 100.715 148.223 100.454C148.411 100.194 148.678 99.9902 149.023 99.8438C149.368 99.694 149.756 99.6191 150.186 99.6191C150.837 99.6191 151.353 99.7835 151.733 100.112C152.118 100.438 152.31 100.897 152.31 101.489V103.779C152.313 104.281 152.383 104.66 152.52 104.917V105H151.094ZM149.927 104.019C150.135 104.019 150.327 103.973 150.503 103.882C150.679 103.787 150.809 103.662 150.894 103.506V102.598H150.366C149.66 102.598 149.284 102.842 149.238 103.33L149.233 103.413C149.233 103.589 149.295 103.734 149.419 103.848C149.543 103.962 149.712 104.019 149.927 104.019ZM154.692 99.7168L154.736 100.327C155.114 99.8551 155.62 99.6191 156.255 99.6191C156.815 99.6191 157.231 99.7835 157.505 100.112C157.778 100.441 157.918 100.933 157.925 101.587V105H156.514V101.621C156.514 101.322 156.449 101.105 156.318 100.972C156.188 100.835 155.972 100.767 155.669 100.767C155.272 100.767 154.974 100.936 154.775 101.274V105H153.364V99.7168H154.692ZM161.196 103.96C161.457 103.96 161.668 103.888 161.831 103.745C161.994 103.602 162.078 103.411 162.085 103.174H163.408C163.405 103.532 163.307 103.861 163.115 104.16C162.923 104.456 162.66 104.688 162.324 104.854C161.992 105.016 161.624 105.098 161.221 105.098C160.465 105.098 159.87 104.858 159.434 104.38C158.997 103.898 158.779 103.234 158.779 102.388V102.295C158.779 101.481 158.996 100.832 159.429 100.347C159.862 99.8617 160.456 99.6191 161.211 99.6191C161.872 99.6191 162.401 99.8079 162.798 100.186C163.198 100.56 163.402 101.06 163.408 101.685H162.085C162.078 101.411 161.994 101.19 161.831 101.021C161.668 100.848 161.453 100.762 161.187 100.762C160.858 100.762 160.609 100.882 160.439 101.123C160.273 101.361 160.19 101.748 160.19 102.285V102.432C160.19 102.975 160.273 103.366 160.439 103.604C160.605 103.841 160.858 103.96 161.196 103.96ZM166.646 105.098C165.871 105.098 165.239 104.86 164.751 104.385C164.266 103.91 164.023 103.276 164.023 102.485V102.349C164.023 101.818 164.126 101.344 164.331 100.928C164.536 100.508 164.826 100.186 165.2 99.9609C165.578 99.7331 166.007 99.6191 166.489 99.6191C167.212 99.6191 167.78 99.847 168.193 100.303C168.61 100.758 168.818 101.405 168.818 102.241V102.817H165.454C165.5 103.162 165.636 103.439 165.864 103.647C166.095 103.856 166.387 103.96 166.738 103.96C167.282 103.96 167.707 103.763 168.013 103.369L168.706 104.146C168.494 104.445 168.208 104.679 167.847 104.849C167.485 105.015 167.085 105.098 166.646 105.098ZM166.484 100.762C166.204 100.762 165.977 100.856 165.801 101.045C165.628 101.234 165.518 101.504 165.469 101.855H167.432V101.743C167.425 101.431 167.34 101.19 167.178 101.021C167.015 100.848 166.784 100.762 166.484 100.762ZM82.1582 117H81.2158V113.714H77.6318V117H76.6943V109.891H77.6318V112.947H81.2158V109.891H82.1582V117ZM85.874 117.098C85.1579 117.098 84.5752 116.863 84.126 116.395C83.6768 115.923 83.4521 115.293 83.4521 114.505V114.339C83.4521 113.815 83.5514 113.348 83.75 112.938C83.9518 112.524 84.2318 112.202 84.5898 111.971C84.9512 111.736 85.3418 111.619 85.7617 111.619C86.4486 111.619 86.9824 111.845 87.3633 112.298C87.7441 112.75 87.9346 113.398 87.9346 114.241V114.617H84.3555C84.3685 115.138 84.5199 115.56 84.8096 115.882C85.1025 116.201 85.4736 116.36 85.9229 116.36C86.2419 116.36 86.512 116.295 86.7334 116.165C86.9548 116.035 87.1484 115.862 87.3145 115.647L87.8662 116.077C87.4235 116.757 86.7594 117.098 85.874 117.098ZM85.7617 112.361C85.3971 112.361 85.0911 112.495 84.8438 112.762C84.5964 113.025 84.4434 113.396 84.3848 113.875H87.0312V113.807C87.0052 113.348 86.8815 112.993 86.6602 112.742C86.4388 112.488 86.1393 112.361 85.7617 112.361ZM92.2461 117C92.194 116.896 92.1517 116.71 92.1191 116.443C91.6992 116.88 91.1979 117.098 90.6152 117.098C90.0944 117.098 89.6663 116.951 89.3311 116.658C88.999 116.362 88.833 115.988 88.833 115.535C88.833 114.985 89.0413 114.559 89.458 114.256C89.8779 113.95 90.4671 113.797 91.2256 113.797H92.1045V113.382C92.1045 113.066 92.0101 112.815 91.8213 112.63C91.6325 112.441 91.3542 112.347 90.9863 112.347C90.6641 112.347 90.3939 112.428 90.1758 112.591C89.9577 112.754 89.8486 112.951 89.8486 113.182H88.9404C88.9404 112.918 89.0332 112.664 89.2188 112.42C89.4076 112.173 89.6615 111.977 89.9805 111.834C90.3027 111.691 90.6559 111.619 91.04 111.619C91.6488 111.619 92.1257 111.772 92.4707 112.078C92.8158 112.381 92.9948 112.799 93.0078 113.333V115.765C93.0078 116.25 93.0697 116.635 93.1934 116.922V117H92.2461ZM90.7471 116.312C91.0303 116.312 91.2988 116.238 91.5527 116.092C91.8066 115.945 91.9906 115.755 92.1045 115.521V114.437H91.3965C90.2897 114.437 89.7363 114.76 89.7363 115.408C89.7363 115.691 89.8307 115.913 90.0195 116.072C90.2083 116.232 90.4508 116.312 90.7471 116.312ZM95.4053 117H94.502V109.5H95.4053V117ZM98.0811 110.438V111.717H99.0674V112.415H98.0811V115.691C98.0811 115.903 98.125 116.062 98.2129 116.17C98.3008 116.274 98.4505 116.326 98.6621 116.326C98.7663 116.326 98.9095 116.307 99.0918 116.268V117C98.8542 117.065 98.623 117.098 98.3984 117.098C97.9948 117.098 97.6904 116.976 97.4854 116.731C97.2803 116.487 97.1777 116.141 97.1777 115.691V112.415H96.2158V111.717H97.1777V110.438H98.0811ZM101.03 112.356C101.431 111.865 101.951 111.619 102.593 111.619C103.709 111.619 104.272 112.249 104.282 113.509V117H103.379V113.504C103.376 113.123 103.288 112.841 103.115 112.659C102.946 112.477 102.681 112.386 102.319 112.386C102.026 112.386 101.769 112.464 101.548 112.62C101.326 112.776 101.154 112.981 101.03 113.235V117H100.127V109.5H101.03V112.356ZM109.194 114.217V117H108.257V109.891H110.879C111.657 109.891 112.266 110.089 112.705 110.486C113.148 110.883 113.369 111.409 113.369 112.063C113.369 112.754 113.153 113.286 112.72 113.66C112.29 114.031 111.673 114.217 110.869 114.217H109.194ZM109.194 113.45H110.879C111.38 113.45 111.764 113.333 112.031 113.099C112.298 112.861 112.432 112.519 112.432 112.073C112.432 111.65 112.298 111.312 112.031 111.058C111.764 110.804 111.398 110.672 110.933 110.662H109.194V113.45ZM116.978 112.527C116.841 112.505 116.693 112.493 116.533 112.493C115.941 112.493 115.539 112.745 115.327 113.25V117H114.424V111.717H115.303L115.317 112.327C115.614 111.855 116.034 111.619 116.577 111.619C116.753 111.619 116.886 111.642 116.978 111.688V112.527ZM117.476 114.31C117.476 113.792 117.576 113.326 117.778 112.913C117.983 112.5 118.267 112.181 118.628 111.956C118.993 111.731 119.408 111.619 119.873 111.619C120.592 111.619 121.174 111.868 121.616 112.366C122.062 112.864 122.285 113.527 122.285 114.354V114.417C122.285 114.931 122.186 115.394 121.987 115.804C121.792 116.211 121.51 116.528 121.143 116.756C120.778 116.984 120.358 117.098 119.883 117.098C119.167 117.098 118.586 116.849 118.14 116.351C117.697 115.853 117.476 115.193 117.476 114.373V114.31ZM118.384 114.417C118.384 115.003 118.519 115.473 118.789 115.828C119.062 116.183 119.427 116.36 119.883 116.36C120.342 116.36 120.706 116.181 120.977 115.823C121.247 115.462 121.382 114.957 121.382 114.31C121.382 113.73 121.243 113.261 120.967 112.903C120.693 112.542 120.329 112.361 119.873 112.361C119.427 112.361 119.067 112.539 118.794 112.894C118.521 113.248 118.384 113.756 118.384 114.417ZM124.268 111.717L124.292 112.303C124.679 111.847 125.202 111.619 125.859 111.619C126.598 111.619 127.101 111.902 127.368 112.469C127.544 112.215 127.772 112.01 128.052 111.854C128.335 111.697 128.669 111.619 129.053 111.619C130.212 111.619 130.801 112.233 130.82 113.46V117H129.917V113.514C129.917 113.136 129.831 112.854 129.658 112.669C129.486 112.48 129.196 112.386 128.789 112.386C128.454 112.386 128.175 112.487 127.954 112.688C127.733 112.887 127.604 113.156 127.568 113.494V117H126.66V113.538C126.66 112.77 126.284 112.386 125.532 112.386C124.94 112.386 124.535 112.638 124.316 113.143V117H123.413V111.717H124.268ZM131.948 114.31C131.948 113.792 132.049 113.326 132.251 112.913C132.456 112.5 132.739 112.181 133.101 111.956C133.465 111.731 133.88 111.619 134.346 111.619C135.065 111.619 135.646 111.868 136.089 112.366C136.535 112.864 136.758 113.527 136.758 114.354V114.417C136.758 114.931 136.659 115.394 136.46 115.804C136.265 116.211 135.983 116.528 135.615 116.756C135.251 116.984 134.831 117.098 134.355 117.098C133.639 117.098 133.058 116.849 132.612 116.351C132.17 115.853 131.948 115.193 131.948 114.373V114.31ZM132.856 114.417C132.856 115.003 132.992 115.473 133.262 115.828C133.535 116.183 133.9 116.36 134.355 116.36C134.814 116.36 135.179 116.181 135.449 115.823C135.719 115.462 135.854 114.957 135.854 114.31C135.854 113.73 135.716 113.261 135.439 112.903C135.166 112.542 134.801 112.361 134.346 112.361C133.9 112.361 133.54 112.539 133.267 112.894C132.993 113.248 132.856 113.756 132.856 114.417ZM139.116 110.438V111.717H140.103V112.415H139.116V115.691C139.116 115.903 139.16 116.062 139.248 116.17C139.336 116.274 139.486 116.326 139.697 116.326C139.801 116.326 139.945 116.307 140.127 116.268V117C139.889 117.065 139.658 117.098 139.434 117.098C139.03 117.098 138.726 116.976 138.521 116.731C138.315 116.487 138.213 116.141 138.213 115.691V112.415H137.251V111.717H138.213V110.438H139.116ZM142.144 117H141.24V111.717H142.144V117ZM141.167 110.315C141.167 110.169 141.211 110.045 141.299 109.944C141.39 109.843 141.523 109.793 141.699 109.793C141.875 109.793 142.008 109.843 142.1 109.944C142.191 110.045 142.236 110.169 142.236 110.315C142.236 110.462 142.191 110.584 142.1 110.682C142.008 110.779 141.875 110.828 141.699 110.828C141.523 110.828 141.39 110.779 141.299 110.682C141.211 110.584 141.167 110.462 141.167 110.315ZM143.354 114.31C143.354 113.792 143.455 113.326 143.657 112.913C143.862 112.5 144.146 112.181 144.507 111.956C144.871 111.731 145.286 111.619 145.752 111.619C146.471 111.619 147.052 111.868 147.495 112.366C147.941 112.864 148.164 113.527 148.164 114.354V114.417C148.164 114.931 148.065 115.394 147.866 115.804C147.671 116.211 147.389 116.528 147.021 116.756C146.657 116.984 146.237 117.098 145.762 117.098C145.046 117.098 144.465 116.849 144.019 116.351C143.576 115.853 143.354 115.193 143.354 114.373V114.31ZM144.263 114.417C144.263 115.003 144.398 115.473 144.668 115.828C144.941 116.183 145.306 116.36 145.762 116.36C146.221 116.36 146.585 116.181 146.855 115.823C147.126 115.462 147.261 114.957 147.261 114.31C147.261 113.73 147.122 113.261 146.846 112.903C146.572 112.542 146.208 112.361 145.752 112.361C145.306 112.361 144.946 112.539 144.673 112.894C144.399 113.248 144.263 113.756 144.263 114.417ZM150.151 111.717L150.181 112.381C150.584 111.873 151.112 111.619 151.763 111.619C152.879 111.619 153.442 112.249 153.452 113.509V117H152.549V113.504C152.546 113.123 152.458 112.841 152.285 112.659C152.116 112.477 151.851 112.386 151.489 112.386C151.196 112.386 150.939 112.464 150.718 112.62C150.496 112.776 150.324 112.981 150.2 113.235V117H149.297V111.717H150.151ZM48.0225 128.233H51.3916V129H47.0801V121.891H48.0225V128.233ZM55.3662 128.478C55.0146 128.891 54.4987 129.098 53.8184 129.098C53.2552 129.098 52.8255 128.935 52.5293 128.609C52.2363 128.281 52.0882 127.796 52.085 127.154V123.717H52.9883V127.13C52.9883 127.931 53.3138 128.331 53.9648 128.331C54.6549 128.331 55.1139 128.074 55.3418 127.56V123.717H56.2451V129H55.3857L55.3662 128.478ZM58.6035 129H57.7002V121.5H58.6035V129ZM62.2461 129.098C61.5299 129.098 60.9473 128.863 60.498 128.395C60.0488 127.923 59.8242 127.293 59.8242 126.505V126.339C59.8242 125.815 59.9235 125.348 60.1221 124.938C60.3239 124.524 60.6038 124.202 60.9619 123.971C61.3232 123.736 61.7139 123.619 62.1338 123.619C62.8206 123.619 63.3545 123.845 63.7354 124.298C64.1162 124.75 64.3066 125.398 64.3066 126.241V126.617H60.7275C60.7406 127.138 60.8919 127.56 61.1816 127.882C61.4746 128.201 61.8457 128.36 62.2949 128.36C62.6139 128.36 62.8841 128.295 63.1055 128.165C63.3268 128.035 63.5205 127.862 63.6865 127.647L64.2383 128.077C63.7956 128.757 63.1315 129.098 62.2461 129.098ZM62.1338 124.361C61.7692 124.361 61.4632 124.495 61.2158 124.762C60.9684 125.025 60.8154 125.396 60.7568 125.875H63.4033V125.807C63.3773 125.348 63.2536 124.993 63.0322 124.742C62.8109 124.488 62.5114 124.361 62.1338 124.361ZM68.6182 129C68.5661 128.896 68.5238 128.71 68.4912 128.443C68.0713 128.88 67.57 129.098 66.9873 129.098C66.4665 129.098 66.0384 128.951 65.7031 128.658C65.3711 128.362 65.2051 127.988 65.2051 127.535C65.2051 126.985 65.4134 126.559 65.8301 126.256C66.25 125.95 66.8392 125.797 67.5977 125.797H68.4766V125.382C68.4766 125.066 68.3822 124.815 68.1934 124.63C68.0046 124.441 67.7262 124.347 67.3584 124.347C67.0361 124.347 66.766 124.428 66.5479 124.591C66.3298 124.754 66.2207 124.951 66.2207 125.182H65.3125C65.3125 124.918 65.4053 124.664 65.5908 124.42C65.7796 124.173 66.0335 123.977 66.3525 123.834C66.6748 123.691 67.028 123.619 67.4121 123.619C68.0208 123.619 68.4977 123.772 68.8428 124.078C69.1878 124.381 69.3669 124.799 69.3799 125.333V127.765C69.3799 128.25 69.4417 128.635 69.5654 128.922V129H68.6182ZM67.1191 128.312C67.4023 128.312 67.6709 128.238 67.9248 128.092C68.1787 127.945 68.3626 127.755 68.4766 127.521V126.437H67.7686C66.6618 126.437 66.1084 126.76 66.1084 127.408C66.1084 127.691 66.2028 127.913 66.3916 128.072C66.5804 128.232 66.8229 128.312 67.1191 128.312ZM68.5596 122.071C68.5596 122.354 68.4587 122.592 68.2568 122.784C68.055 122.973 67.806 123.067 67.5098 123.067C67.2103 123.067 66.9596 122.971 66.7578 122.779C66.5592 122.587 66.46 122.351 66.46 122.071C66.46 121.791 66.5592 121.552 66.7578 121.354C66.9596 121.155 67.2103 121.056 67.5098 121.056C67.8092 121.056 68.0583 121.155 68.2568 121.354C68.4587 121.552 68.5596 121.791 68.5596 122.071ZM66.9434 122.071C66.9434 122.224 66.9971 122.356 67.1045 122.467C67.2152 122.577 67.3503 122.633 67.5098 122.633C67.666 122.633 67.7995 122.579 67.9102 122.472C68.0208 122.364 68.0762 122.231 68.0762 122.071C68.0762 121.912 68.0208 121.777 67.9102 121.666C67.8027 121.552 67.6693 121.495 67.5098 121.495C67.347 121.495 67.2119 121.552 67.1045 121.666C66.9971 121.78 66.9434 121.915 66.9434 122.071ZM78.4229 121.891V126.725C78.4196 127.395 78.208 127.944 77.7881 128.37C77.3714 128.797 76.805 129.036 76.0889 129.088L75.8398 129.098C75.0618 129.098 74.4417 128.888 73.9795 128.468C73.5173 128.048 73.2829 127.47 73.2764 126.734V121.891H74.2041V126.705C74.2041 127.219 74.3457 127.62 74.6289 127.906C74.9121 128.189 75.3158 128.331 75.8398 128.331C76.3704 128.331 76.7757 128.189 77.0557 127.906C77.3389 127.623 77.4805 127.224 77.4805 126.71V121.891H78.4229ZM80.6152 123.717L80.6445 124.381C81.0482 123.873 81.5755 123.619 82.2266 123.619C83.3431 123.619 83.9062 124.249 83.916 125.509V129H83.0127V125.504C83.0094 125.123 82.9215 124.841 82.749 124.659C82.5798 124.477 82.3145 124.386 81.9531 124.386C81.6602 124.386 81.403 124.464 81.1816 124.62C80.9603 124.776 80.7878 124.981 80.6641 125.235V129H79.7607V123.717H80.6152ZM86.2598 129H85.3564V123.717H86.2598V129ZM85.2832 122.315C85.2832 122.169 85.3271 122.045 85.415 121.944C85.5062 121.843 85.6396 121.793 85.8154 121.793C85.9912 121.793 86.1247 121.843 86.2158 121.944C86.307 122.045 86.3525 122.169 86.3525 122.315C86.3525 122.462 86.307 122.584 86.2158 122.682C86.1247 122.779 85.9912 122.828 85.8154 122.828C85.6396 122.828 85.5062 122.779 85.415 122.682C85.3271 122.584 85.2832 122.462 85.2832 122.315ZM89.4531 127.774L90.7617 123.717H91.6846L89.79 129H89.1016L87.1875 123.717H88.1104L89.4531 127.774ZM94.6777 129.098C93.9616 129.098 93.3789 128.863 92.9297 128.395C92.4805 127.923 92.2559 127.293 92.2559 126.505V126.339C92.2559 125.815 92.3551 125.348 92.5537 124.938C92.7555 124.524 93.0355 124.202 93.3936 123.971C93.7549 123.736 94.1455 123.619 94.5654 123.619C95.2523 123.619 95.7861 123.845 96.167 124.298C96.5479 124.75 96.7383 125.398 96.7383 126.241V126.617H93.1592C93.1722 127.138 93.3236 127.56 93.6133 127.882C93.9062 128.201 94.2773 128.36 94.7266 128.36C95.0456 128.36 95.3158 128.295 95.5371 128.165C95.7585 128.035 95.9521 127.862 96.1182 127.647L96.6699 128.077C96.2272 128.757 95.5632 129.098 94.6777 129.098ZM94.5654 124.361C94.2008 124.361 93.8949 124.495 93.6475 124.762C93.4001 125.025 93.2471 125.396 93.1885 125.875H95.835V125.807C95.8089 125.348 95.6852 124.993 95.4639 124.742C95.2425 124.488 94.943 124.361 94.5654 124.361ZM100.342 124.527C100.205 124.505 100.057 124.493 99.8975 124.493C99.305 124.493 98.903 124.745 98.6914 125.25V129H97.7881V123.717H98.667L98.6816 124.327C98.9779 123.855 99.3978 123.619 99.9414 123.619C100.117 123.619 100.251 123.642 100.342 123.688V124.527ZM104.253 127.599C104.253 127.354 104.16 127.166 103.975 127.032C103.792 126.896 103.472 126.778 103.013 126.681C102.557 126.583 102.194 126.466 101.924 126.329C101.657 126.192 101.458 126.03 101.328 125.841C101.201 125.652 101.138 125.427 101.138 125.167C101.138 124.734 101.32 124.368 101.685 124.068C102.052 123.769 102.521 123.619 103.091 123.619C103.69 123.619 104.175 123.774 104.546 124.083C104.92 124.392 105.107 124.788 105.107 125.27H104.199C104.199 125.022 104.093 124.809 103.882 124.63C103.674 124.451 103.41 124.361 103.091 124.361C102.762 124.361 102.505 124.433 102.319 124.576C102.134 124.719 102.041 124.907 102.041 125.138C102.041 125.356 102.127 125.52 102.3 125.631C102.472 125.742 102.783 125.847 103.232 125.948C103.685 126.049 104.051 126.17 104.331 126.31C104.611 126.45 104.818 126.619 104.951 126.817C105.088 127.013 105.156 127.252 105.156 127.535C105.156 128.007 104.967 128.386 104.59 128.673C104.212 128.956 103.722 129.098 103.12 129.098C102.697 129.098 102.323 129.023 101.997 128.873C101.672 128.723 101.416 128.515 101.23 128.248C101.048 127.978 100.957 127.687 100.957 127.374H101.86C101.877 127.677 101.997 127.918 102.222 128.097C102.45 128.272 102.749 128.36 103.12 128.36C103.462 128.36 103.735 128.292 103.94 128.155C104.149 128.015 104.253 127.83 104.253 127.599ZM107.314 129H106.411V123.717H107.314V129ZM106.338 122.315C106.338 122.169 106.382 122.045 106.47 121.944C106.561 121.843 106.694 121.793 106.87 121.793C107.046 121.793 107.179 121.843 107.271 121.944C107.362 122.045 107.407 122.169 107.407 122.315C107.407 122.462 107.362 122.584 107.271 122.682C107.179 122.779 107.046 122.828 106.87 122.828C106.694 122.828 106.561 122.779 106.47 122.682C106.382 122.584 106.338 122.462 106.338 122.315ZM109.99 122.438V123.717H110.977V124.415H109.99V127.691C109.99 127.903 110.034 128.062 110.122 128.17C110.21 128.274 110.36 128.326 110.571 128.326C110.675 128.326 110.819 128.307 111.001 128.268V129C110.763 129.065 110.532 129.098 110.308 129.098C109.904 129.098 109.6 128.976 109.395 128.731C109.189 128.487 109.087 128.141 109.087 127.691V124.415H108.125V123.717H109.087V122.438H109.99ZM113.765 127.677L114.995 123.717H115.962L113.838 129.815C113.509 130.694 112.987 131.134 112.271 131.134L112.1 131.119L111.763 131.056V130.323L112.007 130.343C112.313 130.343 112.55 130.281 112.72 130.157C112.892 130.034 113.034 129.807 113.145 129.479L113.345 128.941L111.46 123.717H112.446L113.765 127.677ZM119.014 126.31C119.014 125.792 119.115 125.326 119.316 124.913C119.521 124.5 119.805 124.181 120.166 123.956C120.531 123.731 120.946 123.619 121.411 123.619C122.131 123.619 122.712 123.868 123.154 124.366C123.6 124.864 123.823 125.527 123.823 126.354V126.417C123.823 126.931 123.724 127.394 123.525 127.804C123.33 128.211 123.049 128.528 122.681 128.756C122.316 128.984 121.896 129.098 121.421 129.098C120.705 129.098 120.124 128.849 119.678 128.351C119.235 127.853 119.014 127.193 119.014 126.373V126.31ZM119.922 126.417C119.922 127.003 120.057 127.473 120.327 127.828C120.601 128.183 120.965 128.36 121.421 128.36C121.88 128.36 122.244 128.181 122.515 127.823C122.785 127.462 122.92 126.957 122.92 126.31C122.92 125.73 122.782 125.261 122.505 124.903C122.231 124.542 121.867 124.361 121.411 124.361C120.965 124.361 120.605 124.539 120.332 124.894C120.059 125.248 119.922 125.756 119.922 126.417ZM125.4 129V124.415H124.565V123.717H125.4V123.175C125.4 122.608 125.552 122.171 125.854 121.861C126.157 121.552 126.585 121.397 127.139 121.397C127.347 121.397 127.554 121.425 127.759 121.48L127.71 122.213C127.557 122.184 127.394 122.169 127.222 122.169C126.929 122.169 126.702 122.255 126.543 122.428C126.383 122.597 126.304 122.841 126.304 123.16V123.717H127.432V124.415H126.304V129H125.4ZM135.771 122.662H133.486V129H132.554V122.662H130.273V121.891H135.771V122.662ZM138.389 129.098C137.673 129.098 137.09 128.863 136.641 128.395C136.191 127.923 135.967 127.293 135.967 126.505V126.339C135.967 125.815 136.066 125.348 136.265 124.938C136.466 124.524 136.746 124.202 137.104 123.971C137.466 123.736 137.856 123.619 138.276 123.619C138.963 123.619 139.497 123.845 139.878 124.298C140.259 124.75 140.449 125.398 140.449 126.241V126.617H136.87C136.883 127.138 137.035 127.56 137.324 127.882C137.617 128.201 137.988 128.36 138.438 128.36C138.757 128.36 139.027 128.295 139.248 128.165C139.469 128.035 139.663 127.862 139.829 127.647L140.381 128.077C139.938 128.757 139.274 129.098 138.389 129.098ZM138.276 124.361C137.912 124.361 137.606 124.495 137.358 124.762C137.111 125.025 136.958 125.396 136.899 125.875H139.546V125.807C139.52 125.348 139.396 124.993 139.175 124.742C138.953 124.488 138.654 124.361 138.276 124.361ZM143.618 128.36C143.94 128.36 144.222 128.263 144.463 128.067C144.704 127.872 144.837 127.628 144.863 127.335H145.718C145.701 127.638 145.597 127.926 145.405 128.199C145.213 128.473 144.956 128.691 144.634 128.854C144.315 129.016 143.976 129.098 143.618 129.098C142.899 129.098 142.326 128.858 141.899 128.38C141.476 127.898 141.265 127.241 141.265 126.407V126.256C141.265 125.742 141.359 125.284 141.548 124.884C141.737 124.483 142.007 124.173 142.358 123.951C142.713 123.73 143.132 123.619 143.613 123.619C144.206 123.619 144.697 123.797 145.088 124.151C145.482 124.506 145.692 124.967 145.718 125.533H144.863C144.837 125.191 144.707 124.911 144.473 124.693C144.242 124.472 143.955 124.361 143.613 124.361C143.154 124.361 142.798 124.527 142.544 124.859C142.293 125.188 142.168 125.665 142.168 126.29V126.461C142.168 127.07 142.293 127.538 142.544 127.867C142.795 128.196 143.153 128.36 143.618 128.36ZM147.637 124.356C148.037 123.865 148.558 123.619 149.199 123.619C150.316 123.619 150.879 124.249 150.889 125.509V129H149.985V125.504C149.982 125.123 149.894 124.841 149.722 124.659C149.552 124.477 149.287 124.386 148.926 124.386C148.633 124.386 148.376 124.464 148.154 124.62C147.933 124.776 147.76 124.981 147.637 125.235V129H146.733V121.5H147.637V124.356ZM153.096 123.717L153.125 124.381C153.529 123.873 154.056 123.619 154.707 123.619C155.824 123.619 156.387 124.249 156.396 125.509V129H155.493V125.504C155.49 125.123 155.402 124.841 155.229 124.659C155.06 124.477 154.795 124.386 154.434 124.386C154.141 124.386 153.883 124.464 153.662 124.62C153.441 124.776 153.268 124.981 153.145 125.235V129H152.241V123.717H153.096ZM157.52 126.31C157.52 125.792 157.62 125.326 157.822 124.913C158.027 124.5 158.311 124.181 158.672 123.956C159.036 123.731 159.451 123.619 159.917 123.619C160.636 123.619 161.217 123.868 161.66 124.366C162.106 124.864 162.329 125.527 162.329 126.354V126.417C162.329 126.931 162.23 127.394 162.031 127.804C161.836 128.211 161.554 128.528 161.187 128.756C160.822 128.984 160.402 129.098 159.927 129.098C159.211 129.098 158.63 128.849 158.184 128.351C157.741 127.853 157.52 127.193 157.52 126.373V126.31ZM158.428 126.417C158.428 127.003 158.563 127.473 158.833 127.828C159.106 128.183 159.471 128.36 159.927 128.36C160.386 128.36 160.75 128.181 161.021 127.823C161.291 127.462 161.426 126.957 161.426 126.31C161.426 125.73 161.287 125.261 161.011 124.903C160.737 124.542 160.373 124.361 159.917 124.361C159.471 124.361 159.111 124.539 158.838 124.894C158.564 125.248 158.428 125.756 158.428 126.417ZM164.443 129H163.54V121.5H164.443V129ZM165.654 126.31C165.654 125.792 165.755 125.326 165.957 124.913C166.162 124.5 166.445 124.181 166.807 123.956C167.171 123.731 167.586 123.619 168.052 123.619C168.771 123.619 169.352 123.868 169.795 124.366C170.241 124.864 170.464 125.527 170.464 126.354V126.417C170.464 126.931 170.365 127.394 170.166 127.804C169.971 128.211 169.689 128.528 169.321 128.756C168.957 128.984 168.537 129.098 168.062 129.098C167.345 129.098 166.764 128.849 166.318 128.351C165.876 127.853 165.654 127.193 165.654 126.373V126.31ZM166.562 126.417C166.562 127.003 166.698 127.473 166.968 127.828C167.241 128.183 167.606 128.36 168.062 128.36C168.521 128.36 168.885 128.181 169.155 127.823C169.425 127.462 169.561 126.957 169.561 126.31C169.561 125.73 169.422 125.261 169.146 124.903C168.872 124.542 168.507 124.361 168.052 124.361C167.606 124.361 167.246 124.539 166.973 124.894C166.699 125.248 166.562 125.756 166.562 126.417ZM171.382 126.314C171.382 125.491 171.572 124.837 171.953 124.352C172.334 123.863 172.839 123.619 173.467 123.619C174.111 123.619 174.614 123.847 174.976 124.303L175.02 123.717H175.845V128.873C175.845 129.557 175.641 130.095 175.234 130.489C174.831 130.883 174.287 131.08 173.604 131.08C173.223 131.08 172.85 130.999 172.485 130.836C172.121 130.673 171.842 130.45 171.65 130.167L172.119 129.625C172.507 130.104 172.98 130.343 173.54 130.343C173.979 130.343 174.321 130.219 174.565 129.972C174.813 129.724 174.937 129.376 174.937 128.927V128.473C174.575 128.889 174.082 129.098 173.457 129.098C172.839 129.098 172.337 128.849 171.953 128.351C171.572 127.853 171.382 127.174 171.382 126.314ZM172.29 126.417C172.29 127.013 172.412 127.481 172.656 127.823C172.9 128.162 173.242 128.331 173.682 128.331C174.251 128.331 174.67 128.072 174.937 127.555V125.143C174.66 124.638 174.245 124.386 173.691 124.386C173.252 124.386 172.909 124.557 172.661 124.898C172.414 125.24 172.29 125.746 172.29 126.417ZM178.94 127.677L180.171 123.717H181.138L179.014 129.815C178.685 130.694 178.162 131.134 177.446 131.134L177.275 131.119L176.938 131.056V130.323L177.183 130.343C177.489 130.343 177.726 130.281 177.896 130.157C178.068 130.034 178.21 129.807 178.32 129.479L178.521 128.941L176.636 123.717H177.622L178.94 127.677ZM90.6592 138.734C90.5225 139.47 90.1888 140.053 89.6582 140.482C89.1309 140.912 88.4977 141.117 87.7588 141.098C87.3193 141.088 86.9352 140.98 86.6064 140.775C86.2777 140.567 86.0221 140.269 85.8398 139.882C85.6576 139.491 85.5566 139.06 85.5371 138.588C85.5241 138.321 85.5355 138.061 85.5713 137.807L85.6543 137.221C85.8073 136.153 86.1816 135.312 86.7773 134.696C87.3763 134.078 88.1038 133.777 88.96 133.793C89.6273 133.806 90.1562 134.022 90.5469 134.442C90.9375 134.859 91.1442 135.438 91.167 136.181H90.2539C90.2116 135.185 89.821 134.647 89.082 134.569L88.9209 134.56C88.3057 134.543 87.7913 134.773 87.3779 135.248C86.9678 135.72 86.7025 136.366 86.582 137.187L86.4746 137.924L86.4453 138.354C86.4258 138.952 86.5316 139.429 86.7627 139.784C86.9971 140.136 87.3438 140.318 87.8027 140.331C88.2975 140.347 88.7061 140.229 89.0283 139.975C89.3538 139.721 89.6012 139.312 89.7705 138.749L90.6592 138.734ZM92.4268 141H91.5479L92.8467 133.5H93.7305L92.4268 141ZM97.1045 141C97.0817 140.906 97.0703 140.813 97.0703 140.722L97.085 140.443C96.5999 140.893 96.0856 141.111 95.542 141.098C95.0765 141.091 94.6973 140.945 94.4043 140.658C94.1146 140.368 93.9827 140.007 94.0088 139.574C94.0413 139.014 94.2855 138.578 94.7412 138.266C95.2002 137.95 95.8024 137.792 96.5479 137.792L97.4707 137.797L97.5293 137.377C97.5618 137.061 97.5 136.812 97.3438 136.63C97.1908 136.444 96.9596 136.348 96.6504 136.342C96.3477 136.335 96.0791 136.41 95.8447 136.566C95.6136 136.719 95.472 136.923 95.4199 137.177L94.5312 137.182C94.5605 136.872 94.681 136.599 94.8926 136.361C95.1042 136.12 95.376 135.935 95.708 135.805C96.04 135.671 96.3835 135.608 96.7383 135.614C97.2884 135.627 97.7165 135.795 98.0225 136.117C98.3285 136.436 98.457 136.861 98.4082 137.392L97.9785 140.009L97.9541 140.385C97.9476 140.564 97.9671 140.741 98.0127 140.917L98.0029 141H97.1045ZM95.7178 140.316C96.001 140.323 96.2679 140.256 96.5186 140.116C96.7725 139.973 96.9906 139.776 97.1729 139.525L97.3633 138.437L96.6943 138.432C96.1377 138.432 95.7113 138.52 95.415 138.695C95.1188 138.871 94.9512 139.12 94.9121 139.442C94.8828 139.69 94.9398 139.896 95.083 140.062C95.2295 140.225 95.4411 140.31 95.7178 140.316ZM102.476 139.569C102.524 139.205 102.324 138.948 101.875 138.798L100.957 138.529C100.182 138.262 99.8079 137.82 99.834 137.201C99.8568 136.736 100.068 136.355 100.469 136.059C100.872 135.759 101.346 135.613 101.89 135.619C102.424 135.626 102.856 135.782 103.188 136.088C103.524 136.391 103.685 136.786 103.672 137.274L102.793 137.27C102.799 137.006 102.716 136.791 102.544 136.625C102.371 136.459 102.142 136.373 101.855 136.366C101.549 136.36 101.286 136.435 101.064 136.591C100.859 136.737 100.741 136.929 100.708 137.167C100.666 137.473 100.853 137.696 101.27 137.836L101.714 137.958C102.319 138.114 102.749 138.318 103.003 138.568C103.257 138.819 103.374 139.13 103.354 139.501C103.335 139.83 103.228 140.116 103.032 140.36C102.837 140.604 102.576 140.792 102.251 140.922C101.925 141.049 101.579 141.107 101.211 141.098C100.651 141.091 100.189 140.928 99.8242 140.609C99.4596 140.287 99.2839 139.874 99.2969 139.369L100.181 139.374C100.181 139.67 100.275 139.908 100.464 140.087C100.653 140.266 100.911 140.355 101.24 140.355C101.562 140.362 101.841 140.295 102.075 140.155C102.31 140.012 102.443 139.817 102.476 139.569ZM107.524 139.569C107.573 139.205 107.373 138.948 106.924 138.798L106.006 138.529C105.231 138.262 104.857 137.82 104.883 137.201C104.906 136.736 105.117 136.355 105.518 136.059C105.921 135.759 106.395 135.613 106.938 135.619C107.472 135.626 107.905 135.782 108.237 136.088C108.573 136.391 108.734 136.786 108.721 137.274L107.842 137.27C107.848 137.006 107.765 136.791 107.593 136.625C107.42 136.459 107.191 136.373 106.904 136.366C106.598 136.36 106.335 136.435 106.113 136.591C105.908 136.737 105.789 136.929 105.757 137.167C105.715 137.473 105.902 137.696 106.318 137.836L106.763 137.958C107.368 138.114 107.798 138.318 108.052 138.568C108.306 138.819 108.423 139.13 108.403 139.501C108.384 139.83 108.276 140.116 108.081 140.36C107.886 140.604 107.625 140.792 107.3 140.922C106.974 141.049 106.628 141.107 106.26 141.098C105.7 141.091 105.238 140.928 104.873 140.609C104.508 140.287 104.333 139.874 104.346 139.369L105.229 139.374C105.229 139.67 105.324 139.908 105.513 140.087C105.701 140.266 105.96 140.355 106.289 140.355C106.611 140.362 106.89 140.295 107.124 140.155C107.358 140.012 107.492 139.817 107.524 139.569ZM114.688 135.619C115.13 135.626 115.509 135.746 115.825 135.98C116.141 136.215 116.374 136.539 116.523 136.952C116.676 137.362 116.729 137.812 116.68 138.3L116.67 138.407C116.608 138.922 116.455 139.387 116.211 139.804C115.967 140.217 115.651 140.539 115.264 140.771C114.876 141.002 114.451 141.111 113.989 141.098C113.55 141.091 113.171 140.971 112.852 140.736C112.536 140.502 112.305 140.183 112.158 139.779C112.012 139.376 111.96 138.931 112.002 138.446C112.051 137.899 112.199 137.408 112.446 136.972C112.694 136.535 113.011 136.199 113.398 135.961C113.789 135.72 114.219 135.606 114.688 135.619ZM112.891 138.451C112.868 138.656 112.868 138.869 112.891 139.091C112.923 139.475 113.037 139.781 113.232 140.009C113.431 140.237 113.695 140.355 114.023 140.365C114.316 140.375 114.587 140.303 114.834 140.15C115.081 139.994 115.29 139.76 115.459 139.447C115.628 139.135 115.737 138.788 115.786 138.407C115.812 138.108 115.817 137.855 115.801 137.65C115.762 137.257 115.643 136.946 115.444 136.718C115.246 136.49 114.982 136.369 114.653 136.356C114.198 136.347 113.81 136.526 113.491 136.894C113.172 137.261 112.975 137.743 112.9 138.339L112.891 138.451ZM117.769 141L118.569 136.415H117.754L117.876 135.717H118.687L118.774 135.092C118.859 134.561 119.064 134.146 119.39 133.847C119.731 133.534 120.168 133.381 120.698 133.388C120.864 133.388 121.074 133.415 121.328 133.471L121.221 134.208C121.064 134.175 120.907 134.156 120.747 134.149C120.441 134.149 120.192 134.245 120 134.438C119.811 134.626 119.694 134.879 119.648 135.194L119.57 135.717H120.664L120.542 136.415H119.448L118.652 141H117.769ZM127.695 141H123.169L123.276 140.312L125.898 137.763L126.377 137.289C126.927 136.739 127.231 136.231 127.29 135.766C127.332 135.408 127.262 135.116 127.08 134.892C126.898 134.664 126.641 134.543 126.309 134.53C125.882 134.517 125.526 134.643 125.239 134.906C124.953 135.167 124.779 135.525 124.717 135.98L123.843 135.985C123.885 135.549 124.019 135.163 124.243 134.828C124.471 134.49 124.769 134.231 125.137 134.052C125.508 133.869 125.91 133.783 126.343 133.793C126.932 133.806 127.399 133.985 127.744 134.33C128.092 134.672 128.242 135.116 128.193 135.663C128.138 136.288 127.778 136.946 127.114 137.636L126.665 138.09L124.38 140.263H127.812L127.695 141ZM130.859 141.098C130.26 141.085 129.811 140.873 129.512 140.463C129.212 140.049 129.076 139.455 129.102 138.681C129.108 138.44 129.126 138.202 129.155 137.968L129.331 136.781C129.487 135.769 129.785 135.014 130.225 134.516C130.664 134.018 131.243 133.777 131.963 133.793C132.568 133.806 133.019 134.014 133.315 134.418C133.615 134.818 133.753 135.401 133.73 136.166C133.721 136.41 133.701 136.649 133.672 136.884L133.501 138.031C133.328 139.102 133.024 139.885 132.588 140.38C132.152 140.875 131.576 141.114 130.859 141.098ZM132.817 136.723C132.863 136.329 132.884 136.023 132.881 135.805C132.865 134.978 132.544 134.553 131.919 134.53C131.463 134.514 131.094 134.683 130.811 135.038C130.531 135.39 130.335 135.943 130.225 136.698L130.015 138.114C129.969 138.492 129.948 138.799 129.951 139.037C129.967 139.9 130.286 140.342 130.908 140.365C131.341 140.385 131.698 140.225 131.978 139.887C132.261 139.548 132.463 139.011 132.583 138.275L132.817 136.723ZM137.002 141H136.113L137.158 135.004L135.269 135.668L135.42 134.809L138.057 133.856H138.213L137.002 141ZM143.569 137.875C143.328 138.129 143.073 138.319 142.803 138.446C142.533 138.57 142.264 138.629 141.997 138.622C141.623 138.616 141.302 138.51 141.035 138.305C140.771 138.1 140.578 137.818 140.454 137.46C140.334 137.102 140.293 136.711 140.332 136.288C140.374 135.819 140.506 135.39 140.728 134.999C140.949 134.608 141.237 134.307 141.592 134.096C141.95 133.881 142.344 133.78 142.773 133.793C143.34 133.806 143.784 134.011 144.106 134.408C144.429 134.805 144.603 135.338 144.629 136.005C144.639 136.353 144.598 136.786 144.507 137.304C144.292 138.521 143.867 139.439 143.232 140.058C142.601 140.673 141.789 140.99 140.796 141.01H140.576L140.654 140.248H140.835C141.535 140.235 142.108 140.04 142.554 139.662C143.003 139.281 143.341 138.686 143.569 137.875ZM142.183 137.875C142.479 137.888 142.764 137.805 143.037 137.626C143.311 137.444 143.535 137.2 143.711 136.894L143.75 136.537L143.765 136.142C143.752 135.637 143.657 135.248 143.481 134.975C143.309 134.701 143.06 134.558 142.734 134.545C142.331 134.529 141.986 134.685 141.699 135.014C141.416 135.339 141.252 135.748 141.206 136.239C141.183 136.438 141.187 136.64 141.216 136.845C141.245 137.05 141.304 137.23 141.392 137.387C141.567 137.702 141.831 137.865 142.183 137.875Z" fill="black"/>
<path d="M100.417 48.458V54.3122C100.417 55.833 101.25 57.2497 102.583 57.9788L113 63.6663C114.25 64.3538 115.75 64.3538 117 63.6663L127.417 57.9788C128.75 57.2497 129.583 55.833 129.583 54.3122V48.458L117 55.333C115.75 56.0205 114.25 56.0205 113 55.333L100.417 48.458ZM113 28.333L95.4375 37.9163C94 38.708 94 40.7913 95.4375 41.583L113 51.1663C114.25 51.8538 115.75 51.8538 117 51.1663L133.75 42.0205V54.333C133.75 55.4788 134.687 56.4163 135.833 56.4163C136.979 56.4163 137.917 55.4788 137.917 54.333V40.9788C137.917 40.208 137.5 39.5205 136.833 39.1455L117 28.333C115.75 27.6663 114.25 27.6663 113 28.333V28.333Z" fill="#8C4357"/>
<defs>
<filter id="filter0_d" x="0" y="0" width="229" height="229" filterUnits="userSpaceOnUse" color-interpolation-filters="sRGB">
<feFlood flood-opacity="0" result="BackgroundImageFix"/>
<feColorMatrix in="SourceAlpha" type="matrix" values="0 0 0 0 0 0 0 0 0 0 0 0 0 0 0 0 0 0 127 0" result="hardAlpha"/>
<feOffset dy="4"/>
<feGaussianBlur stdDeviation="2"/>
<feComposite in2="hardAlpha" operator="out"/>
<feColorMatrix type="matrix" values="0 0 0 0 0 0 0 0 0 0 0 0 0 0 0 0 0 0 0.15 0"/>
<feBlend mode="normal" in2="BackgroundImageFix" result="effect1_dropShadow"/>
<feBlend mode="normal" in="SourceGraphic" in2="effect1_dropShadow" result="shape"/>
</filter>
</defs>
</svg>
