<svg width="229" height="229" viewBox="0 0 229 229" fill="none" xmlns="http://www.w3.org/2000/svg">
<g filter="url(#filter0_d)">
<rect x="225" y="221" width="221" height="221" transform="rotate(-180 225 221)" fill="#C196A0"/>
<rect x="222.5" y="218.5" width="216" height="216" transform="rotate(-180 222.5 218.5)" stroke="white" stroke-width="5"/>
</g>
<path d="M72.6514 105V97.8906H75.1416C76.0042 97.8906 76.6585 98.0566 77.1045 98.3887C77.5505 98.7174 77.7734 99.2008 77.7734 99.8389C77.7734 100.187 77.6839 100.495 77.5049 100.762C77.3258 101.025 77.0768 101.219 76.7578 101.343C77.1224 101.434 77.4089 101.618 77.6172 101.895C77.8288 102.171 77.9346 102.51 77.9346 102.91C77.9346 103.594 77.7165 104.111 77.2803 104.463C76.8441 104.814 76.2223 104.993 75.415 105H72.6514ZM74.1162 101.904V103.823H75.3711C75.7161 103.823 75.9847 103.742 76.1768 103.579C76.3721 103.413 76.4697 103.185 76.4697 102.896C76.4697 102.244 76.1328 101.914 75.459 101.904H74.1162ZM74.1162 100.869H75.2002C75.9391 100.856 76.3086 100.562 76.3086 99.9854C76.3086 99.6631 76.2142 99.432 76.0254 99.292C75.8398 99.1488 75.5452 99.0771 75.1416 99.0771H74.1162V100.869ZM79.0186 104.307C79.0186 104.082 79.0934 103.9 79.2432 103.76C79.3962 103.62 79.5866 103.55 79.8145 103.55C80.0456 103.55 80.236 103.62 80.3857 103.76C80.5387 103.9 80.6152 104.082 80.6152 104.307C80.6152 104.528 80.5404 104.709 80.3906 104.849C80.2409 104.985 80.0488 105.054 79.8145 105.054C79.5833 105.054 79.3929 104.985 79.2432 104.849C79.0934 104.709 79.0186 104.528 79.0186 104.307ZM85.6348 103.135C85.6348 102.858 85.5371 102.646 85.3418 102.5C85.1465 102.35 84.7949 102.194 84.2871 102.031C83.7793 101.865 83.3773 101.702 83.0811 101.543C82.2738 101.107 81.8701 100.519 81.8701 99.7803C81.8701 99.3962 81.9775 99.0544 82.1924 98.7549C82.4105 98.4521 82.7214 98.2161 83.125 98.0469C83.5319 97.8776 83.9876 97.793 84.4922 97.793C85 97.793 85.4525 97.8857 85.8496 98.0713C86.2467 98.2536 86.5544 98.5124 86.7725 98.8477C86.9938 99.1829 87.1045 99.5638 87.1045 99.9902H85.6396C85.6396 99.6647 85.5371 99.4124 85.332 99.2334C85.127 99.0511 84.8389 98.96 84.4678 98.96C84.1097 98.96 83.8314 99.0365 83.6328 99.1895C83.4342 99.3392 83.335 99.5378 83.335 99.7852C83.335 100.016 83.4505 100.21 83.6816 100.366C83.916 100.522 84.2594 100.669 84.7119 100.806C85.5452 101.056 86.1523 101.367 86.5332 101.738C86.9141 102.109 87.1045 102.572 87.1045 103.125C87.1045 103.74 86.8717 104.224 86.4062 104.575C85.9408 104.924 85.3141 105.098 84.5264 105.098C83.9795 105.098 83.4814 104.998 83.0322 104.8C82.583 104.598 82.2396 104.323 82.002 103.975C81.7676 103.626 81.6504 103.223 81.6504 102.764H83.1201C83.1201 103.548 83.5889 103.94 84.5264 103.94C84.8747 103.94 85.1465 103.87 85.3418 103.73C85.5371 103.587 85.6348 103.389 85.6348 103.135ZM90.2051 103.96C90.4655 103.96 90.6771 103.888 90.8398 103.745C91.0026 103.602 91.0872 103.411 91.0938 103.174H92.417C92.4137 103.532 92.3161 103.861 92.124 104.16C91.932 104.456 91.6683 104.688 91.333 104.854C91.001 105.016 90.6331 105.098 90.2295 105.098C89.4743 105.098 88.8786 104.858 88.4424 104.38C88.0062 103.898 87.7881 103.234 87.7881 102.388V102.295C87.7881 101.481 88.0046 100.832 88.4375 100.347C88.8704 99.8617 89.4645 99.6191 90.2197 99.6191C90.8805 99.6191 91.4095 99.8079 91.8066 100.186C92.207 100.56 92.4105 101.06 92.417 101.685H91.0938C91.0872 101.411 91.0026 101.19 90.8398 101.021C90.6771 100.848 90.4622 100.762 90.1953 100.762C89.8665 100.762 89.6175 100.882 89.4482 101.123C89.2822 101.361 89.1992 101.748 89.1992 102.285V102.432C89.1992 102.975 89.2822 103.366 89.4482 103.604C89.6143 103.841 89.8665 103.96 90.2051 103.96ZM97.2021 105H95.7861V99.7168H97.2021V105ZM95.7031 98.3496C95.7031 98.138 95.7731 97.9639 95.9131 97.8271C96.0563 97.6904 96.25 97.6221 96.4941 97.6221C96.735 97.6221 96.9271 97.6904 97.0703 97.8271C97.2135 97.9639 97.2852 98.138 97.2852 98.3496C97.2852 98.5645 97.2119 98.7402 97.0654 98.877C96.9222 99.0137 96.7318 99.082 96.4941 99.082C96.2565 99.082 96.0645 99.0137 95.918 98.877C95.7747 98.7402 95.7031 98.5645 95.7031 98.3496ZM99.668 99.7168L99.7119 100.327C100.09 99.8551 100.596 99.6191 101.23 99.6191C101.79 99.6191 102.207 99.7835 102.48 100.112C102.754 100.441 102.894 100.933 102.9 101.587V105H101.489V101.621C101.489 101.322 101.424 101.105 101.294 100.972C101.164 100.835 100.947 100.767 100.645 100.767C100.247 100.767 99.9495 100.936 99.751 101.274V105H98.3398V99.7168H99.668ZM108.022 102.495V105H106.558V97.8906H109.331C109.865 97.8906 110.334 97.9883 110.737 98.1836C111.144 98.3789 111.457 98.6572 111.675 99.0186C111.893 99.3766 112.002 99.7852 112.002 100.244C112.002 100.941 111.763 101.491 111.284 101.895C110.809 102.295 110.15 102.495 109.307 102.495H108.022ZM108.022 101.309H109.331C109.718 101.309 110.013 101.217 110.215 101.035C110.42 100.853 110.522 100.592 110.522 100.254C110.522 99.9056 110.42 99.624 110.215 99.4092C110.01 99.1943 109.727 99.0837 109.365 99.0771H108.022V101.309ZM115.781 103.54C115.781 103.368 115.695 103.232 115.522 103.135C115.353 103.034 115.08 102.944 114.702 102.866C113.446 102.603 112.817 102.069 112.817 101.265C112.817 100.796 113.011 100.405 113.398 100.093C113.789 99.777 114.299 99.6191 114.927 99.6191C115.597 99.6191 116.133 99.777 116.533 100.093C116.937 100.409 117.139 100.819 117.139 101.323H115.728C115.728 101.121 115.662 100.955 115.532 100.825C115.402 100.692 115.199 100.625 114.922 100.625C114.684 100.625 114.5 100.679 114.37 100.786C114.24 100.894 114.175 101.03 114.175 101.196C114.175 101.353 114.248 101.479 114.395 101.577C114.544 101.672 114.795 101.755 115.146 101.826C115.498 101.895 115.794 101.973 116.035 102.061C116.781 102.334 117.153 102.808 117.153 103.481C117.153 103.963 116.947 104.354 116.533 104.653C116.12 104.95 115.586 105.098 114.932 105.098C114.489 105.098 114.095 105.02 113.75 104.863C113.408 104.704 113.14 104.487 112.944 104.214C112.749 103.937 112.651 103.639 112.651 103.32H113.989C114.002 103.571 114.095 103.763 114.268 103.896C114.44 104.03 114.671 104.097 114.961 104.097C115.231 104.097 115.435 104.046 115.571 103.945C115.711 103.841 115.781 103.706 115.781 103.54ZM120.039 103.003L121.016 99.7168H122.529L120.405 105.82L120.288 106.099C119.972 106.789 119.451 107.134 118.726 107.134C118.521 107.134 118.312 107.103 118.101 107.041V105.972L118.315 105.977C118.582 105.977 118.781 105.936 118.911 105.854C119.045 105.773 119.149 105.638 119.224 105.449L119.39 105.015L117.539 99.7168H119.058L120.039 103.003ZM125.215 103.96C125.475 103.96 125.687 103.888 125.85 103.745C126.012 103.602 126.097 103.411 126.104 103.174H127.427C127.424 103.532 127.326 103.861 127.134 104.16C126.942 104.456 126.678 104.688 126.343 104.854C126.011 105.016 125.643 105.098 125.239 105.098C124.484 105.098 123.888 104.858 123.452 104.38C123.016 103.898 122.798 103.234 122.798 102.388V102.295C122.798 101.481 123.014 100.832 123.447 100.347C123.88 99.8617 124.474 99.6191 125.229 99.6191C125.89 99.6191 126.419 99.8079 126.816 100.186C127.217 100.56 127.42 101.06 127.427 101.685H126.104C126.097 101.411 126.012 101.19 125.85 101.021C125.687 100.848 125.472 100.762 125.205 100.762C124.876 100.762 124.627 100.882 124.458 101.123C124.292 101.361 124.209 101.748 124.209 102.285V102.432C124.209 102.975 124.292 103.366 124.458 103.604C124.624 103.841 124.876 103.96 125.215 103.96ZM129.609 100.293C129.984 99.8438 130.454 99.6191 131.021 99.6191C132.166 99.6191 132.747 100.285 132.764 101.616V105H131.353V101.655C131.353 101.353 131.287 101.13 131.157 100.986C131.027 100.84 130.811 100.767 130.508 100.767C130.094 100.767 129.795 100.926 129.609 101.245V105H128.198V97.5H129.609V100.293ZM133.608 102.31C133.608 101.785 133.709 101.318 133.911 100.908C134.113 100.498 134.403 100.181 134.78 99.9561C135.161 99.7314 135.602 99.6191 136.104 99.6191C136.816 99.6191 137.397 99.8372 137.847 100.273C138.299 100.71 138.551 101.302 138.604 102.051L138.613 102.412C138.613 103.223 138.387 103.874 137.935 104.365C137.482 104.854 136.875 105.098 136.113 105.098C135.352 105.098 134.743 104.854 134.287 104.365C133.835 103.877 133.608 103.213 133.608 102.373V102.31ZM135.02 102.412C135.02 102.913 135.114 103.298 135.303 103.564C135.492 103.828 135.762 103.96 136.113 103.96C136.455 103.96 136.722 103.83 136.914 103.569C137.106 103.306 137.202 102.886 137.202 102.31C137.202 101.818 137.106 101.437 136.914 101.167C136.722 100.897 136.452 100.762 136.104 100.762C135.758 100.762 135.492 100.897 135.303 101.167C135.114 101.434 135.02 101.849 135.02 102.412ZM140.972 105H139.556V97.5H140.972V105ZM141.919 102.31C141.919 101.785 142.02 101.318 142.222 100.908C142.424 100.498 142.713 100.181 143.091 99.9561C143.472 99.7314 143.913 99.6191 144.414 99.6191C145.127 99.6191 145.708 99.8372 146.157 100.273C146.61 100.71 146.862 101.302 146.914 102.051L146.924 102.412C146.924 103.223 146.698 103.874 146.245 104.365C145.793 104.854 145.186 105.098 144.424 105.098C143.662 105.098 143.053 104.854 142.598 104.365C142.145 103.877 141.919 103.213 141.919 102.373V102.31ZM143.33 102.412C143.33 102.913 143.424 103.298 143.613 103.564C143.802 103.828 144.072 103.96 144.424 103.96C144.766 103.96 145.033 103.83 145.225 103.569C145.417 103.306 145.513 102.886 145.513 102.31C145.513 101.818 145.417 101.437 145.225 101.167C145.033 100.897 144.762 100.762 144.414 100.762C144.069 100.762 143.802 100.897 143.613 101.167C143.424 101.434 143.33 101.849 143.33 102.412ZM147.588 102.319C147.588 101.509 147.78 100.856 148.164 100.361C148.551 99.8665 149.072 99.6191 149.727 99.6191C150.306 99.6191 150.757 99.8177 151.079 100.215L151.138 99.7168H152.417V104.824C152.417 105.286 152.311 105.688 152.1 106.03C151.891 106.372 151.597 106.632 151.216 106.812C150.835 106.991 150.389 107.08 149.878 107.08C149.491 107.08 149.113 107.002 148.745 106.846C148.377 106.693 148.099 106.494 147.91 106.25L148.535 105.391C148.887 105.785 149.313 105.981 149.814 105.981C150.189 105.981 150.48 105.881 150.688 105.679C150.897 105.48 151.001 105.197 151.001 104.829V104.546C150.675 104.914 150.247 105.098 149.717 105.098C149.082 105.098 148.568 104.85 148.174 104.355C147.783 103.857 147.588 103.198 147.588 102.378V102.319ZM148.999 102.422C148.999 102.9 149.095 103.276 149.287 103.55C149.479 103.82 149.743 103.955 150.078 103.955C150.508 103.955 150.815 103.794 151.001 103.472V101.25C150.812 100.928 150.508 100.767 150.088 100.767C149.749 100.767 149.482 100.905 149.287 101.182C149.095 101.458 148.999 101.872 148.999 102.422ZM155.479 103.003L156.455 99.7168H157.969L155.845 105.82L155.728 106.099C155.412 106.789 154.891 107.134 154.165 107.134C153.96 107.134 153.752 107.103 153.54 107.041V105.972L153.755 105.977C154.022 105.977 154.22 105.936 154.351 105.854C154.484 105.773 154.588 105.638 154.663 105.449L154.829 105.015L152.979 99.7168H154.497L155.479 103.003ZM71.6943 113.831C70.8903 113.6 70.3044 113.317 69.9365 112.981C69.5719 112.643 69.3896 112.226 69.3896 111.731C69.3896 111.172 69.6126 110.709 70.0586 110.345C70.5078 109.977 71.0905 109.793 71.8066 109.793C72.2949 109.793 72.7295 109.887 73.1104 110.076C73.4945 110.265 73.7907 110.525 73.999 110.857C74.2106 111.189 74.3164 111.552 74.3164 111.946H73.374C73.374 111.517 73.2373 111.18 72.9639 110.936C72.6904 110.688 72.3047 110.564 71.8066 110.564C71.3444 110.564 70.9831 110.667 70.7227 110.872C70.4655 111.074 70.3369 111.355 70.3369 111.717C70.3369 112.007 70.459 112.252 70.7031 112.454C70.9505 112.653 71.3688 112.835 71.958 113.001C72.5505 113.167 73.0127 113.351 73.3447 113.553C73.68 113.751 73.9274 113.984 74.0869 114.251C74.2497 114.518 74.3311 114.832 74.3311 115.193C74.3311 115.77 74.1064 116.232 73.6572 116.58C73.208 116.925 72.6074 117.098 71.8555 117.098C71.3672 117.098 70.9115 117.005 70.4883 116.819C70.0651 116.631 69.738 116.373 69.5068 116.048C69.279 115.722 69.165 115.353 69.165 114.939H70.1074C70.1074 115.369 70.2653 115.709 70.5811 115.96C70.9001 116.207 71.3249 116.331 71.8555 116.331C72.3503 116.331 72.7295 116.23 72.9932 116.028C73.2568 115.826 73.3887 115.551 73.3887 115.203C73.3887 114.855 73.2666 114.586 73.0225 114.397C72.7783 114.205 72.3356 114.017 71.6943 113.831ZM79.8584 114.417C79.8584 115.221 79.6745 115.869 79.3066 116.36C78.9388 116.852 78.4408 117.098 77.8125 117.098C77.1712 117.098 76.6667 116.894 76.2988 116.487V119.031H75.3955V111.717H76.2207L76.2646 112.303C76.6325 111.847 77.1436 111.619 77.7979 111.619C78.4326 111.619 78.9339 111.858 79.3018 112.337C79.6729 112.815 79.8584 113.481 79.8584 114.334V114.417ZM78.9551 114.314C78.9551 113.719 78.8281 113.248 78.5742 112.903C78.3203 112.558 77.972 112.386 77.5293 112.386C76.9824 112.386 76.5723 112.628 76.2988 113.113V115.638C76.569 116.119 76.9824 116.36 77.5391 116.36C77.972 116.36 78.3154 116.189 78.5693 115.848C78.8265 115.503 78.9551 114.992 78.9551 114.314ZM83.2031 117.098C82.487 117.098 81.9043 116.863 81.4551 116.395C81.0059 115.923 80.7812 115.293 80.7812 114.505V114.339C80.7812 113.815 80.8805 113.348 81.0791 112.938C81.2809 112.524 81.5609 112.202 81.9189 111.971C82.2803 111.736 82.6709 111.619 83.0908 111.619C83.7777 111.619 84.3115 111.845 84.6924 112.298C85.0732 112.75 85.2637 113.398 85.2637 114.241V114.617H81.6846C81.6976 115.138 81.849 115.56 82.1387 115.882C82.4316 116.201 82.8027 116.36 83.252 116.36C83.571 116.36 83.8411 116.295 84.0625 116.165C84.2839 116.035 84.4775 115.862 84.6436 115.647L85.1953 116.077C84.7526 116.757 84.0885 117.098 83.2031 117.098ZM83.0908 112.361C82.7262 112.361 82.4202 112.495 82.1729 112.762C81.9255 113.025 81.7725 113.396 81.7139 113.875H84.3604V113.807C84.3343 113.348 84.2106 112.993 83.9893 112.742C83.7679 112.488 83.4684 112.361 83.0908 112.361ZM88.4326 116.36C88.7549 116.36 89.0365 116.263 89.2773 116.067C89.5182 115.872 89.6517 115.628 89.6777 115.335H90.5322C90.516 115.638 90.4118 115.926 90.2197 116.199C90.0277 116.473 89.7705 116.691 89.4482 116.854C89.1292 117.016 88.7907 117.098 88.4326 117.098C87.7132 117.098 87.1403 116.858 86.7139 116.38C86.2907 115.898 86.0791 115.241 86.0791 114.407V114.256C86.0791 113.742 86.1735 113.284 86.3623 112.884C86.5511 112.483 86.8213 112.173 87.1729 111.951C87.5277 111.73 87.946 111.619 88.4277 111.619C89.0202 111.619 89.5117 111.797 89.9023 112.151C90.2962 112.506 90.5062 112.967 90.5322 113.533H89.6777C89.6517 113.191 89.5215 112.911 89.2871 112.693C89.056 112.472 88.7695 112.361 88.4277 112.361C87.9688 112.361 87.6123 112.527 87.3584 112.859C87.1077 113.188 86.9824 113.665 86.9824 114.29V114.461C86.9824 115.07 87.1077 115.538 87.3584 115.867C87.609 116.196 87.9671 116.36 88.4326 116.36ZM92.5293 117H91.626V111.717H92.5293V117ZM91.5527 110.315C91.5527 110.169 91.5967 110.045 91.6846 109.944C91.7757 109.843 91.9092 109.793 92.085 109.793C92.2607 109.793 92.3942 109.843 92.4854 109.944C92.5765 110.045 92.6221 110.169 92.6221 110.315C92.6221 110.462 92.5765 110.584 92.4854 110.682C92.3942 110.779 92.2607 110.828 92.085 110.828C91.9092 110.828 91.7757 110.779 91.6846 110.682C91.5967 110.584 91.5527 110.462 91.5527 110.315ZM97.2412 117C97.1891 116.896 97.1468 116.71 97.1143 116.443C96.6943 116.88 96.193 117.098 95.6104 117.098C95.0895 117.098 94.6615 116.951 94.3262 116.658C93.9941 116.362 93.8281 115.988 93.8281 115.535C93.8281 114.985 94.0365 114.559 94.4531 114.256C94.873 113.95 95.4622 113.797 96.2207 113.797H97.0996V113.382C97.0996 113.066 97.0052 112.815 96.8164 112.63C96.6276 112.441 96.3493 112.347 95.9814 112.347C95.6592 112.347 95.389 112.428 95.1709 112.591C94.9528 112.754 94.8438 112.951 94.8438 113.182H93.9355C93.9355 112.918 94.0283 112.664 94.2139 112.42C94.4027 112.173 94.6566 111.977 94.9756 111.834C95.2979 111.691 95.651 111.619 96.0352 111.619C96.6439 111.619 97.1208 111.772 97.4658 112.078C97.8109 112.381 97.9899 112.799 98.0029 113.333V115.765C98.0029 116.25 98.0648 116.635 98.1885 116.922V117H97.2412ZM95.7422 116.312C96.0254 116.312 96.2939 116.238 96.5479 116.092C96.8018 115.945 96.9857 115.755 97.0996 115.521V114.437H96.3916C95.2848 114.437 94.7314 114.76 94.7314 115.408C94.7314 115.691 94.8258 115.913 95.0146 116.072C95.2035 116.232 95.446 116.312 95.7422 116.312ZM100.4 117H99.4971V109.5H100.4V117ZM102.832 117H101.929V111.717H102.832V117ZM101.855 110.315C101.855 110.169 101.899 110.045 101.987 109.944C102.078 109.843 102.212 109.793 102.388 109.793C102.563 109.793 102.697 109.843 102.788 109.944C102.879 110.045 102.925 110.169 102.925 110.315C102.925 110.462 102.879 110.584 102.788 110.682C102.697 110.779 102.563 110.828 102.388 110.828C102.212 110.828 102.078 110.779 101.987 110.682C101.899 110.584 101.855 110.462 101.855 110.315ZM105.132 116.263H108.223V117H104.028V116.336L106.943 112.464H104.072V111.717H108.076V112.356L105.132 116.263ZM111.357 117.098C110.641 117.098 110.059 116.863 109.609 116.395C109.16 115.923 108.936 115.293 108.936 114.505V114.339C108.936 113.815 109.035 113.348 109.233 112.938C109.435 112.524 109.715 112.202 110.073 111.971C110.435 111.736 110.825 111.619 111.245 111.619C111.932 111.619 112.466 111.845 112.847 112.298C113.228 112.75 113.418 113.398 113.418 114.241V114.617H109.839C109.852 115.138 110.003 115.56 110.293 115.882C110.586 116.201 110.957 116.36 111.406 116.36C111.725 116.36 111.995 116.295 112.217 116.165C112.438 116.035 112.632 115.862 112.798 115.647L113.35 116.077C112.907 116.757 112.243 117.098 111.357 117.098ZM111.245 112.361C110.881 112.361 110.575 112.495 110.327 112.762C110.08 113.025 109.927 113.396 109.868 113.875H112.515V113.807C112.489 113.348 112.365 112.993 112.144 112.742C111.922 112.488 111.623 112.361 111.245 112.361ZM114.248 114.314C114.248 113.504 114.44 112.853 114.824 112.361C115.208 111.867 115.711 111.619 116.333 111.619C116.951 111.619 117.441 111.831 117.803 112.254V109.5H118.706V117H117.876L117.832 116.434C117.471 116.876 116.968 117.098 116.323 117.098C115.711 117.098 115.212 116.847 114.824 116.346C114.44 115.844 114.248 115.19 114.248 114.383V114.314ZM115.151 114.417C115.151 115.016 115.275 115.485 115.522 115.823C115.77 116.162 116.112 116.331 116.548 116.331C117.121 116.331 117.539 116.074 117.803 115.56V113.133C117.533 112.635 117.118 112.386 116.558 112.386C116.115 112.386 115.77 112.557 115.522 112.898C115.275 113.24 115.151 113.746 115.151 114.417ZM123.945 109.891L126.27 115.691L128.594 109.891H129.81V117H128.872V114.231L128.96 111.243L126.626 117H125.908L123.579 111.258L123.672 114.231V117H122.734V109.891H123.945ZM133.516 117.098C132.799 117.098 132.217 116.863 131.768 116.395C131.318 115.923 131.094 115.293 131.094 114.505V114.339C131.094 113.815 131.193 113.348 131.392 112.938C131.593 112.524 131.873 112.202 132.231 111.971C132.593 111.736 132.983 111.619 133.403 111.619C134.09 111.619 134.624 111.845 135.005 112.298C135.386 112.75 135.576 113.398 135.576 114.241V114.617H131.997C132.01 115.138 132.161 115.56 132.451 115.882C132.744 116.201 133.115 116.36 133.564 116.36C133.883 116.36 134.154 116.295 134.375 116.165C134.596 116.035 134.79 115.862 134.956 115.647L135.508 116.077C135.065 116.757 134.401 117.098 133.516 117.098ZM133.403 112.361C133.039 112.361 132.733 112.495 132.485 112.762C132.238 113.025 132.085 113.396 132.026 113.875H134.673V113.807C134.647 113.348 134.523 112.993 134.302 112.742C134.08 112.488 133.781 112.361 133.403 112.361ZM137.852 110.438V111.717H138.838V112.415H137.852V115.691C137.852 115.903 137.896 116.062 137.983 116.17C138.071 116.274 138.221 116.326 138.433 116.326C138.537 116.326 138.68 116.307 138.862 116.268V117C138.625 117.065 138.394 117.098 138.169 117.098C137.765 117.098 137.461 116.976 137.256 116.731C137.051 116.487 136.948 116.141 136.948 115.691V112.415H135.986V111.717H136.948V110.438H137.852ZM140.801 112.356C141.201 111.865 141.722 111.619 142.363 111.619C143.48 111.619 144.043 112.249 144.053 113.509V117H143.149V113.504C143.146 113.123 143.058 112.841 142.886 112.659C142.716 112.477 142.451 112.386 142.09 112.386C141.797 112.386 141.54 112.464 141.318 112.62C141.097 112.776 140.924 112.981 140.801 113.235V117H139.897V109.5H140.801V112.356ZM145.166 114.31C145.166 113.792 145.267 113.326 145.469 112.913C145.674 112.5 145.957 112.181 146.318 111.956C146.683 111.731 147.098 111.619 147.563 111.619C148.283 111.619 148.864 111.868 149.307 112.366C149.753 112.864 149.976 113.527 149.976 114.354V114.417C149.976 114.931 149.876 115.394 149.678 115.804C149.482 116.211 149.201 116.528 148.833 116.756C148.468 116.984 148.049 117.098 147.573 117.098C146.857 117.098 146.276 116.849 145.83 116.351C145.387 115.853 145.166 115.193 145.166 114.373V114.31ZM146.074 114.417C146.074 115.003 146.209 115.473 146.479 115.828C146.753 116.183 147.118 116.36 147.573 116.36C148.032 116.36 148.397 116.181 148.667 115.823C148.937 115.462 149.072 114.957 149.072 114.31C149.072 113.73 148.934 113.261 148.657 112.903C148.384 112.542 148.019 112.361 147.563 112.361C147.118 112.361 146.758 112.539 146.484 112.894C146.211 113.248 146.074 113.756 146.074 114.417ZM150.889 114.314C150.889 113.504 151.081 112.853 151.465 112.361C151.849 111.867 152.352 111.619 152.974 111.619C153.592 111.619 154.082 111.831 154.443 112.254V109.5H155.347V117H154.517L154.473 116.434C154.111 116.876 153.608 117.098 152.964 117.098C152.352 117.098 151.852 116.847 151.465 116.346C151.081 115.844 150.889 115.19 150.889 114.383V114.314ZM151.792 114.417C151.792 115.016 151.916 115.485 152.163 115.823C152.41 116.162 152.752 116.331 153.188 116.331C153.761 116.331 154.18 116.074 154.443 115.56V113.133C154.173 112.635 153.758 112.386 153.198 112.386C152.756 112.386 152.41 112.557 152.163 112.898C151.916 113.24 151.792 113.746 151.792 114.417ZM159.829 115.599C159.829 115.354 159.736 115.166 159.551 115.032C159.368 114.896 159.048 114.778 158.589 114.681C158.133 114.583 157.77 114.466 157.5 114.329C157.233 114.192 157.035 114.03 156.904 113.841C156.777 113.652 156.714 113.427 156.714 113.167C156.714 112.734 156.896 112.368 157.261 112.068C157.629 111.769 158.097 111.619 158.667 111.619C159.266 111.619 159.751 111.774 160.122 112.083C160.496 112.392 160.684 112.788 160.684 113.27H159.775C159.775 113.022 159.67 112.809 159.458 112.63C159.25 112.451 158.986 112.361 158.667 112.361C158.338 112.361 158.081 112.433 157.896 112.576C157.71 112.719 157.617 112.907 157.617 113.138C157.617 113.356 157.703 113.52 157.876 113.631C158.049 113.742 158.359 113.847 158.809 113.948C159.261 114.049 159.627 114.17 159.907 114.31C160.187 114.45 160.394 114.619 160.527 114.817C160.664 115.013 160.732 115.252 160.732 115.535C160.732 116.007 160.544 116.386 160.166 116.673C159.788 116.956 159.299 117.098 158.696 117.098C158.273 117.098 157.899 117.023 157.573 116.873C157.248 116.723 156.992 116.515 156.807 116.248C156.624 115.978 156.533 115.687 156.533 115.374H157.437C157.453 115.677 157.573 115.918 157.798 116.097C158.026 116.272 158.325 116.36 158.696 116.36C159.038 116.36 159.312 116.292 159.517 116.155C159.725 116.015 159.829 115.83 159.829 115.599ZM49.2627 128.233H52.6318V129H48.3203V121.891H49.2627V128.233ZM56.6064 128.478C56.2549 128.891 55.7389 129.098 55.0586 129.098C54.4954 129.098 54.0658 128.935 53.7695 128.609C53.4766 128.281 53.3285 127.796 53.3252 127.154V123.717H54.2285V127.13C54.2285 127.931 54.554 128.331 55.2051 128.331C55.8952 128.331 56.3542 128.074 56.582 127.56V123.717H57.4854V129H56.626L56.6064 128.478ZM59.8438 129H58.9404V121.5H59.8438V129ZM63.4863 129.098C62.7702 129.098 62.1875 128.863 61.7383 128.395C61.2891 127.923 61.0645 127.293 61.0645 126.505V126.339C61.0645 125.815 61.1637 125.348 61.3623 124.938C61.5641 124.524 61.8441 124.202 62.2021 123.971C62.5635 123.736 62.9541 123.619 63.374 123.619C64.0609 123.619 64.5947 123.845 64.9756 124.298C65.3564 124.75 65.5469 125.398 65.5469 126.241V126.617H61.9678C61.9808 127.138 62.1322 127.56 62.4219 127.882C62.7148 128.201 63.0859 128.36 63.5352 128.36C63.8542 128.36 64.1243 128.295 64.3457 128.165C64.5671 128.035 64.7607 127.862 64.9268 127.647L65.4785 128.077C65.0358 128.757 64.3717 129.098 63.4863 129.098ZM63.374 124.361C63.0094 124.361 62.7035 124.495 62.4561 124.762C62.2087 125.025 62.0557 125.396 61.9971 125.875H64.6436V125.807C64.6175 125.348 64.4938 124.993 64.2725 124.742C64.0511 124.488 63.7516 124.361 63.374 124.361ZM69.8584 129C69.8063 128.896 69.764 128.71 69.7314 128.443C69.3115 128.88 68.8102 129.098 68.2275 129.098C67.7067 129.098 67.2786 128.951 66.9434 128.658C66.6113 128.362 66.4453 127.988 66.4453 127.535C66.4453 126.985 66.6536 126.559 67.0703 126.256C67.4902 125.95 68.0794 125.797 68.8379 125.797H69.7168V125.382C69.7168 125.066 69.6224 124.815 69.4336 124.63C69.2448 124.441 68.9665 124.347 68.5986 124.347C68.2764 124.347 68.0062 124.428 67.7881 124.591C67.57 124.754 67.4609 124.951 67.4609 125.182H66.5527C66.5527 124.918 66.6455 124.664 66.8311 124.42C67.0199 124.173 67.2738 123.977 67.5928 123.834C67.915 123.691 68.2682 123.619 68.6523 123.619C69.2611 123.619 69.738 123.772 70.083 124.078C70.4281 124.381 70.6071 124.799 70.6201 125.333V127.765C70.6201 128.25 70.682 128.635 70.8057 128.922V129H69.8584ZM68.3594 128.312C68.6426 128.312 68.9111 128.238 69.165 128.092C69.4189 127.945 69.6029 127.755 69.7168 127.521V126.437H69.0088C67.902 126.437 67.3486 126.76 67.3486 127.408C67.3486 127.691 67.443 127.913 67.6318 128.072C67.8206 128.232 68.0632 128.312 68.3594 128.312ZM69.7998 122.071C69.7998 122.354 69.6989 122.592 69.4971 122.784C69.2952 122.973 69.0462 123.067 68.75 123.067C68.4505 123.067 68.1999 122.971 67.998 122.779C67.7995 122.587 67.7002 122.351 67.7002 122.071C67.7002 121.791 67.7995 121.552 67.998 121.354C68.1999 121.155 68.4505 121.056 68.75 121.056C69.0495 121.056 69.2985 121.155 69.4971 121.354C69.6989 121.552 69.7998 121.791 69.7998 122.071ZM68.1836 122.071C68.1836 122.224 68.2373 122.356 68.3447 122.467C68.4554 122.577 68.5905 122.633 68.75 122.633C68.9062 122.633 69.0397 122.579 69.1504 122.472C69.2611 122.364 69.3164 122.231 69.3164 122.071C69.3164 121.912 69.2611 121.777 69.1504 121.666C69.043 121.552 68.9095 121.495 68.75 121.495C68.5872 121.495 68.4521 121.552 68.3447 121.666C68.2373 121.78 68.1836 121.915 68.1836 122.071ZM79.6631 121.891V126.725C79.6598 127.395 79.4482 127.944 79.0283 128.37C78.6117 128.797 78.0452 129.036 77.3291 129.088L77.0801 129.098C76.3021 129.098 75.682 128.888 75.2197 128.468C74.7575 128.048 74.5231 127.47 74.5166 126.734V121.891H75.4443V126.705C75.4443 127.219 75.5859 127.62 75.8691 127.906C76.1523 128.189 76.556 128.331 77.0801 128.331C77.6107 128.331 78.016 128.189 78.2959 127.906C78.5791 127.623 78.7207 127.224 78.7207 126.71V121.891H79.6631ZM81.8555 123.717L81.8848 124.381C82.2884 123.873 82.8158 123.619 83.4668 123.619C84.5833 123.619 85.1465 124.249 85.1562 125.509V129H84.2529V125.504C84.2497 125.123 84.1618 124.841 83.9893 124.659C83.82 124.477 83.5547 124.386 83.1934 124.386C82.9004 124.386 82.6432 124.464 82.4219 124.62C82.2005 124.776 82.028 124.981 81.9043 125.235V129H81.001V123.717H81.8555ZM87.5 129H86.5967V123.717H87.5V129ZM86.5234 122.315C86.5234 122.169 86.5674 122.045 86.6553 121.944C86.7464 121.843 86.8799 121.793 87.0557 121.793C87.2314 121.793 87.3649 121.843 87.4561 121.944C87.5472 122.045 87.5928 122.169 87.5928 122.315C87.5928 122.462 87.5472 122.584 87.4561 122.682C87.3649 122.779 87.2314 122.828 87.0557 122.828C86.8799 122.828 86.7464 122.779 86.6553 122.682C86.5674 122.584 86.5234 122.462 86.5234 122.315ZM90.6934 127.774L92.002 123.717H92.9248L91.0303 129H90.3418L88.4277 123.717H89.3506L90.6934 127.774ZM95.918 129.098C95.2018 129.098 94.6191 128.863 94.1699 128.395C93.7207 127.923 93.4961 127.293 93.4961 126.505V126.339C93.4961 125.815 93.5954 125.348 93.7939 124.938C93.9958 124.524 94.2757 124.202 94.6338 123.971C94.9951 123.736 95.3857 123.619 95.8057 123.619C96.4925 123.619 97.0264 123.845 97.4072 124.298C97.7881 124.75 97.9785 125.398 97.9785 126.241V126.617H94.3994C94.4124 127.138 94.5638 127.56 94.8535 127.882C95.1465 128.201 95.5176 128.36 95.9668 128.36C96.2858 128.36 96.556 128.295 96.7773 128.165C96.9987 128.035 97.1924 127.862 97.3584 127.647L97.9102 128.077C97.4674 128.757 96.8034 129.098 95.918 129.098ZM95.8057 124.361C95.4411 124.361 95.1351 124.495 94.8877 124.762C94.6403 125.025 94.4873 125.396 94.4287 125.875H97.0752V125.807C97.0492 125.348 96.9255 124.993 96.7041 124.742C96.4827 124.488 96.1833 124.361 95.8057 124.361ZM101.582 124.527C101.445 124.505 101.297 124.493 101.138 124.493C100.545 124.493 100.143 124.745 99.9316 125.25V129H99.0283V123.717H99.9072L99.9219 124.327C100.218 123.855 100.638 123.619 101.182 123.619C101.357 123.619 101.491 123.642 101.582 123.688V124.527ZM105.493 127.599C105.493 127.354 105.4 127.166 105.215 127.032C105.033 126.896 104.712 126.778 104.253 126.681C103.797 126.583 103.434 126.466 103.164 126.329C102.897 126.192 102.699 126.03 102.568 125.841C102.441 125.652 102.378 125.427 102.378 125.167C102.378 124.734 102.56 124.368 102.925 124.068C103.293 123.769 103.761 123.619 104.331 123.619C104.93 123.619 105.415 123.774 105.786 124.083C106.16 124.392 106.348 124.788 106.348 125.27H105.439C105.439 125.022 105.334 124.809 105.122 124.63C104.914 124.451 104.65 124.361 104.331 124.361C104.002 124.361 103.745 124.433 103.56 124.576C103.374 124.719 103.281 124.907 103.281 125.138C103.281 125.356 103.368 125.52 103.54 125.631C103.713 125.742 104.023 125.847 104.473 125.948C104.925 126.049 105.291 126.17 105.571 126.31C105.851 126.45 106.058 126.619 106.191 126.817C106.328 127.013 106.396 127.252 106.396 127.535C106.396 128.007 106.208 128.386 105.83 128.673C105.452 128.956 104.963 129.098 104.36 129.098C103.937 129.098 103.563 129.023 103.237 128.873C102.912 128.723 102.656 128.515 102.471 128.248C102.288 127.978 102.197 127.687 102.197 127.374H103.101C103.117 127.677 103.237 127.918 103.462 128.097C103.69 128.272 103.989 128.36 104.36 128.36C104.702 128.36 104.976 128.292 105.181 128.155C105.389 128.015 105.493 127.83 105.493 127.599ZM108.555 129H107.651V123.717H108.555V129ZM107.578 122.315C107.578 122.169 107.622 122.045 107.71 121.944C107.801 121.843 107.935 121.793 108.11 121.793C108.286 121.793 108.42 121.843 108.511 121.944C108.602 122.045 108.647 122.169 108.647 122.315C108.647 122.462 108.602 122.584 108.511 122.682C108.42 122.779 108.286 122.828 108.11 122.828C107.935 122.828 107.801 122.779 107.71 122.682C107.622 122.584 107.578 122.462 107.578 122.315ZM111.23 122.438V123.717H112.217V124.415H111.23V127.691C111.23 127.903 111.274 128.062 111.362 128.17C111.45 128.274 111.6 128.326 111.812 128.326C111.916 128.326 112.059 128.307 112.241 128.268V129C112.004 129.065 111.772 129.098 111.548 129.098C111.144 129.098 110.84 128.976 110.635 128.731C110.43 128.487 110.327 128.141 110.327 127.691V124.415H109.365V123.717H110.327V122.438H111.23ZM115.005 127.677L116.235 123.717H117.202L115.078 129.815C114.749 130.694 114.227 131.134 113.511 131.134L113.34 131.119L113.003 131.056V130.323L113.247 130.343C113.553 130.343 113.791 130.281 113.96 130.157C114.132 130.034 114.274 129.807 114.385 129.479L114.585 128.941L112.7 123.717H113.687L115.005 127.677ZM120.254 126.31C120.254 125.792 120.355 125.326 120.557 124.913C120.762 124.5 121.045 124.181 121.406 123.956C121.771 123.731 122.186 123.619 122.651 123.619C123.371 123.619 123.952 123.868 124.395 124.366C124.84 124.864 125.063 125.527 125.063 126.354V126.417C125.063 126.931 124.964 127.394 124.766 127.804C124.57 128.211 124.289 128.528 123.921 128.756C123.556 128.984 123.136 129.098 122.661 129.098C121.945 129.098 121.364 128.849 120.918 128.351C120.475 127.853 120.254 127.193 120.254 126.373V126.31ZM121.162 126.417C121.162 127.003 121.297 127.473 121.567 127.828C121.841 128.183 122.205 128.36 122.661 128.36C123.12 128.36 123.485 128.181 123.755 127.823C124.025 127.462 124.16 126.957 124.16 126.31C124.16 125.73 124.022 125.261 123.745 124.903C123.472 124.542 123.107 124.361 122.651 124.361C122.205 124.361 121.846 124.539 121.572 124.894C121.299 125.248 121.162 125.756 121.162 126.417ZM126.641 129V124.415H125.806V123.717H126.641V123.175C126.641 122.608 126.792 122.171 127.095 121.861C127.397 121.552 127.826 121.397 128.379 121.397C128.587 121.397 128.794 121.425 128.999 121.48L128.95 122.213C128.797 122.184 128.634 122.169 128.462 122.169C128.169 122.169 127.943 122.255 127.783 122.428C127.624 122.597 127.544 122.841 127.544 123.16V123.717H128.672V124.415H127.544V129H126.641ZM137.012 122.662H134.727V129H133.794V122.662H131.514V121.891H137.012V122.662ZM139.629 129.098C138.913 129.098 138.33 128.863 137.881 128.395C137.432 127.923 137.207 127.293 137.207 126.505V126.339C137.207 125.815 137.306 125.348 137.505 124.938C137.707 124.524 137.987 124.202 138.345 123.971C138.706 123.736 139.097 123.619 139.517 123.619C140.203 123.619 140.737 123.845 141.118 124.298C141.499 124.75 141.689 125.398 141.689 126.241V126.617H138.11C138.123 127.138 138.275 127.56 138.564 127.882C138.857 128.201 139.229 128.36 139.678 128.36C139.997 128.36 140.267 128.295 140.488 128.165C140.71 128.035 140.903 127.862 141.069 127.647L141.621 128.077C141.178 128.757 140.514 129.098 139.629 129.098ZM139.517 124.361C139.152 124.361 138.846 124.495 138.599 124.762C138.351 125.025 138.198 125.396 138.14 125.875H140.786V125.807C140.76 125.348 140.636 124.993 140.415 124.742C140.194 124.488 139.894 124.361 139.517 124.361ZM144.858 128.36C145.181 128.36 145.462 128.263 145.703 128.067C145.944 127.872 146.077 127.628 146.104 127.335H146.958C146.942 127.638 146.838 127.926 146.646 128.199C146.453 128.473 146.196 128.691 145.874 128.854C145.555 129.016 145.216 129.098 144.858 129.098C144.139 129.098 143.566 128.858 143.14 128.38C142.716 127.898 142.505 127.241 142.505 126.407V126.256C142.505 125.742 142.599 125.284 142.788 124.884C142.977 124.483 143.247 124.173 143.599 123.951C143.953 123.73 144.372 123.619 144.854 123.619C145.446 123.619 145.938 123.797 146.328 124.151C146.722 124.506 146.932 124.967 146.958 125.533H146.104C146.077 125.191 145.947 124.911 145.713 124.693C145.482 124.472 145.195 124.361 144.854 124.361C144.395 124.361 144.038 124.527 143.784 124.859C143.534 125.188 143.408 125.665 143.408 126.29V126.461C143.408 127.07 143.534 127.538 143.784 127.867C144.035 128.196 144.393 128.36 144.858 128.36ZM148.877 124.356C149.277 123.865 149.798 123.619 150.439 123.619C151.556 123.619 152.119 124.249 152.129 125.509V129H151.226V125.504C151.222 125.123 151.134 124.841 150.962 124.659C150.793 124.477 150.527 124.386 150.166 124.386C149.873 124.386 149.616 124.464 149.395 124.62C149.173 124.776 149.001 124.981 148.877 125.235V129H147.974V121.5H148.877V124.356ZM154.336 123.717L154.365 124.381C154.769 123.873 155.296 123.619 155.947 123.619C157.064 123.619 157.627 124.249 157.637 125.509V129H156.733V125.504C156.73 125.123 156.642 124.841 156.47 124.659C156.3 124.477 156.035 124.386 155.674 124.386C155.381 124.386 155.124 124.464 154.902 124.62C154.681 124.776 154.508 124.981 154.385 125.235V129H153.481V123.717H154.336ZM158.76 126.31C158.76 125.792 158.861 125.326 159.062 124.913C159.268 124.5 159.551 124.181 159.912 123.956C160.277 123.731 160.692 123.619 161.157 123.619C161.877 123.619 162.458 123.868 162.9 124.366C163.346 124.864 163.569 125.527 163.569 126.354V126.417C163.569 126.931 163.47 127.394 163.271 127.804C163.076 128.211 162.795 128.528 162.427 128.756C162.062 128.984 161.642 129.098 161.167 129.098C160.451 129.098 159.87 128.849 159.424 128.351C158.981 127.853 158.76 127.193 158.76 126.373V126.31ZM159.668 126.417C159.668 127.003 159.803 127.473 160.073 127.828C160.347 128.183 160.711 128.36 161.167 128.36C161.626 128.36 161.991 128.181 162.261 127.823C162.531 127.462 162.666 126.957 162.666 126.31C162.666 125.73 162.528 125.261 162.251 124.903C161.978 124.542 161.613 124.361 161.157 124.361C160.711 124.361 160.352 124.539 160.078 124.894C159.805 125.248 159.668 125.756 159.668 126.417ZM165.684 129H164.78V121.5H165.684V129ZM166.895 126.31C166.895 125.792 166.995 125.326 167.197 124.913C167.402 124.5 167.686 124.181 168.047 123.956C168.411 123.731 168.826 123.619 169.292 123.619C170.011 123.619 170.592 123.868 171.035 124.366C171.481 124.864 171.704 125.527 171.704 126.354V126.417C171.704 126.931 171.605 127.394 171.406 127.804C171.211 128.211 170.929 128.528 170.562 128.756C170.197 128.984 169.777 129.098 169.302 129.098C168.586 129.098 168.005 128.849 167.559 128.351C167.116 127.853 166.895 127.193 166.895 126.373V126.31ZM167.803 126.417C167.803 127.003 167.938 127.473 168.208 127.828C168.481 128.183 168.846 128.36 169.302 128.36C169.761 128.36 170.125 128.181 170.396 127.823C170.666 127.462 170.801 126.957 170.801 126.31C170.801 125.73 170.662 125.261 170.386 124.903C170.112 124.542 169.748 124.361 169.292 124.361C168.846 124.361 168.486 124.539 168.213 124.894C167.939 125.248 167.803 125.756 167.803 126.417ZM172.622 126.314C172.622 125.491 172.812 124.837 173.193 124.352C173.574 123.863 174.079 123.619 174.707 123.619C175.352 123.619 175.854 123.847 176.216 124.303L176.26 123.717H177.085V128.873C177.085 129.557 176.882 130.095 176.475 130.489C176.071 130.883 175.527 131.08 174.844 131.08C174.463 131.08 174.09 130.999 173.726 130.836C173.361 130.673 173.083 130.45 172.891 130.167L173.359 129.625C173.747 130.104 174.22 130.343 174.78 130.343C175.22 130.343 175.562 130.219 175.806 129.972C176.053 129.724 176.177 129.376 176.177 128.927V128.473C175.815 128.889 175.322 129.098 174.697 129.098C174.079 129.098 173.577 128.849 173.193 128.351C172.812 127.853 172.622 127.174 172.622 126.314ZM173.53 126.417C173.53 127.013 173.652 127.481 173.896 127.823C174.141 128.162 174.482 128.331 174.922 128.331C175.492 128.331 175.91 128.072 176.177 127.555V125.143C175.9 124.638 175.485 124.386 174.932 124.386C174.492 124.386 174.149 124.557 173.901 124.898C173.654 125.24 173.53 125.746 173.53 126.417ZM180.181 127.677L181.411 123.717H182.378L180.254 129.815C179.925 130.694 179.403 131.134 178.687 131.134L178.516 131.119L178.179 131.056V130.323L178.423 130.343C178.729 130.343 178.966 130.281 179.136 130.157C179.308 130.034 179.45 129.807 179.561 129.479L179.761 128.941L177.876 123.717H178.862L180.181 127.677ZM90.6592 138.734C90.5225 139.47 90.1888 140.053 89.6582 140.482C89.1309 140.912 88.4977 141.117 87.7588 141.098C87.3193 141.088 86.9352 140.98 86.6064 140.775C86.2777 140.567 86.0221 140.269 85.8398 139.882C85.6576 139.491 85.5566 139.06 85.5371 138.588C85.5241 138.321 85.5355 138.061 85.5713 137.807L85.6543 137.221C85.8073 136.153 86.1816 135.312 86.7773 134.696C87.3763 134.078 88.1038 133.777 88.96 133.793C89.6273 133.806 90.1562 134.022 90.5469 134.442C90.9375 134.859 91.1442 135.438 91.167 136.181H90.2539C90.2116 135.185 89.821 134.647 89.082 134.569L88.9209 134.56C88.3057 134.543 87.7913 134.773 87.3779 135.248C86.9678 135.72 86.7025 136.366 86.582 137.187L86.4746 137.924L86.4453 138.354C86.4258 138.952 86.5316 139.429 86.7627 139.784C86.9971 140.136 87.3438 140.318 87.8027 140.331C88.2975 140.347 88.7061 140.229 89.0283 139.975C89.3538 139.721 89.6012 139.312 89.7705 138.749L90.6592 138.734ZM92.4268 141H91.5479L92.8467 133.5H93.7305L92.4268 141ZM97.1045 141C97.0817 140.906 97.0703 140.813 97.0703 140.722L97.085 140.443C96.5999 140.893 96.0856 141.111 95.542 141.098C95.0765 141.091 94.6973 140.945 94.4043 140.658C94.1146 140.368 93.9827 140.007 94.0088 139.574C94.0413 139.014 94.2855 138.578 94.7412 138.266C95.2002 137.95 95.8024 137.792 96.5479 137.792L97.4707 137.797L97.5293 137.377C97.5618 137.061 97.5 136.812 97.3438 136.63C97.1908 136.444 96.9596 136.348 96.6504 136.342C96.3477 136.335 96.0791 136.41 95.8447 136.566C95.6136 136.719 95.472 136.923 95.4199 137.177L94.5312 137.182C94.5605 136.872 94.681 136.599 94.8926 136.361C95.1042 136.12 95.376 135.935 95.708 135.805C96.04 135.671 96.3835 135.608 96.7383 135.614C97.2884 135.627 97.7165 135.795 98.0225 136.117C98.3285 136.436 98.457 136.861 98.4082 137.392L97.9785 140.009L97.9541 140.385C97.9476 140.564 97.9671 140.741 98.0127 140.917L98.0029 141H97.1045ZM95.7178 140.316C96.001 140.323 96.2679 140.256 96.5186 140.116C96.7725 139.973 96.9906 139.776 97.1729 139.525L97.3633 138.437L96.6943 138.432C96.1377 138.432 95.7113 138.52 95.415 138.695C95.1188 138.871 94.9512 139.12 94.9121 139.442C94.8828 139.69 94.9398 139.896 95.083 140.062C95.2295 140.225 95.4411 140.31 95.7178 140.316ZM102.476 139.569C102.524 139.205 102.324 138.948 101.875 138.798L100.957 138.529C100.182 138.262 99.8079 137.82 99.834 137.201C99.8568 136.736 100.068 136.355 100.469 136.059C100.872 135.759 101.346 135.613 101.89 135.619C102.424 135.626 102.856 135.782 103.188 136.088C103.524 136.391 103.685 136.786 103.672 137.274L102.793 137.27C102.799 137.006 102.716 136.791 102.544 136.625C102.371 136.459 102.142 136.373 101.855 136.366C101.549 136.36 101.286 136.435 101.064 136.591C100.859 136.737 100.741 136.929 100.708 137.167C100.666 137.473 100.853 137.696 101.27 137.836L101.714 137.958C102.319 138.114 102.749 138.318 103.003 138.568C103.257 138.819 103.374 139.13 103.354 139.501C103.335 139.83 103.228 140.116 103.032 140.36C102.837 140.604 102.576 140.792 102.251 140.922C101.925 141.049 101.579 141.107 101.211 141.098C100.651 141.091 100.189 140.928 99.8242 140.609C99.4596 140.287 99.2839 139.874 99.2969 139.369L100.181 139.374C100.181 139.67 100.275 139.908 100.464 140.087C100.653 140.266 100.911 140.355 101.24 140.355C101.562 140.362 101.841 140.295 102.075 140.155C102.31 140.012 102.443 139.817 102.476 139.569ZM107.524 139.569C107.573 139.205 107.373 138.948 106.924 138.798L106.006 138.529C105.231 138.262 104.857 137.82 104.883 137.201C104.906 136.736 105.117 136.355 105.518 136.059C105.921 135.759 106.395 135.613 106.938 135.619C107.472 135.626 107.905 135.782 108.237 136.088C108.573 136.391 108.734 136.786 108.721 137.274L107.842 137.27C107.848 137.006 107.765 136.791 107.593 136.625C107.42 136.459 107.191 136.373 106.904 136.366C106.598 136.36 106.335 136.435 106.113 136.591C105.908 136.737 105.789 136.929 105.757 137.167C105.715 137.473 105.902 137.696 106.318 137.836L106.763 137.958C107.368 138.114 107.798 138.318 108.052 138.568C108.306 138.819 108.423 139.13 108.403 139.501C108.384 139.83 108.276 140.116 108.081 140.36C107.886 140.604 107.625 140.792 107.3 140.922C106.974 141.049 106.628 141.107 106.26 141.098C105.7 141.091 105.238 140.928 104.873 140.609C104.508 140.287 104.333 139.874 104.346 139.369L105.229 139.374C105.229 139.67 105.324 139.908 105.513 140.087C105.701 140.266 105.96 140.355 106.289 140.355C106.611 140.362 106.89 140.295 107.124 140.155C107.358 140.012 107.492 139.817 107.524 139.569ZM114.688 135.619C115.13 135.626 115.509 135.746 115.825 135.98C116.141 136.215 116.374 136.539 116.523 136.952C116.676 137.362 116.729 137.812 116.68 138.3L116.67 138.407C116.608 138.922 116.455 139.387 116.211 139.804C115.967 140.217 115.651 140.539 115.264 140.771C114.876 141.002 114.451 141.111 113.989 141.098C113.55 141.091 113.171 140.971 112.852 140.736C112.536 140.502 112.305 140.183 112.158 139.779C112.012 139.376 111.96 138.931 112.002 138.446C112.051 137.899 112.199 137.408 112.446 136.972C112.694 136.535 113.011 136.199 113.398 135.961C113.789 135.72 114.219 135.606 114.688 135.619ZM112.891 138.451C112.868 138.656 112.868 138.869 112.891 139.091C112.923 139.475 113.037 139.781 113.232 140.009C113.431 140.237 113.695 140.355 114.023 140.365C114.316 140.375 114.587 140.303 114.834 140.15C115.081 139.994 115.29 139.76 115.459 139.447C115.628 139.135 115.737 138.788 115.786 138.407C115.812 138.108 115.817 137.855 115.801 137.65C115.762 137.257 115.643 136.946 115.444 136.718C115.246 136.49 114.982 136.369 114.653 136.356C114.198 136.347 113.81 136.526 113.491 136.894C113.172 137.261 112.975 137.743 112.9 138.339L112.891 138.451ZM117.769 141L118.569 136.415H117.754L117.876 135.717H118.687L118.774 135.092C118.859 134.561 119.064 134.146 119.39 133.847C119.731 133.534 120.168 133.381 120.698 133.388C120.864 133.388 121.074 133.415 121.328 133.471L121.221 134.208C121.064 134.175 120.907 134.156 120.747 134.149C120.441 134.149 120.192 134.245 120 134.438C119.811 134.626 119.694 134.879 119.648 135.194L119.57 135.717H120.664L120.542 136.415H119.448L118.652 141H117.769ZM127.695 141H123.169L123.276 140.312L125.898 137.763L126.377 137.289C126.927 136.739 127.231 136.231 127.29 135.766C127.332 135.408 127.262 135.116 127.08 134.892C126.898 134.664 126.641 134.543 126.309 134.53C125.882 134.517 125.526 134.643 125.239 134.906C124.953 135.167 124.779 135.525 124.717 135.98L123.843 135.985C123.885 135.549 124.019 135.163 124.243 134.828C124.471 134.49 124.769 134.231 125.137 134.052C125.508 133.869 125.91 133.783 126.343 133.793C126.932 133.806 127.399 133.985 127.744 134.33C128.092 134.672 128.242 135.116 128.193 135.663C128.138 136.288 127.778 136.946 127.114 137.636L126.665 138.09L124.38 140.263H127.812L127.695 141ZM130.859 141.098C130.26 141.085 129.811 140.873 129.512 140.463C129.212 140.049 129.076 139.455 129.102 138.681C129.108 138.44 129.126 138.202 129.155 137.968L129.331 136.781C129.487 135.769 129.785 135.014 130.225 134.516C130.664 134.018 131.243 133.777 131.963 133.793C132.568 133.806 133.019 134.014 133.315 134.418C133.615 134.818 133.753 135.401 133.73 136.166C133.721 136.41 133.701 136.649 133.672 136.884L133.501 138.031C133.328 139.102 133.024 139.885 132.588 140.38C132.152 140.875 131.576 141.114 130.859 141.098ZM132.817 136.723C132.863 136.329 132.884 136.023 132.881 135.805C132.865 134.978 132.544 134.553 131.919 134.53C131.463 134.514 131.094 134.683 130.811 135.038C130.531 135.39 130.335 135.943 130.225 136.698L130.015 138.114C129.969 138.492 129.948 138.799 129.951 139.037C129.967 139.9 130.286 140.342 130.908 140.365C131.341 140.385 131.698 140.225 131.978 139.887C132.261 139.548 132.463 139.011 132.583 138.275L132.817 136.723ZM137.002 141H136.113L137.158 135.004L135.269 135.668L135.42 134.809L138.057 133.856H138.213L137.002 141ZM143.569 137.875C143.328 138.129 143.073 138.319 142.803 138.446C142.533 138.57 142.264 138.629 141.997 138.622C141.623 138.616 141.302 138.51 141.035 138.305C140.771 138.1 140.578 137.818 140.454 137.46C140.334 137.102 140.293 136.711 140.332 136.288C140.374 135.819 140.506 135.39 140.728 134.999C140.949 134.608 141.237 134.307 141.592 134.096C141.95 133.881 142.344 133.78 142.773 133.793C143.34 133.806 143.784 134.011 144.106 134.408C144.429 134.805 144.603 135.338 144.629 136.005C144.639 136.353 144.598 136.786 144.507 137.304C144.292 138.521 143.867 139.439 143.232 140.058C142.601 140.673 141.789 140.99 140.796 141.01H140.576L140.654 140.248H140.835C141.535 140.235 142.108 140.04 142.554 139.662C143.003 139.281 143.341 138.686 143.569 137.875ZM142.183 137.875C142.479 137.888 142.764 137.805 143.037 137.626C143.311 137.444 143.535 137.2 143.711 136.894L143.75 136.537L143.765 136.142C143.752 135.637 143.657 135.248 143.481 134.975C143.309 134.701 143.06 134.558 142.734 134.545C142.331 134.529 141.986 134.685 141.699 135.014C141.416 135.339 141.252 135.748 141.206 136.239C141.183 136.438 141.187 136.64 141.216 136.845C141.245 137.05 141.304 137.23 141.392 137.387C141.567 137.702 141.831 137.865 142.183 137.875Z" fill="black"/>
<path d="M100.417 48.458V54.3122C100.417 55.833 101.25 57.2497 102.583 57.9788L113 63.6663C114.25 64.3538 115.75 64.3538 117 63.6663L127.417 57.9788C128.75 57.2497 129.583 55.833 129.583 54.3122V48.458L117 55.333C115.75 56.0205 114.25 56.0205 113 55.333L100.417 48.458ZM113 28.333L95.4375 37.9163C94 38.708 94 40.7913 95.4375 41.583L113 51.1663C114.25 51.8538 115.75 51.8538 117 51.1663L133.75 42.0205V54.333C133.75 55.4788 134.687 56.4163 135.833 56.4163C136.979 56.4163 137.917 55.4788 137.917 54.333V40.9788C137.917 40.208 137.5 39.5205 136.833 39.1455L117 28.333C115.75 27.6663 114.25 27.6663 113 28.333V28.333Z" fill="#8C4357"/>
<defs>
<filter id="filter0_d" x="0" y="0" width="229" height="229" filterUnits="userSpaceOnUse" color-interpolation-filters="sRGB">
<feFlood flood-opacity="0" result="BackgroundImageFix"/>
<feColorMatrix in="SourceAlpha" type="matrix" values="0 0 0 0 0 0 0 0 0 0 0 0 0 0 0 0 0 0 127 0" result="hardAlpha"/>
<feOffset dy="4"/>
<feGaussianBlur stdDeviation="2"/>
<feComposite in2="hardAlpha" operator="out"/>
<feColorMatrix type="matrix" values="0 0 0 0 0 0 0 0 0 0 0 0 0 0 0 0 0 0 0.15 0"/>
<feBlend mode="normal" in2="BackgroundImageFix" result="effect1_dropShadow"/>
<feBlend mode="normal" in="SourceGraphic" in2="effect1_dropShadow" result="shape"/>
</filter>
</defs>
</svg>
