<svg width="229" height="229" viewBox="0 0 229 229" fill="none" xmlns="http://www.w3.org/2000/svg">
<g filter="url(#filter0_d)">
<rect x="225" y="221" width="221" height="221" transform="rotate(-180 225 221)" fill="#C196A0"/>
<rect x="222.5" y="218.5" width="216" height="216" transform="rotate(-180 222.5 218.5)" stroke="white" stroke-width="5"/>
</g>
<path d="M93.252 91.8906V96.5732C93.252 97.3512 93.0078 97.9665 92.5195 98.4189C92.0345 98.8714 91.3704 99.0977 90.5273 99.0977C89.6973 99.0977 89.0381 98.8779 88.5498 98.4385C88.0615 97.999 87.8125 97.3952 87.8027 96.627V91.8906H89.2676V96.583C89.2676 97.0485 89.3783 97.3887 89.5996 97.6035C89.8242 97.8151 90.1335 97.9209 90.5273 97.9209C91.3509 97.9209 91.7692 97.488 91.7822 96.6221V91.8906H93.252ZM96.9971 94.3418L98.3301 91.8906H100.015L97.9443 95.416L100.068 99H98.3643L96.9971 96.5098L95.6299 99H93.9258L96.0498 95.416L93.9795 91.8906H95.6641L96.9971 94.3418ZM103.301 99V91.8906H105.488C106.113 91.8906 106.672 92.0322 107.163 92.3154C107.658 92.5954 108.044 92.9958 108.32 93.5166C108.597 94.0342 108.735 94.6234 108.735 95.2842V95.6113C108.735 96.2721 108.599 96.8597 108.325 97.374C108.055 97.8883 107.673 98.2871 107.178 98.5703C106.683 98.8535 106.125 98.9967 105.503 99H103.301ZM104.766 93.0771V97.8232H105.474C106.047 97.8232 106.484 97.6361 106.787 97.2617C107.09 96.8874 107.244 96.3519 107.251 95.6553V95.2793C107.251 94.5566 107.101 94.0098 106.802 93.6387C106.502 93.2643 106.064 93.0771 105.488 93.0771H104.766ZM112.144 99.0977C111.369 99.0977 110.737 98.86 110.249 98.3848C109.764 97.9095 109.521 97.2764 109.521 96.4854V96.3486C109.521 95.818 109.624 95.3444 109.829 94.9277C110.034 94.5078 110.324 94.1855 110.698 93.9609C111.076 93.7331 111.506 93.6191 111.987 93.6191C112.71 93.6191 113.278 93.847 113.691 94.3027C114.108 94.7585 114.316 95.4046 114.316 96.2412V96.8174H110.952C110.998 97.1624 111.134 97.4391 111.362 97.6475C111.593 97.8558 111.885 97.96 112.236 97.96C112.78 97.96 113.205 97.763 113.511 97.3691L114.204 98.1455C113.993 98.445 113.706 98.6794 113.345 98.8486C112.983 99.0146 112.583 99.0977 112.144 99.0977ZM111.982 94.7617C111.702 94.7617 111.475 94.8561 111.299 95.0449C111.126 95.2337 111.016 95.5039 110.967 95.8555H112.93V95.7432C112.923 95.4307 112.839 95.1898 112.676 95.0205C112.513 94.848 112.282 94.7617 111.982 94.7617ZM117.983 97.54C117.983 97.3675 117.897 97.2324 117.725 97.1348C117.555 97.0339 117.282 96.9443 116.904 96.8662C115.648 96.6025 115.02 96.0687 115.02 95.2646C115.02 94.7959 115.213 94.4053 115.601 94.0928C115.991 93.777 116.501 93.6191 117.129 93.6191C117.799 93.6191 118.335 93.777 118.735 94.0928C119.139 94.4085 119.341 94.8187 119.341 95.3232H117.93C117.93 95.1214 117.865 94.9554 117.734 94.8252C117.604 94.6917 117.401 94.625 117.124 94.625C116.886 94.625 116.702 94.6787 116.572 94.7861C116.442 94.8936 116.377 95.0303 116.377 95.1963C116.377 95.3525 116.45 95.4795 116.597 95.5771C116.746 95.6715 116.997 95.7546 117.349 95.8262C117.7 95.8945 117.996 95.9727 118.237 96.0605C118.983 96.334 119.355 96.8076 119.355 97.4814C119.355 97.9632 119.149 98.3538 118.735 98.6533C118.322 98.9495 117.788 99.0977 117.134 99.0977C116.691 99.0977 116.297 99.0195 115.952 98.8633C115.61 98.7038 115.342 98.4873 115.146 98.2139C114.951 97.9372 114.854 97.6393 114.854 97.3203H116.191C116.204 97.571 116.297 97.763 116.47 97.8965C116.642 98.0299 116.873 98.0967 117.163 98.0967C117.433 98.0967 117.637 98.0462 117.773 97.9453C117.913 97.8411 117.983 97.7061 117.983 97.54ZM121.758 99H120.342V93.7168H121.758V99ZM120.259 92.3496C120.259 92.138 120.329 91.9639 120.469 91.8271C120.612 91.6904 120.806 91.6221 121.05 91.6221C121.291 91.6221 121.483 91.6904 121.626 91.8271C121.769 91.9639 121.841 92.138 121.841 92.3496C121.841 92.5645 121.768 92.7402 121.621 92.877C121.478 93.0137 121.287 93.082 121.05 93.082C120.812 93.082 120.62 93.0137 120.474 92.877C120.33 92.7402 120.259 92.5645 120.259 92.3496ZM122.72 96.3193C122.72 95.5088 122.912 94.8561 123.296 94.3613C123.683 93.8665 124.204 93.6191 124.858 93.6191C125.438 93.6191 125.889 93.8177 126.211 94.2148L126.27 93.7168H127.549V98.8242C127.549 99.2865 127.443 99.6885 127.231 100.03C127.023 100.372 126.729 100.632 126.348 100.812C125.967 100.991 125.521 101.08 125.01 101.08C124.622 101.08 124.245 101.002 123.877 100.846C123.509 100.693 123.231 100.494 123.042 100.25L123.667 99.3906C124.019 99.7845 124.445 99.9814 124.946 99.9814C125.321 99.9814 125.612 99.8805 125.82 99.6787C126.029 99.4801 126.133 99.1969 126.133 98.8291V98.5459C125.807 98.9137 125.379 99.0977 124.849 99.0977C124.214 99.0977 123.7 98.8503 123.306 98.3555C122.915 97.8574 122.72 97.1982 122.72 96.3779V96.3193ZM124.131 96.4219C124.131 96.9004 124.227 97.2764 124.419 97.5498C124.611 97.82 124.875 97.9551 125.21 97.9551C125.64 97.9551 125.947 97.7939 126.133 97.4717V95.25C125.944 94.9277 125.64 94.7666 125.22 94.7666C124.881 94.7666 124.614 94.9049 124.419 95.1816C124.227 95.4583 124.131 95.8717 124.131 96.4219ZM129.937 93.7168L129.98 94.3271C130.358 93.8551 130.864 93.6191 131.499 93.6191C132.059 93.6191 132.476 93.7835 132.749 94.1123C133.022 94.4411 133.162 94.9326 133.169 95.5869V99H131.758V95.6211C131.758 95.3216 131.693 95.1051 131.562 94.9717C131.432 94.835 131.216 94.7666 130.913 94.7666C130.516 94.7666 130.218 94.9359 130.02 95.2744V99H128.608V93.7168H129.937ZM136.675 99.0977C135.9 99.0977 135.269 98.86 134.78 98.3848C134.295 97.9095 134.053 97.2764 134.053 96.4854V96.3486C134.053 95.818 134.155 95.3444 134.36 94.9277C134.565 94.5078 134.855 94.1855 135.229 93.9609C135.607 93.7331 136.037 93.6191 136.519 93.6191C137.241 93.6191 137.809 93.847 138.223 94.3027C138.639 94.7585 138.848 95.4046 138.848 96.2412V96.8174H135.483C135.529 97.1624 135.666 97.4391 135.894 97.6475C136.125 97.8558 136.416 97.96 136.768 97.96C137.311 97.96 137.736 97.763 138.042 97.3691L138.735 98.1455C138.524 98.445 138.237 98.6794 137.876 98.8486C137.515 99.0146 137.114 99.0977 136.675 99.0977ZM136.514 94.7617C136.234 94.7617 136.006 94.8561 135.83 95.0449C135.658 95.2337 135.547 95.5039 135.498 95.8555H137.461V95.7432C137.454 95.4307 137.37 95.1898 137.207 95.0205C137.044 94.848 136.813 94.7617 136.514 94.7617ZM142.622 95.04C142.43 95.014 142.261 95.001 142.114 95.001C141.58 95.001 141.23 95.1816 141.064 95.543V99H139.653V93.7168H140.986L141.025 94.3467C141.309 93.8617 141.701 93.6191 142.202 93.6191C142.358 93.6191 142.505 93.6403 142.642 93.6826L142.622 95.04ZM53.4766 109.145H51.0742L50.5225 111H49.6045L51.8945 103.891H52.6611L54.9561 111H54.0381L53.4766 109.145ZM51.3086 108.373H53.2471L52.2754 105.141L51.3086 108.373ZM55.6201 108.119C55.6201 107.305 55.7715 106.685 56.0742 106.259C56.3802 105.832 56.818 105.619 57.3877 105.619C57.8923 105.619 58.2861 105.824 58.5693 106.234V103.5H59.4336V111H58.6426L58.5986 110.434C58.3154 110.876 57.9102 111.098 57.3828 111.098C56.8359 111.098 56.4062 110.886 56.0938 110.463C55.7845 110.036 55.6266 109.436 55.6201 108.661V108.119ZM56.4844 108.612C56.4844 109.205 56.5723 109.641 56.748 109.921C56.9238 110.198 57.2103 110.336 57.6074 110.336C58.0371 110.336 58.3577 110.119 58.5693 109.687V107.021C58.348 106.597 58.029 106.386 57.6123 106.386C57.2152 106.386 56.9287 106.526 56.7529 106.806C56.5771 107.082 56.4876 107.509 56.4844 108.085V108.612ZM62.2607 109.687L63.2617 105.717H64.1406L62.5732 111H61.9287L60.3418 105.717H61.2207L62.2607 109.687ZM64.5703 110.526C64.5703 110.37 64.6159 110.24 64.707 110.136C64.8014 110.032 64.9414 109.979 65.127 109.979C65.3125 109.979 65.4525 110.032 65.5469 110.136C65.6445 110.24 65.6934 110.37 65.6934 110.526C65.6934 110.676 65.6445 110.801 65.5469 110.902C65.4525 111.003 65.3125 111.054 65.127 111.054C64.9414 111.054 64.8014 111.003 64.707 110.902C64.6159 110.801 64.5703 110.676 64.5703 110.526ZM74.2188 111H73.3203V107.714H70.459V111H69.5654V103.891H70.459V106.947H73.3203V103.891H74.2188V111ZM76.5771 111H75.7129V105.717H76.5771V111ZM76.6455 104.315C76.6455 104.462 76.6048 104.584 76.5234 104.682C76.4421 104.779 76.3184 104.828 76.1523 104.828C75.9896 104.828 75.8675 104.779 75.7861 104.682C75.7048 104.584 75.6641 104.462 75.6641 104.315C75.6641 104.169 75.7048 104.045 75.7861 103.944C75.8675 103.843 75.9896 103.793 76.1523 103.793C76.3151 103.793 76.4372 103.845 76.5186 103.949C76.6032 104.05 76.6455 104.172 76.6455 104.315ZM77.7686 108.119C77.7686 107.296 77.9183 106.674 78.2178 106.254C78.5173 105.831 78.9551 105.619 79.5312 105.619C80.0684 105.619 80.4769 105.849 80.7568 106.308L80.8008 105.717H81.582V111.049C81.582 111.703 81.4144 112.204 81.0791 112.553C80.7438 112.904 80.2767 113.08 79.6777 113.08C79.4173 113.08 79.1243 113.015 78.7988 112.885C78.4766 112.758 78.234 112.6 78.0713 112.411L78.4229 111.815C78.7809 112.167 79.1764 112.343 79.6094 112.343C80.3288 112.343 80.6982 111.951 80.7178 111.166V110.478C80.4378 110.891 80.0407 111.098 79.5264 111.098C78.9795 111.098 78.5531 110.893 78.2471 110.482C77.9411 110.069 77.7816 109.477 77.7686 108.705V108.119ZM78.6328 108.612C78.6328 109.205 78.7191 109.641 78.8916 109.921C79.0674 110.198 79.3538 110.336 79.751 110.336C80.1807 110.336 80.5029 110.116 80.7178 109.677V107.035C80.4932 106.602 80.1742 106.386 79.7607 106.386C79.3636 106.386 79.0771 106.526 78.9014 106.806C78.7256 107.082 78.6361 107.509 78.6328 108.085V108.612ZM83.7354 106.259C84.0641 105.832 84.484 105.619 84.9951 105.619C85.9294 105.619 86.403 106.243 86.416 107.489V111H85.5566V107.528C85.5566 107.115 85.4867 106.822 85.3467 106.649C85.21 106.474 85.0033 106.386 84.7266 106.386C84.5117 106.386 84.318 106.457 84.1455 106.601C83.9762 106.744 83.8395 106.931 83.7354 107.162V111H82.8711V103.5H83.7354V106.259ZM89.5947 111.098C88.9372 111.098 88.4326 110.902 88.0811 110.512C87.7295 110.118 87.5505 109.542 87.5439 108.783V108.144C87.5439 107.356 87.7148 106.739 88.0566 106.293C88.4017 105.844 88.8818 105.619 89.4971 105.619C90.1156 105.619 90.5778 105.816 90.8838 106.21C91.1898 106.604 91.346 107.217 91.3525 108.051V108.617H88.4033V108.739C88.4033 109.306 88.5091 109.717 88.7207 109.975C88.9355 110.232 89.2432 110.36 89.6436 110.36C89.8975 110.36 90.1204 110.313 90.3125 110.219C90.5078 110.121 90.6901 109.968 90.8594 109.76L91.3086 110.307C90.9342 110.834 90.363 111.098 89.5947 111.098ZM89.4971 106.361C89.139 106.361 88.8737 106.485 88.7012 106.732C88.5286 106.977 88.431 107.357 88.4082 107.875H90.4883V107.758C90.4655 107.257 90.3743 106.898 90.2148 106.684C90.0586 106.469 89.8193 106.361 89.4971 106.361ZM94.5752 106.527C94.4548 106.505 94.3245 106.493 94.1846 106.493C93.7419 106.493 93.4326 106.736 93.2568 107.221V111H92.3926V105.717H93.2324L93.2471 106.254C93.4782 105.831 93.8053 105.619 94.2285 105.619C94.3652 105.619 94.4792 105.642 94.5703 105.688L94.5752 106.527ZM99.8877 109.628L101.514 103.891H102.495L100.283 111H99.502L97.2949 103.891H98.2715L99.8877 109.628ZM102.935 108.114C102.935 107.346 103.12 106.739 103.491 106.293C103.866 105.844 104.359 105.619 104.971 105.619C105.583 105.619 106.074 105.837 106.445 106.273C106.82 106.71 107.012 107.304 107.021 108.056V108.612C107.021 109.377 106.836 109.983 106.465 110.429C106.094 110.875 105.599 111.098 104.98 111.098C104.368 111.098 103.877 110.881 103.506 110.448C103.138 110.015 102.948 109.429 102.935 108.69V108.114ZM103.799 108.612C103.799 109.156 103.905 109.584 104.116 109.896C104.331 110.206 104.619 110.36 104.98 110.36C105.742 110.36 106.134 109.81 106.157 108.71V108.114C106.157 107.574 106.05 107.147 105.835 106.835C105.62 106.519 105.332 106.361 104.971 106.361C104.616 106.361 104.331 106.519 104.116 106.835C103.905 107.147 103.799 107.572 103.799 108.109V108.612ZM109.971 110.36C110.257 110.36 110.487 110.272 110.659 110.097C110.832 109.918 110.926 109.664 110.942 109.335H111.758C111.738 109.843 111.558 110.264 111.216 110.6C110.877 110.932 110.462 111.098 109.971 111.098C109.316 111.098 108.817 110.893 108.472 110.482C108.13 110.069 107.959 109.455 107.959 108.642V108.061C107.959 107.263 108.13 106.658 108.472 106.244C108.813 105.827 109.312 105.619 109.966 105.619C110.506 105.619 110.934 105.79 111.25 106.132C111.569 106.474 111.738 106.941 111.758 107.533H110.942C110.923 107.143 110.828 106.85 110.659 106.654C110.493 106.459 110.262 106.361 109.966 106.361C109.582 106.361 109.297 106.488 109.111 106.742C108.926 106.993 108.83 107.406 108.823 107.982V108.656C108.823 109.278 108.914 109.717 109.097 109.975C109.282 110.232 109.574 110.36 109.971 110.36ZM115.474 111C115.422 110.886 115.384 110.694 115.361 110.424C115.055 110.873 114.665 111.098 114.189 111.098C113.711 111.098 113.337 110.964 113.066 110.697C112.799 110.427 112.666 110.048 112.666 109.56C112.666 109.022 112.848 108.596 113.213 108.28C113.577 107.965 114.077 107.803 114.712 107.797H115.347V107.235C115.347 106.92 115.277 106.695 115.137 106.562C114.997 106.428 114.784 106.361 114.497 106.361C114.237 106.361 114.025 106.439 113.862 106.596C113.7 106.749 113.618 106.944 113.618 107.182H112.754C112.754 106.911 112.834 106.654 112.993 106.41C113.153 106.163 113.368 105.969 113.638 105.829C113.908 105.689 114.209 105.619 114.541 105.619C115.081 105.619 115.492 105.754 115.771 106.024C116.055 106.291 116.2 106.682 116.206 107.196V109.862C116.209 110.269 116.265 110.622 116.372 110.922V111H115.474ZM114.321 110.312C114.533 110.312 114.735 110.253 114.927 110.136C115.119 110.019 115.259 109.872 115.347 109.696V108.437H114.858C114.448 108.443 114.124 108.536 113.887 108.715C113.649 108.891 113.53 109.138 113.53 109.457C113.53 109.757 113.59 109.975 113.711 110.111C113.831 110.245 114.035 110.312 114.321 110.312ZM118.682 104.438V105.717H119.478V106.415H118.682V109.691C118.682 109.9 118.716 110.058 118.784 110.165C118.853 110.272 118.97 110.326 119.136 110.326C119.25 110.326 119.365 110.307 119.482 110.268L119.473 111C119.277 111.065 119.077 111.098 118.872 111.098C118.53 111.098 118.27 110.976 118.091 110.731C117.912 110.487 117.822 110.142 117.822 109.696V106.415H117.017V105.717H117.822V104.438H118.682ZM121.44 111H120.576V105.717H121.44V111ZM121.509 104.315C121.509 104.462 121.468 104.584 121.387 104.682C121.305 104.779 121.182 104.828 121.016 104.828C120.853 104.828 120.731 104.779 120.649 104.682C120.568 104.584 120.527 104.462 120.527 104.315C120.527 104.169 120.568 104.045 120.649 103.944C120.731 103.843 120.853 103.793 121.016 103.793C121.178 103.793 121.3 103.845 121.382 103.949C121.466 104.05 121.509 104.172 121.509 104.315ZM122.622 108.114C122.622 107.346 122.808 106.739 123.179 106.293C123.553 105.844 124.046 105.619 124.658 105.619C125.27 105.619 125.762 105.837 126.133 106.273C126.507 106.71 126.699 107.304 126.709 108.056V108.612C126.709 109.377 126.523 109.983 126.152 110.429C125.781 110.875 125.286 111.098 124.668 111.098C124.056 111.098 123.564 110.881 123.193 110.448C122.826 110.015 122.635 109.429 122.622 108.69V108.114ZM123.486 108.612C123.486 109.156 123.592 109.584 123.804 109.896C124.019 110.206 124.307 110.36 124.668 110.36C125.43 110.36 125.822 109.81 125.845 108.71V108.114C125.845 107.574 125.737 107.147 125.522 106.835C125.308 106.519 125.02 106.361 124.658 106.361C124.303 106.361 124.019 106.519 123.804 106.835C123.592 107.147 123.486 107.572 123.486 108.109V108.612ZM128.638 105.717L128.662 106.288C128.997 105.842 129.425 105.619 129.946 105.619C130.881 105.619 131.354 106.243 131.367 107.489V111H130.508V107.528C130.508 107.115 130.438 106.822 130.298 106.649C130.161 106.474 129.954 106.386 129.678 106.386C129.463 106.386 129.269 106.457 129.097 106.601C128.927 106.744 128.791 106.931 128.687 107.162V111H127.822V105.717H128.638ZM135.386 111C135.334 110.886 135.296 110.694 135.273 110.424C134.967 110.873 134.577 111.098 134.102 111.098C133.623 111.098 133.249 110.964 132.979 110.697C132.712 110.427 132.578 110.048 132.578 109.56C132.578 109.022 132.76 108.596 133.125 108.28C133.49 107.965 133.989 107.803 134.624 107.797H135.259V107.235C135.259 106.92 135.189 106.695 135.049 106.562C134.909 106.428 134.696 106.361 134.409 106.361C134.149 106.361 133.937 106.439 133.774 106.596C133.612 106.749 133.53 106.944 133.53 107.182H132.666C132.666 106.911 132.746 106.654 132.905 106.41C133.065 106.163 133.28 105.969 133.55 105.829C133.82 105.689 134.121 105.619 134.453 105.619C134.993 105.619 135.404 105.754 135.684 106.024C135.967 106.291 136.112 106.682 136.118 107.196V109.862C136.121 110.269 136.177 110.622 136.284 110.922V111H135.386ZM134.233 110.312C134.445 110.312 134.647 110.253 134.839 110.136C135.031 110.019 135.171 109.872 135.259 109.696V108.437H134.771C134.36 108.443 134.036 108.536 133.799 108.715C133.561 108.891 133.442 109.138 133.442 109.457C133.442 109.757 133.503 109.975 133.623 110.111C133.743 110.245 133.947 110.312 134.233 110.312ZM138.394 111H137.529V103.5H138.394V111ZM145.581 107.714H143.066V110.233H145.996V111H142.173V103.891H145.947V104.662H143.066V106.947H145.581V107.714ZM146.743 108.119C146.743 107.305 146.895 106.685 147.197 106.259C147.503 105.832 147.941 105.619 148.511 105.619C149.015 105.619 149.409 105.824 149.692 106.234V103.5H150.557V111H149.766L149.722 110.434C149.438 110.876 149.033 111.098 148.506 111.098C147.959 111.098 147.529 110.886 147.217 110.463C146.908 110.036 146.75 109.436 146.743 108.661V108.119ZM147.607 108.612C147.607 109.205 147.695 109.641 147.871 109.921C148.047 110.198 148.333 110.336 148.73 110.336C149.16 110.336 149.481 110.119 149.692 109.687V107.021C149.471 106.597 149.152 106.386 148.735 106.386C148.338 106.386 148.052 106.526 147.876 106.806C147.7 107.082 147.611 107.509 147.607 108.085V108.612ZM154.58 110.536C154.294 110.91 153.875 111.098 153.325 111.098C152.847 111.098 152.485 110.933 152.241 110.604C151.997 110.272 151.873 109.791 151.87 109.159V105.717H152.729V109.096C152.729 109.919 152.977 110.331 153.472 110.331C153.996 110.331 154.357 110.097 154.556 109.628V105.717H155.42V111H154.6L154.58 110.536ZM158.555 110.36C158.841 110.36 159.071 110.272 159.243 110.097C159.416 109.918 159.51 109.664 159.526 109.335H160.342C160.322 109.843 160.142 110.264 159.8 110.6C159.461 110.932 159.046 111.098 158.555 111.098C157.9 111.098 157.401 110.893 157.056 110.482C156.714 110.069 156.543 109.455 156.543 108.642V108.061C156.543 107.263 156.714 106.658 157.056 106.244C157.397 105.827 157.896 105.619 158.55 105.619C159.09 105.619 159.518 105.79 159.834 106.132C160.153 106.474 160.322 106.941 160.342 107.533H159.526C159.507 107.143 159.412 106.85 159.243 106.654C159.077 106.459 158.846 106.361 158.55 106.361C158.166 106.361 157.881 106.488 157.695 106.742C157.51 106.993 157.414 107.406 157.407 107.982V108.656C157.407 109.278 157.498 109.717 157.681 109.975C157.866 110.232 158.158 110.36 158.555 110.36ZM164.058 111C164.006 110.886 163.968 110.694 163.945 110.424C163.639 110.873 163.249 111.098 162.773 111.098C162.295 111.098 161.921 110.964 161.65 110.697C161.383 110.427 161.25 110.048 161.25 109.56C161.25 109.022 161.432 108.596 161.797 108.28C162.161 107.965 162.661 107.803 163.296 107.797H163.931V107.235C163.931 106.92 163.861 106.695 163.721 106.562C163.581 106.428 163.368 106.361 163.081 106.361C162.821 106.361 162.609 106.439 162.446 106.596C162.284 106.749 162.202 106.944 162.202 107.182H161.338C161.338 106.911 161.418 106.654 161.577 106.41C161.737 106.163 161.951 105.969 162.222 105.829C162.492 105.689 162.793 105.619 163.125 105.619C163.665 105.619 164.076 105.754 164.355 106.024C164.639 106.291 164.784 106.682 164.79 107.196V109.862C164.793 110.269 164.849 110.622 164.956 110.922V111H164.058ZM162.905 110.312C163.117 110.312 163.319 110.253 163.511 110.136C163.703 110.019 163.843 109.872 163.931 109.696V108.437H163.442C163.032 108.443 162.708 108.536 162.471 108.715C162.233 108.891 162.114 109.138 162.114 109.457C162.114 109.757 162.174 109.975 162.295 110.111C162.415 110.245 162.619 110.312 162.905 110.312ZM167.266 104.438V105.717H168.062V106.415H167.266V109.691C167.266 109.9 167.3 110.058 167.368 110.165C167.437 110.272 167.554 110.326 167.72 110.326C167.834 110.326 167.949 110.307 168.066 110.268L168.057 111C167.861 111.065 167.661 111.098 167.456 111.098C167.114 111.098 166.854 110.976 166.675 110.731C166.496 110.487 166.406 110.142 166.406 109.696V106.415H165.601V105.717H166.406V104.438H167.266ZM170.024 111H169.16V105.717H170.024V111ZM170.093 104.315C170.093 104.462 170.052 104.584 169.971 104.682C169.889 104.779 169.766 104.828 169.6 104.828C169.437 104.828 169.315 104.779 169.233 104.682C169.152 104.584 169.111 104.462 169.111 104.315C169.111 104.169 169.152 104.045 169.233 103.944C169.315 103.843 169.437 103.793 169.6 103.793C169.762 103.793 169.884 103.845 169.966 103.949C170.05 104.05 170.093 104.172 170.093 104.315ZM171.206 108.114C171.206 107.346 171.392 106.739 171.763 106.293C172.137 105.844 172.63 105.619 173.242 105.619C173.854 105.619 174.346 105.837 174.717 106.273C175.091 106.71 175.283 107.304 175.293 108.056V108.612C175.293 109.377 175.107 109.983 174.736 110.429C174.365 110.875 173.87 111.098 173.252 111.098C172.64 111.098 172.148 110.881 171.777 110.448C171.41 110.015 171.219 109.429 171.206 108.69V108.114ZM172.07 108.612C172.07 109.156 172.176 109.584 172.388 109.896C172.603 110.206 172.891 110.36 173.252 110.36C174.014 110.36 174.406 109.81 174.429 108.71V108.114C174.429 107.574 174.321 107.147 174.106 106.835C173.892 106.519 173.604 106.361 173.242 106.361C172.887 106.361 172.603 106.519 172.388 106.835C172.176 107.147 172.07 107.572 172.07 108.109V108.612ZM177.222 105.717L177.246 106.288C177.581 105.842 178.009 105.619 178.53 105.619C179.465 105.619 179.938 106.243 179.951 107.489V111H179.092V107.528C179.092 107.115 179.022 106.822 178.882 106.649C178.745 106.474 178.538 106.386 178.262 106.386C178.047 106.386 177.853 106.457 177.681 106.601C177.511 106.744 177.375 106.931 177.271 107.162V111H176.406V105.717H177.222ZM99.4775 123V115.891H101.172C102.002 115.891 102.646 116.151 103.105 116.672C103.564 117.189 103.794 117.919 103.794 118.859V120.051C103.794 120.992 103.561 121.719 103.096 122.233C102.63 122.744 101.955 123 101.069 123H99.4775ZM100.371 116.662V122.233H101.089C101.717 122.233 102.176 122.054 102.466 121.696C102.756 121.335 102.904 120.801 102.91 120.095V118.835C102.91 118.086 102.765 117.538 102.476 117.189C102.189 116.838 101.755 116.662 101.172 116.662H100.371ZM106.001 123H105.137V117.717H106.001V123ZM106.069 116.315C106.069 116.462 106.029 116.584 105.947 116.682C105.866 116.779 105.742 116.828 105.576 116.828C105.413 116.828 105.291 116.779 105.21 116.682C105.129 116.584 105.088 116.462 105.088 116.315C105.088 116.169 105.129 116.045 105.21 115.944C105.291 115.843 105.413 115.793 105.576 115.793C105.739 115.793 105.861 115.845 105.942 115.949C106.027 116.05 106.069 116.172 106.069 116.315ZM111.182 120.612C111.182 121.449 111.03 122.072 110.728 122.482C110.428 122.893 110.003 123.098 109.453 123.098C108.923 123.098 108.514 122.897 108.228 122.497V125.031H107.368V117.717H108.149L108.193 118.303C108.483 117.847 108.898 117.619 109.438 117.619C110.018 117.619 110.451 117.821 110.737 118.225C111.024 118.628 111.172 119.232 111.182 120.036V120.612ZM110.322 120.119C110.322 119.527 110.231 119.09 110.049 118.811C109.867 118.527 109.574 118.386 109.17 118.386C108.757 118.386 108.442 118.592 108.228 119.006V121.755C108.439 122.159 108.757 122.36 109.18 122.36C109.57 122.36 109.857 122.22 110.039 121.94C110.225 121.657 110.319 121.226 110.322 120.646V120.119ZM113.228 123H112.363V115.5H113.228V123ZM114.409 120.114C114.409 119.346 114.595 118.739 114.966 118.293C115.34 117.844 115.833 117.619 116.445 117.619C117.057 117.619 117.549 117.837 117.92 118.273C118.294 118.71 118.486 119.304 118.496 120.056V120.612C118.496 121.377 118.311 121.983 117.939 122.429C117.568 122.875 117.074 123.098 116.455 123.098C115.843 123.098 115.352 122.881 114.98 122.448C114.613 122.015 114.422 121.429 114.409 120.69V120.114ZM115.273 120.612C115.273 121.156 115.379 121.584 115.591 121.896C115.806 122.206 116.094 122.36 116.455 122.36C117.217 122.36 117.609 121.81 117.632 120.71V120.114C117.632 119.574 117.524 119.147 117.31 118.835C117.095 118.519 116.807 118.361 116.445 118.361C116.09 118.361 115.806 118.519 115.591 118.835C115.379 119.147 115.273 119.572 115.273 120.109V120.612ZM120.425 117.717L120.444 118.205C120.767 117.814 121.191 117.619 121.719 117.619C122.308 117.619 122.72 117.875 122.954 118.386C123.286 117.875 123.748 117.619 124.341 117.619C125.314 117.619 125.812 118.226 125.835 119.44V123H124.976V119.523C124.976 119.139 124.907 118.854 124.771 118.669C124.634 118.48 124.403 118.386 124.077 118.386C123.817 118.386 123.605 118.487 123.442 118.688C123.28 118.89 123.185 119.147 123.159 119.46V123H122.29V119.484C122.28 118.752 121.982 118.386 121.396 118.386C120.96 118.386 120.653 118.604 120.474 119.04V123H119.614V117.717H120.425ZM129.858 123C129.806 122.886 129.769 122.694 129.746 122.424C129.44 122.873 129.049 123.098 128.574 123.098C128.096 123.098 127.721 122.964 127.451 122.697C127.184 122.427 127.051 122.048 127.051 121.56C127.051 121.022 127.233 120.596 127.598 120.28C127.962 119.965 128.462 119.803 129.097 119.797H129.731V119.235C129.731 118.92 129.661 118.695 129.521 118.562C129.382 118.428 129.168 118.361 128.882 118.361C128.621 118.361 128.41 118.439 128.247 118.596C128.084 118.749 128.003 118.944 128.003 119.182H127.139C127.139 118.911 127.218 118.654 127.378 118.41C127.537 118.163 127.752 117.969 128.022 117.829C128.293 117.689 128.594 117.619 128.926 117.619C129.466 117.619 129.876 117.754 130.156 118.024C130.439 118.291 130.584 118.682 130.591 119.196V121.862C130.594 122.269 130.649 122.622 130.757 122.922V123H129.858ZM128.706 122.312C128.918 122.312 129.119 122.253 129.312 122.136C129.504 122.019 129.644 121.872 129.731 121.696V120.437H129.243C128.833 120.443 128.509 120.536 128.271 120.715C128.034 120.891 127.915 121.138 127.915 121.457C127.915 121.757 127.975 121.975 128.096 122.111C128.216 122.245 128.42 122.312 128.706 122.312ZM95.7959 135H94.8975L92.0508 129.521V135H91.1523V127.891H92.0508L94.9072 133.394V127.891H95.7959V135ZM99.9414 135C99.8893 134.886 99.8519 134.694 99.8291 134.424C99.5231 134.873 99.1325 135.098 98.6572 135.098C98.1787 135.098 97.8044 134.964 97.5342 134.697C97.2673 134.427 97.1338 134.048 97.1338 133.56C97.1338 133.022 97.3161 132.596 97.6807 132.28C98.0452 131.965 98.5449 131.803 99.1797 131.797H99.8145V131.235C99.8145 130.92 99.7445 130.695 99.6045 130.562C99.4645 130.428 99.2513 130.361 98.9648 130.361C98.7044 130.361 98.4928 130.439 98.3301 130.596C98.1673 130.749 98.0859 130.944 98.0859 131.182H97.2217C97.2217 130.911 97.3014 130.654 97.4609 130.41C97.6204 130.163 97.8353 129.969 98.1055 129.829C98.3757 129.689 98.6768 129.619 99.0088 129.619C99.5492 129.619 99.9593 129.754 100.239 130.024C100.522 130.291 100.667 130.682 100.674 131.196V133.862C100.677 134.269 100.732 134.622 100.84 134.922V135H99.9414ZM98.7891 134.312C99.0007 134.312 99.2025 134.253 99.3945 134.136C99.5866 134.019 99.7266 133.872 99.8145 133.696V132.437H99.3262C98.916 132.443 98.5921 132.536 98.3545 132.715C98.1169 132.891 97.998 133.138 97.998 133.457C97.998 133.757 98.0583 133.975 98.1787 134.111C98.2992 134.245 98.5026 134.312 98.7891 134.312ZM103.853 134.36C104.139 134.36 104.368 134.272 104.541 134.097C104.714 133.918 104.808 133.664 104.824 133.335H105.64C105.62 133.843 105.439 134.264 105.098 134.6C104.759 134.932 104.344 135.098 103.853 135.098C103.198 135.098 102.699 134.893 102.354 134.482C102.012 134.069 101.841 133.455 101.841 132.642V132.061C101.841 131.263 102.012 130.658 102.354 130.244C102.695 129.827 103.193 129.619 103.848 129.619C104.388 129.619 104.816 129.79 105.132 130.132C105.451 130.474 105.62 130.941 105.64 131.533H104.824C104.805 131.143 104.71 130.85 104.541 130.654C104.375 130.459 104.144 130.361 103.848 130.361C103.464 130.361 103.179 130.488 102.993 130.742C102.808 130.993 102.712 131.406 102.705 131.982V132.656C102.705 133.278 102.796 133.717 102.979 133.975C103.164 134.232 103.455 134.36 103.853 134.36ZM107.964 132.583L107.505 133.11V135H106.641V127.5H107.505V131.987L109.15 129.717H110.186L108.506 131.924L110.405 135H109.399L107.964 132.583ZM113.867 135C113.815 134.886 113.778 134.694 113.755 134.424C113.449 134.873 113.058 135.098 112.583 135.098C112.104 135.098 111.73 134.964 111.46 134.697C111.193 134.427 111.06 134.048 111.06 133.56C111.06 133.022 111.242 132.596 111.606 132.28C111.971 131.965 112.471 131.803 113.105 131.797H113.74V131.235C113.74 130.92 113.67 130.695 113.53 130.562C113.39 130.428 113.177 130.361 112.891 130.361C112.63 130.361 112.419 130.439 112.256 130.596C112.093 130.749 112.012 130.944 112.012 131.182H111.147C111.147 130.911 111.227 130.654 111.387 130.41C111.546 130.163 111.761 129.969 112.031 129.829C112.301 129.689 112.603 129.619 112.935 129.619C113.475 129.619 113.885 129.754 114.165 130.024C114.448 130.291 114.593 130.682 114.6 131.196V133.862C114.603 134.269 114.658 134.622 114.766 134.922V135H113.867ZM112.715 134.312C112.926 134.312 113.128 134.253 113.32 134.136C113.512 134.019 113.652 133.872 113.74 133.696V132.437H113.252C112.842 132.443 112.518 132.536 112.28 132.715C112.043 132.891 111.924 133.138 111.924 133.457C111.924 133.757 111.984 133.975 112.104 134.111C112.225 134.245 112.428 134.312 112.715 134.312ZM115.762 132.119C115.762 131.305 115.913 130.685 116.216 130.259C116.522 129.832 116.96 129.619 117.529 129.619C118.034 129.619 118.428 129.824 118.711 130.234V127.5H119.575V135H118.784L118.74 134.434C118.457 134.876 118.052 135.098 117.524 135.098C116.978 135.098 116.548 134.886 116.235 134.463C115.926 134.036 115.768 133.436 115.762 132.661V132.119ZM116.626 132.612C116.626 133.205 116.714 133.641 116.89 133.921C117.065 134.198 117.352 134.336 117.749 134.336C118.179 134.336 118.499 134.119 118.711 133.687V131.021C118.49 130.597 118.171 130.386 117.754 130.386C117.357 130.386 117.07 130.526 116.895 130.806C116.719 131.082 116.629 131.509 116.626 132.085V132.612ZM122.793 135.098C122.135 135.098 121.631 134.902 121.279 134.512C120.928 134.118 120.749 133.542 120.742 132.783V132.144C120.742 131.356 120.913 130.739 121.255 130.293C121.6 129.844 122.08 129.619 122.695 129.619C123.314 129.619 123.776 129.816 124.082 130.21C124.388 130.604 124.544 131.217 124.551 132.051V132.617H121.602V132.739C121.602 133.306 121.707 133.717 121.919 133.975C122.134 134.232 122.441 134.36 122.842 134.36C123.096 134.36 123.319 134.313 123.511 134.219C123.706 134.121 123.888 133.968 124.058 133.76L124.507 134.307C124.132 134.834 123.561 135.098 122.793 135.098ZM122.695 130.361C122.337 130.361 122.072 130.485 121.899 130.732C121.727 130.977 121.629 131.357 121.606 131.875H123.687V131.758C123.664 131.257 123.573 130.898 123.413 130.684C123.257 130.469 123.018 130.361 122.695 130.361ZM126.406 129.717L126.426 130.205C126.748 129.814 127.173 129.619 127.7 129.619C128.289 129.619 128.701 129.875 128.936 130.386C129.268 129.875 129.73 129.619 130.322 129.619C131.296 129.619 131.794 130.226 131.816 131.44V135H130.957V131.523C130.957 131.139 130.889 130.854 130.752 130.669C130.615 130.48 130.384 130.386 130.059 130.386C129.798 130.386 129.587 130.487 129.424 130.688C129.261 130.89 129.167 131.147 129.141 131.46V135H128.271V131.484C128.262 130.752 127.964 130.386 127.378 130.386C126.942 130.386 126.634 130.604 126.455 131.04V135H125.596V129.717H126.406ZM134.053 135H133.188V129.717H134.053V135ZM134.121 128.315C134.121 128.462 134.08 128.584 133.999 128.682C133.918 128.779 133.794 128.828 133.628 128.828C133.465 128.828 133.343 128.779 133.262 128.682C133.18 128.584 133.14 128.462 133.14 128.315C133.14 128.169 133.18 128.045 133.262 127.944C133.343 127.843 133.465 127.793 133.628 127.793C133.791 127.793 133.913 127.845 133.994 127.949C134.079 128.05 134.121 128.172 134.121 128.315ZM136.23 129.717L136.255 130.288C136.59 129.842 137.018 129.619 137.539 129.619C138.473 129.619 138.947 130.243 138.96 131.489V135H138.101V131.528C138.101 131.115 138.031 130.822 137.891 130.649C137.754 130.474 137.547 130.386 137.271 130.386C137.056 130.386 136.862 130.457 136.689 130.601C136.52 130.744 136.383 130.931 136.279 131.162V135H135.415V129.717H136.23ZM50.874 147.098C50.4215 147.088 50.0277 146.979 49.6924 146.771C49.3604 146.562 49.0983 146.256 48.9062 145.853C48.7142 145.446 48.6084 144.99 48.5889 144.485C48.5693 144.091 48.6133 143.605 48.7207 143.025C48.8281 142.446 49.0137 141.924 49.2773 141.458C49.541 140.993 49.8617 140.62 50.2393 140.34C50.7503 139.962 51.333 139.78 51.9873 139.793C52.6807 139.806 53.2275 140.047 53.6279 140.516C54.0283 140.981 54.2432 141.613 54.2725 142.41C54.2855 142.752 54.2497 143.187 54.165 143.714C54.0837 144.241 53.9355 144.731 53.7207 145.184C53.5091 145.636 53.2389 146.015 52.9102 146.321C52.3372 146.855 51.6585 147.114 50.874 147.098ZM53.3691 142.635C53.3887 141.993 53.2764 141.497 53.0322 141.146C52.7881 140.791 52.4251 140.607 51.9434 140.594C51.5072 140.581 51.1165 140.698 50.7715 140.945C50.4297 141.193 50.1481 141.564 49.9268 142.059C49.7087 142.55 49.5703 143.174 49.5117 143.929L49.4971 144.246C49.4775 144.884 49.5915 145.384 49.8389 145.745C50.0863 146.106 50.446 146.294 50.918 146.307C51.5332 146.323 52.0426 146.102 52.4463 145.643C52.8532 145.18 53.1234 144.533 53.2568 143.699C53.3219 143.289 53.3594 142.934 53.3691 142.635ZM56.6016 141.712L56.4746 142.381C56.9499 141.86 57.4902 141.606 58.0957 141.619C58.5938 141.632 58.9616 141.805 59.1992 142.137C59.4368 142.469 59.5247 142.936 59.4629 143.538L58.8867 147H58.0029L58.584 143.523C58.6035 143.364 58.6051 143.216 58.5889 143.079C58.5335 142.623 58.265 142.391 57.7832 142.381C57.2526 142.371 56.7871 142.654 56.3867 143.23L55.7324 147H54.8486L55.7666 141.717L56.6016 141.712ZM60.5078 144.349C60.5859 143.772 60.7406 143.273 60.9717 142.85C61.2061 142.423 61.4893 142.109 61.8213 141.907C62.1566 141.702 62.5228 141.604 62.9199 141.614C63.5319 141.627 63.9941 141.858 64.3066 142.308L64.4824 141.717H65.293L64.4141 146.888C64.3197 147.562 64.0462 148.1 63.5938 148.504C63.1413 148.911 62.583 149.104 61.9189 149.085C61.5609 149.078 61.2174 148.994 60.8887 148.831C60.5632 148.668 60.306 148.445 60.1172 148.162L60.6201 147.62C60.9391 148.092 61.3607 148.335 61.8848 148.348C62.3047 148.361 62.6595 148.243 62.9492 147.996C63.2422 147.749 63.4359 147.397 63.5303 146.941L63.6279 146.473C63.1982 146.902 62.6953 147.111 62.1191 147.098C61.7904 147.088 61.5039 147 61.2598 146.834C61.0189 146.665 60.8317 146.422 60.6982 146.106C60.5648 145.787 60.4915 145.433 60.4785 145.042C60.472 144.85 60.4818 144.619 60.5078 144.349ZM61.3623 144.852C61.3525 145.317 61.4323 145.678 61.6016 145.936C61.7741 146.189 62.0329 146.323 62.3779 146.336C62.9053 146.349 63.3594 146.09 63.7402 145.56L64.1553 143.133C63.96 142.651 63.6068 142.4 63.0957 142.381C62.6172 142.368 62.2233 142.563 61.9141 142.967C61.6081 143.37 61.4274 143.916 61.3721 144.603L61.3623 144.852ZM68.6816 141.619C69.1243 141.626 69.5036 141.746 69.8193 141.98C70.1351 142.215 70.3678 142.539 70.5176 142.952C70.6706 143.362 70.7227 143.812 70.6738 144.3L70.6641 144.407C70.6022 144.922 70.4492 145.387 70.2051 145.804C69.9609 146.217 69.6452 146.539 69.2578 146.771C68.8704 147.002 68.4456 147.111 67.9834 147.098C67.5439 147.091 67.1647 146.971 66.8457 146.736C66.5299 146.502 66.2988 146.183 66.1523 145.779C66.0059 145.376 65.9538 144.931 65.9961 144.446C66.0449 143.899 66.193 143.408 66.4404 142.972C66.6878 142.535 67.0052 142.199 67.3926 141.961C67.7832 141.72 68.2129 141.606 68.6816 141.619ZM66.8848 144.451C66.862 144.656 66.862 144.869 66.8848 145.091C66.9173 145.475 67.0312 145.781 67.2266 146.009C67.4251 146.237 67.6888 146.355 68.0176 146.365C68.3105 146.375 68.5807 146.303 68.8281 146.15C69.0755 145.994 69.2839 145.76 69.4531 145.447C69.6224 145.135 69.7314 144.788 69.7803 144.407C69.8063 144.108 69.8112 143.855 69.7949 143.65C69.7559 143.257 69.637 142.946 69.4385 142.718C69.2399 142.49 68.9762 142.369 68.6475 142.356C68.1917 142.347 67.8044 142.526 67.4854 142.894C67.1663 143.261 66.9694 143.743 66.8945 144.339L66.8848 144.451ZM72.29 147H71.4111L72.3291 141.717H73.208L72.29 147ZM73.0176 139.788C73.1673 139.782 73.291 139.827 73.3887 139.925C73.4896 140.019 73.54 140.145 73.54 140.301C73.5368 140.454 73.4863 140.579 73.3887 140.677C73.2943 140.774 73.1706 140.826 73.0176 140.833C72.8646 140.84 72.7393 140.796 72.6416 140.701C72.5439 140.607 72.4967 140.483 72.5 140.33C72.5033 140.177 72.5521 140.05 72.6465 139.949C72.7409 139.848 72.8646 139.795 73.0176 139.788ZM75.4883 141.712L75.3613 142.381C75.8366 141.86 76.377 141.606 76.9824 141.619C77.4805 141.632 77.8483 141.805 78.0859 142.137C78.3236 142.469 78.4115 142.936 78.3496 143.538L77.7734 147H76.8896L77.4707 143.523C77.4902 143.364 77.4919 143.216 77.4756 143.079C77.4202 142.623 77.1517 142.391 76.6699 142.381C76.1393 142.371 75.6738 142.654 75.2734 143.23L74.6191 147H73.7354L74.6533 141.717L75.4883 141.712ZM79.3945 144.349C79.4727 143.772 79.6273 143.273 79.8584 142.85C80.0928 142.423 80.376 142.109 80.708 141.907C81.0433 141.702 81.4095 141.604 81.8066 141.614C82.4186 141.627 82.8809 141.858 83.1934 142.308L83.3691 141.717H84.1797L83.3008 146.888C83.2064 147.562 82.9329 148.1 82.4805 148.504C82.028 148.911 81.4697 149.104 80.8057 149.085C80.4476 149.078 80.1042 148.994 79.7754 148.831C79.4499 148.668 79.1927 148.445 79.0039 148.162L79.5068 147.62C79.8258 148.092 80.2474 148.335 80.7715 148.348C81.1914 148.361 81.5462 148.243 81.8359 147.996C82.1289 147.749 82.3226 147.397 82.417 146.941L82.5146 146.473C82.085 146.902 81.582 147.111 81.0059 147.098C80.6771 147.088 80.3906 147 80.1465 146.834C79.9056 146.665 79.7184 146.422 79.585 146.106C79.4515 145.787 79.3783 145.433 79.3652 145.042C79.3587 144.85 79.3685 144.619 79.3945 144.349ZM80.249 144.852C80.2393 145.317 80.319 145.678 80.4883 145.936C80.6608 146.189 80.9196 146.323 81.2646 146.336C81.792 146.349 82.2461 146.09 82.627 145.56L83.042 143.133C82.8467 142.651 82.4935 142.4 81.9824 142.381C81.5039 142.368 81.11 142.563 80.8008 142.967C80.4948 143.37 80.3141 143.916 80.2588 144.603L80.249 144.852ZM90.3564 145.569C90.4053 145.205 90.2051 144.948 89.7559 144.798L88.8379 144.529C88.0632 144.262 87.6888 143.82 87.7148 143.201C87.7376 142.736 87.9492 142.355 88.3496 142.059C88.7533 141.759 89.2269 141.613 89.7705 141.619C90.3044 141.626 90.7373 141.782 91.0693 142.088C91.4046 142.391 91.5658 142.786 91.5527 143.274L90.6738 143.27C90.6803 143.006 90.5973 142.791 90.4248 142.625C90.2523 142.459 90.0228 142.373 89.7363 142.366C89.4303 142.36 89.1667 142.435 88.9453 142.591C88.7402 142.737 88.6214 142.929 88.5889 143.167C88.5465 143.473 88.7337 143.696 89.1504 143.836L89.5947 143.958C90.2002 144.114 90.6299 144.318 90.8838 144.568C91.1377 144.819 91.2549 145.13 91.2354 145.501C91.2158 145.83 91.1084 146.116 90.9131 146.36C90.7178 146.604 90.4574 146.792 90.1318 146.922C89.8063 147.049 89.4596 147.107 89.0918 147.098C88.5319 147.091 88.0697 146.928 87.7051 146.609C87.3405 146.287 87.1647 145.874 87.1777 145.369L88.0615 145.374C88.0615 145.67 88.1559 145.908 88.3447 146.087C88.5335 146.266 88.7923 146.355 89.1211 146.355C89.4434 146.362 89.7217 146.295 89.9561 146.155C90.1904 146.012 90.3239 145.817 90.3564 145.569ZM94.4678 140.438L94.2432 141.717H95.2051L95.083 142.415H94.126L93.5742 145.701C93.5645 145.786 93.5628 145.864 93.5693 145.936C93.5921 146.189 93.7305 146.316 93.9844 146.316C94.0918 146.316 94.235 146.3 94.4141 146.268L94.3457 147.005C94.1341 147.063 93.9193 147.093 93.7012 147.093C93.3496 147.086 93.0859 146.958 92.9102 146.707C92.7344 146.453 92.666 146.113 92.7051 145.687L93.2422 142.415H92.3096L92.4316 141.717H93.3643L93.5889 140.438H94.4678ZM98.7109 146.478C98.2975 146.904 97.7718 147.111 97.1338 147.098C96.6292 147.085 96.2549 146.904 96.0107 146.556C95.7699 146.207 95.6803 145.732 95.7422 145.13L96.3086 141.717H97.1924L96.6211 145.145C96.6048 145.288 96.6016 145.428 96.6113 145.564C96.6276 145.799 96.6976 145.983 96.8213 146.116C96.945 146.25 97.1175 146.321 97.3389 146.331C97.9704 146.351 98.4587 146.095 98.8037 145.564L99.4678 141.717H100.352L99.4336 147H98.5986L98.7109 146.478ZM101.011 144.349C101.076 143.812 101.224 143.326 101.455 142.894C101.686 142.461 101.971 142.137 102.31 141.922C102.648 141.707 103.021 141.604 103.428 141.614C104.017 141.627 104.469 141.842 104.785 142.259L105.293 139.5H106.177L104.878 147H104.072L104.165 146.434C103.748 146.889 103.234 147.111 102.622 147.098C102.134 147.085 101.745 146.894 101.455 146.526C101.165 146.155 101.009 145.659 100.986 145.037C100.977 144.845 100.985 144.616 101.011 144.349ZM101.86 144.856C101.851 145.322 101.934 145.683 102.109 145.94C102.285 146.198 102.542 146.329 102.881 146.336C103.392 146.359 103.846 146.102 104.243 145.564L104.663 143.123C104.468 142.641 104.113 142.394 103.599 142.381C103.25 142.371 102.943 142.477 102.676 142.698C102.412 142.916 102.21 143.224 102.07 143.621C101.934 144.015 101.864 144.427 101.86 144.856ZM107.231 147H106.353L107.271 141.717H108.149L107.231 147ZM107.959 139.788C108.109 139.782 108.232 139.827 108.33 139.925C108.431 140.019 108.481 140.145 108.481 140.301C108.478 140.454 108.428 140.579 108.33 140.677C108.236 140.774 108.112 140.826 107.959 140.833C107.806 140.84 107.681 140.796 107.583 140.701C107.485 140.607 107.438 140.483 107.441 140.33C107.445 140.177 107.493 140.05 107.588 139.949C107.682 139.848 107.806 139.795 107.959 139.788ZM110.962 147.098C110.304 147.085 109.79 146.842 109.419 146.37C109.048 145.898 108.892 145.294 108.95 144.559L108.975 144.349C109.03 143.825 109.185 143.346 109.438 142.913C109.696 142.48 110.008 142.155 110.376 141.937C110.744 141.715 111.141 141.609 111.567 141.619C112.111 141.632 112.537 141.813 112.847 142.161C113.156 142.509 113.325 142.981 113.354 143.577C113.364 143.789 113.358 144 113.335 144.212L113.281 144.617H109.829C109.771 145.096 109.849 145.503 110.063 145.838C110.282 146.173 110.605 146.347 111.035 146.36C111.556 146.373 112.038 146.139 112.48 145.657L112.988 146.087C112.767 146.406 112.48 146.657 112.129 146.839C111.781 147.018 111.392 147.104 110.962 147.098ZM111.523 142.356C111.159 142.347 110.84 142.47 110.566 142.728C110.296 142.985 110.081 143.367 109.922 143.875L112.49 143.88L112.51 143.802C112.562 143.392 112.495 143.051 112.31 142.781C112.127 142.508 111.865 142.366 111.523 142.356ZM117.134 145.569C117.183 145.205 116.982 144.948 116.533 144.798L115.615 144.529C114.84 144.262 114.466 143.82 114.492 143.201C114.515 142.736 114.727 142.355 115.127 142.059C115.531 141.759 116.004 141.613 116.548 141.619C117.082 141.626 117.515 141.782 117.847 142.088C118.182 142.391 118.343 142.786 118.33 143.274L117.451 143.27C117.458 143.006 117.375 142.791 117.202 142.625C117.03 142.459 116.8 142.373 116.514 142.366C116.208 142.36 115.944 142.435 115.723 142.591C115.518 142.737 115.399 142.929 115.366 143.167C115.324 143.473 115.511 143.696 115.928 143.836L116.372 143.958C116.978 144.114 117.407 144.318 117.661 144.568C117.915 144.819 118.032 145.13 118.013 145.501C117.993 145.83 117.886 146.116 117.69 146.36C117.495 146.604 117.235 146.792 116.909 146.922C116.584 147.049 116.237 147.107 115.869 147.098C115.309 147.091 114.847 146.928 114.482 146.609C114.118 146.287 113.942 145.874 113.955 145.369L114.839 145.374C114.839 145.67 114.933 145.908 115.122 146.087C115.311 146.266 115.57 146.355 115.898 146.355C116.221 146.362 116.499 146.295 116.733 146.155C116.968 146.012 117.101 145.817 117.134 145.569ZM118.716 148.421L118.208 148.055C118.586 147.589 118.82 147.127 118.911 146.668L119.038 145.931H119.902L119.8 146.59C119.683 147.332 119.321 147.942 118.716 148.421ZM125.547 146.365C125.863 146.372 126.147 146.281 126.401 146.092C126.655 145.9 126.821 145.649 126.899 145.34L127.734 145.335C127.686 145.667 127.552 145.97 127.334 146.243C127.119 146.517 126.847 146.73 126.519 146.883C126.19 147.036 125.853 147.107 125.508 147.098C125.068 147.091 124.696 146.977 124.39 146.756C124.087 146.531 123.864 146.22 123.721 145.823C123.577 145.423 123.529 144.974 123.574 144.476L123.599 144.231C123.66 143.724 123.809 143.27 124.043 142.869C124.277 142.469 124.583 142.158 124.961 141.937C125.339 141.712 125.755 141.606 126.211 141.619C126.764 141.632 127.207 141.818 127.539 142.176C127.871 142.534 128.037 142.988 128.037 143.538L127.212 143.533C127.205 143.188 127.109 142.91 126.924 142.698C126.738 142.483 126.488 142.369 126.172 142.356C125.713 142.347 125.33 142.518 125.024 142.869C124.722 143.221 124.533 143.712 124.458 144.344L124.443 144.471C124.424 144.679 124.421 144.894 124.434 145.115C124.456 145.496 124.564 145.797 124.756 146.019C124.948 146.24 125.212 146.355 125.547 146.365ZM129.399 147H128.521L129.819 139.5H130.703L129.399 147ZM134.077 147C134.054 146.906 134.043 146.813 134.043 146.722L134.058 146.443C133.573 146.893 133.058 147.111 132.515 147.098C132.049 147.091 131.67 146.945 131.377 146.658C131.087 146.368 130.955 146.007 130.981 145.574C131.014 145.014 131.258 144.578 131.714 144.266C132.173 143.95 132.775 143.792 133.521 143.792L134.443 143.797L134.502 143.377C134.535 143.061 134.473 142.812 134.316 142.63C134.163 142.444 133.932 142.348 133.623 142.342C133.32 142.335 133.052 142.41 132.817 142.566C132.586 142.719 132.445 142.923 132.393 143.177L131.504 143.182C131.533 142.872 131.654 142.599 131.865 142.361C132.077 142.12 132.349 141.935 132.681 141.805C133.013 141.671 133.356 141.608 133.711 141.614C134.261 141.627 134.689 141.795 134.995 142.117C135.301 142.436 135.43 142.861 135.381 143.392L134.951 146.009L134.927 146.385C134.92 146.564 134.94 146.741 134.985 146.917L134.976 147H134.077ZM132.69 146.316C132.974 146.323 133.241 146.256 133.491 146.116C133.745 145.973 133.963 145.776 134.146 145.525L134.336 144.437L133.667 144.432C133.11 144.432 132.684 144.52 132.388 144.695C132.091 144.871 131.924 145.12 131.885 145.442C131.855 145.69 131.912 145.896 132.056 146.062C132.202 146.225 132.414 146.31 132.69 146.316ZM139.448 145.569C139.497 145.205 139.297 144.948 138.848 144.798L137.93 144.529C137.155 144.262 136.781 143.82 136.807 143.201C136.829 142.736 137.041 142.355 137.441 142.059C137.845 141.759 138.319 141.613 138.862 141.619C139.396 141.626 139.829 141.782 140.161 142.088C140.496 142.391 140.658 142.786 140.645 143.274L139.766 143.27C139.772 143.006 139.689 142.791 139.517 142.625C139.344 142.459 139.115 142.373 138.828 142.366C138.522 142.36 138.258 142.435 138.037 142.591C137.832 142.737 137.713 142.929 137.681 143.167C137.638 143.473 137.826 143.696 138.242 143.836L138.687 143.958C139.292 144.114 139.722 144.318 139.976 144.568C140.229 144.819 140.347 145.13 140.327 145.501C140.308 145.83 140.2 146.116 140.005 146.36C139.81 146.604 139.549 146.792 139.224 146.922C138.898 147.049 138.551 147.107 138.184 147.098C137.624 147.091 137.161 146.928 136.797 146.609C136.432 146.287 136.257 145.874 136.27 145.369L137.153 145.374C137.153 145.67 137.248 145.908 137.437 146.087C137.625 146.266 137.884 146.355 138.213 146.355C138.535 146.362 138.813 146.295 139.048 146.155C139.282 146.012 139.416 145.817 139.448 145.569ZM144.497 145.569C144.546 145.205 144.346 144.948 143.896 144.798L142.979 144.529C142.204 144.262 141.829 143.82 141.855 143.201C141.878 142.736 142.09 142.355 142.49 142.059C142.894 141.759 143.368 141.613 143.911 141.619C144.445 141.626 144.878 141.782 145.21 142.088C145.545 142.391 145.706 142.786 145.693 143.274L144.814 143.27C144.821 143.006 144.738 142.791 144.565 142.625C144.393 142.459 144.163 142.373 143.877 142.366C143.571 142.36 143.307 142.435 143.086 142.591C142.881 142.737 142.762 142.929 142.729 143.167C142.687 143.473 142.874 143.696 143.291 143.836L143.735 143.958C144.341 144.114 144.771 144.318 145.024 144.568C145.278 144.819 145.396 145.13 145.376 145.501C145.356 145.83 145.249 146.116 145.054 146.36C144.858 146.604 144.598 146.792 144.272 146.922C143.947 147.049 143.6 147.107 143.232 147.098C142.673 147.091 142.21 146.928 141.846 146.609C141.481 146.287 141.305 145.874 141.318 145.369L142.202 145.374C142.202 145.67 142.297 145.908 142.485 146.087C142.674 146.266 142.933 146.355 143.262 146.355C143.584 146.362 143.862 146.295 144.097 146.155C144.331 146.012 144.465 145.817 144.497 145.569ZM151.66 141.619C152.103 141.626 152.482 141.746 152.798 141.98C153.114 142.215 153.346 142.539 153.496 142.952C153.649 143.362 153.701 143.812 153.652 144.3L153.643 144.407C153.581 144.922 153.428 145.387 153.184 145.804C152.939 146.217 152.624 146.539 152.236 146.771C151.849 147.002 151.424 147.111 150.962 147.098C150.522 147.091 150.143 146.971 149.824 146.736C149.508 146.502 149.277 146.183 149.131 145.779C148.984 145.376 148.932 144.931 148.975 144.446C149.023 143.899 149.172 143.408 149.419 142.972C149.666 142.535 149.984 142.199 150.371 141.961C150.762 141.72 151.191 141.606 151.66 141.619ZM149.863 144.451C149.84 144.656 149.84 144.869 149.863 145.091C149.896 145.475 150.01 145.781 150.205 146.009C150.404 146.237 150.667 146.355 150.996 146.365C151.289 146.375 151.559 146.303 151.807 146.15C152.054 145.994 152.262 145.76 152.432 145.447C152.601 145.135 152.71 144.788 152.759 144.407C152.785 144.108 152.79 143.855 152.773 143.65C152.734 143.257 152.616 142.946 152.417 142.718C152.218 142.49 151.955 142.369 151.626 142.356C151.17 142.347 150.783 142.526 150.464 142.894C150.145 143.261 149.948 143.743 149.873 144.339L149.863 144.451ZM154.741 147L155.542 142.415H154.727L154.849 141.717H155.659L155.747 141.092C155.832 140.561 156.037 140.146 156.362 139.847C156.704 139.534 157.14 139.381 157.671 139.388C157.837 139.388 158.047 139.415 158.301 139.471L158.193 140.208C158.037 140.175 157.879 140.156 157.72 140.149C157.414 140.149 157.165 140.245 156.973 140.438C156.784 140.626 156.667 140.879 156.621 141.194L156.543 141.717H157.637L157.515 142.415H156.421L155.625 147H154.741ZM164.668 147H160.142L160.249 146.312L162.871 143.763L163.35 143.289C163.9 142.739 164.204 142.231 164.263 141.766C164.305 141.408 164.235 141.116 164.053 140.892C163.87 140.664 163.613 140.543 163.281 140.53C162.855 140.517 162.498 140.643 162.212 140.906C161.925 141.167 161.751 141.525 161.689 141.98L160.815 141.985C160.858 141.549 160.991 141.163 161.216 140.828C161.444 140.49 161.742 140.231 162.109 140.052C162.48 139.869 162.882 139.783 163.315 139.793C163.905 139.806 164.372 139.985 164.717 140.33C165.065 140.672 165.215 141.116 165.166 141.663C165.111 142.288 164.751 142.946 164.087 143.636L163.638 144.09L161.353 146.263H164.785L164.668 147ZM167.832 147.098C167.233 147.085 166.784 146.873 166.484 146.463C166.185 146.049 166.048 145.455 166.074 144.681C166.081 144.44 166.099 144.202 166.128 143.968L166.304 142.781C166.46 141.769 166.758 141.014 167.197 140.516C167.637 140.018 168.216 139.777 168.936 139.793C169.541 139.806 169.992 140.014 170.288 140.418C170.588 140.818 170.726 141.401 170.703 142.166C170.693 142.41 170.674 142.649 170.645 142.884L170.474 144.031C170.301 145.102 169.997 145.885 169.561 146.38C169.124 146.875 168.548 147.114 167.832 147.098ZM169.79 142.723C169.836 142.329 169.857 142.023 169.854 141.805C169.837 140.978 169.517 140.553 168.892 140.53C168.436 140.514 168.066 140.683 167.783 141.038C167.503 141.39 167.308 141.943 167.197 142.698L166.987 144.114C166.942 144.492 166.921 144.799 166.924 145.037C166.94 145.9 167.259 146.342 167.881 146.365C168.314 146.385 168.67 146.225 168.95 145.887C169.233 145.548 169.435 145.011 169.556 144.275L169.79 142.723ZM175.664 147H171.138L171.245 146.312L173.867 143.763L174.346 143.289C174.896 142.739 175.2 142.231 175.259 141.766C175.301 141.408 175.231 141.116 175.049 140.892C174.867 140.664 174.609 140.543 174.277 140.53C173.851 140.517 173.494 140.643 173.208 140.906C172.922 141.167 172.747 141.525 172.686 141.98L171.812 141.985C171.854 141.549 171.987 141.163 172.212 140.828C172.44 140.49 172.738 140.231 173.105 140.052C173.477 139.869 173.879 139.783 174.312 139.793C174.901 139.806 175.368 139.985 175.713 140.33C176.061 140.672 176.211 141.116 176.162 141.663C176.107 142.288 175.747 142.946 175.083 143.636L174.634 144.09L172.349 146.263H175.781L175.664 147ZM181.162 147H176.636L176.743 146.312L179.365 143.763L179.844 143.289C180.394 142.739 180.698 142.231 180.757 141.766C180.799 141.408 180.729 141.116 180.547 140.892C180.365 140.664 180.107 140.543 179.775 140.53C179.349 140.517 178.993 140.643 178.706 140.906C178.42 141.167 178.245 141.525 178.184 141.98L177.31 141.985C177.352 141.549 177.485 141.163 177.71 140.828C177.938 140.49 178.236 140.231 178.604 140.052C178.975 139.869 179.377 139.783 179.81 139.793C180.399 139.806 180.866 139.985 181.211 140.33C181.559 140.672 181.709 141.116 181.66 141.663C181.605 142.288 181.245 142.946 180.581 143.636L180.132 144.09L177.847 146.263H181.279L181.162 147Z" fill="black"/>
<path d="M100.417 48.458V54.3122C100.417 55.833 101.25 57.2497 102.583 57.9788L113 63.6663C114.25 64.3538 115.75 64.3538 117 63.6663L127.417 57.9788C128.75 57.2497 129.583 55.833 129.583 54.3122V48.458L117 55.333C115.75 56.0205 114.25 56.0205 113 55.333L100.417 48.458ZM113 28.333L95.4375 37.9163C94 38.708 94 40.7913 95.4375 41.583L113 51.1663C114.25 51.8538 115.75 51.8538 117 51.1663L133.75 42.0205V54.333C133.75 55.4788 134.687 56.4163 135.833 56.4163C136.979 56.4163 137.917 55.4788 137.917 54.333V40.9788C137.917 40.208 137.5 39.5205 136.833 39.1455L117 28.333C115.75 27.6663 114.25 27.6663 113 28.333V28.333Z" fill="#8C4357"/>
<defs>
<filter id="filter0_d" x="0" y="0" width="229" height="229" filterUnits="userSpaceOnUse" color-interpolation-filters="sRGB">
<feFlood flood-opacity="0" result="BackgroundImageFix"/>
<feColorMatrix in="SourceAlpha" type="matrix" values="0 0 0 0 0 0 0 0 0 0 0 0 0 0 0 0 0 0 127 0" result="hardAlpha"/>
<feOffset dy="4"/>
<feGaussianBlur stdDeviation="2"/>
<feComposite in2="hardAlpha" operator="out"/>
<feColorMatrix type="matrix" values="0 0 0 0 0 0 0 0 0 0 0 0 0 0 0 0 0 0 0.15 0"/>
<feBlend mode="normal" in2="BackgroundImageFix" result="effect1_dropShadow"/>
<feBlend mode="normal" in="SourceGraphic" in2="effect1_dropShadow" result="shape"/>
</filter>
</defs>
</svg>
