<svg width="229" height="229" viewBox="0 0 229 229" fill="none" xmlns="http://www.w3.org/2000/svg">
<g filter="url(#filter0_d)">
<rect x="225" y="221" width="221" height="221" transform="rotate(-180 225 221)" fill="#C196A0"/>
<rect x="222.5" y="218.5" width="216" height="216" transform="rotate(-180 222.5 218.5)" stroke="white" stroke-width="5"/>
</g>
<path d="M26.4795 102.495V105H25.0146V97.8906H27.7881C28.3219 97.8906 28.7907 97.9883 29.1943 98.1836C29.6012 98.3789 29.9137 98.6572 30.1318 99.0186C30.3499 99.3766 30.459 99.7852 30.459 100.244C30.459 100.941 30.2197 101.491 29.7412 101.895C29.266 102.295 28.6068 102.495 27.7637 102.495H26.4795ZM26.4795 101.309H27.7881C28.1755 101.309 28.4701 101.217 28.6719 101.035C28.877 100.853 28.9795 100.592 28.9795 100.254C28.9795 99.9056 28.877 99.624 28.6719 99.4092C28.4668 99.1943 28.1836 99.0837 27.8223 99.0771H26.4795V101.309ZM34.3457 101.04C34.1536 101.014 33.9844 101.001 33.8379 101.001C33.304 101.001 32.9541 101.182 32.7881 101.543V105H31.377V99.7168H32.71L32.749 100.347C33.0322 99.8617 33.4245 99.6191 33.9258 99.6191C34.082 99.6191 34.2285 99.6403 34.3652 99.6826L34.3457 101.04ZM34.6338 102.31C34.6338 101.785 34.7347 101.318 34.9365 100.908C35.1383 100.498 35.4281 100.181 35.8057 99.9561C36.1865 99.7314 36.6276 99.6191 37.1289 99.6191C37.8418 99.6191 38.4229 99.8372 38.8721 100.273C39.3245 100.71 39.5768 101.302 39.6289 102.051L39.6387 102.412C39.6387 103.223 39.4124 103.874 38.96 104.365C38.5075 104.854 37.9004 105.098 37.1387 105.098C36.377 105.098 35.7682 104.854 35.3125 104.365C34.86 103.877 34.6338 103.213 34.6338 102.373V102.31ZM36.0449 102.412C36.0449 102.913 36.1393 103.298 36.3281 103.564C36.5169 103.828 36.7871 103.96 37.1387 103.96C37.4805 103.96 37.7474 103.83 37.9395 103.569C38.1315 103.306 38.2275 102.886 38.2275 102.31C38.2275 101.818 38.1315 101.437 37.9395 101.167C37.7474 100.897 37.4772 100.762 37.1289 100.762C36.7839 100.762 36.5169 100.897 36.3281 101.167C36.1393 101.434 36.0449 101.849 36.0449 102.412ZM40.8936 105V100.752H40.1074V99.7168H40.8936V99.2676C40.8936 98.6751 41.0628 98.2161 41.4014 97.8906C41.7432 97.5618 42.2201 97.3975 42.832 97.3975C43.0273 97.3975 43.2666 97.43 43.5498 97.4951L43.5352 98.5889C43.418 98.5596 43.2747 98.5449 43.1055 98.5449C42.5749 98.5449 42.3096 98.7939 42.3096 99.292V99.7168H43.3594V100.752H42.3096V105H40.8936ZM46.4062 105.098C45.6315 105.098 45 104.86 44.5117 104.385C44.0267 103.91 43.7842 103.276 43.7842 102.485V102.349C43.7842 101.818 43.8867 101.344 44.0918 100.928C44.2969 100.508 44.5866 100.186 44.9609 99.9609C45.3385 99.7331 45.7682 99.6191 46.25 99.6191C46.9727 99.6191 47.5407 99.847 47.9541 100.303C48.3708 100.758 48.5791 101.405 48.5791 102.241V102.817H45.2148C45.2604 103.162 45.3971 103.439 45.625 103.647C45.8561 103.856 46.1475 103.96 46.499 103.96C47.0426 103.96 47.4674 103.763 47.7734 103.369L48.4668 104.146C48.2552 104.445 47.9688 104.679 47.6074 104.849C47.2461 105.015 46.8457 105.098 46.4062 105.098ZM46.2451 100.762C45.9652 100.762 45.7373 100.856 45.5615 101.045C45.389 101.234 45.2783 101.504 45.2295 101.855H47.1924V101.743C47.1859 101.431 47.1012 101.19 46.9385 101.021C46.7757 100.848 46.5446 100.762 46.2451 100.762ZM52.2461 103.54C52.2461 103.368 52.1598 103.232 51.9873 103.135C51.818 103.034 51.5446 102.944 51.167 102.866C49.9105 102.603 49.2822 102.069 49.2822 101.265C49.2822 100.796 49.4759 100.405 49.8633 100.093C50.2539 99.777 50.7633 99.6191 51.3916 99.6191C52.0622 99.6191 52.5977 99.777 52.998 100.093C53.4017 100.409 53.6035 100.819 53.6035 101.323H52.1924C52.1924 101.121 52.1273 100.955 51.9971 100.825C51.8669 100.692 51.6634 100.625 51.3867 100.625C51.1491 100.625 50.9652 100.679 50.835 100.786C50.7048 100.894 50.6396 101.03 50.6396 101.196C50.6396 101.353 50.7129 101.479 50.8594 101.577C51.0091 101.672 51.2598 101.755 51.6113 101.826C51.9629 101.895 52.2591 101.973 52.5 102.061C53.2454 102.334 53.6182 102.808 53.6182 103.481C53.6182 103.963 53.4115 104.354 52.998 104.653C52.5846 104.95 52.0508 105.098 51.3965 105.098C50.9538 105.098 50.5599 105.02 50.2148 104.863C49.873 104.704 49.6045 104.487 49.4092 104.214C49.2139 103.937 49.1162 103.639 49.1162 103.32H50.4541C50.4671 103.571 50.5599 103.763 50.7324 103.896C50.9049 104.03 51.1361 104.097 51.4258 104.097C51.696 104.097 51.8994 104.046 52.0361 103.945C52.1761 103.841 52.2461 103.706 52.2461 103.54ZM57.3926 103.54C57.3926 103.368 57.3063 103.232 57.1338 103.135C56.9645 103.034 56.6911 102.944 56.3135 102.866C55.057 102.603 54.4287 102.069 54.4287 101.265C54.4287 100.796 54.6224 100.405 55.0098 100.093C55.4004 99.777 55.9098 99.6191 56.5381 99.6191C57.2087 99.6191 57.7441 99.777 58.1445 100.093C58.5482 100.409 58.75 100.819 58.75 101.323H57.3389C57.3389 101.121 57.2738 100.955 57.1436 100.825C57.0133 100.692 56.8099 100.625 56.5332 100.625C56.2956 100.625 56.1117 100.679 55.9814 100.786C55.8512 100.894 55.7861 101.03 55.7861 101.196C55.7861 101.353 55.8594 101.479 56.0059 101.577C56.1556 101.672 56.4062 101.755 56.7578 101.826C57.1094 101.895 57.4056 101.973 57.6465 102.061C58.3919 102.334 58.7646 102.808 58.7646 103.481C58.7646 103.963 58.5579 104.354 58.1445 104.653C57.7311 104.95 57.1973 105.098 56.543 105.098C56.1003 105.098 55.7064 105.02 55.3613 104.863C55.0195 104.704 54.751 104.487 54.5557 104.214C54.3604 103.937 54.2627 103.639 54.2627 103.32H55.6006C55.6136 103.571 55.7064 103.763 55.8789 103.896C56.0514 104.03 56.2826 104.097 56.5723 104.097C56.8424 104.097 57.0459 104.046 57.1826 103.945C57.3226 103.841 57.3926 103.706 57.3926 103.54ZM61.167 105H59.751V99.7168H61.167V105ZM59.668 98.3496C59.668 98.138 59.738 97.9639 59.8779 97.8271C60.0212 97.6904 60.2148 97.6221 60.459 97.6221C60.6999 97.6221 60.8919 97.6904 61.0352 97.8271C61.1784 97.9639 61.25 98.138 61.25 98.3496C61.25 98.5645 61.1768 98.7402 61.0303 98.877C60.887 99.0137 60.6966 99.082 60.459 99.082C60.2214 99.082 60.0293 99.0137 59.8828 98.877C59.7396 98.7402 59.668 98.5645 59.668 98.3496ZM62.1143 102.31C62.1143 101.785 62.2152 101.318 62.417 100.908C62.6188 100.498 62.9085 100.181 63.2861 99.9561C63.667 99.7314 64.1081 99.6191 64.6094 99.6191C65.3223 99.6191 65.9033 99.8372 66.3525 100.273C66.805 100.71 67.0573 101.302 67.1094 102.051L67.1191 102.412C67.1191 103.223 66.8929 103.874 66.4404 104.365C65.988 104.854 65.3809 105.098 64.6191 105.098C63.8574 105.098 63.2487 104.854 62.793 104.365C62.3405 103.877 62.1143 103.213 62.1143 102.373V102.31ZM63.5254 102.412C63.5254 102.913 63.6198 103.298 63.8086 103.564C63.9974 103.828 64.2676 103.96 64.6191 103.96C64.9609 103.96 65.2279 103.83 65.4199 103.569C65.612 103.306 65.708 102.886 65.708 102.31C65.708 101.818 65.612 101.437 65.4199 101.167C65.2279 100.897 64.9577 100.762 64.6094 100.762C64.2643 100.762 63.9974 100.897 63.8086 101.167C63.6198 101.434 63.5254 101.849 63.5254 102.412ZM69.2871 99.7168L69.3311 100.327C69.7087 99.8551 70.2148 99.6191 70.8496 99.6191C71.4095 99.6191 71.8262 99.7835 72.0996 100.112C72.373 100.441 72.513 100.933 72.5195 101.587V105H71.1084V101.621C71.1084 101.322 71.0433 101.105 70.9131 100.972C70.7829 100.835 70.5664 100.767 70.2637 100.767C69.8665 100.767 69.5687 100.936 69.3701 101.274V105H67.959V99.7168H69.2871ZM76.6553 105C76.5902 104.873 76.543 104.715 76.5137 104.526C76.1719 104.907 75.7275 105.098 75.1807 105.098C74.6631 105.098 74.2334 104.948 73.8916 104.648C73.5531 104.349 73.3838 103.971 73.3838 103.516C73.3838 102.956 73.5905 102.526 74.0039 102.227C74.4206 101.927 75.0212 101.776 75.8057 101.772H76.4551V101.47C76.4551 101.226 76.3916 101.03 76.2646 100.884C76.141 100.737 75.944 100.664 75.6738 100.664C75.4362 100.664 75.249 100.721 75.1123 100.835C74.9788 100.949 74.9121 101.105 74.9121 101.304H73.501C73.501 100.998 73.5954 100.715 73.7842 100.454C73.973 100.194 74.2399 99.9902 74.585 99.8438C74.93 99.694 75.3174 99.6191 75.7471 99.6191C76.3981 99.6191 76.9141 99.7835 77.2949 100.112C77.679 100.438 77.8711 100.897 77.8711 101.489V103.779C77.8743 104.281 77.9443 104.66 78.0811 104.917V105H76.6553ZM75.4883 104.019C75.6966 104.019 75.8887 103.973 76.0645 103.882C76.2402 103.787 76.3704 103.662 76.4551 103.506V102.598H75.9277C75.2214 102.598 74.8454 102.842 74.7998 103.33L74.7949 103.413C74.7949 103.589 74.8568 103.734 74.9805 103.848C75.1042 103.962 75.2734 104.019 75.4883 104.019ZM80.4443 105H79.0283V97.5H80.4443V105ZM89.7754 102.632C89.7201 103.397 89.4368 103.999 88.9258 104.438C88.418 104.878 87.7474 105.098 86.9141 105.098C86.0026 105.098 85.2848 104.792 84.7607 104.18C84.2399 103.564 83.9795 102.721 83.9795 101.65V101.216C83.9795 100.532 84.0999 99.93 84.3408 99.4092C84.5817 98.8883 84.9251 98.4896 85.3711 98.2129C85.8203 97.9329 86.3411 97.793 86.9336 97.793C87.7539 97.793 88.4147 98.0127 88.916 98.4521C89.4173 98.8916 89.707 99.5085 89.7852 100.303H88.3203C88.2845 99.8438 88.1559 99.5117 87.9346 99.3066C87.7165 99.0983 87.3828 98.9941 86.9336 98.9941C86.4453 98.9941 86.0791 99.1699 85.835 99.5215C85.5941 99.8698 85.4704 100.412 85.4639 101.147V101.685C85.4639 102.453 85.5794 103.014 85.8105 103.369C86.0449 103.724 86.4128 103.901 86.9141 103.901C87.3665 103.901 87.7035 103.799 87.9248 103.594C88.1494 103.385 88.278 103.065 88.3105 102.632H89.7754ZM93.0762 105.098C92.3014 105.098 91.6699 104.86 91.1816 104.385C90.6966 103.91 90.4541 103.276 90.4541 102.485V102.349C90.4541 101.818 90.5566 101.344 90.7617 100.928C90.9668 100.508 91.2565 100.186 91.6309 99.9609C92.0085 99.7331 92.4382 99.6191 92.9199 99.6191C93.6426 99.6191 94.2106 99.847 94.624 100.303C95.0407 100.758 95.249 101.405 95.249 102.241V102.817H91.8848C91.9303 103.162 92.0671 103.439 92.2949 103.647C92.526 103.856 92.8174 103.96 93.1689 103.96C93.7126 103.96 94.1374 103.763 94.4434 103.369L95.1367 104.146C94.9251 104.445 94.6387 104.679 94.2773 104.849C93.916 105.015 93.5156 105.098 93.0762 105.098ZM92.915 100.762C92.6351 100.762 92.4072 100.856 92.2314 101.045C92.0589 101.234 91.9482 101.504 91.8994 101.855H93.8623V101.743C93.8558 101.431 93.7712 101.19 93.6084 101.021C93.4456 100.848 93.2145 100.762 92.915 100.762ZM99.0234 101.04C98.8314 101.014 98.6621 101.001 98.5156 101.001C97.9818 101.001 97.6318 101.182 97.4658 101.543V105H96.0547V99.7168H97.3877L97.4268 100.347C97.71 99.8617 98.1022 99.6191 98.6035 99.6191C98.7598 99.6191 98.9062 99.6403 99.043 99.6826L99.0234 101.04ZM101.641 98.418V99.7168H102.544V100.752H101.641V103.389C101.641 103.584 101.678 103.724 101.753 103.809C101.828 103.893 101.971 103.936 102.183 103.936C102.339 103.936 102.477 103.924 102.598 103.901V104.971C102.321 105.055 102.036 105.098 101.743 105.098C100.754 105.098 100.249 104.598 100.229 103.599V100.752H99.458V99.7168H100.229V98.418H101.641ZM104.819 105H103.403V99.7168H104.819V105ZM103.32 98.3496C103.32 98.138 103.39 97.9639 103.53 97.8271C103.674 97.6904 103.867 97.6221 104.111 97.6221C104.352 97.6221 104.544 97.6904 104.688 97.8271C104.831 97.9639 104.902 98.138 104.902 98.3496C104.902 98.5645 104.829 98.7402 104.683 98.877C104.539 99.0137 104.349 99.082 104.111 99.082C103.874 99.082 103.682 99.0137 103.535 98.877C103.392 98.7402 103.32 98.5645 103.32 98.3496ZM106.328 105V100.752H105.542V99.7168H106.328V99.4727C106.335 98.8086 106.538 98.2975 106.938 97.9395C107.342 97.5781 107.91 97.3975 108.643 97.3975C109.082 97.3975 109.616 97.4935 110.244 97.6855L110.039 98.8525C109.72 98.7581 109.473 98.6979 109.297 98.6719C109.121 98.6426 108.932 98.6279 108.73 98.6279C108.073 98.6279 107.744 98.9193 107.744 99.502V99.7168H108.784V100.752H107.744V105H106.328ZM110.903 105H109.487V99.7168H110.903V105ZM114.268 103.96C114.528 103.96 114.74 103.888 114.902 103.745C115.065 103.602 115.15 103.411 115.156 103.174H116.479C116.476 103.532 116.379 103.861 116.187 104.16C115.994 104.456 115.731 104.688 115.396 104.854C115.063 105.016 114.696 105.098 114.292 105.098C113.537 105.098 112.941 104.858 112.505 104.38C112.069 103.898 111.851 103.234 111.851 102.388V102.295C111.851 101.481 112.067 100.832 112.5 100.347C112.933 99.8617 113.527 99.6191 114.282 99.6191C114.943 99.6191 115.472 99.8079 115.869 100.186C116.27 100.56 116.473 101.06 116.479 101.685H115.156C115.15 101.411 115.065 101.19 114.902 101.021C114.74 100.848 114.525 100.762 114.258 100.762C113.929 100.762 113.68 100.882 113.511 101.123C113.345 101.361 113.262 101.748 113.262 102.285V102.432C113.262 102.975 113.345 103.366 113.511 103.604C113.677 103.841 113.929 103.96 114.268 103.96ZM120.347 105C120.282 104.873 120.234 104.715 120.205 104.526C119.863 104.907 119.419 105.098 118.872 105.098C118.354 105.098 117.925 104.948 117.583 104.648C117.244 104.349 117.075 103.971 117.075 103.516C117.075 102.956 117.282 102.526 117.695 102.227C118.112 101.927 118.713 101.776 119.497 101.772H120.146V101.47C120.146 101.226 120.083 101.03 119.956 100.884C119.832 100.737 119.635 100.664 119.365 100.664C119.128 100.664 118.94 100.721 118.804 100.835C118.67 100.949 118.604 101.105 118.604 101.304H117.192C117.192 100.998 117.287 100.715 117.476 100.454C117.664 100.194 117.931 99.9902 118.276 99.8438C118.621 99.694 119.009 99.6191 119.438 99.6191C120.09 99.6191 120.605 99.7835 120.986 100.112C121.37 100.438 121.562 100.897 121.562 101.489V103.779C121.566 104.281 121.636 104.66 121.772 104.917V105H120.347ZM119.18 104.019C119.388 104.019 119.58 103.973 119.756 103.882C119.932 103.787 120.062 103.662 120.146 103.506V102.598H119.619C118.913 102.598 118.537 102.842 118.491 103.33L118.486 103.413C118.486 103.589 118.548 103.734 118.672 103.848C118.796 103.962 118.965 104.019 119.18 104.019ZM124.336 98.418V99.7168H125.239V100.752H124.336V103.389C124.336 103.584 124.373 103.724 124.448 103.809C124.523 103.893 124.666 103.936 124.878 103.936C125.034 103.936 125.173 103.924 125.293 103.901V104.971C125.016 105.055 124.731 105.098 124.438 105.098C123.449 105.098 122.944 104.598 122.925 103.599V100.752H122.153V99.7168H122.925V98.418H124.336ZM128.457 105.098C127.682 105.098 127.051 104.86 126.562 104.385C126.077 103.91 125.835 103.276 125.835 102.485V102.349C125.835 101.818 125.938 101.344 126.143 100.928C126.348 100.508 126.637 100.186 127.012 99.9609C127.389 99.7331 127.819 99.6191 128.301 99.6191C129.023 99.6191 129.591 99.847 130.005 100.303C130.422 100.758 130.63 101.405 130.63 102.241V102.817H127.266C127.311 103.162 127.448 103.439 127.676 103.647C127.907 103.856 128.198 103.96 128.55 103.96C129.093 103.96 129.518 103.763 129.824 103.369L130.518 104.146C130.306 104.445 130.02 104.679 129.658 104.849C129.297 105.015 128.896 105.098 128.457 105.098ZM128.296 100.762C128.016 100.762 127.788 100.856 127.612 101.045C127.44 101.234 127.329 101.504 127.28 101.855H129.243V101.743C129.237 101.431 129.152 101.19 128.989 101.021C128.826 100.848 128.595 100.762 128.296 100.762ZM135.415 105H133.999V99.7168H135.415V105ZM133.916 98.3496C133.916 98.138 133.986 97.9639 134.126 97.8271C134.269 97.6904 134.463 97.6221 134.707 97.6221C134.948 97.6221 135.14 97.6904 135.283 97.8271C135.426 97.9639 135.498 98.138 135.498 98.3496C135.498 98.5645 135.425 98.7402 135.278 98.877C135.135 99.0137 134.945 99.082 134.707 99.082C134.469 99.082 134.277 99.0137 134.131 98.877C133.988 98.7402 133.916 98.5645 133.916 98.3496ZM137.881 99.7168L137.925 100.327C138.302 99.8551 138.809 99.6191 139.443 99.6191C140.003 99.6191 140.42 99.7835 140.693 100.112C140.967 100.441 141.107 100.933 141.113 101.587V105H139.702V101.621C139.702 101.322 139.637 101.105 139.507 100.972C139.377 100.835 139.16 100.767 138.857 100.767C138.46 100.767 138.162 100.936 137.964 101.274V105H136.553V99.7168H137.881ZM147.397 103.237L149.009 97.8906H150.64L148.164 105H146.636L144.17 97.8906H145.796L147.397 103.237ZM152.71 105H151.294V99.7168H152.71V105ZM151.211 98.3496C151.211 98.138 151.281 97.9639 151.421 97.8271C151.564 97.6904 151.758 97.6221 152.002 97.6221C152.243 97.6221 152.435 97.6904 152.578 97.8271C152.721 97.9639 152.793 98.138 152.793 98.3496C152.793 98.5645 152.72 98.7402 152.573 98.877C152.43 99.0137 152.24 99.082 152.002 99.082C151.764 99.082 151.572 99.0137 151.426 98.877C151.283 98.7402 151.211 98.5645 151.211 98.3496ZM156.738 103.54C156.738 103.368 156.652 103.232 156.479 103.135C156.31 103.034 156.037 102.944 155.659 102.866C154.403 102.603 153.774 102.069 153.774 101.265C153.774 100.796 153.968 100.405 154.355 100.093C154.746 99.777 155.256 99.6191 155.884 99.6191C156.554 99.6191 157.09 99.777 157.49 100.093C157.894 100.409 158.096 100.819 158.096 101.323H156.685C156.685 101.121 156.619 100.955 156.489 100.825C156.359 100.692 156.156 100.625 155.879 100.625C155.641 100.625 155.457 100.679 155.327 100.786C155.197 100.894 155.132 101.03 155.132 101.196C155.132 101.353 155.205 101.479 155.352 101.577C155.501 101.672 155.752 101.755 156.104 101.826C156.455 101.895 156.751 101.973 156.992 102.061C157.738 102.334 158.11 102.808 158.11 103.481C158.11 103.963 157.904 104.354 157.49 104.653C157.077 104.95 156.543 105.098 155.889 105.098C155.446 105.098 155.052 105.02 154.707 104.863C154.365 104.704 154.097 104.487 153.901 104.214C153.706 103.937 153.608 103.639 153.608 103.32H154.946C154.959 103.571 155.052 103.763 155.225 103.896C155.397 104.03 155.628 104.097 155.918 104.097C156.188 104.097 156.392 104.046 156.528 103.945C156.668 103.841 156.738 103.706 156.738 103.54ZM162.188 104.463C161.839 104.886 161.357 105.098 160.742 105.098C160.176 105.098 159.743 104.935 159.443 104.609C159.147 104.284 158.996 103.807 158.989 103.179V99.7168H160.4V103.13C160.4 103.68 160.651 103.955 161.152 103.955C161.631 103.955 161.96 103.789 162.139 103.457V99.7168H163.555V105H162.227L162.188 104.463ZM167.681 105C167.616 104.873 167.568 104.715 167.539 104.526C167.197 104.907 166.753 105.098 166.206 105.098C165.688 105.098 165.259 104.948 164.917 104.648C164.578 104.349 164.409 103.971 164.409 103.516C164.409 102.956 164.616 102.526 165.029 102.227C165.446 101.927 166.047 101.776 166.831 101.772H167.48V101.47C167.48 101.226 167.417 101.03 167.29 100.884C167.166 100.737 166.969 100.664 166.699 100.664C166.462 100.664 166.274 100.721 166.138 100.835C166.004 100.949 165.938 101.105 165.938 101.304H164.526C164.526 100.998 164.621 100.715 164.81 100.454C164.998 100.194 165.265 99.9902 165.61 99.8438C165.955 99.694 166.343 99.6191 166.772 99.6191C167.424 99.6191 167.939 99.7835 168.32 100.112C168.704 100.438 168.896 100.897 168.896 101.489V103.779C168.9 104.281 168.97 104.66 169.106 104.917V105H167.681ZM166.514 104.019C166.722 104.019 166.914 103.973 167.09 103.882C167.266 103.787 167.396 103.662 167.48 103.506V102.598H166.953C166.247 102.598 165.871 102.842 165.825 103.33L165.82 103.413C165.82 103.589 165.882 103.734 166.006 103.848C166.13 103.962 166.299 104.019 166.514 104.019ZM171.47 105H170.054V97.5H171.47V105ZM175.22 105V97.8906H177.407C178.032 97.8906 178.59 98.0322 179.082 98.3154C179.577 98.5954 179.963 98.9958 180.239 99.5166C180.516 100.034 180.654 100.623 180.654 101.284V101.611C180.654 102.272 180.518 102.86 180.244 103.374C179.974 103.888 179.591 104.287 179.097 104.57C178.602 104.854 178.044 104.997 177.422 105H175.22ZM176.685 99.0771V103.823H177.393C177.965 103.823 178.403 103.636 178.706 103.262C179.009 102.887 179.163 102.352 179.17 101.655V101.279C179.17 100.557 179.02 100.01 178.721 99.6387C178.421 99.2643 177.983 99.0771 177.407 99.0771H176.685ZM184.062 105.098C183.288 105.098 182.656 104.86 182.168 104.385C181.683 103.91 181.44 103.276 181.44 102.485V102.349C181.44 101.818 181.543 101.344 181.748 100.928C181.953 100.508 182.243 100.186 182.617 99.9609C182.995 99.7331 183.424 99.6191 183.906 99.6191C184.629 99.6191 185.197 99.847 185.61 100.303C186.027 100.758 186.235 101.405 186.235 102.241V102.817H182.871C182.917 103.162 183.053 103.439 183.281 103.647C183.512 103.856 183.804 103.96 184.155 103.96C184.699 103.96 185.124 103.763 185.43 103.369L186.123 104.146C185.911 104.445 185.625 104.679 185.264 104.849C184.902 105.015 184.502 105.098 184.062 105.098ZM183.901 100.762C183.621 100.762 183.394 100.856 183.218 101.045C183.045 101.234 182.935 101.504 182.886 101.855H184.849V101.743C184.842 101.431 184.757 101.19 184.595 101.021C184.432 100.848 184.201 100.762 183.901 100.762ZM189.902 103.54C189.902 103.368 189.816 103.232 189.644 103.135C189.474 103.034 189.201 102.944 188.823 102.866C187.567 102.603 186.938 102.069 186.938 101.265C186.938 100.796 187.132 100.405 187.52 100.093C187.91 99.777 188.42 99.6191 189.048 99.6191C189.718 99.6191 190.254 99.777 190.654 100.093C191.058 100.409 191.26 100.819 191.26 101.323H189.849C189.849 101.121 189.784 100.955 189.653 100.825C189.523 100.692 189.32 100.625 189.043 100.625C188.805 100.625 188.621 100.679 188.491 100.786C188.361 100.894 188.296 101.03 188.296 101.196C188.296 101.353 188.369 101.479 188.516 101.577C188.665 101.672 188.916 101.755 189.268 101.826C189.619 101.895 189.915 101.973 190.156 102.061C190.902 102.334 191.274 102.808 191.274 103.481C191.274 103.963 191.068 104.354 190.654 104.653C190.241 104.95 189.707 105.098 189.053 105.098C188.61 105.098 188.216 105.02 187.871 104.863C187.529 104.704 187.261 104.487 187.065 104.214C186.87 103.937 186.772 103.639 186.772 103.32H188.11C188.123 103.571 188.216 103.763 188.389 103.896C188.561 104.03 188.792 104.097 189.082 104.097C189.352 104.097 189.556 104.046 189.692 103.945C189.832 103.841 189.902 103.706 189.902 103.54ZM193.677 105H192.261V99.7168H193.677V105ZM192.178 98.3496C192.178 98.138 192.248 97.9639 192.388 97.8271C192.531 97.6904 192.725 97.6221 192.969 97.6221C193.21 97.6221 193.402 97.6904 193.545 97.8271C193.688 97.9639 193.76 98.138 193.76 98.3496C193.76 98.5645 193.687 98.7402 193.54 98.877C193.397 99.0137 193.206 99.082 192.969 99.082C192.731 99.082 192.539 99.0137 192.393 98.877C192.249 98.7402 192.178 98.5645 192.178 98.3496ZM194.639 102.319C194.639 101.509 194.831 100.856 195.215 100.361C195.602 99.8665 196.123 99.6191 196.777 99.6191C197.357 99.6191 197.808 99.8177 198.13 100.215L198.188 99.7168H199.468V104.824C199.468 105.286 199.362 105.688 199.15 106.03C198.942 106.372 198.647 106.632 198.267 106.812C197.886 106.991 197.44 107.08 196.929 107.08C196.541 107.08 196.164 107.002 195.796 106.846C195.428 106.693 195.15 106.494 194.961 106.25L195.586 105.391C195.938 105.785 196.364 105.981 196.865 105.981C197.24 105.981 197.531 105.881 197.739 105.679C197.948 105.48 198.052 105.197 198.052 104.829V104.546C197.726 104.914 197.298 105.098 196.768 105.098C196.133 105.098 195.618 104.85 195.225 104.355C194.834 103.857 194.639 103.198 194.639 102.378V102.319ZM196.05 102.422C196.05 102.9 196.146 103.276 196.338 103.55C196.53 103.82 196.794 103.955 197.129 103.955C197.559 103.955 197.866 103.794 198.052 103.472V101.25C197.863 100.928 197.559 100.767 197.139 100.767C196.8 100.767 196.533 100.905 196.338 101.182C196.146 101.458 196.05 101.872 196.05 102.422ZM201.855 99.7168L201.899 100.327C202.277 99.8551 202.783 99.6191 203.418 99.6191C203.978 99.6191 204.395 99.7835 204.668 100.112C204.941 100.441 205.081 100.933 205.088 101.587V105H203.677V101.621C203.677 101.322 203.612 101.105 203.481 100.972C203.351 100.835 203.135 100.767 202.832 100.767C202.435 100.767 202.137 100.936 201.938 101.274V105H200.527V99.7168H201.855ZM37.0605 109.891V114.944C37.054 115.618 36.8587 116.146 36.4746 116.526C36.0905 116.907 35.555 117.098 34.8682 117.098C34.165 117.098 33.6279 116.912 33.2568 116.541C32.8857 116.167 32.6969 115.634 32.6904 114.944V109.891H33.5791V114.91C33.5791 115.389 33.68 115.747 33.8818 115.984C34.0869 116.219 34.4157 116.336 34.8682 116.336C35.3239 116.336 35.6527 116.219 35.8545 115.984C36.0596 115.747 36.1621 115.389 36.1621 114.91V109.891H37.0605ZM40.4346 112.615L41.7725 109.891H42.8223L40.9717 113.416L42.8613 117H41.8018L40.4346 114.227L39.0625 117H38.0029L39.9023 113.416L38.042 109.891H39.0869L40.4346 112.615ZM46.2402 117V109.891H47.9346C48.7646 109.891 49.4092 110.151 49.8682 110.672C50.3271 111.189 50.5566 111.919 50.5566 112.859V114.051C50.5566 114.992 50.3239 115.719 49.8584 116.233C49.3929 116.744 48.7174 117 47.832 117H46.2402ZM47.1338 110.662V116.233H47.8516C48.4798 116.233 48.9388 116.054 49.2285 115.696C49.5182 115.335 49.6663 114.801 49.6729 114.095V112.835C49.6729 112.086 49.528 111.538 49.2383 111.189C48.9518 110.838 48.5173 110.662 47.9346 110.662H47.1338ZM53.7207 117.098C53.0632 117.098 52.5586 116.902 52.207 116.512C51.8555 116.118 51.6764 115.542 51.6699 114.783V114.144C51.6699 113.356 51.8408 112.739 52.1826 112.293C52.5277 111.844 53.0078 111.619 53.623 111.619C54.2415 111.619 54.7038 111.816 55.0098 112.21C55.3158 112.604 55.472 113.217 55.4785 114.051V114.617H52.5293V114.739C52.5293 115.306 52.6351 115.717 52.8467 115.975C53.0615 116.232 53.3691 116.36 53.7695 116.36C54.0234 116.36 54.2464 116.313 54.4385 116.219C54.6338 116.121 54.8161 115.968 54.9854 115.76L55.4346 116.307C55.0602 116.834 54.4889 117.098 53.7207 117.098ZM53.623 112.361C53.265 112.361 52.9997 112.485 52.8271 112.732C52.6546 112.977 52.557 113.357 52.5342 113.875H54.6143V113.758C54.5915 113.257 54.5003 112.898 54.3408 112.684C54.1846 112.469 53.9453 112.361 53.623 112.361ZM59.0869 115.647C59.0869 115.462 59.0169 115.302 58.877 115.169C58.737 115.035 58.4668 114.879 58.0664 114.7C57.6009 114.508 57.2721 114.344 57.0801 114.207C56.8913 114.07 56.7497 113.916 56.6553 113.743C56.5609 113.567 56.5137 113.359 56.5137 113.118C56.5137 112.688 56.6699 112.332 56.9824 112.049C57.2982 111.762 57.7002 111.619 58.1885 111.619C58.7028 111.619 59.1162 111.769 59.4287 112.068C59.7412 112.368 59.8975 112.752 59.8975 113.221H59.0381C59.0381 112.983 58.9583 112.781 58.7988 112.615C58.6393 112.446 58.4359 112.361 58.1885 112.361C57.9346 112.361 57.7344 112.428 57.5879 112.562C57.4447 112.692 57.373 112.868 57.373 113.089C57.373 113.265 57.4251 113.406 57.5293 113.514C57.6367 113.621 57.8923 113.763 58.2959 113.938C58.9372 114.189 59.3734 114.435 59.6045 114.676C59.8356 114.913 59.9512 115.216 59.9512 115.584C59.9512 116.043 59.7933 116.411 59.4775 116.688C59.1618 116.961 58.7386 117.098 58.208 117.098C57.6579 117.098 57.2119 116.94 56.8701 116.624C56.5283 116.308 56.3574 115.908 56.3574 115.423H57.2266C57.2363 115.716 57.3258 115.945 57.4951 116.111C57.6644 116.277 57.902 116.36 58.208 116.36C58.4945 116.36 58.7126 116.297 58.8623 116.17C59.012 116.04 59.0869 115.866 59.0869 115.647ZM62.0117 117H61.1475V111.717H62.0117V117ZM62.0801 110.315C62.0801 110.462 62.0394 110.584 61.958 110.682C61.8766 110.779 61.7529 110.828 61.5869 110.828C61.4242 110.828 61.3021 110.779 61.2207 110.682C61.1393 110.584 61.0986 110.462 61.0986 110.315C61.0986 110.169 61.1393 110.045 61.2207 109.944C61.3021 109.843 61.4242 109.793 61.5869 109.793C61.7497 109.793 61.8717 109.845 61.9531 109.949C62.0378 110.05 62.0801 110.172 62.0801 110.315ZM63.2031 114.119C63.2031 113.296 63.3529 112.674 63.6523 112.254C63.9518 111.831 64.3896 111.619 64.9658 111.619C65.5029 111.619 65.9115 111.849 66.1914 112.308L66.2354 111.717H67.0166V117.049C67.0166 117.703 66.849 118.204 66.5137 118.553C66.1784 118.904 65.7113 119.08 65.1123 119.08C64.8519 119.08 64.5589 119.015 64.2334 118.885C63.9111 118.758 63.6686 118.6 63.5059 118.411L63.8574 117.815C64.2155 118.167 64.611 118.343 65.0439 118.343C65.7633 118.343 66.1328 117.951 66.1523 117.166V116.478C65.8724 116.891 65.4753 117.098 64.9609 117.098C64.4141 117.098 63.9876 116.893 63.6816 116.482C63.3757 116.069 63.2161 115.477 63.2031 114.705V114.119ZM64.0674 114.612C64.0674 115.205 64.1536 115.641 64.3262 115.921C64.502 116.198 64.7884 116.336 65.1855 116.336C65.6152 116.336 65.9375 116.116 66.1523 115.677V113.035C65.9277 112.602 65.6087 112.386 65.1953 112.386C64.7982 112.386 64.5117 112.526 64.3359 112.806C64.1602 113.082 64.0706 113.509 64.0674 114.085V114.612ZM69.1211 111.717L69.1455 112.288C69.4808 111.842 69.9089 111.619 70.4297 111.619C71.3639 111.619 71.8376 112.243 71.8506 113.489V117H70.9912V113.528C70.9912 113.115 70.9212 112.822 70.7812 112.649C70.6445 112.474 70.4378 112.386 70.1611 112.386C69.9463 112.386 69.7526 112.457 69.5801 112.601C69.4108 112.744 69.2741 112.931 69.1699 113.162V117H68.3057V111.717H69.1211ZM76.499 117H75.6055V109.891H76.499V117ZM78.7598 111.717L78.7842 112.288C79.1195 111.842 79.5475 111.619 80.0684 111.619C81.0026 111.619 81.4762 112.243 81.4893 113.489V117H80.6299V113.528C80.6299 113.115 80.5599 112.822 80.4199 112.649C80.2832 112.474 80.0765 112.386 79.7998 112.386C79.585 112.386 79.3913 112.457 79.2188 112.601C79.0495 112.744 78.9128 112.931 78.8086 113.162V117H77.9443V111.717H78.7598ZM85.3564 115.647C85.3564 115.462 85.2865 115.302 85.1465 115.169C85.0065 115.035 84.7363 114.879 84.3359 114.7C83.8704 114.508 83.5417 114.344 83.3496 114.207C83.1608 114.07 83.0192 113.916 82.9248 113.743C82.8304 113.567 82.7832 113.359 82.7832 113.118C82.7832 112.688 82.9395 112.332 83.252 112.049C83.5677 111.762 83.9697 111.619 84.458 111.619C84.9723 111.619 85.3857 111.769 85.6982 112.068C86.0107 112.368 86.167 112.752 86.167 113.221H85.3076C85.3076 112.983 85.2279 112.781 85.0684 112.615C84.9089 112.446 84.7054 112.361 84.458 112.361C84.2041 112.361 84.0039 112.428 83.8574 112.562C83.7142 112.692 83.6426 112.868 83.6426 113.089C83.6426 113.265 83.6947 113.406 83.7988 113.514C83.9062 113.621 84.1618 113.763 84.5654 113.938C85.2067 114.189 85.6429 114.435 85.874 114.676C86.1051 114.913 86.2207 115.216 86.2207 115.584C86.2207 116.043 86.0628 116.411 85.7471 116.688C85.4313 116.961 85.0081 117.098 84.4775 117.098C83.9274 117.098 83.4814 116.94 83.1396 116.624C82.7979 116.308 82.627 115.908 82.627 115.423H83.4961C83.5059 115.716 83.5954 115.945 83.7646 116.111C83.9339 116.277 84.1715 116.36 84.4775 116.36C84.764 116.36 84.9821 116.297 85.1318 116.17C85.2816 116.04 85.3564 115.866 85.3564 115.647ZM88.4814 110.438V111.717H89.2773V112.415H88.4814V115.691C88.4814 115.9 88.5156 116.058 88.584 116.165C88.6523 116.272 88.7695 116.326 88.9355 116.326C89.0495 116.326 89.165 116.307 89.2822 116.268L89.2725 117C89.0771 117.065 88.877 117.098 88.6719 117.098C88.3301 117.098 88.0697 116.976 87.8906 116.731C87.7116 116.487 87.6221 116.142 87.6221 115.696V112.415H86.8164V111.717H87.6221V110.438H88.4814ZM91.2402 117H90.376V111.717H91.2402V117ZM91.3086 110.315C91.3086 110.462 91.2679 110.584 91.1865 110.682C91.1051 110.779 90.9814 110.828 90.8154 110.828C90.6527 110.828 90.5306 110.779 90.4492 110.682C90.3678 110.584 90.3271 110.462 90.3271 110.315C90.3271 110.169 90.3678 110.045 90.4492 109.944C90.5306 109.843 90.6527 109.793 90.8154 109.793C90.9782 109.793 91.1003 109.845 91.1816 109.949C91.2663 110.05 91.3086 110.172 91.3086 110.315ZM93.7354 110.438V111.717H94.5312V112.415H93.7354V115.691C93.7354 115.9 93.7695 116.058 93.8379 116.165C93.9062 116.272 94.0234 116.326 94.1895 116.326C94.3034 116.326 94.4189 116.307 94.5361 116.268L94.5264 117C94.3311 117.065 94.1309 117.098 93.9258 117.098C93.584 117.098 93.3236 116.976 93.1445 116.731C92.9655 116.487 92.876 116.142 92.876 115.696V112.415H92.0703V111.717H92.876V110.438H93.7354ZM98.2568 116.536C97.9704 116.91 97.5521 117.098 97.002 117.098C96.5234 117.098 96.1621 116.933 95.918 116.604C95.6738 116.272 95.5501 115.791 95.5469 115.159V111.717H96.4062V115.096C96.4062 115.919 96.6536 116.331 97.1484 116.331C97.6725 116.331 98.0339 116.097 98.2324 115.628V111.717H99.0967V117H98.2764L98.2568 116.536ZM101.528 110.438V111.717H102.324V112.415H101.528V115.691C101.528 115.9 101.562 116.058 101.631 116.165C101.699 116.272 101.816 116.326 101.982 116.326C102.096 116.326 102.212 116.307 102.329 116.268L102.319 117C102.124 117.065 101.924 117.098 101.719 117.098C101.377 117.098 101.117 116.976 100.938 116.731C100.758 116.487 100.669 116.142 100.669 115.696V112.415H99.8633V111.717H100.669V110.438H101.528ZM105.244 117.098C104.587 117.098 104.082 116.902 103.73 116.512C103.379 116.118 103.2 115.542 103.193 114.783V114.144C103.193 113.356 103.364 112.739 103.706 112.293C104.051 111.844 104.531 111.619 105.146 111.619C105.765 111.619 106.227 111.816 106.533 112.21C106.839 112.604 106.995 113.217 107.002 114.051V114.617H104.053V114.739C104.053 115.306 104.159 115.717 104.37 115.975C104.585 116.232 104.893 116.36 105.293 116.36C105.547 116.36 105.77 116.313 105.962 116.219C106.157 116.121 106.34 115.968 106.509 115.76L106.958 116.307C106.584 116.834 106.012 117.098 105.244 117.098ZM105.146 112.361C104.788 112.361 104.523 112.485 104.351 112.732C104.178 112.977 104.08 113.357 104.058 113.875H106.138V113.758C106.115 113.257 106.024 112.898 105.864 112.684C105.708 112.469 105.469 112.361 105.146 112.361ZM110.195 115.091C110.195 114.756 110.275 114.446 110.435 114.163C110.597 113.877 110.907 113.545 111.362 113.167C111.095 112.793 110.911 112.485 110.811 112.244C110.713 112 110.664 111.759 110.664 111.521C110.664 110.978 110.802 110.555 111.079 110.252C111.359 109.946 111.733 109.793 112.202 109.793C112.632 109.793 112.985 109.936 113.262 110.223C113.538 110.509 113.677 110.867 113.677 111.297C113.677 111.577 113.621 111.836 113.511 112.073C113.4 112.311 113.205 112.552 112.925 112.796L112.422 113.226L113.672 115.027C113.825 114.64 113.901 114.204 113.901 113.719H114.673C114.673 114.539 114.507 115.216 114.175 115.75L115.044 117H114.009L113.647 116.478C113.462 116.67 113.237 116.821 112.974 116.932C112.71 117.042 112.437 117.098 112.153 117.098C111.558 117.098 111.082 116.912 110.728 116.541C110.373 116.17 110.195 115.687 110.195 115.091ZM112.153 116.36C112.534 116.36 112.884 116.181 113.203 115.823L111.792 113.768L111.646 113.89C111.252 114.264 111.055 114.664 111.055 115.091C111.055 115.468 111.152 115.774 111.348 116.009C111.543 116.243 111.812 116.36 112.153 116.36ZM111.523 111.492C111.523 111.668 111.567 111.849 111.655 112.034C111.743 112.22 111.857 112.417 111.997 112.625L112.373 112.303C112.572 112.143 112.707 111.99 112.778 111.844C112.85 111.694 112.886 111.512 112.886 111.297C112.886 111.082 112.821 110.901 112.69 110.755C112.56 110.608 112.396 110.535 112.197 110.535C111.986 110.535 111.82 110.626 111.699 110.809C111.582 110.991 111.523 111.219 111.523 111.492ZM122.642 116.116L122.485 116.312C122.036 116.836 121.379 117.098 120.513 117.098C119.744 117.098 119.141 116.844 118.701 116.336C118.265 115.825 118.042 115.104 118.032 114.173V112.776C118.032 111.78 118.231 111.035 118.628 110.54C119.028 110.042 119.626 109.793 120.42 109.793C121.097 109.793 121.626 109.982 122.007 110.359C122.391 110.737 122.603 111.276 122.642 111.976H121.748C121.712 111.533 121.589 111.188 121.377 110.94C121.169 110.69 120.851 110.564 120.425 110.564C119.914 110.564 119.539 110.732 119.302 111.067C119.064 111.399 118.94 111.932 118.931 112.664V114.114C118.931 114.83 119.067 115.381 119.341 115.765C119.614 116.146 120.007 116.336 120.518 116.336C120.999 116.336 121.366 116.219 121.616 115.984L121.748 115.862V114.222H120.449V113.46H122.642V116.116ZM124.912 117H124.048V109.5H124.912V117ZM128.994 117C128.942 116.886 128.905 116.694 128.882 116.424C128.576 116.873 128.185 117.098 127.71 117.098C127.231 117.098 126.857 116.964 126.587 116.697C126.32 116.427 126.187 116.048 126.187 115.56C126.187 115.022 126.369 114.596 126.733 114.28C127.098 113.965 127.598 113.803 128.232 113.797H128.867V113.235C128.867 112.92 128.797 112.695 128.657 112.562C128.517 112.428 128.304 112.361 128.018 112.361C127.757 112.361 127.546 112.439 127.383 112.596C127.22 112.749 127.139 112.944 127.139 113.182H126.274C126.274 112.911 126.354 112.654 126.514 112.41C126.673 112.163 126.888 111.969 127.158 111.829C127.428 111.689 127.729 111.619 128.062 111.619C128.602 111.619 129.012 111.754 129.292 112.024C129.575 112.291 129.72 112.682 129.727 113.196V115.862C129.73 116.269 129.785 116.622 129.893 116.922V117H128.994ZM127.842 116.312C128.053 116.312 128.255 116.253 128.447 116.136C128.639 116.019 128.779 115.872 128.867 115.696V114.437H128.379C127.969 114.443 127.645 114.536 127.407 114.715C127.17 114.891 127.051 115.138 127.051 115.457C127.051 115.757 127.111 115.975 127.231 116.111C127.352 116.245 127.555 116.312 127.842 116.312ZM133.638 115.647C133.638 115.462 133.568 115.302 133.428 115.169C133.288 115.035 133.018 114.879 132.617 114.7C132.152 114.508 131.823 114.344 131.631 114.207C131.442 114.07 131.3 113.916 131.206 113.743C131.112 113.567 131.064 113.359 131.064 113.118C131.064 112.688 131.221 112.332 131.533 112.049C131.849 111.762 132.251 111.619 132.739 111.619C133.254 111.619 133.667 111.769 133.979 112.068C134.292 112.368 134.448 112.752 134.448 113.221H133.589C133.589 112.983 133.509 112.781 133.35 112.615C133.19 112.446 132.987 112.361 132.739 112.361C132.485 112.361 132.285 112.428 132.139 112.562C131.995 112.692 131.924 112.868 131.924 113.089C131.924 113.265 131.976 113.406 132.08 113.514C132.188 113.621 132.443 113.763 132.847 113.938C133.488 114.189 133.924 114.435 134.155 114.676C134.386 114.913 134.502 115.216 134.502 115.584C134.502 116.043 134.344 116.411 134.028 116.688C133.713 116.961 133.289 117.098 132.759 117.098C132.209 117.098 131.763 116.94 131.421 116.624C131.079 116.308 130.908 115.908 130.908 115.423H131.777C131.787 115.716 131.877 115.945 132.046 116.111C132.215 116.277 132.453 116.36 132.759 116.36C133.045 116.36 133.263 116.297 133.413 116.17C133.563 116.04 133.638 115.866 133.638 115.647ZM135.459 114.119C135.459 113.296 135.609 112.674 135.908 112.254C136.208 111.831 136.646 111.619 137.222 111.619C137.759 111.619 138.167 111.849 138.447 112.308L138.491 111.717H139.272V117.049C139.272 117.703 139.105 118.204 138.77 118.553C138.434 118.904 137.967 119.08 137.368 119.08C137.108 119.08 136.815 119.015 136.489 118.885C136.167 118.758 135.924 118.6 135.762 118.411L136.113 117.815C136.471 118.167 136.867 118.343 137.3 118.343C138.019 118.343 138.389 117.951 138.408 117.166V116.478C138.128 116.891 137.731 117.098 137.217 117.098C136.67 117.098 136.243 116.893 135.938 116.482C135.632 116.069 135.472 115.477 135.459 114.705V114.119ZM136.323 114.612C136.323 115.205 136.41 115.641 136.582 115.921C136.758 116.198 137.044 116.336 137.441 116.336C137.871 116.336 138.193 116.116 138.408 115.677V113.035C138.184 112.602 137.865 112.386 137.451 112.386C137.054 112.386 136.768 112.526 136.592 112.806C136.416 113.082 136.326 113.509 136.323 114.085V114.612ZM140.381 114.114C140.381 113.346 140.566 112.739 140.938 112.293C141.312 111.844 141.805 111.619 142.417 111.619C143.029 111.619 143.521 111.837 143.892 112.273C144.266 112.71 144.458 113.304 144.468 114.056V114.612C144.468 115.377 144.282 115.983 143.911 116.429C143.54 116.875 143.045 117.098 142.427 117.098C141.815 117.098 141.323 116.881 140.952 116.448C140.584 116.015 140.394 115.429 140.381 114.69V114.114ZM141.245 114.612C141.245 115.156 141.351 115.584 141.562 115.896C141.777 116.206 142.065 116.36 142.427 116.36C143.188 116.36 143.581 115.81 143.604 114.71V114.114C143.604 113.574 143.496 113.147 143.281 112.835C143.066 112.519 142.778 112.361 142.417 112.361C142.062 112.361 141.777 112.519 141.562 112.835C141.351 113.147 141.245 113.572 141.245 114.109V114.612ZM149.521 115.481L150.322 111.717H151.177L149.883 117H149.194L148.164 113.221L147.158 117H146.465L145.181 111.717H146.03L146.851 115.389L147.832 111.717H148.516L149.521 115.481ZM158.96 114.744C158.921 115.506 158.706 116.089 158.315 116.492C157.928 116.896 157.38 117.098 156.67 117.098C155.957 117.098 155.391 116.827 154.971 116.287C154.551 115.743 154.341 115.008 154.341 114.08V112.791C154.341 111.867 154.556 111.136 154.985 110.599C155.418 110.062 156.007 109.793 156.753 109.793C157.44 109.793 157.97 110 158.345 110.413C158.722 110.823 158.927 111.411 158.96 112.176H158.057C158.018 111.596 157.896 111.183 157.69 110.936C157.485 110.688 157.173 110.564 156.753 110.564C156.268 110.564 155.895 110.755 155.635 111.136C155.374 111.513 155.244 112.068 155.244 112.801V114.104C155.244 114.824 155.365 115.376 155.605 115.76C155.85 116.144 156.204 116.336 156.67 116.336C157.135 116.336 157.471 116.22 157.676 115.989C157.881 115.758 158.008 115.343 158.057 114.744H158.96ZM162.773 117C162.721 116.886 162.684 116.694 162.661 116.424C162.355 116.873 161.965 117.098 161.489 117.098C161.011 117.098 160.636 116.964 160.366 116.697C160.099 116.427 159.966 116.048 159.966 115.56C159.966 115.022 160.148 114.596 160.513 114.28C160.877 113.965 161.377 113.803 162.012 113.797H162.646V113.235C162.646 112.92 162.576 112.695 162.437 112.562C162.297 112.428 162.083 112.361 161.797 112.361C161.536 112.361 161.325 112.439 161.162 112.596C160.999 112.749 160.918 112.944 160.918 113.182H160.054C160.054 112.911 160.133 112.654 160.293 112.41C160.452 112.163 160.667 111.969 160.938 111.829C161.208 111.689 161.509 111.619 161.841 111.619C162.381 111.619 162.791 111.754 163.071 112.024C163.354 112.291 163.499 112.682 163.506 113.196V115.862C163.509 116.269 163.564 116.622 163.672 116.922V117H162.773ZM161.621 116.312C161.833 116.312 162.035 116.253 162.227 116.136C162.419 116.019 162.559 115.872 162.646 115.696V114.437H162.158C161.748 114.443 161.424 114.536 161.187 114.715C160.949 114.891 160.83 115.138 160.83 115.457C160.83 115.757 160.89 115.975 161.011 116.111C161.131 116.245 161.335 116.312 161.621 116.312ZM165.781 117H164.917V109.5H165.781V117ZM169.033 117.098C168.376 117.098 167.871 116.902 167.52 116.512C167.168 116.118 166.989 115.542 166.982 114.783V114.144C166.982 113.356 167.153 112.739 167.495 112.293C167.84 111.844 168.32 111.619 168.936 111.619C169.554 111.619 170.016 111.816 170.322 112.21C170.628 112.604 170.785 113.217 170.791 114.051V114.617H167.842V114.739C167.842 115.306 167.948 115.717 168.159 115.975C168.374 116.232 168.682 116.36 169.082 116.36C169.336 116.36 169.559 116.313 169.751 116.219C169.946 116.121 170.129 115.968 170.298 115.76L170.747 116.307C170.373 116.834 169.801 117.098 169.033 117.098ZM168.936 112.361C168.577 112.361 168.312 112.485 168.14 112.732C167.967 112.977 167.869 113.357 167.847 113.875H169.927V113.758C169.904 113.257 169.813 112.898 169.653 112.684C169.497 112.469 169.258 112.361 168.936 112.361ZM171.65 114.119C171.65 113.305 171.802 112.685 172.104 112.259C172.41 111.832 172.848 111.619 173.418 111.619C173.923 111.619 174.316 111.824 174.6 112.234V109.5H175.464V117H174.673L174.629 116.434C174.346 116.876 173.94 117.098 173.413 117.098C172.866 117.098 172.437 116.886 172.124 116.463C171.815 116.036 171.657 115.436 171.65 114.661V114.119ZM172.515 114.612C172.515 115.205 172.603 115.641 172.778 115.921C172.954 116.198 173.241 116.336 173.638 116.336C174.067 116.336 174.388 116.119 174.6 115.687V113.021C174.378 112.597 174.059 112.386 173.643 112.386C173.245 112.386 172.959 112.526 172.783 112.806C172.607 113.082 172.518 113.509 172.515 114.085V114.612ZM176.611 114.114C176.611 113.346 176.797 112.739 177.168 112.293C177.542 111.844 178.035 111.619 178.647 111.619C179.259 111.619 179.751 111.837 180.122 112.273C180.496 112.71 180.688 113.304 180.698 114.056V114.612C180.698 115.377 180.513 115.983 180.142 116.429C179.771 116.875 179.276 117.098 178.657 117.098C178.045 117.098 177.554 116.881 177.183 116.448C176.815 116.015 176.624 115.429 176.611 114.69V114.114ZM177.476 114.612C177.476 115.156 177.581 115.584 177.793 115.896C178.008 116.206 178.296 116.36 178.657 116.36C179.419 116.36 179.811 115.81 179.834 114.71V114.114C179.834 113.574 179.727 113.147 179.512 112.835C179.297 112.519 179.009 112.361 178.647 112.361C178.293 112.361 178.008 112.519 177.793 112.835C177.581 113.147 177.476 113.572 177.476 114.109V114.612ZM182.627 111.717L182.651 112.288C182.987 111.842 183.415 111.619 183.936 111.619C184.87 111.619 185.343 112.243 185.356 113.489V117H184.497V113.528C184.497 113.115 184.427 112.822 184.287 112.649C184.15 112.474 183.944 112.386 183.667 112.386C183.452 112.386 183.258 112.457 183.086 112.601C182.917 112.744 182.78 112.931 182.676 113.162V117H181.812V111.717H182.627ZM187.588 117H186.724V111.717H187.588V117ZM187.656 110.315C187.656 110.462 187.616 110.584 187.534 110.682C187.453 110.779 187.329 110.828 187.163 110.828C187 110.828 186.878 110.779 186.797 110.682C186.715 110.584 186.675 110.462 186.675 110.315C186.675 110.169 186.715 110.045 186.797 109.944C186.878 109.843 187 109.793 187.163 109.793C187.326 109.793 187.448 109.845 187.529 109.949C187.614 110.05 187.656 110.172 187.656 110.315ZM191.67 117C191.618 116.886 191.58 116.694 191.558 116.424C191.252 116.873 190.861 117.098 190.386 117.098C189.907 117.098 189.533 116.964 189.263 116.697C188.996 116.427 188.862 116.048 188.862 115.56C188.862 115.022 189.045 114.596 189.409 114.28C189.774 113.965 190.273 113.803 190.908 113.797H191.543V113.235C191.543 112.92 191.473 112.695 191.333 112.562C191.193 112.428 190.98 112.361 190.693 112.361C190.433 112.361 190.221 112.439 190.059 112.596C189.896 112.749 189.814 112.944 189.814 113.182H188.95C188.95 112.911 189.03 112.654 189.189 112.41C189.349 112.163 189.564 111.969 189.834 111.829C190.104 111.689 190.405 111.619 190.737 111.619C191.278 111.619 191.688 111.754 191.968 112.024C192.251 112.291 192.396 112.682 192.402 113.196V115.862C192.406 116.269 192.461 116.622 192.568 116.922V117H191.67ZM190.518 116.312C190.729 116.312 190.931 116.253 191.123 116.136C191.315 116.019 191.455 115.872 191.543 115.696V114.437H191.055C190.645 114.443 190.321 114.536 190.083 114.715C189.845 114.891 189.727 115.138 189.727 115.457C189.727 115.757 189.787 115.975 189.907 116.111C190.028 116.245 190.231 116.312 190.518 116.312ZM194.561 111.717L194.585 112.288C194.92 111.842 195.348 111.619 195.869 111.619C196.803 111.619 197.277 112.243 197.29 113.489V117H196.431V113.528C196.431 113.115 196.361 112.822 196.221 112.649C196.084 112.474 195.877 112.386 195.601 112.386C195.386 112.386 195.192 112.457 195.02 112.601C194.85 112.744 194.714 112.931 194.609 113.162V117H193.745V111.717H194.561ZM100.664 121.891V126.944C100.658 127.618 100.462 128.146 100.078 128.526C99.694 128.907 99.1585 129.098 98.4717 129.098C97.7686 129.098 97.2314 128.912 96.8604 128.541C96.4893 128.167 96.3005 127.634 96.2939 126.944V121.891H97.1826V126.91C97.1826 127.389 97.2835 127.747 97.4854 127.984C97.6904 128.219 98.0192 128.336 98.4717 128.336C98.9274 128.336 99.2562 128.219 99.458 127.984C99.6631 127.747 99.7656 127.389 99.7656 126.91V121.891H100.664ZM102.734 123.717L102.759 124.288C103.094 123.842 103.522 123.619 104.043 123.619C104.977 123.619 105.451 124.243 105.464 125.489V129H104.604V125.528C104.604 125.115 104.535 124.822 104.395 124.649C104.258 124.474 104.051 124.386 103.774 124.386C103.56 124.386 103.366 124.457 103.193 124.601C103.024 124.744 102.887 124.931 102.783 125.162V129H101.919V123.717H102.734ZM107.695 129H106.831V123.717H107.695V129ZM107.764 122.315C107.764 122.462 107.723 122.584 107.642 122.682C107.56 122.779 107.437 122.828 107.271 122.828C107.108 122.828 106.986 122.779 106.904 122.682C106.823 122.584 106.782 122.462 106.782 122.315C106.782 122.169 106.823 122.045 106.904 121.944C106.986 121.843 107.108 121.793 107.271 121.793C107.433 121.793 107.555 121.845 107.637 121.949C107.721 122.05 107.764 122.172 107.764 122.315ZM110.557 127.687L111.558 123.717H112.437L110.869 129H110.225L108.638 123.717H109.517L110.557 127.687ZM115.156 129.098C114.499 129.098 113.994 128.902 113.643 128.512C113.291 128.118 113.112 127.542 113.105 126.783V126.144C113.105 125.356 113.276 124.739 113.618 124.293C113.963 123.844 114.443 123.619 115.059 123.619C115.677 123.619 116.139 123.816 116.445 124.21C116.751 124.604 116.908 125.217 116.914 126.051V126.617H113.965V126.739C113.965 127.306 114.071 127.717 114.282 127.975C114.497 128.232 114.805 128.36 115.205 128.36C115.459 128.36 115.682 128.313 115.874 128.219C116.069 128.121 116.252 127.968 116.421 127.76L116.87 128.307C116.496 128.834 115.924 129.098 115.156 129.098ZM115.059 124.361C114.701 124.361 114.435 124.485 114.263 124.732C114.09 124.977 113.993 125.357 113.97 125.875H116.05V125.758C116.027 125.257 115.936 124.898 115.776 124.684C115.62 124.469 115.381 124.361 115.059 124.361ZM120.137 124.527C120.016 124.505 119.886 124.493 119.746 124.493C119.303 124.493 118.994 124.736 118.818 125.221V129H117.954V123.717H118.794L118.809 124.254C119.04 123.831 119.367 123.619 119.79 123.619C119.927 123.619 120.041 123.642 120.132 123.688L120.137 124.527ZM123.569 127.647C123.569 127.462 123.499 127.302 123.359 127.169C123.219 127.035 122.949 126.879 122.549 126.7C122.083 126.508 121.755 126.344 121.562 126.207C121.374 126.07 121.232 125.916 121.138 125.743C121.043 125.567 120.996 125.359 120.996 125.118C120.996 124.688 121.152 124.332 121.465 124.049C121.781 123.762 122.183 123.619 122.671 123.619C123.185 123.619 123.599 123.769 123.911 124.068C124.224 124.368 124.38 124.752 124.38 125.221H123.521C123.521 124.983 123.441 124.781 123.281 124.615C123.122 124.446 122.918 124.361 122.671 124.361C122.417 124.361 122.217 124.428 122.07 124.562C121.927 124.692 121.855 124.868 121.855 125.089C121.855 125.265 121.908 125.406 122.012 125.514C122.119 125.621 122.375 125.763 122.778 125.938C123.42 126.189 123.856 126.435 124.087 126.676C124.318 126.913 124.434 127.216 124.434 127.584C124.434 128.043 124.276 128.411 123.96 128.688C123.644 128.961 123.221 129.098 122.69 129.098C122.14 129.098 121.694 128.94 121.353 128.624C121.011 128.308 120.84 127.908 120.84 127.423H121.709C121.719 127.716 121.808 127.945 121.978 128.111C122.147 128.277 122.384 128.36 122.69 128.36C122.977 128.36 123.195 128.297 123.345 128.17C123.494 128.04 123.569 127.866 123.569 127.647ZM126.494 129H125.63V123.717H126.494V129ZM126.562 122.315C126.562 122.462 126.522 122.584 126.44 122.682C126.359 122.779 126.235 122.828 126.069 122.828C125.907 122.828 125.785 122.779 125.703 122.682C125.622 122.584 125.581 122.462 125.581 122.315C125.581 122.169 125.622 122.045 125.703 121.944C125.785 121.843 125.907 121.793 126.069 121.793C126.232 121.793 126.354 121.845 126.436 121.949C126.52 122.05 126.562 122.172 126.562 122.315ZM128.989 122.438V123.717H129.785V124.415H128.989V127.691C128.989 127.9 129.023 128.058 129.092 128.165C129.16 128.272 129.277 128.326 129.443 128.326C129.557 128.326 129.673 128.307 129.79 128.268L129.78 129C129.585 129.065 129.385 129.098 129.18 129.098C128.838 129.098 128.577 128.976 128.398 128.731C128.219 128.487 128.13 128.142 128.13 127.696V124.415H127.324V123.717H128.13V122.438H128.989ZM132.261 127.564L133.223 123.717H134.141L132.412 129.747C132.282 130.2 132.098 130.543 131.86 130.777C131.623 131.015 131.353 131.134 131.05 131.134C130.933 131.134 130.783 131.108 130.601 131.056V130.323L130.791 130.343C131.042 130.343 131.237 130.283 131.377 130.162C131.52 130.045 131.636 129.84 131.724 129.547L131.895 128.956L130.342 123.717H131.284L132.261 127.564ZM50.874 141.098C50.4215 141.088 50.0277 140.979 49.6924 140.771C49.3604 140.562 49.0983 140.256 48.9062 139.853C48.7142 139.446 48.6084 138.99 48.5889 138.485C48.5693 138.091 48.6133 137.605 48.7207 137.025C48.8281 136.446 49.0137 135.924 49.2773 135.458C49.541 134.993 49.8617 134.62 50.2393 134.34C50.7503 133.962 51.333 133.78 51.9873 133.793C52.6807 133.806 53.2275 134.047 53.6279 134.516C54.0283 134.981 54.2432 135.613 54.2725 136.41C54.2855 136.752 54.2497 137.187 54.165 137.714C54.0837 138.241 53.9355 138.731 53.7207 139.184C53.5091 139.636 53.2389 140.015 52.9102 140.321C52.3372 140.855 51.6585 141.114 50.874 141.098ZM53.3691 136.635C53.3887 135.993 53.2764 135.497 53.0322 135.146C52.7881 134.791 52.4251 134.607 51.9434 134.594C51.5072 134.581 51.1165 134.698 50.7715 134.945C50.4297 135.193 50.1481 135.564 49.9268 136.059C49.7087 136.55 49.5703 137.174 49.5117 137.929L49.4971 138.246C49.4775 138.884 49.5915 139.384 49.8389 139.745C50.0863 140.106 50.446 140.294 50.918 140.307C51.5332 140.323 52.0426 140.102 52.4463 139.643C52.8532 139.18 53.1234 138.533 53.2568 137.699C53.3219 137.289 53.3594 136.934 53.3691 136.635ZM56.6016 135.712L56.4746 136.381C56.9499 135.86 57.4902 135.606 58.0957 135.619C58.5938 135.632 58.9616 135.805 59.1992 136.137C59.4368 136.469 59.5247 136.936 59.4629 137.538L58.8867 141H58.0029L58.584 137.523C58.6035 137.364 58.6051 137.216 58.5889 137.079C58.5335 136.623 58.265 136.391 57.7832 136.381C57.2526 136.371 56.7871 136.654 56.3867 137.23L55.7324 141H54.8486L55.7666 135.717L56.6016 135.712ZM60.5078 138.349C60.5859 137.772 60.7406 137.273 60.9717 136.85C61.2061 136.423 61.4893 136.109 61.8213 135.907C62.1566 135.702 62.5228 135.604 62.9199 135.614C63.5319 135.627 63.9941 135.858 64.3066 136.308L64.4824 135.717H65.293L64.4141 140.888C64.3197 141.562 64.0462 142.1 63.5938 142.504C63.1413 142.911 62.583 143.104 61.9189 143.085C61.5609 143.078 61.2174 142.994 60.8887 142.831C60.5632 142.668 60.306 142.445 60.1172 142.162L60.6201 141.62C60.9391 142.092 61.3607 142.335 61.8848 142.348C62.3047 142.361 62.6595 142.243 62.9492 141.996C63.2422 141.749 63.4359 141.397 63.5303 140.941L63.6279 140.473C63.1982 140.902 62.6953 141.111 62.1191 141.098C61.7904 141.088 61.5039 141 61.2598 140.834C61.0189 140.665 60.8317 140.422 60.6982 140.106C60.5648 139.787 60.4915 139.433 60.4785 139.042C60.472 138.85 60.4818 138.619 60.5078 138.349ZM61.3623 138.852C61.3525 139.317 61.4323 139.678 61.6016 139.936C61.7741 140.189 62.0329 140.323 62.3779 140.336C62.9053 140.349 63.3594 140.09 63.7402 139.56L64.1553 137.133C63.96 136.651 63.6068 136.4 63.0957 136.381C62.6172 136.368 62.2233 136.563 61.9141 136.967C61.6081 137.37 61.4274 137.916 61.3721 138.603L61.3623 138.852ZM68.6816 135.619C69.1243 135.626 69.5036 135.746 69.8193 135.98C70.1351 136.215 70.3678 136.539 70.5176 136.952C70.6706 137.362 70.7227 137.812 70.6738 138.3L70.6641 138.407C70.6022 138.922 70.4492 139.387 70.2051 139.804C69.9609 140.217 69.6452 140.539 69.2578 140.771C68.8704 141.002 68.4456 141.111 67.9834 141.098C67.5439 141.091 67.1647 140.971 66.8457 140.736C66.5299 140.502 66.2988 140.183 66.1523 139.779C66.0059 139.376 65.9538 138.931 65.9961 138.446C66.0449 137.899 66.193 137.408 66.4404 136.972C66.6878 136.535 67.0052 136.199 67.3926 135.961C67.7832 135.72 68.2129 135.606 68.6816 135.619ZM66.8848 138.451C66.862 138.656 66.862 138.869 66.8848 139.091C66.9173 139.475 67.0312 139.781 67.2266 140.009C67.4251 140.237 67.6888 140.355 68.0176 140.365C68.3105 140.375 68.5807 140.303 68.8281 140.15C69.0755 139.994 69.2839 139.76 69.4531 139.447C69.6224 139.135 69.7314 138.788 69.7803 138.407C69.8063 138.108 69.8112 137.855 69.7949 137.65C69.7559 137.257 69.637 136.946 69.4385 136.718C69.2399 136.49 68.9762 136.369 68.6475 136.356C68.1917 136.347 67.8044 136.526 67.4854 136.894C67.1663 137.261 66.9694 137.743 66.8945 138.339L66.8848 138.451ZM72.29 141H71.4111L72.3291 135.717H73.208L72.29 141ZM73.0176 133.788C73.1673 133.782 73.291 133.827 73.3887 133.925C73.4896 134.019 73.54 134.145 73.54 134.301C73.5368 134.454 73.4863 134.579 73.3887 134.677C73.2943 134.774 73.1706 134.826 73.0176 134.833C72.8646 134.84 72.7393 134.796 72.6416 134.701C72.5439 134.607 72.4967 134.483 72.5 134.33C72.5033 134.177 72.5521 134.05 72.6465 133.949C72.7409 133.848 72.8646 133.795 73.0176 133.788ZM75.4883 135.712L75.3613 136.381C75.8366 135.86 76.377 135.606 76.9824 135.619C77.4805 135.632 77.8483 135.805 78.0859 136.137C78.3236 136.469 78.4115 136.936 78.3496 137.538L77.7734 141H76.8896L77.4707 137.523C77.4902 137.364 77.4919 137.216 77.4756 137.079C77.4202 136.623 77.1517 136.391 76.6699 136.381C76.1393 136.371 75.6738 136.654 75.2734 137.23L74.6191 141H73.7354L74.6533 135.717L75.4883 135.712ZM79.3945 138.349C79.4727 137.772 79.6273 137.273 79.8584 136.85C80.0928 136.423 80.376 136.109 80.708 135.907C81.0433 135.702 81.4095 135.604 81.8066 135.614C82.4186 135.627 82.8809 135.858 83.1934 136.308L83.3691 135.717H84.1797L83.3008 140.888C83.2064 141.562 82.9329 142.1 82.4805 142.504C82.028 142.911 81.4697 143.104 80.8057 143.085C80.4476 143.078 80.1042 142.994 79.7754 142.831C79.4499 142.668 79.1927 142.445 79.0039 142.162L79.5068 141.62C79.8258 142.092 80.2474 142.335 80.7715 142.348C81.1914 142.361 81.5462 142.243 81.8359 141.996C82.1289 141.749 82.3226 141.397 82.417 140.941L82.5146 140.473C82.085 140.902 81.582 141.111 81.0059 141.098C80.6771 141.088 80.3906 141 80.1465 140.834C79.9056 140.665 79.7184 140.422 79.585 140.106C79.4515 139.787 79.3783 139.433 79.3652 139.042C79.3587 138.85 79.3685 138.619 79.3945 138.349ZM80.249 138.852C80.2393 139.317 80.319 139.678 80.4883 139.936C80.6608 140.189 80.9196 140.323 81.2646 140.336C81.792 140.349 82.2461 140.09 82.627 139.56L83.042 137.133C82.8467 136.651 82.4935 136.4 81.9824 136.381C81.5039 136.368 81.11 136.563 80.8008 136.967C80.4948 137.37 80.3141 137.916 80.2588 138.603L80.249 138.852ZM90.3564 139.569C90.4053 139.205 90.2051 138.948 89.7559 138.798L88.8379 138.529C88.0632 138.262 87.6888 137.82 87.7148 137.201C87.7376 136.736 87.9492 136.355 88.3496 136.059C88.7533 135.759 89.2269 135.613 89.7705 135.619C90.3044 135.626 90.7373 135.782 91.0693 136.088C91.4046 136.391 91.5658 136.786 91.5527 137.274L90.6738 137.27C90.6803 137.006 90.5973 136.791 90.4248 136.625C90.2523 136.459 90.0228 136.373 89.7363 136.366C89.4303 136.36 89.1667 136.435 88.9453 136.591C88.7402 136.737 88.6214 136.929 88.5889 137.167C88.5465 137.473 88.7337 137.696 89.1504 137.836L89.5947 137.958C90.2002 138.114 90.6299 138.318 90.8838 138.568C91.1377 138.819 91.2549 139.13 91.2354 139.501C91.2158 139.83 91.1084 140.116 90.9131 140.36C90.7178 140.604 90.4574 140.792 90.1318 140.922C89.8063 141.049 89.4596 141.107 89.0918 141.098C88.5319 141.091 88.0697 140.928 87.7051 140.609C87.3405 140.287 87.1647 139.874 87.1777 139.369L88.0615 139.374C88.0615 139.67 88.1559 139.908 88.3447 140.087C88.5335 140.266 88.7923 140.355 89.1211 140.355C89.4434 140.362 89.7217 140.295 89.9561 140.155C90.1904 140.012 90.3239 139.817 90.3564 139.569ZM94.4678 134.438L94.2432 135.717H95.2051L95.083 136.415H94.126L93.5742 139.701C93.5645 139.786 93.5628 139.864 93.5693 139.936C93.5921 140.189 93.7305 140.316 93.9844 140.316C94.0918 140.316 94.235 140.3 94.4141 140.268L94.3457 141.005C94.1341 141.063 93.9193 141.093 93.7012 141.093C93.3496 141.086 93.0859 140.958 92.9102 140.707C92.7344 140.453 92.666 140.113 92.7051 139.687L93.2422 136.415H92.3096L92.4316 135.717H93.3643L93.5889 134.438H94.4678ZM98.7109 140.478C98.2975 140.904 97.7718 141.111 97.1338 141.098C96.6292 141.085 96.2549 140.904 96.0107 140.556C95.7699 140.207 95.6803 139.732 95.7422 139.13L96.3086 135.717H97.1924L96.6211 139.145C96.6048 139.288 96.6016 139.428 96.6113 139.564C96.6276 139.799 96.6976 139.983 96.8213 140.116C96.945 140.25 97.1175 140.321 97.3389 140.331C97.9704 140.351 98.4587 140.095 98.8037 139.564L99.4678 135.717H100.352L99.4336 141H98.5986L98.7109 140.478ZM101.011 138.349C101.076 137.812 101.224 137.326 101.455 136.894C101.686 136.461 101.971 136.137 102.31 135.922C102.648 135.707 103.021 135.604 103.428 135.614C104.017 135.627 104.469 135.842 104.785 136.259L105.293 133.5H106.177L104.878 141H104.072L104.165 140.434C103.748 140.889 103.234 141.111 102.622 141.098C102.134 141.085 101.745 140.894 101.455 140.526C101.165 140.155 101.009 139.659 100.986 139.037C100.977 138.845 100.985 138.616 101.011 138.349ZM101.86 138.856C101.851 139.322 101.934 139.683 102.109 139.94C102.285 140.198 102.542 140.329 102.881 140.336C103.392 140.359 103.846 140.102 104.243 139.564L104.663 137.123C104.468 136.641 104.113 136.394 103.599 136.381C103.25 136.371 102.943 136.477 102.676 136.698C102.412 136.916 102.21 137.224 102.07 137.621C101.934 138.015 101.864 138.427 101.86 138.856ZM107.231 141H106.353L107.271 135.717H108.149L107.231 141ZM107.959 133.788C108.109 133.782 108.232 133.827 108.33 133.925C108.431 134.019 108.481 134.145 108.481 134.301C108.478 134.454 108.428 134.579 108.33 134.677C108.236 134.774 108.112 134.826 107.959 134.833C107.806 134.84 107.681 134.796 107.583 134.701C107.485 134.607 107.438 134.483 107.441 134.33C107.445 134.177 107.493 134.05 107.588 133.949C107.682 133.848 107.806 133.795 107.959 133.788ZM110.962 141.098C110.304 141.085 109.79 140.842 109.419 140.37C109.048 139.898 108.892 139.294 108.95 138.559L108.975 138.349C109.03 137.825 109.185 137.346 109.438 136.913C109.696 136.48 110.008 136.155 110.376 135.937C110.744 135.715 111.141 135.609 111.567 135.619C112.111 135.632 112.537 135.813 112.847 136.161C113.156 136.509 113.325 136.981 113.354 137.577C113.364 137.789 113.358 138 113.335 138.212L113.281 138.617H109.829C109.771 139.096 109.849 139.503 110.063 139.838C110.282 140.173 110.605 140.347 111.035 140.36C111.556 140.373 112.038 140.139 112.48 139.657L112.988 140.087C112.767 140.406 112.48 140.657 112.129 140.839C111.781 141.018 111.392 141.104 110.962 141.098ZM111.523 136.356C111.159 136.347 110.84 136.47 110.566 136.728C110.296 136.985 110.081 137.367 109.922 137.875L112.49 137.88L112.51 137.802C112.562 137.392 112.495 137.051 112.31 136.781C112.127 136.508 111.865 136.366 111.523 136.356ZM117.134 139.569C117.183 139.205 116.982 138.948 116.533 138.798L115.615 138.529C114.84 138.262 114.466 137.82 114.492 137.201C114.515 136.736 114.727 136.355 115.127 136.059C115.531 135.759 116.004 135.613 116.548 135.619C117.082 135.626 117.515 135.782 117.847 136.088C118.182 136.391 118.343 136.786 118.33 137.274L117.451 137.27C117.458 137.006 117.375 136.791 117.202 136.625C117.03 136.459 116.8 136.373 116.514 136.366C116.208 136.36 115.944 136.435 115.723 136.591C115.518 136.737 115.399 136.929 115.366 137.167C115.324 137.473 115.511 137.696 115.928 137.836L116.372 137.958C116.978 138.114 117.407 138.318 117.661 138.568C117.915 138.819 118.032 139.13 118.013 139.501C117.993 139.83 117.886 140.116 117.69 140.36C117.495 140.604 117.235 140.792 116.909 140.922C116.584 141.049 116.237 141.107 115.869 141.098C115.309 141.091 114.847 140.928 114.482 140.609C114.118 140.287 113.942 139.874 113.955 139.369L114.839 139.374C114.839 139.67 114.933 139.908 115.122 140.087C115.311 140.266 115.57 140.355 115.898 140.355C116.221 140.362 116.499 140.295 116.733 140.155C116.968 140.012 117.101 139.817 117.134 139.569ZM118.716 142.421L118.208 142.055C118.586 141.589 118.82 141.127 118.911 140.668L119.038 139.931H119.902L119.8 140.59C119.683 141.332 119.321 141.942 118.716 142.421ZM125.547 140.365C125.863 140.372 126.147 140.281 126.401 140.092C126.655 139.9 126.821 139.649 126.899 139.34L127.734 139.335C127.686 139.667 127.552 139.97 127.334 140.243C127.119 140.517 126.847 140.73 126.519 140.883C126.19 141.036 125.853 141.107 125.508 141.098C125.068 141.091 124.696 140.977 124.39 140.756C124.087 140.531 123.864 140.22 123.721 139.823C123.577 139.423 123.529 138.974 123.574 138.476L123.599 138.231C123.66 137.724 123.809 137.27 124.043 136.869C124.277 136.469 124.583 136.158 124.961 135.937C125.339 135.712 125.755 135.606 126.211 135.619C126.764 135.632 127.207 135.818 127.539 136.176C127.871 136.534 128.037 136.988 128.037 137.538L127.212 137.533C127.205 137.188 127.109 136.91 126.924 136.698C126.738 136.483 126.488 136.369 126.172 136.356C125.713 136.347 125.33 136.518 125.024 136.869C124.722 137.221 124.533 137.712 124.458 138.344L124.443 138.471C124.424 138.679 124.421 138.894 124.434 139.115C124.456 139.496 124.564 139.797 124.756 140.019C124.948 140.24 125.212 140.355 125.547 140.365ZM129.399 141H128.521L129.819 133.5H130.703L129.399 141ZM134.077 141C134.054 140.906 134.043 140.813 134.043 140.722L134.058 140.443C133.573 140.893 133.058 141.111 132.515 141.098C132.049 141.091 131.67 140.945 131.377 140.658C131.087 140.368 130.955 140.007 130.981 139.574C131.014 139.014 131.258 138.578 131.714 138.266C132.173 137.95 132.775 137.792 133.521 137.792L134.443 137.797L134.502 137.377C134.535 137.061 134.473 136.812 134.316 136.63C134.163 136.444 133.932 136.348 133.623 136.342C133.32 136.335 133.052 136.41 132.817 136.566C132.586 136.719 132.445 136.923 132.393 137.177L131.504 137.182C131.533 136.872 131.654 136.599 131.865 136.361C132.077 136.12 132.349 135.935 132.681 135.805C133.013 135.671 133.356 135.608 133.711 135.614C134.261 135.627 134.689 135.795 134.995 136.117C135.301 136.436 135.43 136.861 135.381 137.392L134.951 140.009L134.927 140.385C134.92 140.564 134.94 140.741 134.985 140.917L134.976 141H134.077ZM132.69 140.316C132.974 140.323 133.241 140.256 133.491 140.116C133.745 139.973 133.963 139.776 134.146 139.525L134.336 138.437L133.667 138.432C133.11 138.432 132.684 138.52 132.388 138.695C132.091 138.871 131.924 139.12 131.885 139.442C131.855 139.69 131.912 139.896 132.056 140.062C132.202 140.225 132.414 140.31 132.69 140.316ZM139.448 139.569C139.497 139.205 139.297 138.948 138.848 138.798L137.93 138.529C137.155 138.262 136.781 137.82 136.807 137.201C136.829 136.736 137.041 136.355 137.441 136.059C137.845 135.759 138.319 135.613 138.862 135.619C139.396 135.626 139.829 135.782 140.161 136.088C140.496 136.391 140.658 136.786 140.645 137.274L139.766 137.27C139.772 137.006 139.689 136.791 139.517 136.625C139.344 136.459 139.115 136.373 138.828 136.366C138.522 136.36 138.258 136.435 138.037 136.591C137.832 136.737 137.713 136.929 137.681 137.167C137.638 137.473 137.826 137.696 138.242 137.836L138.687 137.958C139.292 138.114 139.722 138.318 139.976 138.568C140.229 138.819 140.347 139.13 140.327 139.501C140.308 139.83 140.2 140.116 140.005 140.36C139.81 140.604 139.549 140.792 139.224 140.922C138.898 141.049 138.551 141.107 138.184 141.098C137.624 141.091 137.161 140.928 136.797 140.609C136.432 140.287 136.257 139.874 136.27 139.369L137.153 139.374C137.153 139.67 137.248 139.908 137.437 140.087C137.625 140.266 137.884 140.355 138.213 140.355C138.535 140.362 138.813 140.295 139.048 140.155C139.282 140.012 139.416 139.817 139.448 139.569ZM144.497 139.569C144.546 139.205 144.346 138.948 143.896 138.798L142.979 138.529C142.204 138.262 141.829 137.82 141.855 137.201C141.878 136.736 142.09 136.355 142.49 136.059C142.894 135.759 143.368 135.613 143.911 135.619C144.445 135.626 144.878 135.782 145.21 136.088C145.545 136.391 145.706 136.786 145.693 137.274L144.814 137.27C144.821 137.006 144.738 136.791 144.565 136.625C144.393 136.459 144.163 136.373 143.877 136.366C143.571 136.36 143.307 136.435 143.086 136.591C142.881 136.737 142.762 136.929 142.729 137.167C142.687 137.473 142.874 137.696 143.291 137.836L143.735 137.958C144.341 138.114 144.771 138.318 145.024 138.568C145.278 138.819 145.396 139.13 145.376 139.501C145.356 139.83 145.249 140.116 145.054 140.36C144.858 140.604 144.598 140.792 144.272 140.922C143.947 141.049 143.6 141.107 143.232 141.098C142.673 141.091 142.21 140.928 141.846 140.609C141.481 140.287 141.305 139.874 141.318 139.369L142.202 139.374C142.202 139.67 142.297 139.908 142.485 140.087C142.674 140.266 142.933 140.355 143.262 140.355C143.584 140.362 143.862 140.295 144.097 140.155C144.331 140.012 144.465 139.817 144.497 139.569ZM151.66 135.619C152.103 135.626 152.482 135.746 152.798 135.98C153.114 136.215 153.346 136.539 153.496 136.952C153.649 137.362 153.701 137.812 153.652 138.3L153.643 138.407C153.581 138.922 153.428 139.387 153.184 139.804C152.939 140.217 152.624 140.539 152.236 140.771C151.849 141.002 151.424 141.111 150.962 141.098C150.522 141.091 150.143 140.971 149.824 140.736C149.508 140.502 149.277 140.183 149.131 139.779C148.984 139.376 148.932 138.931 148.975 138.446C149.023 137.899 149.172 137.408 149.419 136.972C149.666 136.535 149.984 136.199 150.371 135.961C150.762 135.72 151.191 135.606 151.66 135.619ZM149.863 138.451C149.84 138.656 149.84 138.869 149.863 139.091C149.896 139.475 150.01 139.781 150.205 140.009C150.404 140.237 150.667 140.355 150.996 140.365C151.289 140.375 151.559 140.303 151.807 140.15C152.054 139.994 152.262 139.76 152.432 139.447C152.601 139.135 152.71 138.788 152.759 138.407C152.785 138.108 152.79 137.855 152.773 137.65C152.734 137.257 152.616 136.946 152.417 136.718C152.218 136.49 151.955 136.369 151.626 136.356C151.17 136.347 150.783 136.526 150.464 136.894C150.145 137.261 149.948 137.743 149.873 138.339L149.863 138.451ZM154.741 141L155.542 136.415H154.727L154.849 135.717H155.659L155.747 135.092C155.832 134.561 156.037 134.146 156.362 133.847C156.704 133.534 157.14 133.381 157.671 133.388C157.837 133.388 158.047 133.415 158.301 133.471L158.193 134.208C158.037 134.175 157.879 134.156 157.72 134.149C157.414 134.149 157.165 134.245 156.973 134.438C156.784 134.626 156.667 134.879 156.621 135.194L156.543 135.717H157.637L157.515 136.415H156.421L155.625 141H154.741ZM164.668 141H160.142L160.249 140.312L162.871 137.763L163.35 137.289C163.9 136.739 164.204 136.231 164.263 135.766C164.305 135.408 164.235 135.116 164.053 134.892C163.87 134.664 163.613 134.543 163.281 134.53C162.855 134.517 162.498 134.643 162.212 134.906C161.925 135.167 161.751 135.525 161.689 135.98L160.815 135.985C160.858 135.549 160.991 135.163 161.216 134.828C161.444 134.49 161.742 134.231 162.109 134.052C162.48 133.869 162.882 133.783 163.315 133.793C163.905 133.806 164.372 133.985 164.717 134.33C165.065 134.672 165.215 135.116 165.166 135.663C165.111 136.288 164.751 136.946 164.087 137.636L163.638 138.09L161.353 140.263H164.785L164.668 141ZM167.832 141.098C167.233 141.085 166.784 140.873 166.484 140.463C166.185 140.049 166.048 139.455 166.074 138.681C166.081 138.44 166.099 138.202 166.128 137.968L166.304 136.781C166.46 135.769 166.758 135.014 167.197 134.516C167.637 134.018 168.216 133.777 168.936 133.793C169.541 133.806 169.992 134.014 170.288 134.418C170.588 134.818 170.726 135.401 170.703 136.166C170.693 136.41 170.674 136.649 170.645 136.884L170.474 138.031C170.301 139.102 169.997 139.885 169.561 140.38C169.124 140.875 168.548 141.114 167.832 141.098ZM169.79 136.723C169.836 136.329 169.857 136.023 169.854 135.805C169.837 134.978 169.517 134.553 168.892 134.53C168.436 134.514 168.066 134.683 167.783 135.038C167.503 135.39 167.308 135.943 167.197 136.698L166.987 138.114C166.942 138.492 166.921 138.799 166.924 139.037C166.94 139.9 167.259 140.342 167.881 140.365C168.314 140.385 168.67 140.225 168.95 139.887C169.233 139.548 169.435 139.011 169.556 138.275L169.79 136.723ZM175.664 141H171.138L171.245 140.312L173.867 137.763L174.346 137.289C174.896 136.739 175.2 136.231 175.259 135.766C175.301 135.408 175.231 135.116 175.049 134.892C174.867 134.664 174.609 134.543 174.277 134.53C173.851 134.517 173.494 134.643 173.208 134.906C172.922 135.167 172.747 135.525 172.686 135.98L171.812 135.985C171.854 135.549 171.987 135.163 172.212 134.828C172.44 134.49 172.738 134.231 173.105 134.052C173.477 133.869 173.879 133.783 174.312 133.793C174.901 133.806 175.368 133.985 175.713 134.33C176.061 134.672 176.211 135.116 176.162 135.663C176.107 136.288 175.747 136.946 175.083 137.636L174.634 138.09L172.349 140.263H175.781L175.664 141ZM179.473 141H178.584L179.629 135.004L177.739 135.668L177.891 134.809L180.527 133.856H180.684L179.473 141Z" fill="black"/>
<path d="M100.417 48.458V54.3122C100.417 55.833 101.25 57.2497 102.583 57.9788L113 63.6663C114.25 64.3538 115.75 64.3538 117 63.6663L127.417 57.9788C128.75 57.2497 129.583 55.833 129.583 54.3122V48.458L117 55.333C115.75 56.0205 114.25 56.0205 113 55.333L100.417 48.458ZM113 28.333L95.4375 37.9163C94 38.708 94 40.7913 95.4375 41.583L113 51.1663C114.25 51.8538 115.75 51.8538 117 51.1663L133.75 42.0205V54.333C133.75 55.4788 134.687 56.4163 135.833 56.4163C136.979 56.4163 137.917 55.4788 137.917 54.333V40.9788C137.917 40.208 137.5 39.5205 136.833 39.1455L117 28.333C115.75 27.6663 114.25 27.6663 113 28.333V28.333Z" fill="#8C4357"/>
<defs>
<filter id="filter0_d" x="0" y="0" width="229" height="229" filterUnits="userSpaceOnUse" color-interpolation-filters="sRGB">
<feFlood flood-opacity="0" result="BackgroundImageFix"/>
<feColorMatrix in="SourceAlpha" type="matrix" values="0 0 0 0 0 0 0 0 0 0 0 0 0 0 0 0 0 0 127 0" result="hardAlpha"/>
<feOffset dy="4"/>
<feGaussianBlur stdDeviation="2"/>
<feComposite in2="hardAlpha" operator="out"/>
<feColorMatrix type="matrix" values="0 0 0 0 0 0 0 0 0 0 0 0 0 0 0 0 0 0 0.15 0"/>
<feBlend mode="normal" in2="BackgroundImageFix" result="effect1_dropShadow"/>
<feBlend mode="normal" in="SourceGraphic" in2="effect1_dropShadow" result="shape"/>
</filter>
</defs>
</svg>
