<svg width="229" height="229" viewBox="0 0 229 229" fill="none" xmlns="http://www.w3.org/2000/svg">
<g filter="url(#filter0_d)">
<rect x="225" y="221" width="221" height="221" transform="rotate(-180 225 221)" fill="#C196A0"/>
<rect x="222.5" y="218.5" width="216" height="216" transform="rotate(-180 222.5 218.5)" stroke="white" stroke-width="5"/>
</g>
<path d="M39.0918 102.495V105H37.627V97.8906H40.4004C40.9342 97.8906 41.403 97.9883 41.8066 98.1836C42.2135 98.3789 42.526 98.6572 42.7441 99.0186C42.9622 99.3766 43.0713 99.7852 43.0713 100.244C43.0713 100.941 42.832 101.491 42.3535 101.895C41.8783 102.295 41.2191 102.495 40.376 102.495H39.0918ZM39.0918 101.309H40.4004C40.7878 101.309 41.0824 101.217 41.2842 101.035C41.4893 100.853 41.5918 100.592 41.5918 100.254C41.5918 99.9056 41.4893 99.624 41.2842 99.4092C41.0791 99.1943 40.7959 99.0837 40.4346 99.0771H39.0918V101.309ZM46.958 101.04C46.766 101.014 46.5967 101.001 46.4502 101.001C45.9163 101.001 45.5664 101.182 45.4004 101.543V105H43.9893V99.7168H45.3223L45.3613 100.347C45.6445 99.8617 46.0368 99.6191 46.5381 99.6191C46.6943 99.6191 46.8408 99.6403 46.9775 99.6826L46.958 101.04ZM47.2461 102.31C47.2461 101.785 47.347 101.318 47.5488 100.908C47.7507 100.498 48.0404 100.181 48.418 99.9561C48.7988 99.7314 49.2399 99.6191 49.7412 99.6191C50.4541 99.6191 51.0352 99.8372 51.4844 100.273C51.9368 100.71 52.1891 101.302 52.2412 102.051L52.251 102.412C52.251 103.223 52.0247 103.874 51.5723 104.365C51.1198 104.854 50.5127 105.098 49.751 105.098C48.9893 105.098 48.3805 104.854 47.9248 104.365C47.4723 103.877 47.2461 103.213 47.2461 102.373V102.31ZM48.6572 102.412C48.6572 102.913 48.7516 103.298 48.9404 103.564C49.1292 103.828 49.3994 103.96 49.751 103.96C50.0928 103.96 50.3597 103.83 50.5518 103.569C50.7438 103.306 50.8398 102.886 50.8398 102.31C50.8398 101.818 50.7438 101.437 50.5518 101.167C50.3597 100.897 50.0895 100.762 49.7412 100.762C49.3962 100.762 49.1292 100.897 48.9404 101.167C48.7516 101.434 48.6572 101.849 48.6572 102.412ZM53.5059 105V100.752H52.7197V99.7168H53.5059V99.2676C53.5059 98.6751 53.6751 98.2161 54.0137 97.8906C54.3555 97.5618 54.8324 97.3975 55.4443 97.3975C55.6396 97.3975 55.8789 97.43 56.1621 97.4951L56.1475 98.5889C56.0303 98.5596 55.887 98.5449 55.7178 98.5449C55.1872 98.5449 54.9219 98.7939 54.9219 99.292V99.7168H55.9717V100.752H54.9219V105H53.5059ZM59.0186 105.098C58.2438 105.098 57.6123 104.86 57.124 104.385C56.639 103.91 56.3965 103.276 56.3965 102.485V102.349C56.3965 101.818 56.499 101.344 56.7041 100.928C56.9092 100.508 57.1989 100.186 57.5732 99.9609C57.9508 99.7331 58.3805 99.6191 58.8623 99.6191C59.585 99.6191 60.153 99.847 60.5664 100.303C60.9831 100.758 61.1914 101.405 61.1914 102.241V102.817H57.8271C57.8727 103.162 58.0094 103.439 58.2373 103.647C58.4684 103.856 58.7598 103.96 59.1113 103.96C59.6549 103.96 60.0798 103.763 60.3857 103.369L61.0791 104.146C60.8675 104.445 60.5811 104.679 60.2197 104.849C59.8584 105.015 59.458 105.098 59.0186 105.098ZM58.8574 100.762C58.5775 100.762 58.3496 100.856 58.1738 101.045C58.0013 101.234 57.8906 101.504 57.8418 101.855H59.8047V101.743C59.7982 101.431 59.7135 101.19 59.5508 101.021C59.388 100.848 59.1569 100.762 58.8574 100.762ZM64.8584 103.54C64.8584 103.368 64.7721 103.232 64.5996 103.135C64.4303 103.034 64.1569 102.944 63.7793 102.866C62.5228 102.603 61.8945 102.069 61.8945 101.265C61.8945 100.796 62.0882 100.405 62.4756 100.093C62.8662 99.777 63.3757 99.6191 64.0039 99.6191C64.6745 99.6191 65.21 99.777 65.6104 100.093C66.014 100.409 66.2158 100.819 66.2158 101.323H64.8047C64.8047 101.121 64.7396 100.955 64.6094 100.825C64.4792 100.692 64.2757 100.625 63.999 100.625C63.7614 100.625 63.5775 100.679 63.4473 100.786C63.3171 100.894 63.252 101.03 63.252 101.196C63.252 101.353 63.3252 101.479 63.4717 101.577C63.6214 101.672 63.8721 101.755 64.2236 101.826C64.5752 101.895 64.8714 101.973 65.1123 102.061C65.8577 102.334 66.2305 102.808 66.2305 103.481C66.2305 103.963 66.0238 104.354 65.6104 104.653C65.1969 104.95 64.6631 105.098 64.0088 105.098C63.5661 105.098 63.1722 105.02 62.8271 104.863C62.4854 104.704 62.2168 104.487 62.0215 104.214C61.8262 103.937 61.7285 103.639 61.7285 103.32H63.0664C63.0794 103.571 63.1722 103.763 63.3447 103.896C63.5173 104.03 63.7484 104.097 64.0381 104.097C64.3083 104.097 64.5117 104.046 64.6484 103.945C64.7884 103.841 64.8584 103.706 64.8584 103.54ZM70.0049 103.54C70.0049 103.368 69.9186 103.232 69.7461 103.135C69.5768 103.034 69.3034 102.944 68.9258 102.866C67.6693 102.603 67.041 102.069 67.041 101.265C67.041 100.796 67.2347 100.405 67.6221 100.093C68.0127 99.777 68.5221 99.6191 69.1504 99.6191C69.821 99.6191 70.3564 99.777 70.7568 100.093C71.1605 100.409 71.3623 100.819 71.3623 101.323H69.9512C69.9512 101.121 69.8861 100.955 69.7559 100.825C69.6257 100.692 69.4222 100.625 69.1455 100.625C68.9079 100.625 68.724 100.679 68.5938 100.786C68.4635 100.894 68.3984 101.03 68.3984 101.196C68.3984 101.353 68.4717 101.479 68.6182 101.577C68.7679 101.672 69.0186 101.755 69.3701 101.826C69.7217 101.895 70.0179 101.973 70.2588 102.061C71.0042 102.334 71.377 102.808 71.377 103.481C71.377 103.963 71.1702 104.354 70.7568 104.653C70.3434 104.95 69.8096 105.098 69.1553 105.098C68.7126 105.098 68.3187 105.02 67.9736 104.863C67.6318 104.704 67.3633 104.487 67.168 104.214C66.9727 103.937 66.875 103.639 66.875 103.32H68.2129C68.2259 103.571 68.3187 103.763 68.4912 103.896C68.6637 104.03 68.8949 104.097 69.1846 104.097C69.4548 104.097 69.6582 104.046 69.7949 103.945C69.9349 103.841 70.0049 103.706 70.0049 103.54ZM73.7793 105H72.3633V99.7168H73.7793V105ZM72.2803 98.3496C72.2803 98.138 72.3503 97.9639 72.4902 97.8271C72.6335 97.6904 72.8271 97.6221 73.0713 97.6221C73.3122 97.6221 73.5042 97.6904 73.6475 97.8271C73.7907 97.9639 73.8623 98.138 73.8623 98.3496C73.8623 98.5645 73.7891 98.7402 73.6426 98.877C73.4993 99.0137 73.3089 99.082 73.0713 99.082C72.8337 99.082 72.6416 99.0137 72.4951 98.877C72.3519 98.7402 72.2803 98.5645 72.2803 98.3496ZM74.7266 102.31C74.7266 101.785 74.8275 101.318 75.0293 100.908C75.2311 100.498 75.5208 100.181 75.8984 99.9561C76.2793 99.7314 76.7204 99.6191 77.2217 99.6191C77.9346 99.6191 78.5156 99.8372 78.9648 100.273C79.4173 100.71 79.6696 101.302 79.7217 102.051L79.7314 102.412C79.7314 103.223 79.5052 103.874 79.0527 104.365C78.6003 104.854 77.9932 105.098 77.2314 105.098C76.4697 105.098 75.861 104.854 75.4053 104.365C74.9528 103.877 74.7266 103.213 74.7266 102.373V102.31ZM76.1377 102.412C76.1377 102.913 76.2321 103.298 76.4209 103.564C76.6097 103.828 76.8799 103.96 77.2314 103.96C77.5732 103.96 77.8402 103.83 78.0322 103.569C78.2243 103.306 78.3203 102.886 78.3203 102.31C78.3203 101.818 78.2243 101.437 78.0322 101.167C77.8402 100.897 77.57 100.762 77.2217 100.762C76.8766 100.762 76.6097 100.897 76.4209 101.167C76.2321 101.434 76.1377 101.849 76.1377 102.412ZM81.8994 99.7168L81.9434 100.327C82.321 99.8551 82.8271 99.6191 83.4619 99.6191C84.0218 99.6191 84.4385 99.7835 84.7119 100.112C84.9854 100.441 85.1253 100.933 85.1318 101.587V105H83.7207V101.621C83.7207 101.322 83.6556 101.105 83.5254 100.972C83.3952 100.835 83.1787 100.767 82.876 100.767C82.4788 100.767 82.181 100.936 81.9824 101.274V105H80.5713V99.7168H81.8994ZM89.2676 105C89.2025 104.873 89.1553 104.715 89.126 104.526C88.7842 104.907 88.3398 105.098 87.793 105.098C87.2754 105.098 86.8457 104.948 86.5039 104.648C86.1654 104.349 85.9961 103.971 85.9961 103.516C85.9961 102.956 86.2028 102.526 86.6162 102.227C87.0329 101.927 87.6335 101.776 88.418 101.772H89.0674V101.47C89.0674 101.226 89.0039 101.03 88.877 100.884C88.7533 100.737 88.5563 100.664 88.2861 100.664C88.0485 100.664 87.8613 100.721 87.7246 100.835C87.5911 100.949 87.5244 101.105 87.5244 101.304H86.1133C86.1133 100.998 86.2077 100.715 86.3965 100.454C86.5853 100.194 86.8522 99.9902 87.1973 99.8438C87.5423 99.694 87.9297 99.6191 88.3594 99.6191C89.0104 99.6191 89.5264 99.7835 89.9072 100.112C90.2913 100.438 90.4834 100.897 90.4834 101.489V103.779C90.4867 104.281 90.5566 104.66 90.6934 104.917V105H89.2676ZM88.1006 104.019C88.3089 104.019 88.501 103.973 88.6768 103.882C88.8525 103.787 88.9827 103.662 89.0674 103.506V102.598H88.54C87.8337 102.598 87.4577 102.842 87.4121 103.33L87.4072 103.413C87.4072 103.589 87.4691 103.734 87.5928 103.848C87.7165 103.962 87.8857 104.019 88.1006 104.019ZM93.0566 105H91.6406V97.5H93.0566V105ZM96.8066 105V97.8906H98.9941C99.6191 97.8906 100.177 98.0322 100.669 98.3154C101.164 98.5954 101.549 98.9958 101.826 99.5166C102.103 100.034 102.241 100.623 102.241 101.284V101.611C102.241 102.272 102.104 102.86 101.831 103.374C101.561 103.888 101.178 104.287 100.684 104.57C100.189 104.854 99.6305 104.997 99.0088 105H96.8066ZM98.2715 99.0771V103.823H98.9795C99.5524 103.823 99.9902 103.636 100.293 103.262C100.596 102.887 100.75 102.352 100.757 101.655V101.279C100.757 100.557 100.607 100.01 100.308 99.6387C100.008 99.2643 99.5703 99.0771 98.9941 99.0771H98.2715ZM104.707 105H103.291V99.7168H104.707V105ZM103.208 98.3496C103.208 98.138 103.278 97.9639 103.418 97.8271C103.561 97.6904 103.755 97.6221 103.999 97.6221C104.24 97.6221 104.432 97.6904 104.575 97.8271C104.718 97.9639 104.79 98.138 104.79 98.3496C104.79 98.5645 104.717 98.7402 104.57 98.877C104.427 99.0137 104.237 99.082 103.999 99.082C103.761 99.082 103.569 99.0137 103.423 98.877C103.28 98.7402 103.208 98.5645 103.208 98.3496ZM110.63 102.407C110.63 103.221 110.444 103.874 110.073 104.365C109.705 104.854 109.207 105.098 108.579 105.098C108.045 105.098 107.614 104.912 107.285 104.541V107.031H105.874V99.7168H107.183L107.231 100.234C107.573 99.8242 108.019 99.6191 108.569 99.6191C109.22 99.6191 109.727 99.86 110.088 100.342C110.449 100.824 110.63 101.488 110.63 102.334V102.407ZM109.219 102.305C109.219 101.813 109.131 101.434 108.955 101.167C108.783 100.9 108.53 100.767 108.198 100.767C107.756 100.767 107.451 100.936 107.285 101.274V103.438C107.458 103.786 107.765 103.96 108.208 103.96C108.882 103.96 109.219 103.408 109.219 102.305ZM112.998 105H111.582V97.5H112.998V105ZM113.945 102.31C113.945 101.785 114.046 101.318 114.248 100.908C114.45 100.498 114.74 100.181 115.117 99.9561C115.498 99.7314 115.939 99.6191 116.44 99.6191C117.153 99.6191 117.734 99.8372 118.184 100.273C118.636 100.71 118.888 101.302 118.94 102.051L118.95 102.412C118.95 103.223 118.724 103.874 118.271 104.365C117.819 104.854 117.212 105.098 116.45 105.098C115.688 105.098 115.08 104.854 114.624 104.365C114.172 103.877 113.945 103.213 113.945 102.373V102.31ZM115.356 102.412C115.356 102.913 115.451 103.298 115.64 103.564C115.828 103.828 116.099 103.96 116.45 103.96C116.792 103.96 117.059 103.83 117.251 103.569C117.443 103.306 117.539 102.886 117.539 102.31C117.539 101.818 117.443 101.437 117.251 101.167C117.059 100.897 116.789 100.762 116.44 100.762C116.095 100.762 115.828 100.897 115.64 101.167C115.451 101.434 115.356 101.849 115.356 102.412ZM121.143 99.7168L121.187 100.308C121.561 99.8486 122.067 99.6191 122.705 99.6191C123.385 99.6191 123.853 99.8877 124.106 100.425C124.478 99.8877 125.007 99.6191 125.693 99.6191C126.266 99.6191 126.693 99.7868 126.973 100.122C127.253 100.454 127.393 100.955 127.393 101.626V105H125.977V101.631C125.977 101.331 125.918 101.113 125.801 100.977C125.684 100.837 125.477 100.767 125.181 100.767C124.757 100.767 124.465 100.968 124.302 101.372L124.307 105H122.896V101.636C122.896 101.33 122.835 101.108 122.715 100.972C122.594 100.835 122.389 100.767 122.1 100.767C121.699 100.767 121.41 100.933 121.23 101.265V105H119.819V99.7168H121.143ZM131.543 105C131.478 104.873 131.431 104.715 131.401 104.526C131.06 104.907 130.615 105.098 130.068 105.098C129.551 105.098 129.121 104.948 128.779 104.648C128.441 104.349 128.271 103.971 128.271 103.516C128.271 102.956 128.478 102.526 128.892 102.227C129.308 101.927 129.909 101.776 130.693 101.772H131.343V101.47C131.343 101.226 131.279 101.03 131.152 100.884C131.029 100.737 130.832 100.664 130.562 100.664C130.324 100.664 130.137 100.721 130 100.835C129.867 100.949 129.8 101.105 129.8 101.304H128.389C128.389 100.998 128.483 100.715 128.672 100.454C128.861 100.194 129.128 99.9902 129.473 99.8438C129.818 99.694 130.205 99.6191 130.635 99.6191C131.286 99.6191 131.802 99.7835 132.183 100.112C132.567 100.438 132.759 100.897 132.759 101.489V103.779C132.762 104.281 132.832 104.66 132.969 104.917V105H131.543ZM130.376 104.019C130.584 104.019 130.776 103.973 130.952 103.882C131.128 103.787 131.258 103.662 131.343 103.506V102.598H130.815C130.109 102.598 129.733 102.842 129.688 103.33L129.683 103.413C129.683 103.589 129.744 103.734 129.868 103.848C129.992 103.962 130.161 104.019 130.376 104.019ZM137.822 105H136.406V99.7168H137.822V105ZM136.323 98.3496C136.323 98.138 136.393 97.9639 136.533 97.8271C136.676 97.6904 136.87 97.6221 137.114 97.6221C137.355 97.6221 137.547 97.6904 137.69 97.8271C137.834 97.9639 137.905 98.138 137.905 98.3496C137.905 98.5645 137.832 98.7402 137.686 98.877C137.542 99.0137 137.352 99.082 137.114 99.082C136.877 99.082 136.685 99.0137 136.538 98.877C136.395 98.7402 136.323 98.5645 136.323 98.3496ZM140.288 99.7168L140.332 100.327C140.71 99.8551 141.216 99.6191 141.851 99.6191C142.41 99.6191 142.827 99.7835 143.101 100.112C143.374 100.441 143.514 100.933 143.521 101.587V105H142.109V101.621C142.109 101.322 142.044 101.105 141.914 100.972C141.784 100.835 141.567 100.767 141.265 100.767C140.868 100.767 140.57 100.936 140.371 101.274V105H138.96V99.7168H140.288ZM152.559 97.8906V102.573C152.559 103.351 152.314 103.966 151.826 104.419C151.341 104.871 150.677 105.098 149.834 105.098C149.004 105.098 148.345 104.878 147.856 104.438C147.368 103.999 147.119 103.395 147.109 102.627V97.8906H148.574V102.583C148.574 103.049 148.685 103.389 148.906 103.604C149.131 103.815 149.44 103.921 149.834 103.921C150.658 103.921 151.076 103.488 151.089 102.622V97.8906H152.559ZM156.304 100.342L157.637 97.8906H159.321L157.251 101.416L159.375 105H157.671L156.304 102.51L154.937 105H153.232L155.356 101.416L153.286 97.8906H154.971L156.304 100.342ZM162.607 105V97.8906H164.795C165.42 97.8906 165.978 98.0322 166.47 98.3154C166.965 98.5954 167.35 98.9958 167.627 99.5166C167.904 100.034 168.042 100.623 168.042 101.284V101.611C168.042 102.272 167.905 102.86 167.632 103.374C167.362 103.888 166.979 104.287 166.484 104.57C165.99 104.854 165.431 104.997 164.81 105H162.607ZM164.072 99.0771V103.823H164.78C165.353 103.823 165.791 103.636 166.094 103.262C166.396 102.887 166.551 102.352 166.558 101.655V101.279C166.558 100.557 166.408 100.01 166.108 99.6387C165.809 99.2643 165.371 99.0771 164.795 99.0771H164.072ZM171.45 105.098C170.675 105.098 170.044 104.86 169.556 104.385C169.071 103.91 168.828 103.276 168.828 102.485V102.349C168.828 101.818 168.931 101.344 169.136 100.928C169.341 100.508 169.631 100.186 170.005 99.9609C170.382 99.7331 170.812 99.6191 171.294 99.6191C172.017 99.6191 172.585 99.847 172.998 100.303C173.415 100.758 173.623 101.405 173.623 102.241V102.817H170.259C170.304 103.162 170.441 103.439 170.669 103.647C170.9 103.856 171.191 103.96 171.543 103.96C172.087 103.96 172.511 103.763 172.817 103.369L173.511 104.146C173.299 104.445 173.013 104.679 172.651 104.849C172.29 105.015 171.89 105.098 171.45 105.098ZM171.289 100.762C171.009 100.762 170.781 100.856 170.605 101.045C170.433 101.234 170.322 101.504 170.273 101.855H172.236V101.743C172.23 101.431 172.145 101.19 171.982 101.021C171.82 100.848 171.589 100.762 171.289 100.762ZM177.29 103.54C177.29 103.368 177.204 103.232 177.031 103.135C176.862 103.034 176.589 102.944 176.211 102.866C174.954 102.603 174.326 102.069 174.326 101.265C174.326 100.796 174.52 100.405 174.907 100.093C175.298 99.777 175.807 99.6191 176.436 99.6191C177.106 99.6191 177.642 99.777 178.042 100.093C178.446 100.409 178.647 100.819 178.647 101.323H177.236C177.236 101.121 177.171 100.955 177.041 100.825C176.911 100.692 176.707 100.625 176.431 100.625C176.193 100.625 176.009 100.679 175.879 100.786C175.749 100.894 175.684 101.03 175.684 101.196C175.684 101.353 175.757 101.479 175.903 101.577C176.053 101.672 176.304 101.755 176.655 101.826C177.007 101.895 177.303 101.973 177.544 102.061C178.289 102.334 178.662 102.808 178.662 103.481C178.662 103.963 178.455 104.354 178.042 104.653C177.629 104.95 177.095 105.098 176.44 105.098C175.998 105.098 175.604 105.02 175.259 104.863C174.917 104.704 174.648 104.487 174.453 104.214C174.258 103.937 174.16 103.639 174.16 103.32H175.498C175.511 103.571 175.604 103.763 175.776 103.896C175.949 104.03 176.18 104.097 176.47 104.097C176.74 104.097 176.943 104.046 177.08 103.945C177.22 103.841 177.29 103.706 177.29 103.54ZM181.064 105H179.648V99.7168H181.064V105ZM179.565 98.3496C179.565 98.138 179.635 97.9639 179.775 97.8271C179.919 97.6904 180.112 97.6221 180.356 97.6221C180.597 97.6221 180.789 97.6904 180.933 97.8271C181.076 97.9639 181.147 98.138 181.147 98.3496C181.147 98.5645 181.074 98.7402 180.928 98.877C180.785 99.0137 180.594 99.082 180.356 99.082C180.119 99.082 179.927 99.0137 179.78 98.877C179.637 98.7402 179.565 98.5645 179.565 98.3496ZM182.026 102.319C182.026 101.509 182.218 100.856 182.603 100.361C182.99 99.8665 183.511 99.6191 184.165 99.6191C184.744 99.6191 185.195 99.8177 185.518 100.215L185.576 99.7168H186.855V104.824C186.855 105.286 186.75 105.688 186.538 106.03C186.33 106.372 186.035 106.632 185.654 106.812C185.273 106.991 184.827 107.08 184.316 107.08C183.929 107.08 183.551 107.002 183.184 106.846C182.816 106.693 182.537 106.494 182.349 106.25L182.974 105.391C183.325 105.785 183.752 105.981 184.253 105.981C184.627 105.981 184.919 105.881 185.127 105.679C185.335 105.48 185.439 105.197 185.439 104.829V104.546C185.114 104.914 184.686 105.098 184.155 105.098C183.521 105.098 183.006 104.85 182.612 104.355C182.222 103.857 182.026 103.198 182.026 102.378V102.319ZM183.438 102.422C183.438 102.9 183.534 103.276 183.726 103.55C183.918 103.82 184.181 103.955 184.517 103.955C184.946 103.955 185.254 103.794 185.439 103.472V101.25C185.251 100.928 184.946 100.767 184.526 100.767C184.188 100.767 183.921 100.905 183.726 101.182C183.534 101.458 183.438 101.872 183.438 102.422ZM189.243 99.7168L189.287 100.327C189.665 99.8551 190.171 99.6191 190.806 99.6191C191.366 99.6191 191.782 99.7835 192.056 100.112C192.329 100.441 192.469 100.933 192.476 101.587V105H191.064V101.621C191.064 101.322 190.999 101.105 190.869 100.972C190.739 100.835 190.522 100.767 190.22 100.767C189.823 100.767 189.525 100.936 189.326 101.274V105H187.915V99.7168H189.243ZM27.3047 109.891V114.725C27.3014 115.395 27.0898 115.944 26.6699 116.37C26.2533 116.797 25.6868 117.036 24.9707 117.088L24.7217 117.098C23.9437 117.098 23.3236 116.888 22.8613 116.468C22.3991 116.048 22.1647 115.47 22.1582 114.734V109.891H23.0859V114.705C23.0859 115.219 23.2275 115.62 23.5107 115.906C23.7939 116.189 24.1976 116.331 24.7217 116.331C25.2523 116.331 25.6576 116.189 25.9375 115.906C26.2207 115.623 26.3623 115.224 26.3623 114.71V109.891H27.3047ZM31.1035 112.615L32.8076 109.891H33.9111L31.665 113.416L33.9648 117H32.8516L31.1035 114.227L29.3457 117H28.2373L30.542 113.416L28.291 109.891H29.3896L31.1035 112.615ZM37.5342 117V109.891H39.541C40.1595 109.891 40.7064 110.027 41.1816 110.301C41.6569 110.574 42.0231 110.963 42.2803 111.468C42.5407 111.972 42.6725 112.552 42.6758 113.206V113.66C42.6758 114.331 42.5456 114.918 42.2852 115.423C42.028 115.927 41.6585 116.315 41.1768 116.585C40.6982 116.855 40.14 116.993 39.502 117H37.5342ZM38.4717 110.662V116.233H39.458C40.1807 116.233 40.7422 116.009 41.1426 115.56C41.5462 115.11 41.748 114.471 41.748 113.641V113.226C41.748 112.418 41.5576 111.792 41.1768 111.346C40.7992 110.896 40.262 110.669 39.5654 110.662H38.4717ZM46.1475 117.098C45.4313 117.098 44.8486 116.863 44.3994 116.395C43.9502 115.923 43.7256 115.293 43.7256 114.505V114.339C43.7256 113.815 43.8249 113.348 44.0234 112.938C44.2253 112.524 44.5052 112.202 44.8633 111.971C45.2246 111.736 45.6152 111.619 46.0352 111.619C46.722 111.619 47.2559 111.845 47.6367 112.298C48.0176 112.75 48.208 113.398 48.208 114.241V114.617H44.6289C44.6419 115.138 44.7933 115.56 45.083 115.882C45.376 116.201 45.7471 116.36 46.1963 116.36C46.5153 116.36 46.7855 116.295 47.0068 116.165C47.2282 116.035 47.4219 115.862 47.5879 115.647L48.1396 116.077C47.6969 116.757 47.0329 117.098 46.1475 117.098ZM46.0352 112.361C45.6706 112.361 45.3646 112.495 45.1172 112.762C44.8698 113.025 44.7168 113.396 44.6582 113.875H47.3047V113.807C47.2786 113.348 47.1549 112.993 46.9336 112.742C46.7122 112.488 46.4128 112.361 46.0352 112.361ZM52.334 115.599C52.334 115.354 52.2412 115.166 52.0557 115.032C51.8734 114.896 51.5527 114.778 51.0938 114.681C50.638 114.583 50.2751 114.466 50.0049 114.329C49.738 114.192 49.5394 114.03 49.4092 113.841C49.2822 113.652 49.2188 113.427 49.2188 113.167C49.2188 112.734 49.401 112.368 49.7656 112.068C50.1335 111.769 50.6022 111.619 51.1719 111.619C51.7708 111.619 52.2559 111.774 52.627 112.083C53.0013 112.392 53.1885 112.788 53.1885 113.27H52.2803C52.2803 113.022 52.1745 112.809 51.9629 112.63C51.7546 112.451 51.4909 112.361 51.1719 112.361C50.8431 112.361 50.5859 112.433 50.4004 112.576C50.2148 112.719 50.1221 112.907 50.1221 113.138C50.1221 113.356 50.2083 113.52 50.3809 113.631C50.5534 113.742 50.8643 113.847 51.3135 113.948C51.766 114.049 52.1322 114.17 52.4121 114.31C52.6921 114.45 52.8988 114.619 53.0322 114.817C53.1689 115.013 53.2373 115.252 53.2373 115.535C53.2373 116.007 53.0485 116.386 52.6709 116.673C52.2933 116.956 51.8034 117.098 51.2012 117.098C50.778 117.098 50.4036 117.023 50.0781 116.873C49.7526 116.723 49.4971 116.515 49.3115 116.248C49.1292 115.978 49.0381 115.687 49.0381 115.374H49.9414C49.9577 115.677 50.0781 115.918 50.3027 116.097C50.5306 116.272 50.8301 116.36 51.2012 116.36C51.543 116.36 51.8164 116.292 52.0215 116.155C52.2298 116.015 52.334 115.83 52.334 115.599ZM55.3955 117H54.4922V111.717H55.3955V117ZM54.4189 110.315C54.4189 110.169 54.4629 110.045 54.5508 109.944C54.6419 109.843 54.7754 109.793 54.9512 109.793C55.127 109.793 55.2604 109.843 55.3516 109.944C55.4427 110.045 55.4883 110.169 55.4883 110.315C55.4883 110.462 55.4427 110.584 55.3516 110.682C55.2604 110.779 55.127 110.828 54.9512 110.828C54.7754 110.828 54.6419 110.779 54.5508 110.682C54.4629 110.584 54.4189 110.462 54.4189 110.315ZM56.6309 114.314C56.6309 113.491 56.8213 112.837 57.2021 112.352C57.583 111.863 58.0876 111.619 58.7158 111.619C59.3604 111.619 59.8633 111.847 60.2246 112.303L60.2686 111.717H61.0938V116.873C61.0938 117.557 60.8903 118.095 60.4834 118.489C60.0798 118.883 59.5361 119.08 58.8525 119.08C58.4717 119.08 58.099 118.999 57.7344 118.836C57.3698 118.673 57.0915 118.45 56.8994 118.167L57.3682 117.625C57.7555 118.104 58.2292 118.343 58.7891 118.343C59.2285 118.343 59.5703 118.219 59.8145 117.972C60.0618 117.724 60.1855 117.376 60.1855 116.927V116.473C59.8242 116.889 59.3311 117.098 58.7061 117.098C58.0876 117.098 57.5863 116.849 57.2021 116.351C56.8213 115.853 56.6309 115.174 56.6309 114.314ZM57.5391 114.417C57.5391 115.013 57.6611 115.481 57.9053 115.823C58.1494 116.162 58.4912 116.331 58.9307 116.331C59.5003 116.331 59.9186 116.072 60.1855 115.555V113.143C59.9089 112.638 59.4938 112.386 58.9404 112.386C58.501 112.386 58.1576 112.557 57.9102 112.898C57.6628 113.24 57.5391 113.746 57.5391 114.417ZM63.3154 111.717L63.3447 112.381C63.7484 111.873 64.2757 111.619 64.9268 111.619C66.0433 111.619 66.6064 112.249 66.6162 113.509V117H65.7129V113.504C65.7096 113.123 65.6217 112.841 65.4492 112.659C65.2799 112.477 65.0146 112.386 64.6533 112.386C64.3604 112.386 64.1032 112.464 63.8818 112.62C63.6605 112.776 63.488 112.981 63.3643 113.235V117H62.4609V111.717H63.3154ZM71.6064 117H70.6689V109.891H71.6064V117ZM74.0381 111.717L74.0674 112.381C74.471 111.873 74.9984 111.619 75.6494 111.619C76.766 111.619 77.3291 112.249 77.3389 113.509V117H76.4355V113.504C76.4323 113.123 76.3444 112.841 76.1719 112.659C76.0026 112.477 75.7373 112.386 75.376 112.386C75.083 112.386 74.8258 112.464 74.6045 112.62C74.3831 112.776 74.2106 112.981 74.0869 113.235V117H73.1836V111.717H74.0381ZM81.7773 115.599C81.7773 115.354 81.6846 115.166 81.499 115.032C81.3167 114.896 80.9961 114.778 80.5371 114.681C80.0814 114.583 79.7184 114.466 79.4482 114.329C79.1813 114.192 78.9827 114.03 78.8525 113.841C78.7256 113.652 78.6621 113.427 78.6621 113.167C78.6621 112.734 78.8444 112.368 79.209 112.068C79.5768 111.769 80.0456 111.619 80.6152 111.619C81.2142 111.619 81.6992 111.774 82.0703 112.083C82.4447 112.392 82.6318 112.788 82.6318 113.27H81.7236C81.7236 113.022 81.6178 112.809 81.4062 112.63C81.1979 112.451 80.9342 112.361 80.6152 112.361C80.2865 112.361 80.0293 112.433 79.8438 112.576C79.6582 112.719 79.5654 112.907 79.5654 113.138C79.5654 113.356 79.6517 113.52 79.8242 113.631C79.9967 113.742 80.3076 113.847 80.7568 113.948C81.2093 114.049 81.5755 114.17 81.8555 114.31C82.1354 114.45 82.3421 114.619 82.4756 114.817C82.6123 115.013 82.6807 115.252 82.6807 115.535C82.6807 116.007 82.4919 116.386 82.1143 116.673C81.7367 116.956 81.2467 117.098 80.6445 117.098C80.2214 117.098 79.847 117.023 79.5215 116.873C79.196 116.723 78.9404 116.515 78.7549 116.248C78.5726 115.978 78.4814 115.687 78.4814 115.374H79.3848C79.401 115.677 79.5215 115.918 79.7461 116.097C79.974 116.272 80.2734 116.36 80.6445 116.36C80.9863 116.36 81.2598 116.292 81.4648 116.155C81.6732 116.015 81.7773 115.83 81.7773 115.599ZM85.083 110.438V111.717H86.0693V112.415H85.083V115.691C85.083 115.903 85.127 116.062 85.2148 116.17C85.3027 116.274 85.4525 116.326 85.6641 116.326C85.7682 116.326 85.9115 116.307 86.0938 116.268V117C85.8561 117.065 85.625 117.098 85.4004 117.098C84.9967 117.098 84.6924 116.976 84.4873 116.731C84.2822 116.487 84.1797 116.141 84.1797 115.691V112.415H83.2178V111.717H84.1797V110.438H85.083ZM88.1104 117H87.207V111.717H88.1104V117ZM87.1338 110.315C87.1338 110.169 87.1777 110.045 87.2656 109.944C87.3568 109.843 87.4902 109.793 87.666 109.793C87.8418 109.793 87.9753 109.843 88.0664 109.944C88.1576 110.045 88.2031 110.169 88.2031 110.315C88.2031 110.462 88.1576 110.584 88.0664 110.682C87.9753 110.779 87.8418 110.828 87.666 110.828C87.4902 110.828 87.3568 110.779 87.2656 110.682C87.1777 110.584 87.1338 110.462 87.1338 110.315ZM90.7861 110.438V111.717H91.7725V112.415H90.7861V115.691C90.7861 115.903 90.8301 116.062 90.918 116.17C91.0059 116.274 91.1556 116.326 91.3672 116.326C91.4714 116.326 91.6146 116.307 91.7969 116.268V117C91.5592 117.065 91.3281 117.098 91.1035 117.098C90.6999 117.098 90.3955 116.976 90.1904 116.731C89.9854 116.487 89.8828 116.141 89.8828 115.691V112.415H88.9209V111.717H89.8828V110.438H90.7861ZM96.0938 116.478C95.7422 116.891 95.2262 117.098 94.5459 117.098C93.9827 117.098 93.5531 116.935 93.2568 116.609C92.9639 116.281 92.8158 115.796 92.8125 115.154V111.717H93.7158V115.13C93.7158 115.931 94.0413 116.331 94.6924 116.331C95.3825 116.331 95.8415 116.074 96.0693 115.56V111.717H96.9727V117H96.1133L96.0938 116.478ZM99.5752 110.438V111.717H100.562V112.415H99.5752V115.691C99.5752 115.903 99.6191 116.062 99.707 116.17C99.7949 116.274 99.9447 116.326 100.156 116.326C100.26 116.326 100.404 116.307 100.586 116.268V117C100.348 117.065 100.117 117.098 99.8926 117.098C99.4889 117.098 99.1846 116.976 98.9795 116.731C98.7744 116.487 98.6719 116.141 98.6719 115.691V112.415H97.71V111.717H98.6719V110.438H99.5752ZM103.813 117.098C103.097 117.098 102.515 116.863 102.065 116.395C101.616 115.923 101.392 115.293 101.392 114.505V114.339C101.392 113.815 101.491 113.348 101.689 112.938C101.891 112.524 102.171 112.202 102.529 111.971C102.891 111.736 103.281 111.619 103.701 111.619C104.388 111.619 104.922 111.845 105.303 112.298C105.684 112.75 105.874 113.398 105.874 114.241V114.617H102.295C102.308 115.138 102.459 115.56 102.749 115.882C103.042 116.201 103.413 116.36 103.862 116.36C104.181 116.36 104.451 116.295 104.673 116.165C104.894 116.035 105.088 115.862 105.254 115.647L105.806 116.077C105.363 116.757 104.699 117.098 103.813 117.098ZM103.701 112.361C103.337 112.361 103.031 112.495 102.783 112.762C102.536 113.025 102.383 113.396 102.324 113.875H104.971V113.807C104.945 113.348 104.821 112.993 104.6 112.742C104.378 112.488 104.079 112.361 103.701 112.361ZM109.214 115.091C109.214 114.749 109.308 114.435 109.497 114.148C109.689 113.862 110.054 113.528 110.591 113.147C110.275 112.763 110.063 112.454 109.956 112.22C109.849 111.985 109.795 111.753 109.795 111.521C109.795 110.981 109.954 110.558 110.273 110.252C110.592 109.946 111.025 109.793 111.572 109.793C112.061 109.793 112.464 109.936 112.783 110.223C113.102 110.506 113.262 110.864 113.262 111.297C113.262 111.583 113.188 111.849 113.042 112.093C112.899 112.334 112.646 112.588 112.285 112.854L111.763 113.24L113.345 115.13C113.566 114.707 113.677 114.236 113.677 113.719H114.492C114.492 114.549 114.292 115.237 113.892 115.784L114.907 117H113.823L113.35 116.438C113.109 116.653 112.826 116.818 112.5 116.932C112.178 117.042 111.849 117.098 111.514 117.098C110.82 117.098 110.264 116.914 109.844 116.546C109.424 116.178 109.214 115.693 109.214 115.091ZM111.514 116.36C111.992 116.36 112.43 116.178 112.827 115.813L111.094 113.738L110.933 113.855C110.389 114.256 110.117 114.668 110.117 115.091C110.117 115.475 110.241 115.783 110.488 116.014C110.739 116.245 111.081 116.36 111.514 116.36ZM110.698 111.492C110.698 111.805 110.89 112.195 111.274 112.664L111.851 112.259C112.072 112.103 112.223 111.954 112.305 111.814C112.386 111.671 112.427 111.499 112.427 111.297C112.427 111.079 112.345 110.898 112.183 110.755C112.02 110.608 111.815 110.535 111.567 110.535C111.3 110.535 111.089 110.626 110.933 110.809C110.776 110.988 110.698 111.215 110.698 111.492ZM123.496 116.067C123.255 116.412 122.918 116.671 122.485 116.844C122.056 117.013 121.554 117.098 120.981 117.098C120.402 117.098 119.888 116.963 119.438 116.692C118.989 116.419 118.641 116.032 118.394 115.53C118.149 115.029 118.024 114.448 118.018 113.787V113.167C118.018 112.096 118.267 111.266 118.765 110.677C119.266 110.088 119.969 109.793 120.874 109.793C121.616 109.793 122.214 109.983 122.666 110.364C123.118 110.742 123.395 111.279 123.496 111.976H122.559C122.383 111.035 121.823 110.564 120.879 110.564C120.251 110.564 119.774 110.786 119.448 111.229C119.126 111.668 118.963 112.306 118.96 113.143V113.724C118.96 114.521 119.142 115.156 119.507 115.628C119.871 116.097 120.365 116.331 120.986 116.331C121.338 116.331 121.646 116.292 121.909 116.214C122.173 116.136 122.391 116.004 122.563 115.818V114.222H120.918V113.46H123.496V116.067ZM125.903 117H125V109.5H125.903V117ZM130.615 117C130.563 116.896 130.521 116.71 130.488 116.443C130.068 116.88 129.567 117.098 128.984 117.098C128.464 117.098 128.035 116.951 127.7 116.658C127.368 116.362 127.202 115.988 127.202 115.535C127.202 114.985 127.41 114.559 127.827 114.256C128.247 113.95 128.836 113.797 129.595 113.797H130.474V113.382C130.474 113.066 130.379 112.815 130.19 112.63C130.002 112.441 129.723 112.347 129.355 112.347C129.033 112.347 128.763 112.428 128.545 112.591C128.327 112.754 128.218 112.951 128.218 113.182H127.31C127.31 112.918 127.402 112.664 127.588 112.42C127.777 112.173 128.031 111.977 128.35 111.834C128.672 111.691 129.025 111.619 129.409 111.619C130.018 111.619 130.495 111.772 130.84 112.078C131.185 112.381 131.364 112.799 131.377 113.333V115.765C131.377 116.25 131.439 116.635 131.562 116.922V117H130.615ZM129.116 116.312C129.399 116.312 129.668 116.238 129.922 116.092C130.176 115.945 130.36 115.755 130.474 115.521V114.437H129.766C128.659 114.437 128.105 114.76 128.105 115.408C128.105 115.691 128.2 115.913 128.389 116.072C128.577 116.232 128.82 116.312 129.116 116.312ZM135.869 115.599C135.869 115.354 135.776 115.166 135.591 115.032C135.409 114.896 135.088 114.778 134.629 114.681C134.173 114.583 133.81 114.466 133.54 114.329C133.273 114.192 133.075 114.03 132.944 113.841C132.817 113.652 132.754 113.427 132.754 113.167C132.754 112.734 132.936 112.368 133.301 112.068C133.669 111.769 134.137 111.619 134.707 111.619C135.306 111.619 135.791 111.774 136.162 112.083C136.536 112.392 136.724 112.788 136.724 113.27H135.815C135.815 113.022 135.71 112.809 135.498 112.63C135.29 112.451 135.026 112.361 134.707 112.361C134.378 112.361 134.121 112.433 133.936 112.576C133.75 112.719 133.657 112.907 133.657 113.138C133.657 113.356 133.743 113.52 133.916 113.631C134.089 113.742 134.399 113.847 134.849 113.948C135.301 114.049 135.667 114.17 135.947 114.31C136.227 114.45 136.434 114.619 136.567 114.817C136.704 115.013 136.772 115.252 136.772 115.535C136.772 116.007 136.584 116.386 136.206 116.673C135.828 116.956 135.339 117.098 134.736 117.098C134.313 117.098 133.939 117.023 133.613 116.873C133.288 116.723 133.032 116.515 132.847 116.248C132.664 115.978 132.573 115.687 132.573 115.374H133.477C133.493 115.677 133.613 115.918 133.838 116.097C134.066 116.272 134.365 116.36 134.736 116.36C135.078 116.36 135.352 116.292 135.557 116.155C135.765 116.015 135.869 115.83 135.869 115.599ZM137.734 114.314C137.734 113.491 137.925 112.837 138.306 112.352C138.687 111.863 139.191 111.619 139.819 111.619C140.464 111.619 140.967 111.847 141.328 112.303L141.372 111.717H142.197V116.873C142.197 117.557 141.994 118.095 141.587 118.489C141.183 118.883 140.64 119.08 139.956 119.08C139.575 119.08 139.202 118.999 138.838 118.836C138.473 118.673 138.195 118.45 138.003 118.167L138.472 117.625C138.859 118.104 139.333 118.343 139.893 118.343C140.332 118.343 140.674 118.219 140.918 117.972C141.165 117.724 141.289 117.376 141.289 116.927V116.473C140.928 116.889 140.435 117.098 139.81 117.098C139.191 117.098 138.69 116.849 138.306 116.351C137.925 115.853 137.734 115.174 137.734 114.314ZM138.643 114.417C138.643 115.013 138.765 115.481 139.009 115.823C139.253 116.162 139.595 116.331 140.034 116.331C140.604 116.331 141.022 116.072 141.289 115.555V113.143C141.012 112.638 140.597 112.386 140.044 112.386C139.604 112.386 139.261 112.557 139.014 112.898C138.766 113.24 138.643 113.746 138.643 114.417ZM143.325 114.31C143.325 113.792 143.426 113.326 143.628 112.913C143.833 112.5 144.116 112.181 144.478 111.956C144.842 111.731 145.257 111.619 145.723 111.619C146.442 111.619 147.023 111.868 147.466 112.366C147.912 112.864 148.135 113.527 148.135 114.354V114.417C148.135 114.931 148.035 115.394 147.837 115.804C147.642 116.211 147.36 116.528 146.992 116.756C146.628 116.984 146.208 117.098 145.732 117.098C145.016 117.098 144.435 116.849 143.989 116.351C143.547 115.853 143.325 115.193 143.325 114.373V114.31ZM144.233 114.417C144.233 115.003 144.368 115.473 144.639 115.828C144.912 116.183 145.277 116.36 145.732 116.36C146.191 116.36 146.556 116.181 146.826 115.823C147.096 115.462 147.231 114.957 147.231 114.31C147.231 113.73 147.093 113.261 146.816 112.903C146.543 112.542 146.178 112.361 145.723 112.361C145.277 112.361 144.917 112.539 144.644 112.894C144.37 113.248 144.233 113.756 144.233 114.417ZM153.945 115.755L154.961 111.717H155.864L154.326 117H153.594L152.31 112.996L151.06 117H150.327L148.794 111.717H149.692L150.732 115.672L151.963 111.717H152.69L153.945 115.755ZM164.639 114.744C164.551 115.496 164.272 116.077 163.804 116.487C163.338 116.894 162.718 117.098 161.943 117.098C161.104 117.098 160.43 116.797 159.922 116.194C159.417 115.592 159.165 114.786 159.165 113.777V113.094C159.165 112.433 159.282 111.852 159.517 111.351C159.754 110.849 160.09 110.465 160.522 110.198C160.955 109.928 161.457 109.793 162.026 109.793C162.782 109.793 163.387 110.005 163.843 110.428C164.299 110.848 164.564 111.43 164.639 112.176H163.696C163.615 111.609 163.438 111.199 163.164 110.945C162.894 110.691 162.515 110.564 162.026 110.564C161.427 110.564 160.957 110.786 160.615 111.229C160.277 111.671 160.107 112.301 160.107 113.118V113.807C160.107 114.578 160.269 115.192 160.591 115.647C160.913 116.103 161.364 116.331 161.943 116.331C162.464 116.331 162.863 116.214 163.14 115.979C163.42 115.742 163.605 115.33 163.696 114.744H164.639ZM169.043 117C168.991 116.896 168.949 116.71 168.916 116.443C168.496 116.88 167.995 117.098 167.412 117.098C166.891 117.098 166.463 116.951 166.128 116.658C165.796 116.362 165.63 115.988 165.63 115.535C165.63 114.985 165.838 114.559 166.255 114.256C166.675 113.95 167.264 113.797 168.022 113.797H168.901V113.382C168.901 113.066 168.807 112.815 168.618 112.63C168.429 112.441 168.151 112.347 167.783 112.347C167.461 112.347 167.191 112.428 166.973 112.591C166.755 112.754 166.646 112.951 166.646 113.182H165.737C165.737 112.918 165.83 112.664 166.016 112.42C166.204 112.173 166.458 111.977 166.777 111.834C167.1 111.691 167.453 111.619 167.837 111.619C168.446 111.619 168.923 111.772 169.268 112.078C169.613 112.381 169.792 112.799 169.805 113.333V115.765C169.805 116.25 169.867 116.635 169.99 116.922V117H169.043ZM167.544 116.312C167.827 116.312 168.096 116.238 168.35 116.092C168.604 115.945 168.787 115.755 168.901 115.521V114.437H168.193C167.087 114.437 166.533 114.76 166.533 115.408C166.533 115.691 166.628 115.913 166.816 116.072C167.005 116.232 167.248 116.312 167.544 116.312ZM172.202 117H171.299V109.5H172.202V117ZM175.845 117.098C175.129 117.098 174.546 116.863 174.097 116.395C173.647 115.923 173.423 115.293 173.423 114.505V114.339C173.423 113.815 173.522 113.348 173.721 112.938C173.923 112.524 174.202 112.202 174.561 111.971C174.922 111.736 175.312 111.619 175.732 111.619C176.419 111.619 176.953 111.845 177.334 112.298C177.715 112.75 177.905 113.398 177.905 114.241V114.617H174.326C174.339 115.138 174.491 115.56 174.78 115.882C175.073 116.201 175.444 116.36 175.894 116.36C176.213 116.36 176.483 116.295 176.704 116.165C176.925 116.035 177.119 115.862 177.285 115.647L177.837 116.077C177.394 116.757 176.73 117.098 175.845 117.098ZM175.732 112.361C175.368 112.361 175.062 112.495 174.814 112.762C174.567 113.025 174.414 113.396 174.355 113.875H177.002V113.807C176.976 113.348 176.852 112.993 176.631 112.742C176.41 112.488 176.11 112.361 175.732 112.361ZM178.735 114.314C178.735 113.504 178.927 112.853 179.312 112.361C179.696 111.867 180.199 111.619 180.82 111.619C181.439 111.619 181.929 111.831 182.29 112.254V109.5H183.193V117H182.363L182.319 116.434C181.958 116.876 181.455 117.098 180.811 117.098C180.199 117.098 179.699 116.847 179.312 116.346C178.927 115.844 178.735 115.19 178.735 114.383V114.314ZM179.639 114.417C179.639 115.016 179.762 115.485 180.01 115.823C180.257 116.162 180.599 116.331 181.035 116.331C181.608 116.331 182.026 116.074 182.29 115.56V113.133C182.02 112.635 181.605 112.386 181.045 112.386C180.602 112.386 180.257 112.557 180.01 112.898C179.762 113.24 179.639 113.746 179.639 114.417ZM184.36 114.31C184.36 113.792 184.461 113.326 184.663 112.913C184.868 112.5 185.151 112.181 185.513 111.956C185.877 111.731 186.292 111.619 186.758 111.619C187.477 111.619 188.058 111.868 188.501 112.366C188.947 112.864 189.17 113.527 189.17 114.354V114.417C189.17 114.931 189.071 115.394 188.872 115.804C188.677 116.211 188.395 116.528 188.027 116.756C187.663 116.984 187.243 117.098 186.768 117.098C186.051 117.098 185.47 116.849 185.024 116.351C184.582 115.853 184.36 115.193 184.36 114.373V114.31ZM185.269 114.417C185.269 115.003 185.404 115.473 185.674 115.828C185.947 116.183 186.312 116.36 186.768 116.36C187.227 116.36 187.591 116.181 187.861 115.823C188.132 115.462 188.267 114.957 188.267 114.31C188.267 113.73 188.128 113.261 187.852 112.903C187.578 112.542 187.214 112.361 186.758 112.361C186.312 112.361 185.952 112.539 185.679 112.894C185.405 113.248 185.269 113.756 185.269 114.417ZM191.157 111.717L191.187 112.381C191.59 111.873 192.118 111.619 192.769 111.619C193.885 111.619 194.448 112.249 194.458 113.509V117H193.555V113.504C193.551 113.123 193.464 112.841 193.291 112.659C193.122 112.477 192.856 112.386 192.495 112.386C192.202 112.386 191.945 112.464 191.724 112.62C191.502 112.776 191.33 112.981 191.206 113.235V117H190.303V111.717H191.157ZM196.802 117H195.898V111.717H196.802V117ZM195.825 110.315C195.825 110.169 195.869 110.045 195.957 109.944C196.048 109.843 196.182 109.793 196.357 109.793C196.533 109.793 196.667 109.843 196.758 109.944C196.849 110.045 196.895 110.169 196.895 110.315C196.895 110.462 196.849 110.584 196.758 110.682C196.667 110.779 196.533 110.828 196.357 110.828C196.182 110.828 196.048 110.779 195.957 110.682C195.869 110.584 195.825 110.462 195.825 110.315ZM201.514 117C201.462 116.896 201.419 116.71 201.387 116.443C200.967 116.88 200.465 117.098 199.883 117.098C199.362 117.098 198.934 116.951 198.599 116.658C198.267 116.362 198.101 115.988 198.101 115.535C198.101 114.985 198.309 114.559 198.726 114.256C199.146 113.95 199.735 113.797 200.493 113.797H201.372V113.382C201.372 113.066 201.278 112.815 201.089 112.63C200.9 112.441 200.622 112.347 200.254 112.347C199.932 112.347 199.661 112.428 199.443 112.591C199.225 112.754 199.116 112.951 199.116 113.182H198.208C198.208 112.918 198.301 112.664 198.486 112.42C198.675 112.173 198.929 111.977 199.248 111.834C199.57 111.691 199.924 111.619 200.308 111.619C200.916 111.619 201.393 111.772 201.738 112.078C202.083 112.381 202.262 112.799 202.275 113.333V115.765C202.275 116.25 202.337 116.635 202.461 116.922V117H201.514ZM200.015 116.312C200.298 116.312 200.566 116.238 200.82 116.092C201.074 115.945 201.258 115.755 201.372 115.521V114.437H200.664C199.557 114.437 199.004 114.76 199.004 115.408C199.004 115.691 199.098 115.913 199.287 116.072C199.476 116.232 199.718 116.312 200.015 116.312ZM204.546 111.717L204.575 112.381C204.979 111.873 205.506 111.619 206.157 111.619C207.274 111.619 207.837 112.249 207.847 113.509V117H206.943V113.504C206.94 113.123 206.852 112.841 206.68 112.659C206.51 112.477 206.245 112.386 205.884 112.386C205.591 112.386 205.334 112.464 205.112 112.62C204.891 112.776 204.718 112.981 204.595 113.235V117H203.691V111.717H204.546ZM99.082 121.891V126.725C99.0788 127.395 98.8672 127.944 98.4473 128.37C98.0306 128.797 97.4642 129.036 96.748 129.088L96.499 129.098C95.721 129.098 95.1009 128.888 94.6387 128.468C94.1764 128.048 93.9421 127.47 93.9355 126.734V121.891H94.8633V126.705C94.8633 127.219 95.0049 127.62 95.2881 127.906C95.5713 128.189 95.9749 128.331 96.499 128.331C97.0296 128.331 97.4349 128.189 97.7148 127.906C97.998 127.623 98.1396 127.224 98.1396 126.71V121.891H99.082ZM101.274 123.717L101.304 124.381C101.707 123.873 102.235 123.619 102.886 123.619C104.002 123.619 104.565 124.249 104.575 125.509V129H103.672V125.504C103.669 125.123 103.581 124.841 103.408 124.659C103.239 124.477 102.974 124.386 102.612 124.386C102.319 124.386 102.062 124.464 101.841 124.62C101.619 124.776 101.447 124.981 101.323 125.235V129H100.42V123.717H101.274ZM106.919 129H106.016V123.717H106.919V129ZM105.942 122.315C105.942 122.169 105.986 122.045 106.074 121.944C106.165 121.843 106.299 121.793 106.475 121.793C106.65 121.793 106.784 121.843 106.875 121.944C106.966 122.045 107.012 122.169 107.012 122.315C107.012 122.462 106.966 122.584 106.875 122.682C106.784 122.779 106.65 122.828 106.475 122.828C106.299 122.828 106.165 122.779 106.074 122.682C105.986 122.584 105.942 122.462 105.942 122.315ZM110.112 127.774L111.421 123.717H112.344L110.449 129H109.761L107.847 123.717H108.77L110.112 127.774ZM115.337 129.098C114.621 129.098 114.038 128.863 113.589 128.395C113.14 127.923 112.915 127.293 112.915 126.505V126.339C112.915 125.815 113.014 125.348 113.213 124.938C113.415 124.524 113.695 124.202 114.053 123.971C114.414 123.736 114.805 123.619 115.225 123.619C115.911 123.619 116.445 123.845 116.826 124.298C117.207 124.75 117.397 125.398 117.397 126.241V126.617H113.818C113.831 127.138 113.983 127.56 114.272 127.882C114.565 128.201 114.937 128.36 115.386 128.36C115.705 128.36 115.975 128.295 116.196 128.165C116.418 128.035 116.611 127.862 116.777 127.647L117.329 128.077C116.886 128.757 116.222 129.098 115.337 129.098ZM115.225 124.361C114.86 124.361 114.554 124.495 114.307 124.762C114.059 125.025 113.906 125.396 113.848 125.875H116.494V125.807C116.468 125.348 116.344 124.993 116.123 124.742C115.902 124.488 115.602 124.361 115.225 124.361ZM121.001 124.527C120.864 124.505 120.716 124.493 120.557 124.493C119.964 124.493 119.562 124.745 119.351 125.25V129H118.447V123.717H119.326L119.341 124.327C119.637 123.855 120.057 123.619 120.601 123.619C120.776 123.619 120.91 123.642 121.001 123.688V124.527ZM124.912 127.599C124.912 127.354 124.819 127.166 124.634 127.032C124.451 126.896 124.131 126.778 123.672 126.681C123.216 126.583 122.853 126.466 122.583 126.329C122.316 126.192 122.118 126.03 121.987 125.841C121.86 125.652 121.797 125.427 121.797 125.167C121.797 124.734 121.979 124.368 122.344 124.068C122.712 123.769 123.18 123.619 123.75 123.619C124.349 123.619 124.834 123.774 125.205 124.083C125.579 124.392 125.767 124.788 125.767 125.27H124.858C124.858 125.022 124.753 124.809 124.541 124.63C124.333 124.451 124.069 124.361 123.75 124.361C123.421 124.361 123.164 124.433 122.979 124.576C122.793 124.719 122.7 124.907 122.7 125.138C122.7 125.356 122.786 125.52 122.959 125.631C123.132 125.742 123.442 125.847 123.892 125.948C124.344 126.049 124.71 126.17 124.99 126.31C125.27 126.45 125.477 126.619 125.61 126.817C125.747 127.013 125.815 127.252 125.815 127.535C125.815 128.007 125.627 128.386 125.249 128.673C124.871 128.956 124.382 129.098 123.779 129.098C123.356 129.098 122.982 129.023 122.656 128.873C122.331 128.723 122.075 128.515 121.89 128.248C121.707 127.978 121.616 127.687 121.616 127.374H122.52C122.536 127.677 122.656 127.918 122.881 128.097C123.109 128.272 123.408 128.36 123.779 128.36C124.121 128.36 124.395 128.292 124.6 128.155C124.808 128.015 124.912 127.83 124.912 127.599ZM127.974 129H127.07V123.717H127.974V129ZM126.997 122.315C126.997 122.169 127.041 122.045 127.129 121.944C127.22 121.843 127.354 121.793 127.529 121.793C127.705 121.793 127.839 121.843 127.93 121.944C128.021 122.045 128.066 122.169 128.066 122.315C128.066 122.462 128.021 122.584 127.93 122.682C127.839 122.779 127.705 122.828 127.529 122.828C127.354 122.828 127.22 122.779 127.129 122.682C127.041 122.584 126.997 122.462 126.997 122.315ZM130.649 122.438V123.717H131.636V124.415H130.649V127.691C130.649 127.903 130.693 128.062 130.781 128.17C130.869 128.274 131.019 128.326 131.23 128.326C131.335 128.326 131.478 128.307 131.66 128.268V129C131.423 129.065 131.191 129.098 130.967 129.098C130.563 129.098 130.259 128.976 130.054 128.731C129.849 128.487 129.746 128.141 129.746 127.691V124.415H128.784V123.717H129.746V122.438H130.649ZM134.424 127.677L135.654 123.717H136.621L134.497 129.815C134.168 130.694 133.646 131.134 132.93 131.134L132.759 131.119L132.422 131.056V130.323L132.666 130.343C132.972 130.343 133.21 130.281 133.379 130.157C133.551 130.034 133.693 129.807 133.804 129.479L134.004 128.941L132.119 123.717H133.105L134.424 127.677ZM90.6592 138.734C90.5225 139.47 90.1888 140.053 89.6582 140.482C89.1309 140.912 88.4977 141.117 87.7588 141.098C87.3193 141.088 86.9352 140.98 86.6064 140.775C86.2777 140.567 86.0221 140.269 85.8398 139.882C85.6576 139.491 85.5566 139.06 85.5371 138.588C85.5241 138.321 85.5355 138.061 85.5713 137.807L85.6543 137.221C85.8073 136.153 86.1816 135.312 86.7773 134.696C87.3763 134.078 88.1038 133.777 88.96 133.793C89.6273 133.806 90.1562 134.022 90.5469 134.442C90.9375 134.859 91.1442 135.438 91.167 136.181H90.2539C90.2116 135.185 89.821 134.647 89.082 134.569L88.9209 134.56C88.3057 134.543 87.7913 134.773 87.3779 135.248C86.9678 135.72 86.7025 136.366 86.582 137.187L86.4746 137.924L86.4453 138.354C86.4258 138.952 86.5316 139.429 86.7627 139.784C86.9971 140.136 87.3438 140.318 87.8027 140.331C88.2975 140.347 88.7061 140.229 89.0283 139.975C89.3538 139.721 89.6012 139.312 89.7705 138.749L90.6592 138.734ZM92.4268 141H91.5479L92.8467 133.5H93.7305L92.4268 141ZM97.1045 141C97.0817 140.906 97.0703 140.813 97.0703 140.722L97.085 140.443C96.5999 140.893 96.0856 141.111 95.542 141.098C95.0765 141.091 94.6973 140.945 94.4043 140.658C94.1146 140.368 93.9827 140.007 94.0088 139.574C94.0413 139.014 94.2855 138.578 94.7412 138.266C95.2002 137.95 95.8024 137.792 96.5479 137.792L97.4707 137.797L97.5293 137.377C97.5618 137.061 97.5 136.812 97.3438 136.63C97.1908 136.444 96.9596 136.348 96.6504 136.342C96.3477 136.335 96.0791 136.41 95.8447 136.566C95.6136 136.719 95.472 136.923 95.4199 137.177L94.5312 137.182C94.5605 136.872 94.681 136.599 94.8926 136.361C95.1042 136.12 95.376 135.935 95.708 135.805C96.04 135.671 96.3835 135.608 96.7383 135.614C97.2884 135.627 97.7165 135.795 98.0225 136.117C98.3285 136.436 98.457 136.861 98.4082 137.392L97.9785 140.009L97.9541 140.385C97.9476 140.564 97.9671 140.741 98.0127 140.917L98.0029 141H97.1045ZM95.7178 140.316C96.001 140.323 96.2679 140.256 96.5186 140.116C96.7725 139.973 96.9906 139.776 97.1729 139.525L97.3633 138.437L96.6943 138.432C96.1377 138.432 95.7113 138.52 95.415 138.695C95.1188 138.871 94.9512 139.12 94.9121 139.442C94.8828 139.69 94.9398 139.896 95.083 140.062C95.2295 140.225 95.4411 140.31 95.7178 140.316ZM102.476 139.569C102.524 139.205 102.324 138.948 101.875 138.798L100.957 138.529C100.182 138.262 99.8079 137.82 99.834 137.201C99.8568 136.736 100.068 136.355 100.469 136.059C100.872 135.759 101.346 135.613 101.89 135.619C102.424 135.626 102.856 135.782 103.188 136.088C103.524 136.391 103.685 136.786 103.672 137.274L102.793 137.27C102.799 137.006 102.716 136.791 102.544 136.625C102.371 136.459 102.142 136.373 101.855 136.366C101.549 136.36 101.286 136.435 101.064 136.591C100.859 136.737 100.741 136.929 100.708 137.167C100.666 137.473 100.853 137.696 101.27 137.836L101.714 137.958C102.319 138.114 102.749 138.318 103.003 138.568C103.257 138.819 103.374 139.13 103.354 139.501C103.335 139.83 103.228 140.116 103.032 140.36C102.837 140.604 102.576 140.792 102.251 140.922C101.925 141.049 101.579 141.107 101.211 141.098C100.651 141.091 100.189 140.928 99.8242 140.609C99.4596 140.287 99.2839 139.874 99.2969 139.369L100.181 139.374C100.181 139.67 100.275 139.908 100.464 140.087C100.653 140.266 100.911 140.355 101.24 140.355C101.562 140.362 101.841 140.295 102.075 140.155C102.31 140.012 102.443 139.817 102.476 139.569ZM107.524 139.569C107.573 139.205 107.373 138.948 106.924 138.798L106.006 138.529C105.231 138.262 104.857 137.82 104.883 137.201C104.906 136.736 105.117 136.355 105.518 136.059C105.921 135.759 106.395 135.613 106.938 135.619C107.472 135.626 107.905 135.782 108.237 136.088C108.573 136.391 108.734 136.786 108.721 137.274L107.842 137.27C107.848 137.006 107.765 136.791 107.593 136.625C107.42 136.459 107.191 136.373 106.904 136.366C106.598 136.36 106.335 136.435 106.113 136.591C105.908 136.737 105.789 136.929 105.757 137.167C105.715 137.473 105.902 137.696 106.318 137.836L106.763 137.958C107.368 138.114 107.798 138.318 108.052 138.568C108.306 138.819 108.423 139.13 108.403 139.501C108.384 139.83 108.276 140.116 108.081 140.36C107.886 140.604 107.625 140.792 107.3 140.922C106.974 141.049 106.628 141.107 106.26 141.098C105.7 141.091 105.238 140.928 104.873 140.609C104.508 140.287 104.333 139.874 104.346 139.369L105.229 139.374C105.229 139.67 105.324 139.908 105.513 140.087C105.701 140.266 105.96 140.355 106.289 140.355C106.611 140.362 106.89 140.295 107.124 140.155C107.358 140.012 107.492 139.817 107.524 139.569ZM114.688 135.619C115.13 135.626 115.509 135.746 115.825 135.98C116.141 136.215 116.374 136.539 116.523 136.952C116.676 137.362 116.729 137.812 116.68 138.3L116.67 138.407C116.608 138.922 116.455 139.387 116.211 139.804C115.967 140.217 115.651 140.539 115.264 140.771C114.876 141.002 114.451 141.111 113.989 141.098C113.55 141.091 113.171 140.971 112.852 140.736C112.536 140.502 112.305 140.183 112.158 139.779C112.012 139.376 111.96 138.931 112.002 138.446C112.051 137.899 112.199 137.408 112.446 136.972C112.694 136.535 113.011 136.199 113.398 135.961C113.789 135.72 114.219 135.606 114.688 135.619ZM112.891 138.451C112.868 138.656 112.868 138.869 112.891 139.091C112.923 139.475 113.037 139.781 113.232 140.009C113.431 140.237 113.695 140.355 114.023 140.365C114.316 140.375 114.587 140.303 114.834 140.15C115.081 139.994 115.29 139.76 115.459 139.447C115.628 139.135 115.737 138.788 115.786 138.407C115.812 138.108 115.817 137.855 115.801 137.65C115.762 137.257 115.643 136.946 115.444 136.718C115.246 136.49 114.982 136.369 114.653 136.356C114.198 136.347 113.81 136.526 113.491 136.894C113.172 137.261 112.975 137.743 112.9 138.339L112.891 138.451ZM117.769 141L118.569 136.415H117.754L117.876 135.717H118.687L118.774 135.092C118.859 134.561 119.064 134.146 119.39 133.847C119.731 133.534 120.168 133.381 120.698 133.388C120.864 133.388 121.074 133.415 121.328 133.471L121.221 134.208C121.064 134.175 120.907 134.156 120.747 134.149C120.441 134.149 120.192 134.245 120 134.438C119.811 134.626 119.694 134.879 119.648 135.194L119.57 135.717H120.664L120.542 136.415H119.448L118.652 141H117.769ZM127.695 141H123.169L123.276 140.312L125.898 137.763L126.377 137.289C126.927 136.739 127.231 136.231 127.29 135.766C127.332 135.408 127.262 135.116 127.08 134.892C126.898 134.664 126.641 134.543 126.309 134.53C125.882 134.517 125.526 134.643 125.239 134.906C124.953 135.167 124.779 135.525 124.717 135.98L123.843 135.985C123.885 135.549 124.019 135.163 124.243 134.828C124.471 134.49 124.769 134.231 125.137 134.052C125.508 133.869 125.91 133.783 126.343 133.793C126.932 133.806 127.399 133.985 127.744 134.33C128.092 134.672 128.242 135.116 128.193 135.663C128.138 136.288 127.778 136.946 127.114 137.636L126.665 138.09L124.38 140.263H127.812L127.695 141ZM130.859 141.098C130.26 141.085 129.811 140.873 129.512 140.463C129.212 140.049 129.076 139.455 129.102 138.681C129.108 138.44 129.126 138.202 129.155 137.968L129.331 136.781C129.487 135.769 129.785 135.014 130.225 134.516C130.664 134.018 131.243 133.777 131.963 133.793C132.568 133.806 133.019 134.014 133.315 134.418C133.615 134.818 133.753 135.401 133.73 136.166C133.721 136.41 133.701 136.649 133.672 136.884L133.501 138.031C133.328 139.102 133.024 139.885 132.588 140.38C132.152 140.875 131.576 141.114 130.859 141.098ZM132.817 136.723C132.863 136.329 132.884 136.023 132.881 135.805C132.865 134.978 132.544 134.553 131.919 134.53C131.463 134.514 131.094 134.683 130.811 135.038C130.531 135.39 130.335 135.943 130.225 136.698L130.015 138.114C129.969 138.492 129.948 138.799 129.951 139.037C129.967 139.9 130.286 140.342 130.908 140.365C131.341 140.385 131.698 140.225 131.978 139.887C132.261 139.548 132.463 139.011 132.583 138.275L132.817 136.723ZM138.691 141H134.165L134.272 140.312L136.895 137.763L137.373 137.289C137.923 136.739 138.228 136.231 138.286 135.766C138.328 135.408 138.258 135.116 138.076 134.892C137.894 134.664 137.637 134.543 137.305 134.53C136.878 134.517 136.522 134.643 136.235 134.906C135.949 135.167 135.775 135.525 135.713 135.98L134.839 135.985C134.881 135.549 135.015 135.163 135.239 134.828C135.467 134.49 135.765 134.231 136.133 134.052C136.504 133.869 136.906 133.783 137.339 133.793C137.928 133.806 138.395 133.985 138.74 134.33C139.089 134.672 139.238 135.116 139.189 135.663C139.134 136.288 138.774 136.946 138.11 137.636L137.661 138.09L135.376 140.263H138.809L138.691 141ZM141.855 141.098C141.257 141.085 140.807 140.873 140.508 140.463C140.208 140.049 140.072 139.455 140.098 138.681C140.104 138.44 140.122 138.202 140.151 137.968L140.327 136.781C140.483 135.769 140.781 135.014 141.221 134.516C141.66 134.018 142.24 133.777 142.959 133.793C143.564 133.806 144.015 134.014 144.312 134.418C144.611 134.818 144.749 135.401 144.727 136.166C144.717 136.41 144.697 136.649 144.668 136.884L144.497 138.031C144.325 139.102 144.02 139.885 143.584 140.38C143.148 140.875 142.572 141.114 141.855 141.098ZM143.813 136.723C143.859 136.329 143.88 136.023 143.877 135.805C143.861 134.978 143.54 134.553 142.915 134.53C142.459 134.514 142.09 134.683 141.807 135.038C141.527 135.39 141.331 135.943 141.221 136.698L141.011 138.114C140.965 138.492 140.944 138.799 140.947 139.037C140.964 139.9 141.283 140.342 141.904 140.365C142.337 140.385 142.694 140.225 142.974 139.887C143.257 139.548 143.459 139.011 143.579 138.275L143.813 136.723Z" fill="black"/>
<path d="M100.417 48.458V54.3122C100.417 55.833 101.25 57.2497 102.583 57.9788L113 63.6663C114.25 64.3538 115.75 64.3538 117 63.6663L127.417 57.9788C128.75 57.2497 129.583 55.833 129.583 54.3122V48.458L117 55.333C115.75 56.0205 114.25 56.0205 113 55.333L100.417 48.458ZM113 28.333L95.4375 37.9163C94 38.708 94 40.7913 95.4375 41.583L113 51.1663C114.25 51.8538 115.75 51.8538 117 51.1663L133.75 42.0205V54.333C133.75 55.4788 134.687 56.4163 135.833 56.4163C136.979 56.4163 137.917 55.4788 137.917 54.333V40.9788C137.917 40.208 137.5 39.5205 136.833 39.1455L117 28.333C115.75 27.6663 114.25 27.6663 113 28.333V28.333Z" fill="#8C4357"/>
<defs>
<filter id="filter0_d" x="0" y="0" width="229" height="229" filterUnits="userSpaceOnUse" color-interpolation-filters="sRGB">
<feFlood flood-opacity="0" result="BackgroundImageFix"/>
<feColorMatrix in="SourceAlpha" type="matrix" values="0 0 0 0 0 0 0 0 0 0 0 0 0 0 0 0 0 0 127 0" result="hardAlpha"/>
<feOffset dy="4"/>
<feGaussianBlur stdDeviation="2"/>
<feComposite in2="hardAlpha" operator="out"/>
<feColorMatrix type="matrix" values="0 0 0 0 0 0 0 0 0 0 0 0 0 0 0 0 0 0 0.15 0"/>
<feBlend mode="normal" in2="BackgroundImageFix" result="effect1_dropShadow"/>
<feBlend mode="normal" in="SourceGraphic" in2="effect1_dropShadow" result="shape"/>
</filter>
</defs>
</svg>
